G04*
G04 #@! TF.GenerationSoftware,Altium Limited,Altium Designer,25.8.1 (18)*
G04*
G04 Layer_Color=8150272*
%FSLAX44Y44*%
%MOMM*%
G71*
G04*
G04 #@! TF.SameCoordinates,76810562-5797-4D89-AFA6-D846846B59B0*
G04*
G04*
G04 #@! TF.FilePolarity,Negative*
G04*
G01*
G75*
%ADD36C,5.0800*%
%ADD54C,2.7032*%
%ADD55C,0.2032*%
%ADD56C,6.5032*%
%ADD57R,0.2032X0.2032*%
%ADD58R,1.1032X1.5032*%
%ADD59C,2.6032*%
%ADD60R,0.2032X0.2032*%
%ADD61C,7.6032*%
%ADD65C,2.5400*%
D36*
X649156Y3795548D02*
G03*
X589156Y3735548I0J-60000D01*
G01*
X4489156Y3735547D02*
G03*
X4429156Y3795547I-60000J-0D01*
G01*
X4429156Y2475548D02*
G03*
X4489156Y2535548I0J60000D01*
G01*
X589156Y2535548D02*
G03*
X649156Y2475548I60000J0D01*
G01*
X589156Y2535548D02*
Y3735548D01*
X649156Y3795548D02*
X4429156Y3795547D01*
X4489156Y2535548D02*
Y3735547D01*
X649156Y2475548D02*
X4429156Y2475548D01*
D54*
X3814156Y3215548D02*
D03*
X3074156D02*
D03*
X2334156D02*
D03*
X1594156D02*
D03*
X4334156Y2885548D02*
D03*
X3694156D02*
D03*
Y3385548D02*
D03*
X4334156D02*
D03*
X3594156Y2885548D02*
D03*
X2954156D02*
D03*
Y3385548D02*
D03*
X3594156D02*
D03*
X2854156Y2885548D02*
D03*
X2214156D02*
D03*
Y3385548D02*
D03*
X2854156D02*
D03*
X2114156Y2885548D02*
D03*
X1474156D02*
D03*
Y3385548D02*
D03*
X2114156D02*
D03*
X4294156Y3175548D02*
D03*
X3814156Y3095548D02*
D03*
X4294156Y3115548D02*
D03*
Y3145548D02*
D03*
X3814156Y3165548D02*
D03*
X4064156Y3355548D02*
D03*
X3963356Y3357798D02*
D03*
X4104156Y3355548D02*
D03*
X4024156Y2905548D02*
D03*
X4074156D02*
D03*
X3984156D02*
D03*
X3814156Y2985548D02*
D03*
X4244156Y3025548D02*
D03*
Y2985548D02*
D03*
X3964156Y3085548D02*
D03*
X4074156Y2985548D02*
D03*
X3925256Y3357798D02*
D03*
X4194156Y3105548D02*
D03*
X4214156Y3155548D02*
D03*
X4264791Y3223558D02*
D03*
X4224156Y3225548D02*
D03*
X4299144Y3225210D02*
D03*
X4294156Y3085548D02*
D03*
X3994156Y3375548D02*
D03*
X4114156Y2905548D02*
D03*
X3554156Y3175548D02*
D03*
X3074156Y3095548D02*
D03*
X3554156Y3115548D02*
D03*
Y3145548D02*
D03*
X3074156Y3165548D02*
D03*
X3324156Y3355548D02*
D03*
X3223356Y3357798D02*
D03*
X3364156Y3355548D02*
D03*
X3284156Y2905548D02*
D03*
X3334156D02*
D03*
X3244156D02*
D03*
X3074156Y2985548D02*
D03*
X3504156Y3025548D02*
D03*
Y2985548D02*
D03*
X3224156Y3085548D02*
D03*
X3334156Y2985548D02*
D03*
X3185256Y3357798D02*
D03*
X3454156Y3105548D02*
D03*
X3474156Y3155548D02*
D03*
X3524791Y3223558D02*
D03*
X3484156Y3225548D02*
D03*
X3559144Y3225210D02*
D03*
X3554156Y3085548D02*
D03*
X3254156Y3375548D02*
D03*
X3374156Y2905548D02*
D03*
X2814156Y3175548D02*
D03*
X2334156Y3095548D02*
D03*
X2814156Y3115548D02*
D03*
Y3145548D02*
D03*
X2334156Y3165548D02*
D03*
X2584156Y3355548D02*
D03*
X2483356Y3357798D02*
D03*
X2624156Y3355548D02*
D03*
X2544156Y2905548D02*
D03*
X2594156D02*
D03*
X2504156D02*
D03*
X2334156Y2985548D02*
D03*
X2764156Y3025548D02*
D03*
Y2985548D02*
D03*
X2484156Y3085548D02*
D03*
X2594156Y2985548D02*
D03*
X2445256Y3357798D02*
D03*
X2714156Y3105548D02*
D03*
X2734156Y3155548D02*
D03*
X2784791Y3223558D02*
D03*
X2744156Y3225548D02*
D03*
X2819144Y3225210D02*
D03*
X2814156Y3085548D02*
D03*
X2514156Y3375548D02*
D03*
X2634156Y2905548D02*
D03*
X3963356Y3306998D02*
D03*
X3223356D02*
D03*
X2483356D02*
D03*
X2074156Y3175548D02*
D03*
X1594156Y3095548D02*
D03*
X2074156Y3115548D02*
D03*
Y3145548D02*
D03*
X1594156Y3165548D02*
D03*
X1844156Y3355548D02*
D03*
X1743356Y3357798D02*
D03*
X1884156Y3355548D02*
D03*
X1804156Y2905548D02*
D03*
X1854156D02*
D03*
X1764156D02*
D03*
X1594156Y2985548D02*
D03*
X2024156Y3025548D02*
D03*
Y2985548D02*
D03*
X1744156Y3085548D02*
D03*
X1854156Y2985548D02*
D03*
X1705256Y3357798D02*
D03*
X1974156Y3105548D02*
D03*
X1994156Y3155548D02*
D03*
X2044791Y3223558D02*
D03*
X2004156Y3225548D02*
D03*
X2079144Y3225210D02*
D03*
X2074156Y3085548D02*
D03*
X1774156Y3375548D02*
D03*
X1894156Y2905548D02*
D03*
X1743356Y3306998D02*
D03*
D55*
X4429156Y2510798D02*
D03*
X4452026Y2526078D02*
D03*
X4446656Y2518048D02*
D03*
X4438628Y2512682D02*
D03*
X4404406Y2535548D02*
D03*
X4419687Y2512678D02*
D03*
X4411656Y2518048D02*
D03*
X4406291Y2526077D02*
D03*
X4429156Y2560298D02*
D03*
X4406287Y2545018D02*
D03*
X4411656Y2553048D02*
D03*
X4419685Y2558414D02*
D03*
X4453907Y2535548D02*
D03*
X4438626Y2558418D02*
D03*
X4446656Y2553048D02*
D03*
X4452022Y2545019D02*
D03*
X2534330Y2510798D02*
D03*
X2557200Y2526078D02*
D03*
X2551830Y2518048D02*
D03*
X2543802Y2512682D02*
D03*
X2509581Y2535548D02*
D03*
X2524861Y2512678D02*
D03*
X2516830Y2518048D02*
D03*
X2511465Y2526077D02*
D03*
X2534330Y2560298D02*
D03*
X2511461Y2545018D02*
D03*
X2516830Y2553048D02*
D03*
X2524859Y2558414D02*
D03*
X2559081Y2535548D02*
D03*
X2543801Y2558418D02*
D03*
X2551830Y2553048D02*
D03*
X2557197Y2545019D02*
D03*
X649156Y2510798D02*
D03*
X672027Y2526078D02*
D03*
X666656Y2518048D02*
D03*
X658627Y2512682D02*
D03*
X624407Y2535548D02*
D03*
X639687Y2512678D02*
D03*
X631656Y2518048D02*
D03*
X626291Y2526077D02*
D03*
X649156Y2560298D02*
D03*
X626287Y2545018D02*
D03*
X631656Y2553048D02*
D03*
X639686Y2558414D02*
D03*
X673906Y2535548D02*
D03*
X658626Y2558418D02*
D03*
X666656Y2553048D02*
D03*
X672022Y2545019D02*
D03*
X649156Y3710798D02*
D03*
X672027Y3726078D02*
D03*
X666656Y3718048D02*
D03*
X658627Y3712682D02*
D03*
X624407Y3735548D02*
D03*
X639687Y3712678D02*
D03*
X631656Y3718048D02*
D03*
X626291Y3726077D02*
D03*
X649156Y3760298D02*
D03*
X626287Y3745018D02*
D03*
X631656Y3753048D02*
D03*
X639686Y3758414D02*
D03*
X673906Y3735548D02*
D03*
X658626Y3758418D02*
D03*
X666656Y3753048D02*
D03*
X672022Y3745019D02*
D03*
X2539156Y3710798D02*
D03*
X2562026Y3726078D02*
D03*
X2556656Y3718048D02*
D03*
X2548627Y3712682D02*
D03*
X2514406Y3735548D02*
D03*
X2529686Y3712678D02*
D03*
X2521656Y3718048D02*
D03*
X2516290Y3726077D02*
D03*
X2539156Y3760298D02*
D03*
X2516286Y3745018D02*
D03*
X2521656Y3753048D02*
D03*
X2529686Y3758414D02*
D03*
X2563907Y3735548D02*
D03*
X2548627Y3758418D02*
D03*
X2556656Y3753048D02*
D03*
X2562022Y3745019D02*
D03*
X4429156Y3710798D02*
D03*
X4452026Y3726078D02*
D03*
X4446656Y3718048D02*
D03*
X4438628Y3712682D02*
D03*
X4404406Y3735548D02*
D03*
X4419687Y3712678D02*
D03*
X4411656Y3718048D02*
D03*
X4406291Y3726077D02*
D03*
X4429156Y3760298D02*
D03*
X4406287Y3745018D02*
D03*
X4411656Y3753048D02*
D03*
X4419685Y3758414D02*
D03*
X4453907Y3735548D02*
D03*
X4438626Y3758418D02*
D03*
X4446656Y3753048D02*
D03*
X4452022Y3745019D02*
D03*
X3802256Y3565548D02*
D03*
X3726057D02*
D03*
X3062256D02*
D03*
X2986057D02*
D03*
X2322256D02*
D03*
X2246056D02*
D03*
X1582256D02*
D03*
X1506056D02*
D03*
D56*
X4429156Y2535548D02*
D03*
X2534330D02*
D03*
X649156D02*
D03*
Y3735548D02*
D03*
X2539156D02*
D03*
X4429156D02*
D03*
D57*
X4250600Y3622607D02*
D03*
X4220600Y3514607D02*
D03*
X3510600Y3622607D02*
D03*
X3480600Y3514607D02*
D03*
X2770600Y3622607D02*
D03*
X2740600Y3514607D02*
D03*
X2030600Y3622607D02*
D03*
X2000600Y3514607D02*
D03*
D58*
X4249901Y3526357D02*
D03*
X4221300D02*
D03*
Y3610855D02*
D03*
X4249901Y3610857D02*
D03*
X3509901Y3526357D02*
D03*
X3481300D02*
D03*
Y3610855D02*
D03*
X3509901Y3610857D02*
D03*
X2769901Y3526357D02*
D03*
X2741300D02*
D03*
Y3610855D02*
D03*
X2769901Y3610857D02*
D03*
X2029901Y3526357D02*
D03*
X2001300D02*
D03*
Y3610855D02*
D03*
X2029901Y3610857D02*
D03*
D59*
X824156Y3560548D02*
D03*
Y3610548D02*
D03*
X754156Y3560548D02*
D03*
Y3610548D02*
D03*
X789156Y3560548D02*
D03*
Y3610548D02*
D03*
X789156Y2660548D02*
D03*
Y2710548D02*
D03*
X824156Y2660548D02*
D03*
Y2710548D02*
D03*
X754156Y2660548D02*
D03*
Y2710548D02*
D03*
D60*
X4132806Y3604848D02*
D03*
X4094706D02*
D03*
X3392806D02*
D03*
X3354706D02*
D03*
X2652806D02*
D03*
X2614706D02*
D03*
X1912807D02*
D03*
X1874707D02*
D03*
D61*
X3771841Y3377864D02*
D03*
X4256472D02*
D03*
X3031841D02*
D03*
X3516472D02*
D03*
X2291840D02*
D03*
X2776472D02*
D03*
X1551840D02*
D03*
X2036472D02*
D03*
X3771841Y2893232D02*
D03*
X4256472D02*
D03*
X3031841D02*
D03*
X3516472D02*
D03*
X2291840D02*
D03*
X2776472D02*
D03*
X1551840D02*
D03*
X2036472D02*
D03*
D65*
X589156Y315548D02*
G03*
X649156Y255548I60000J0D01*
G01*
X4429156D02*
G03*
X4489156Y315548I0J60000D01*
G01*
X4489156Y3735548D02*
G03*
X4429156Y3795547I-60000J-0D01*
G01*
X649156Y3795548D02*
G03*
X589156Y3735548I0J-60000D01*
G01*
X649156Y255548D02*
X4429156D01*
X4489156Y315548D02*
Y3735548D01*
X649156Y3795548D02*
X4429156Y3795547D01*
X589156Y315548D02*
Y3735548D01*
M02*
