G04*
G04 #@! TF.GenerationSoftware,Altium Limited,Altium Designer,25.8.1 (18)*
G04*
G04 Layer_Physical_Order=2*
G04 Layer_Color=13010237*
%FSLAX44Y44*%
%MOMM*%
G71*
G04*
G04 #@! TF.SameCoordinates,76810562-5797-4D89-AFA6-D846846B59B0*
G04*
G04*
G04 #@! TF.FilePolarity,Positive*
G04*
G01*
G75*
%ADD63C,0.1524*%
%ADD64C,0.7620*%
%ADD65C,2.5400*%
%ADD66C,0.2032*%
%ADD68C,0.5080*%
%ADD69C,2.5000*%
%ADD70C,6.3000*%
%ADD71R,0.9000X1.3000*%
%ADD72C,2.4000*%
%ADD73C,7.4000*%
%ADD74C,0.8128*%
%ADD75C,1.2700*%
G36*
X2131232Y3054776D02*
X1853274D01*
X1717954Y3190096D01*
X1774994Y3247136D01*
X1775724Y3248228D01*
X1775980Y3249517D01*
Y3337276D01*
X1857275Y3418571D01*
X1858005Y3419663D01*
X1858261Y3420952D01*
Y3605993D01*
X1873307Y3621039D01*
X1924397D01*
X1924794Y3620351D01*
X1926024Y3619121D01*
X1927529Y3618252D01*
X1929209Y3617802D01*
X1930948D01*
X1932628Y3618252D01*
X1934133Y3619121D01*
X1935363Y3620351D01*
X1936232Y3621857D01*
X1936682Y3623536D01*
Y3625275D01*
X1936232Y3626955D01*
X1935363Y3628461D01*
X1934133Y3629690D01*
X1932628Y3630560D01*
X1930948Y3631010D01*
X1929209D01*
X1927529Y3630560D01*
X1926024Y3629690D01*
X1924794Y3628461D01*
X1924397Y3627773D01*
X1871913D01*
X1870624Y3627516D01*
X1869532Y3626786D01*
X1852514Y3609768D01*
X1851784Y3608676D01*
X1851528Y3607388D01*
Y3422346D01*
X1770233Y3341051D01*
X1769503Y3339959D01*
X1769247Y3338671D01*
Y3250911D01*
X1713192Y3194857D01*
X1678651Y3229398D01*
Y3424092D01*
X1678395Y3425380D01*
X1677665Y3426472D01*
X1563843Y3540294D01*
Y3602783D01*
X1568491Y3607431D01*
X1569259Y3607226D01*
X1570998D01*
X1572677Y3607676D01*
X1574183Y3608545D01*
X1575413Y3609775D01*
X1576282Y3611281D01*
X1576732Y3612960D01*
Y3614699D01*
X1576282Y3616379D01*
X1575413Y3617885D01*
X1574183Y3619114D01*
X1572677Y3619984D01*
X1570998Y3620434D01*
X1569259D01*
X1567579Y3619984D01*
X1566073Y3619114D01*
X1564844Y3617885D01*
X1563974Y3616379D01*
X1563524Y3614699D01*
Y3612960D01*
X1563730Y3612193D01*
X1558096Y3606558D01*
X1557366Y3605466D01*
X1557110Y3604178D01*
Y3538900D01*
X1557366Y3537611D01*
X1558096Y3536519D01*
X1671918Y3422697D01*
Y3228004D01*
X1672174Y3226715D01*
X1672904Y3225623D01*
X1710812Y3187715D01*
X1842578Y3055949D01*
X1842092Y3054776D01*
X1473118D01*
Y3370508D01*
X1475638D01*
X1478543Y3371086D01*
X1481281Y3372220D01*
X1483744Y3373865D01*
X1485839Y3375960D01*
X1487485Y3378423D01*
X1488618Y3381161D01*
X1489196Y3384066D01*
Y3387029D01*
X1488618Y3389935D01*
X1487485Y3392672D01*
X1485839Y3395135D01*
X1483744Y3397230D01*
X1481281Y3398876D01*
X1478543Y3400010D01*
X1475638Y3400588D01*
X1473118D01*
Y3675806D01*
X2131232D01*
Y3054776D01*
D02*
G37*
G36*
X2854864Y3400588D02*
X2852675D01*
X2849769Y3400010D01*
X2847032Y3398876D01*
X2844569Y3397230D01*
X2842474Y3395135D01*
X2840828Y3392672D01*
X2839695Y3389935D01*
X2839117Y3387029D01*
Y3384066D01*
X2839695Y3381161D01*
X2840828Y3378423D01*
X2842474Y3375960D01*
X2844569Y3373865D01*
X2847032Y3372220D01*
X2849769Y3371086D01*
X2852675Y3370508D01*
X2854864D01*
Y3343703D01*
X2853690Y3343217D01*
X2833754Y3363153D01*
Y3452194D01*
X2833360Y3454176D01*
X2832237Y3455856D01*
X2800480Y3487613D01*
Y3539220D01*
X2800585Y3539325D01*
X2801454Y3540831D01*
X2801905Y3542510D01*
Y3544249D01*
X2801454Y3545929D01*
X2800585Y3547435D01*
X2800480Y3547540D01*
Y3573955D01*
X2800086Y3575938D01*
X2798963Y3577618D01*
X2791082Y3585499D01*
Y3592052D01*
X2791187Y3592157D01*
X2792057Y3593663D01*
X2792506Y3595342D01*
Y3597081D01*
X2792057Y3598761D01*
X2791187Y3600267D01*
X2789958Y3601496D01*
X2788452Y3602366D01*
X2786772Y3602816D01*
X2785033D01*
X2783354Y3602366D01*
X2781848Y3601496D01*
X2780618Y3600267D01*
X2779749Y3598761D01*
X2779298Y3597081D01*
Y3595342D01*
X2779749Y3593663D01*
X2780618Y3592157D01*
X2780723Y3592052D01*
Y3583353D01*
X2781117Y3581371D01*
X2782240Y3579691D01*
X2790121Y3571810D01*
Y3566056D01*
X2788851Y3565888D01*
X2788755Y3566249D01*
X2787885Y3567755D01*
X2786656Y3568984D01*
X2785150Y3569854D01*
X2783470Y3570304D01*
X2781731D01*
X2780052Y3569854D01*
X2778546Y3568984D01*
X2777316Y3567755D01*
X2776919Y3567066D01*
X2740053D01*
X2735151Y3571969D01*
X2735356Y3572736D01*
Y3574475D01*
X2734907Y3576155D01*
X2734037Y3577661D01*
X2732808Y3578890D01*
X2731302Y3579760D01*
X2729622Y3580210D01*
X2727883D01*
X2726204Y3579760D01*
X2724698Y3578890D01*
X2723468Y3577661D01*
X2722599Y3576155D01*
X2722148Y3574475D01*
Y3572736D01*
X2722599Y3571057D01*
X2723468Y3569551D01*
X2724698Y3568321D01*
X2726204Y3567452D01*
X2727883Y3567002D01*
X2729622D01*
X2730390Y3567207D01*
X2736278Y3561319D01*
X2737370Y3560589D01*
X2738658Y3560333D01*
X2776919D01*
X2777316Y3559645D01*
X2778546Y3558415D01*
X2780052Y3557546D01*
X2781731Y3557096D01*
X2783470D01*
X2785150Y3557546D01*
X2786656Y3558415D01*
X2787885Y3559645D01*
X2788755Y3561151D01*
X2788851Y3561511D01*
X2790121Y3561344D01*
Y3547540D01*
X2790016Y3547435D01*
X2789146Y3545929D01*
X2788697Y3544249D01*
Y3542510D01*
X2789146Y3540831D01*
X2790016Y3539325D01*
X2790121Y3539220D01*
Y3485468D01*
X2790515Y3483486D01*
X2791638Y3481805D01*
X2823395Y3450048D01*
Y3361008D01*
X2823789Y3359026D01*
X2824912Y3357345D01*
X2854864Y3327394D01*
Y3192692D01*
X2842899Y3180727D01*
X2828290D01*
X2827485Y3182672D01*
X2825839Y3185135D01*
X2823744Y3187230D01*
X2821281Y3188876D01*
X2818543Y3190010D01*
X2815638Y3190588D01*
X2812675D01*
X2809769Y3190010D01*
X2807032Y3188876D01*
X2804569Y3187230D01*
X2802474Y3185135D01*
X2800828Y3182672D01*
X2799695Y3179935D01*
X2799117Y3177029D01*
Y3174066D01*
X2799695Y3171161D01*
X2800828Y3168423D01*
X2802474Y3165960D01*
X2804569Y3163865D01*
X2807032Y3162220D01*
X2809460Y3161214D01*
X2809534Y3160924D01*
Y3160172D01*
X2809460Y3159881D01*
X2807032Y3158876D01*
X2804569Y3157230D01*
X2802474Y3155135D01*
X2800828Y3152672D01*
X2799695Y3149935D01*
X2799117Y3147029D01*
Y3144066D01*
X2799695Y3141161D01*
X2800828Y3138423D01*
X2801406Y3137559D01*
X2798606Y3134758D01*
X2795933D01*
X2695797Y3234894D01*
Y3540117D01*
X2698367Y3542687D01*
X2699097Y3543779D01*
X2699353Y3545067D01*
Y3550328D01*
X2699097Y3551616D01*
X2698367Y3552708D01*
X2698083Y3552993D01*
Y3560273D01*
X2700953Y3563143D01*
X2701721Y3562938D01*
X2703460D01*
X2705139Y3563388D01*
X2706646Y3564257D01*
X2707875Y3565487D01*
X2708745Y3566992D01*
X2709195Y3568672D01*
Y3570411D01*
X2708745Y3572091D01*
X2707875Y3573596D01*
X2706646Y3574826D01*
X2705139Y3575695D01*
X2703460Y3576146D01*
X2701721D01*
X2700042Y3575695D01*
X2698535Y3574826D01*
X2697306Y3573596D01*
X2696436Y3572091D01*
X2695987Y3570411D01*
Y3568672D01*
X2696192Y3567905D01*
X2692336Y3564048D01*
X2691606Y3562956D01*
X2691350Y3561668D01*
Y3554949D01*
X2690506Y3554302D01*
X2688767D01*
X2687087Y3553852D01*
X2685581Y3552982D01*
X2684352Y3551753D01*
X2683482Y3550247D01*
X2683033Y3548567D01*
Y3546828D01*
X2683482Y3545149D01*
X2684352Y3543643D01*
X2685581Y3542413D01*
X2686016Y3542162D01*
Y3232237D01*
X2686272Y3230949D01*
X2687002Y3229857D01*
X2790895Y3125963D01*
X2791988Y3125233D01*
X2793276Y3124977D01*
X2799966D01*
X2801406Y3123537D01*
X2800828Y3122672D01*
X2799695Y3119935D01*
X2799117Y3117029D01*
Y3114066D01*
X2799695Y3111161D01*
X2800828Y3108423D01*
X2802474Y3105960D01*
X2804569Y3103865D01*
X2807032Y3102220D01*
X2809460Y3101214D01*
X2809534Y3100924D01*
Y3100172D01*
X2809460Y3099881D01*
X2807032Y3098876D01*
X2804569Y3097230D01*
X2802474Y3095135D01*
X2800828Y3092672D01*
X2799695Y3089935D01*
X2799117Y3087029D01*
Y3086817D01*
X2814157D01*
X2829196D01*
Y3087029D01*
X2828618Y3089935D01*
X2827485Y3092672D01*
X2825839Y3095135D01*
X2823744Y3097230D01*
X2821281Y3098876D01*
X2818853Y3099881D01*
X2818778Y3100172D01*
Y3100924D01*
X2818853Y3101214D01*
X2821281Y3102220D01*
X2823744Y3103865D01*
X2825839Y3105960D01*
X2827485Y3108423D01*
X2828618Y3111161D01*
X2829196Y3114066D01*
Y3117029D01*
X2828618Y3119935D01*
X2827485Y3122672D01*
X2825839Y3125135D01*
X2823744Y3127230D01*
X2821281Y3128876D01*
X2818853Y3129881D01*
X2818778Y3130172D01*
Y3130924D01*
X2818853Y3131214D01*
X2821281Y3132220D01*
X2823744Y3133865D01*
X2825839Y3135960D01*
X2827485Y3138423D01*
X2828618Y3141161D01*
X2829196Y3144066D01*
Y3147029D01*
X2828618Y3149935D01*
X2827485Y3152672D01*
X2825839Y3155135D01*
X2823744Y3157230D01*
X2821281Y3158876D01*
X2818853Y3159881D01*
X2818778Y3160172D01*
Y3160924D01*
X2818853Y3161214D01*
X2821281Y3162220D01*
X2823744Y3163865D01*
X2825839Y3165960D01*
X2827485Y3168423D01*
X2828290Y3170368D01*
X2845045D01*
X2847027Y3170762D01*
X2848707Y3171885D01*
X2853690Y3176868D01*
X2854864Y3176382D01*
Y3055977D01*
X2592072D01*
X2457954Y3190096D01*
X2514994Y3247136D01*
X2515724Y3248228D01*
X2515980Y3249517D01*
Y3337276D01*
X2597275Y3418571D01*
X2598005Y3419663D01*
X2598261Y3420952D01*
Y3605993D01*
X2613307Y3621039D01*
X2664397D01*
X2664794Y3620351D01*
X2666024Y3619121D01*
X2667530Y3618252D01*
X2669209Y3617802D01*
X2670948D01*
X2672628Y3618252D01*
X2674134Y3619121D01*
X2675363Y3620351D01*
X2676233Y3621857D01*
X2676682Y3623536D01*
Y3625275D01*
X2676233Y3626955D01*
X2675363Y3628461D01*
X2674134Y3629690D01*
X2672628Y3630560D01*
X2670948Y3631010D01*
X2669209D01*
X2667530Y3630560D01*
X2666024Y3629690D01*
X2664794Y3628461D01*
X2664397Y3627773D01*
X2611913D01*
X2610624Y3627516D01*
X2609532Y3626786D01*
X2592514Y3609768D01*
X2591784Y3608676D01*
X2591528Y3607388D01*
Y3422346D01*
X2510233Y3341051D01*
X2509503Y3339959D01*
X2509247Y3338671D01*
Y3250911D01*
X2453192Y3194857D01*
X2418651Y3229398D01*
Y3424092D01*
X2418395Y3425380D01*
X2417665Y3426472D01*
X2303843Y3540294D01*
Y3602783D01*
X2308491Y3607431D01*
X2309259Y3607226D01*
X2310998D01*
X2312677Y3607676D01*
X2314183Y3608545D01*
X2315413Y3609775D01*
X2316282Y3611281D01*
X2316732Y3612960D01*
Y3614699D01*
X2316282Y3616379D01*
X2315413Y3617885D01*
X2314183Y3619114D01*
X2312677Y3619984D01*
X2310998Y3620434D01*
X2309259D01*
X2307579Y3619984D01*
X2306073Y3619114D01*
X2304844Y3617885D01*
X2303974Y3616379D01*
X2303524Y3614699D01*
Y3612960D01*
X2303730Y3612193D01*
X2298096Y3606558D01*
X2297366Y3605466D01*
X2297110Y3604178D01*
Y3538900D01*
X2297366Y3537611D01*
X2298096Y3536519D01*
X2411918Y3422697D01*
Y3228004D01*
X2412174Y3226715D01*
X2412904Y3225623D01*
X2450812Y3187715D01*
X2581376Y3057151D01*
X2580890Y3055977D01*
X2196750D01*
Y3677007D01*
X2854864D01*
Y3400588D01*
D02*
G37*
G36*
X3598830Y3401230D02*
X3597560Y3400205D01*
X3595638Y3400588D01*
X3592675D01*
X3589769Y3400010D01*
X3587032Y3398876D01*
X3584569Y3397230D01*
X3582474Y3395135D01*
X3580828Y3392672D01*
X3579695Y3389935D01*
X3579117Y3387029D01*
Y3384066D01*
X3579695Y3381161D01*
X3580828Y3378423D01*
X3582474Y3375960D01*
X3584569Y3373865D01*
X3587032Y3372220D01*
X3589769Y3371086D01*
X3592675Y3370508D01*
X3595638D01*
X3597560Y3370890D01*
X3598830Y3369866D01*
Y3339737D01*
X3597656Y3339251D01*
X3573754Y3363153D01*
Y3452194D01*
X3573360Y3454176D01*
X3572237Y3455856D01*
X3540480Y3487613D01*
Y3539220D01*
X3540585Y3539325D01*
X3541454Y3540831D01*
X3541905Y3542510D01*
Y3544249D01*
X3541454Y3545929D01*
X3540585Y3547435D01*
X3540480Y3547540D01*
Y3573955D01*
X3540086Y3575938D01*
X3538963Y3577618D01*
X3531082Y3585499D01*
Y3592052D01*
X3531187Y3592157D01*
X3532057Y3593663D01*
X3532506Y3595342D01*
Y3597081D01*
X3532057Y3598761D01*
X3531187Y3600267D01*
X3529958Y3601496D01*
X3528452Y3602366D01*
X3526772Y3602816D01*
X3525033D01*
X3523354Y3602366D01*
X3521848Y3601496D01*
X3520618Y3600267D01*
X3519749Y3598761D01*
X3519298Y3597081D01*
Y3595342D01*
X3519749Y3593663D01*
X3520618Y3592157D01*
X3520723Y3592052D01*
Y3583353D01*
X3521117Y3581371D01*
X3522240Y3579691D01*
X3530121Y3571810D01*
Y3566056D01*
X3528851Y3565888D01*
X3528755Y3566249D01*
X3527885Y3567755D01*
X3526656Y3568984D01*
X3525150Y3569854D01*
X3523470Y3570304D01*
X3521731D01*
X3520052Y3569854D01*
X3518546Y3568984D01*
X3517316Y3567755D01*
X3516919Y3567066D01*
X3480053D01*
X3475151Y3571969D01*
X3475356Y3572736D01*
Y3574475D01*
X3474907Y3576155D01*
X3474037Y3577661D01*
X3472808Y3578890D01*
X3471302Y3579760D01*
X3469622Y3580210D01*
X3467883D01*
X3466204Y3579760D01*
X3464698Y3578890D01*
X3463468Y3577661D01*
X3462599Y3576155D01*
X3462148Y3574475D01*
Y3572736D01*
X3462599Y3571057D01*
X3463468Y3569551D01*
X3464698Y3568321D01*
X3466204Y3567452D01*
X3467883Y3567002D01*
X3469622D01*
X3470390Y3567207D01*
X3476278Y3561319D01*
X3477370Y3560589D01*
X3478658Y3560333D01*
X3516919D01*
X3517316Y3559645D01*
X3518546Y3558415D01*
X3520052Y3557546D01*
X3521731Y3557096D01*
X3523470D01*
X3525150Y3557546D01*
X3526656Y3558415D01*
X3527885Y3559645D01*
X3528755Y3561151D01*
X3528851Y3561511D01*
X3530121Y3561344D01*
Y3547540D01*
X3530016Y3547435D01*
X3529146Y3545929D01*
X3528697Y3544249D01*
Y3542510D01*
X3529146Y3540831D01*
X3530016Y3539325D01*
X3530121Y3539220D01*
Y3485468D01*
X3530515Y3483486D01*
X3531638Y3481805D01*
X3563395Y3450048D01*
Y3361008D01*
X3563789Y3359026D01*
X3564912Y3357345D01*
X3596161Y3326096D01*
Y3193989D01*
X3582899Y3180727D01*
X3568290D01*
X3567485Y3182672D01*
X3565839Y3185135D01*
X3563744Y3187230D01*
X3561281Y3188876D01*
X3558543Y3190010D01*
X3555638Y3190588D01*
X3552675D01*
X3549769Y3190010D01*
X3547032Y3188876D01*
X3544569Y3187230D01*
X3542474Y3185135D01*
X3540828Y3182672D01*
X3539695Y3179935D01*
X3539117Y3177029D01*
Y3174066D01*
X3539695Y3171161D01*
X3540828Y3168423D01*
X3542474Y3165960D01*
X3544569Y3163865D01*
X3547032Y3162220D01*
X3549460Y3161214D01*
X3549534Y3160924D01*
Y3160172D01*
X3549460Y3159881D01*
X3547032Y3158876D01*
X3544569Y3157230D01*
X3542474Y3155135D01*
X3540828Y3152672D01*
X3539695Y3149935D01*
X3539117Y3147029D01*
Y3144066D01*
X3539695Y3141161D01*
X3540828Y3138423D01*
X3541406Y3137559D01*
X3538606Y3134758D01*
X3535933D01*
X3435797Y3234894D01*
Y3540117D01*
X3438367Y3542687D01*
X3439097Y3543779D01*
X3439353Y3545067D01*
Y3550328D01*
X3439097Y3551616D01*
X3438367Y3552708D01*
X3438083Y3552993D01*
Y3560273D01*
X3440953Y3563143D01*
X3441721Y3562938D01*
X3443460D01*
X3445139Y3563388D01*
X3446646Y3564257D01*
X3447875Y3565487D01*
X3448745Y3566992D01*
X3449195Y3568672D01*
Y3570411D01*
X3448745Y3572091D01*
X3447875Y3573596D01*
X3446646Y3574826D01*
X3445139Y3575695D01*
X3443460Y3576146D01*
X3441721D01*
X3440042Y3575695D01*
X3438535Y3574826D01*
X3437306Y3573596D01*
X3436436Y3572091D01*
X3435987Y3570411D01*
Y3568672D01*
X3436192Y3567905D01*
X3432336Y3564048D01*
X3431606Y3562956D01*
X3431350Y3561668D01*
Y3554949D01*
X3430506Y3554302D01*
X3428767D01*
X3427087Y3553852D01*
X3425581Y3552982D01*
X3424352Y3551753D01*
X3423482Y3550247D01*
X3423033Y3548567D01*
Y3546828D01*
X3423482Y3545149D01*
X3424352Y3543643D01*
X3425581Y3542413D01*
X3426016Y3542162D01*
Y3232237D01*
X3426272Y3230949D01*
X3427002Y3229857D01*
X3530895Y3125963D01*
X3531988Y3125233D01*
X3533276Y3124977D01*
X3539966D01*
X3541406Y3123537D01*
X3540828Y3122672D01*
X3539695Y3119935D01*
X3539117Y3117029D01*
Y3114066D01*
X3539695Y3111161D01*
X3540828Y3108423D01*
X3542474Y3105960D01*
X3544569Y3103865D01*
X3547032Y3102220D01*
X3549460Y3101214D01*
X3549534Y3100924D01*
Y3100172D01*
X3549460Y3099881D01*
X3547032Y3098876D01*
X3544569Y3097230D01*
X3542474Y3095135D01*
X3540828Y3092672D01*
X3539695Y3089935D01*
X3539117Y3087029D01*
Y3086817D01*
X3554156D01*
X3569196D01*
Y3087029D01*
X3568618Y3089935D01*
X3567485Y3092672D01*
X3565839Y3095135D01*
X3563744Y3097230D01*
X3561281Y3098876D01*
X3558853Y3099881D01*
X3558778Y3100172D01*
Y3100924D01*
X3558853Y3101214D01*
X3561281Y3102220D01*
X3563744Y3103865D01*
X3565839Y3105960D01*
X3567485Y3108423D01*
X3568618Y3111161D01*
X3569196Y3114066D01*
Y3117029D01*
X3568618Y3119935D01*
X3567485Y3122672D01*
X3565839Y3125135D01*
X3563744Y3127230D01*
X3561281Y3128876D01*
X3558853Y3129881D01*
X3558778Y3130172D01*
Y3130924D01*
X3558853Y3131214D01*
X3561281Y3132220D01*
X3563744Y3133865D01*
X3565839Y3135960D01*
X3567485Y3138423D01*
X3568618Y3141161D01*
X3569196Y3144066D01*
Y3147029D01*
X3568618Y3149935D01*
X3567485Y3152672D01*
X3565839Y3155135D01*
X3563744Y3157230D01*
X3561281Y3158876D01*
X3558853Y3159881D01*
X3558778Y3160172D01*
Y3160924D01*
X3558853Y3161214D01*
X3561281Y3162220D01*
X3563744Y3163865D01*
X3565839Y3165960D01*
X3567485Y3168423D01*
X3568290Y3170368D01*
X3585045D01*
X3587027Y3170762D01*
X3588707Y3171885D01*
X3597656Y3180834D01*
X3598830Y3180348D01*
Y3059533D01*
X3328516D01*
X3197954Y3190096D01*
X3254994Y3247136D01*
X3255724Y3248228D01*
X3255980Y3249517D01*
Y3337276D01*
X3337275Y3418571D01*
X3338005Y3419663D01*
X3338261Y3420952D01*
Y3605993D01*
X3353307Y3621039D01*
X3404397D01*
X3404794Y3620351D01*
X3406024Y3619121D01*
X3407530Y3618252D01*
X3409209Y3617802D01*
X3410948D01*
X3412628Y3618252D01*
X3414134Y3619121D01*
X3415363Y3620351D01*
X3416233Y3621857D01*
X3416682Y3623536D01*
Y3625275D01*
X3416233Y3626955D01*
X3415363Y3628461D01*
X3414134Y3629690D01*
X3412628Y3630560D01*
X3410948Y3631010D01*
X3409209D01*
X3407530Y3630560D01*
X3406024Y3629690D01*
X3404794Y3628461D01*
X3404397Y3627773D01*
X3351913D01*
X3350624Y3627516D01*
X3349532Y3626786D01*
X3332514Y3609768D01*
X3331784Y3608676D01*
X3331528Y3607388D01*
Y3422346D01*
X3250233Y3341051D01*
X3249503Y3339959D01*
X3249247Y3338671D01*
Y3250911D01*
X3193192Y3194857D01*
X3158651Y3229398D01*
Y3424092D01*
X3158395Y3425380D01*
X3157665Y3426472D01*
X3043843Y3540294D01*
Y3602783D01*
X3048491Y3607431D01*
X3049259Y3607226D01*
X3050998D01*
X3052677Y3607676D01*
X3054183Y3608545D01*
X3055413Y3609775D01*
X3056282Y3611281D01*
X3056732Y3612960D01*
Y3614699D01*
X3056282Y3616379D01*
X3055413Y3617885D01*
X3054183Y3619114D01*
X3052677Y3619984D01*
X3050998Y3620434D01*
X3049259D01*
X3047579Y3619984D01*
X3046073Y3619114D01*
X3044844Y3617885D01*
X3043974Y3616379D01*
X3043524Y3614699D01*
Y3612960D01*
X3043730Y3612193D01*
X3038096Y3606558D01*
X3037366Y3605466D01*
X3037110Y3604178D01*
Y3538900D01*
X3037366Y3537611D01*
X3038096Y3536519D01*
X3151918Y3422697D01*
Y3228004D01*
X3152174Y3226715D01*
X3152904Y3225623D01*
X3190812Y3187715D01*
X3317820Y3060706D01*
X3317334Y3059533D01*
X2940716D01*
Y3376306D01*
X2941985Y3376692D01*
X2942474Y3375960D01*
X2944569Y3373865D01*
X2947032Y3372220D01*
X2949769Y3371086D01*
X2952675Y3370508D01*
X2955638D01*
X2958543Y3371086D01*
X2961281Y3372220D01*
X2963744Y3373865D01*
X2965839Y3375960D01*
X2967485Y3378423D01*
X2968618Y3381161D01*
X2969196Y3384066D01*
Y3387029D01*
X2968618Y3389935D01*
X2967485Y3392672D01*
X2965839Y3395135D01*
X2963744Y3397230D01*
X2961281Y3398876D01*
X2958543Y3400010D01*
X2955638Y3400588D01*
X2952675D01*
X2949769Y3400010D01*
X2947032Y3398876D01*
X2944569Y3397230D01*
X2942474Y3395135D01*
X2941985Y3394404D01*
X2940716Y3394789D01*
Y3680563D01*
X3598830D01*
Y3401230D01*
D02*
G37*
G36*
X4328063Y3399303D02*
X4327032Y3398876D01*
X4324569Y3397230D01*
X4322474Y3395135D01*
X4320828Y3392672D01*
X4319695Y3389935D01*
X4319117Y3387029D01*
Y3384066D01*
X4319695Y3381161D01*
X4320828Y3378423D01*
X4322474Y3375960D01*
X4324569Y3373865D01*
X4327032Y3372220D01*
X4328063Y3371792D01*
Y3350503D01*
X4326890Y3350017D01*
X4313754Y3363153D01*
Y3452194D01*
X4313360Y3454176D01*
X4312237Y3455856D01*
X4280480Y3487613D01*
Y3539220D01*
X4280585Y3539325D01*
X4281454Y3540831D01*
X4281905Y3542510D01*
Y3544249D01*
X4281454Y3545929D01*
X4280585Y3547435D01*
X4280480Y3547540D01*
Y3573955D01*
X4280086Y3575938D01*
X4278963Y3577618D01*
X4271082Y3585499D01*
Y3592052D01*
X4271187Y3592157D01*
X4272057Y3593663D01*
X4272506Y3595342D01*
Y3597081D01*
X4272057Y3598761D01*
X4271187Y3600267D01*
X4269957Y3601496D01*
X4268452Y3602366D01*
X4266772Y3602816D01*
X4265033D01*
X4263353Y3602366D01*
X4261848Y3601496D01*
X4260618Y3600267D01*
X4259749Y3598761D01*
X4259298Y3597081D01*
Y3595342D01*
X4259749Y3593663D01*
X4260618Y3592157D01*
X4260723Y3592052D01*
Y3583353D01*
X4261117Y3581371D01*
X4262240Y3579691D01*
X4270121Y3571810D01*
Y3566056D01*
X4268851Y3565888D01*
X4268755Y3566249D01*
X4267885Y3567755D01*
X4266655Y3568984D01*
X4265150Y3569854D01*
X4263470Y3570304D01*
X4261731D01*
X4260051Y3569854D01*
X4258546Y3568984D01*
X4257316Y3567755D01*
X4256919Y3567066D01*
X4220053D01*
X4215151Y3571969D01*
X4215356Y3572736D01*
Y3574475D01*
X4214907Y3576155D01*
X4214037Y3577661D01*
X4212807Y3578890D01*
X4211302Y3579760D01*
X4209622Y3580210D01*
X4207883D01*
X4206203Y3579760D01*
X4204698Y3578890D01*
X4203468Y3577661D01*
X4202599Y3576155D01*
X4202148Y3574475D01*
Y3572736D01*
X4202599Y3571057D01*
X4203468Y3569551D01*
X4204698Y3568321D01*
X4206203Y3567452D01*
X4207883Y3567002D01*
X4209622D01*
X4210390Y3567207D01*
X4216278Y3561319D01*
X4217370Y3560589D01*
X4218658Y3560333D01*
X4256919D01*
X4257316Y3559645D01*
X4258546Y3558415D01*
X4260051Y3557546D01*
X4261731Y3557096D01*
X4263470D01*
X4265150Y3557546D01*
X4266655Y3558415D01*
X4267885Y3559645D01*
X4268755Y3561151D01*
X4268851Y3561511D01*
X4270121Y3561344D01*
Y3547540D01*
X4270016Y3547435D01*
X4269146Y3545929D01*
X4268697Y3544249D01*
Y3542510D01*
X4269146Y3540831D01*
X4270016Y3539325D01*
X4270121Y3539220D01*
Y3485468D01*
X4270515Y3483486D01*
X4271638Y3481805D01*
X4303395Y3450048D01*
Y3361008D01*
X4303789Y3359026D01*
X4304912Y3357345D01*
X4328063Y3334194D01*
Y3185892D01*
X4322899Y3180727D01*
X4308290D01*
X4307485Y3182672D01*
X4305839Y3185135D01*
X4303744Y3187230D01*
X4301281Y3188876D01*
X4298543Y3190010D01*
X4295638Y3190588D01*
X4292675D01*
X4289769Y3190010D01*
X4287032Y3188876D01*
X4284569Y3187230D01*
X4282474Y3185135D01*
X4280828Y3182672D01*
X4279695Y3179935D01*
X4279117Y3177029D01*
Y3174066D01*
X4279695Y3171161D01*
X4280828Y3168423D01*
X4282474Y3165960D01*
X4284569Y3163865D01*
X4287032Y3162220D01*
X4289460Y3161214D01*
X4289534Y3160924D01*
Y3160172D01*
X4289460Y3159881D01*
X4287032Y3158876D01*
X4284569Y3157230D01*
X4282474Y3155135D01*
X4280828Y3152672D01*
X4279695Y3149935D01*
X4279117Y3147029D01*
Y3144066D01*
X4279695Y3141161D01*
X4280828Y3138423D01*
X4281406Y3137559D01*
X4278606Y3134758D01*
X4275933D01*
X4175797Y3234894D01*
Y3540117D01*
X4178367Y3542687D01*
X4179097Y3543779D01*
X4179353Y3545067D01*
Y3550328D01*
X4179097Y3551616D01*
X4178367Y3552708D01*
X4178083Y3552993D01*
Y3560273D01*
X4180953Y3563143D01*
X4181721Y3562938D01*
X4183460D01*
X4185139Y3563388D01*
X4186646Y3564257D01*
X4187875Y3565487D01*
X4188745Y3566992D01*
X4189195Y3568672D01*
Y3570411D01*
X4188745Y3572091D01*
X4187875Y3573596D01*
X4186646Y3574826D01*
X4185139Y3575695D01*
X4183460Y3576146D01*
X4181721D01*
X4180042Y3575695D01*
X4178535Y3574826D01*
X4177306Y3573596D01*
X4176436Y3572091D01*
X4175987Y3570411D01*
Y3568672D01*
X4176192Y3567905D01*
X4172336Y3564048D01*
X4171606Y3562956D01*
X4171350Y3561668D01*
Y3554949D01*
X4170506Y3554302D01*
X4168767D01*
X4167087Y3553852D01*
X4165581Y3552982D01*
X4164352Y3551753D01*
X4163482Y3550247D01*
X4163033Y3548567D01*
Y3546828D01*
X4163482Y3545149D01*
X4164352Y3543643D01*
X4165581Y3542413D01*
X4166016Y3542162D01*
Y3232237D01*
X4166272Y3230949D01*
X4167002Y3229857D01*
X4270895Y3125963D01*
X4271988Y3125233D01*
X4273276Y3124977D01*
X4279966D01*
X4281406Y3123537D01*
X4280828Y3122672D01*
X4279695Y3119935D01*
X4279117Y3117029D01*
Y3114066D01*
X4279695Y3111161D01*
X4280828Y3108423D01*
X4282474Y3105960D01*
X4284569Y3103865D01*
X4287032Y3102220D01*
X4289460Y3101214D01*
X4289534Y3100924D01*
Y3100172D01*
X4289460Y3099881D01*
X4287032Y3098876D01*
X4284569Y3097230D01*
X4282474Y3095135D01*
X4280828Y3092672D01*
X4279695Y3089935D01*
X4279117Y3087029D01*
Y3086817D01*
X4294156D01*
X4309196D01*
Y3087029D01*
X4308618Y3089935D01*
X4307485Y3092672D01*
X4305839Y3095135D01*
X4303744Y3097230D01*
X4301281Y3098876D01*
X4298853Y3099881D01*
X4298778Y3100172D01*
Y3100924D01*
X4298853Y3101214D01*
X4301281Y3102220D01*
X4303744Y3103865D01*
X4305839Y3105960D01*
X4307485Y3108423D01*
X4308618Y3111161D01*
X4309196Y3114066D01*
Y3117029D01*
X4308618Y3119935D01*
X4307485Y3122672D01*
X4305839Y3125135D01*
X4303744Y3127230D01*
X4301281Y3128876D01*
X4298853Y3129881D01*
X4298778Y3130172D01*
Y3130924D01*
X4298853Y3131214D01*
X4301281Y3132220D01*
X4303744Y3133865D01*
X4305839Y3135960D01*
X4307485Y3138423D01*
X4308618Y3141161D01*
X4309196Y3144066D01*
Y3147029D01*
X4308618Y3149935D01*
X4307485Y3152672D01*
X4305839Y3155135D01*
X4303744Y3157230D01*
X4301281Y3158876D01*
X4298853Y3159881D01*
X4298778Y3160172D01*
Y3160924D01*
X4298853Y3161214D01*
X4301281Y3162220D01*
X4303744Y3163865D01*
X4305839Y3165960D01*
X4307485Y3168423D01*
X4308290Y3170368D01*
X4325045D01*
X4326794Y3170716D01*
X4328063Y3170044D01*
Y3060549D01*
X4067500D01*
X3937954Y3190096D01*
X3994994Y3247136D01*
X3995724Y3248228D01*
X3995980Y3249517D01*
Y3337276D01*
X4077275Y3418571D01*
X4078005Y3419663D01*
X4078261Y3420952D01*
Y3605993D01*
X4093307Y3621039D01*
X4144397D01*
X4144794Y3620351D01*
X4146024Y3619121D01*
X4147529Y3618252D01*
X4149209Y3617802D01*
X4150948D01*
X4152628Y3618252D01*
X4154133Y3619121D01*
X4155363Y3620351D01*
X4156233Y3621857D01*
X4156682Y3623536D01*
Y3625275D01*
X4156233Y3626955D01*
X4155363Y3628461D01*
X4154133Y3629690D01*
X4152628Y3630560D01*
X4150948Y3631010D01*
X4149209D01*
X4147529Y3630560D01*
X4146024Y3629690D01*
X4144794Y3628461D01*
X4144397Y3627773D01*
X4091913D01*
X4090624Y3627516D01*
X4089532Y3626786D01*
X4072514Y3609768D01*
X4071784Y3608676D01*
X4071528Y3607388D01*
Y3422346D01*
X3990233Y3341051D01*
X3989503Y3339959D01*
X3989247Y3338671D01*
Y3250911D01*
X3933192Y3194857D01*
X3898651Y3229398D01*
Y3424092D01*
X3898395Y3425380D01*
X3897665Y3426472D01*
X3783843Y3540294D01*
Y3602783D01*
X3788491Y3607431D01*
X3789259Y3607226D01*
X3790998D01*
X3792677Y3607676D01*
X3794183Y3608545D01*
X3795413Y3609775D01*
X3796282Y3611281D01*
X3796732Y3612960D01*
Y3614699D01*
X3796282Y3616379D01*
X3795413Y3617885D01*
X3794183Y3619114D01*
X3792677Y3619984D01*
X3790998Y3620434D01*
X3789259D01*
X3787579Y3619984D01*
X3786073Y3619114D01*
X3784844Y3617885D01*
X3783974Y3616379D01*
X3783524Y3614699D01*
Y3612960D01*
X3783730Y3612193D01*
X3778096Y3606558D01*
X3777366Y3605466D01*
X3777110Y3604178D01*
Y3538900D01*
X3777366Y3537611D01*
X3778096Y3536519D01*
X3891918Y3422697D01*
Y3228004D01*
X3892174Y3226715D01*
X3892904Y3225623D01*
X3930812Y3187715D01*
X4056804Y3061723D01*
X4056318Y3060549D01*
X3669950D01*
Y3681579D01*
X4328063D01*
Y3399303D01*
D02*
G37*
%LPC*%
G36*
X1905254Y3653110D02*
X1903975Y3652767D01*
X1902469Y3651897D01*
X1901239Y3650668D01*
X1900834Y3649966D01*
X1899367D01*
X1899108Y3650414D01*
X1897879Y3651643D01*
X1896373Y3652513D01*
X1895094Y3652856D01*
Y3646359D01*
Y3639862D01*
X1896373Y3640205D01*
X1897879Y3641075D01*
X1899108Y3642304D01*
X1899514Y3643006D01*
X1900980D01*
X1901239Y3642558D01*
X1902469Y3641328D01*
X1903975Y3640459D01*
X1905254Y3640116D01*
Y3646613D01*
Y3653110D01*
D02*
G37*
G36*
X1907794D02*
Y3647883D01*
X1913020D01*
X1912678Y3649162D01*
X1911808Y3650668D01*
X1910579Y3651897D01*
X1909073Y3652767D01*
X1907794Y3653110D01*
D02*
G37*
G36*
X1869948D02*
Y3647883D01*
X1875175D01*
X1874832Y3649162D01*
X1873962Y3650668D01*
X1872733Y3651897D01*
X1871227Y3652767D01*
X1869948Y3653110D01*
D02*
G37*
G36*
X1867408D02*
X1866129Y3652767D01*
X1864623Y3651897D01*
X1863393Y3650668D01*
X1862524Y3649162D01*
X1862181Y3647883D01*
X1867408D01*
Y3653110D01*
D02*
G37*
G36*
X1892554Y3652856D02*
X1891275Y3652513D01*
X1889769Y3651643D01*
X1888539Y3650414D01*
X1887670Y3648908D01*
X1887327Y3647629D01*
X1892554D01*
Y3652856D01*
D02*
G37*
G36*
X1913020Y3645343D02*
X1907794D01*
Y3640116D01*
X1909073Y3640459D01*
X1910579Y3641328D01*
X1911808Y3642558D01*
X1912678Y3644064D01*
X1913020Y3645343D01*
D02*
G37*
G36*
X1875175D02*
X1869948D01*
Y3640116D01*
X1871227Y3640459D01*
X1872733Y3641328D01*
X1873962Y3642558D01*
X1874832Y3644064D01*
X1875175Y3645343D01*
D02*
G37*
G36*
X1867408D02*
X1862181D01*
X1862524Y3644064D01*
X1863393Y3642558D01*
X1864623Y3641328D01*
X1866129Y3640459D01*
X1867408Y3640116D01*
Y3645343D01*
D02*
G37*
G36*
X1892554Y3645089D02*
X1887327D01*
X1887670Y3643810D01*
X1888539Y3642304D01*
X1889769Y3641075D01*
X1891275Y3640205D01*
X1892554Y3639862D01*
Y3645089D01*
D02*
G37*
G36*
X2080701Y3640555D02*
Y3635328D01*
X2085927D01*
X2085584Y3636607D01*
X2084715Y3638112D01*
X2083485Y3639342D01*
X2081980Y3640211D01*
X2080701Y3640555D01*
D02*
G37*
G36*
X2078161D02*
X2076881Y3640211D01*
X2075376Y3639342D01*
X2074146Y3638112D01*
X2073277Y3636607D01*
X2072934Y3635328D01*
X2078161D01*
Y3640555D01*
D02*
G37*
G36*
X2085927Y3632788D02*
X2080701D01*
Y3627561D01*
X2081980Y3627904D01*
X2083485Y3628773D01*
X2084715Y3630003D01*
X2085584Y3631508D01*
X2085927Y3632788D01*
D02*
G37*
G36*
X2078161D02*
X2072934D01*
X2073277Y3631508D01*
X2074146Y3630003D01*
X2075376Y3628773D01*
X2076881Y3627904D01*
X2078161Y3627561D01*
Y3632788D01*
D02*
G37*
G36*
X1734974Y3629724D02*
Y3624498D01*
X1740201D01*
X1739858Y3625777D01*
X1738989Y3627283D01*
X1737759Y3628512D01*
X1736253Y3629382D01*
X1734974Y3629724D01*
D02*
G37*
G36*
X1732434D02*
X1731155Y3629382D01*
X1729649Y3628512D01*
X1728420Y3627283D01*
X1727550Y3625777D01*
X1727208Y3624498D01*
X1732434D01*
Y3629724D01*
D02*
G37*
G36*
X1740201Y3621958D02*
X1734974D01*
Y3616731D01*
X1736253Y3617074D01*
X1737759Y3617943D01*
X1738989Y3619173D01*
X1739858Y3620679D01*
X1740201Y3621958D01*
D02*
G37*
G36*
X1732434D02*
X1727208D01*
X1727550Y3620679D01*
X1728420Y3619173D01*
X1729649Y3617943D01*
X1731155Y3617074D01*
X1732434Y3616731D01*
Y3621958D01*
D02*
G37*
G36*
X1596290Y3620072D02*
Y3614846D01*
X1601517D01*
X1601174Y3616125D01*
X1600305Y3617631D01*
X1599075Y3618860D01*
X1597569Y3619730D01*
X1596290Y3620072D01*
D02*
G37*
G36*
X1593750D02*
X1592471Y3619730D01*
X1590965Y3618860D01*
X1589736Y3617631D01*
X1588866Y3616125D01*
X1588524Y3614846D01*
X1593750D01*
Y3620072D01*
D02*
G37*
G36*
X2031802Y3628647D02*
X2029399D01*
X2027179Y3627727D01*
X2025480Y3626028D01*
X2024560Y3623808D01*
Y3621406D01*
X2024748Y3620953D01*
X2024042Y3619897D01*
X2022861D01*
Y3612127D01*
X2029900D01*
X2036940D01*
Y3619897D01*
X2036940D01*
X2036369Y3620752D01*
X2036640Y3621406D01*
Y3623808D01*
X2035721Y3626028D01*
X2034022Y3627727D01*
X2031802Y3628647D01*
D02*
G37*
G36*
X2008340Y3619895D02*
X2002570D01*
Y3612125D01*
X2008340D01*
Y3619895D01*
D02*
G37*
G36*
X2000030D02*
X1994260D01*
Y3612125D01*
X2000030D01*
Y3619895D01*
D02*
G37*
G36*
X1601517Y3612306D02*
X1596290D01*
Y3607079D01*
X1597569Y3607422D01*
X1599075Y3608291D01*
X1600305Y3609521D01*
X1601174Y3611027D01*
X1601517Y3612306D01*
D02*
G37*
G36*
X1593750D02*
X1588524D01*
X1588866Y3611027D01*
X1589736Y3609521D01*
X1590965Y3608291D01*
X1592471Y3607422D01*
X1593750Y3607079D01*
Y3612306D01*
D02*
G37*
G36*
X2036940Y3609587D02*
X2031170D01*
Y3601817D01*
X2036940D01*
Y3609587D01*
D02*
G37*
G36*
X2028630D02*
X2022861D01*
Y3601817D01*
X2028630D01*
Y3609587D01*
D02*
G37*
G36*
X2008340Y3609585D02*
X2002570D01*
Y3601815D01*
X2008340D01*
Y3609585D01*
D02*
G37*
G36*
X2000030D02*
X1994260D01*
Y3601815D01*
X2000030D01*
Y3609585D01*
D02*
G37*
G36*
X1913776Y3612214D02*
X1911837D01*
X1909963Y3611712D01*
X1908284Y3610742D01*
X1906912Y3609370D01*
X1905943Y3607691D01*
X1905441Y3605817D01*
Y3603878D01*
X1905943Y3602004D01*
X1906912Y3600325D01*
X1908284Y3598954D01*
X1909963Y3597984D01*
X1911837Y3597482D01*
X1913776D01*
X1915650Y3597984D01*
X1917329Y3598954D01*
X1918701Y3600325D01*
X1919671Y3602004D01*
X1920172Y3603878D01*
Y3605817D01*
X1919671Y3607691D01*
X1918701Y3609370D01*
X1917329Y3610742D01*
X1915650Y3611712D01*
X1913776Y3612214D01*
D02*
G37*
G36*
X1875676D02*
X1873737D01*
X1871863Y3611712D01*
X1870184Y3610742D01*
X1868812Y3609370D01*
X1867843Y3607691D01*
X1867341Y3605817D01*
Y3603878D01*
X1867843Y3602004D01*
X1868812Y3600325D01*
X1870184Y3598954D01*
X1871863Y3597984D01*
X1873737Y3597482D01*
X1875676D01*
X1877550Y3597984D01*
X1879229Y3598954D01*
X1880601Y3600325D01*
X1881570Y3602004D01*
X1882072Y3603878D01*
Y3605817D01*
X1881570Y3607691D01*
X1880601Y3609370D01*
X1879229Y3610742D01*
X1877550Y3611712D01*
X1875676Y3612214D01*
D02*
G37*
G36*
X2061651Y3601438D02*
Y3596212D01*
X2066877D01*
X2066534Y3597491D01*
X2065665Y3598997D01*
X2064435Y3600226D01*
X2062930Y3601096D01*
X2061651Y3601438D01*
D02*
G37*
G36*
X2059111D02*
X2057831Y3601096D01*
X2056326Y3600226D01*
X2055096Y3598997D01*
X2054227Y3597491D01*
X2053884Y3596212D01*
X2059111D01*
Y3601438D01*
D02*
G37*
G36*
X2066877Y3593672D02*
X2061651D01*
Y3588445D01*
X2062930Y3588788D01*
X2064435Y3589657D01*
X2065665Y3590887D01*
X2066534Y3592393D01*
X2066877Y3593672D01*
D02*
G37*
G36*
X2059111D02*
X2053884D01*
X2054227Y3592393D01*
X2055096Y3590887D01*
X2056326Y3589657D01*
X2057831Y3588788D01*
X2059111Y3588445D01*
Y3593672D01*
D02*
G37*
G36*
X2046772Y3602816D02*
X2045033D01*
X2043353Y3602366D01*
X2041848Y3601496D01*
X2040618Y3600267D01*
X2039749Y3598761D01*
X2039299Y3597081D01*
Y3595342D01*
X2039749Y3593663D01*
X2040618Y3592157D01*
X2040723Y3592052D01*
Y3583353D01*
X2041117Y3581371D01*
X2042240Y3579691D01*
X2050121Y3571810D01*
Y3566056D01*
X2048851Y3565888D01*
X2048754Y3566249D01*
X2047885Y3567755D01*
X2046655Y3568984D01*
X2045150Y3569854D01*
X2043470Y3570304D01*
X2041731D01*
X2040051Y3569854D01*
X2038546Y3568984D01*
X2037316Y3567755D01*
X2036919Y3567066D01*
X2000053D01*
X1995151Y3571969D01*
X1995356Y3572736D01*
Y3574475D01*
X1994906Y3576155D01*
X1994037Y3577661D01*
X1992807Y3578890D01*
X1991302Y3579760D01*
X1989622Y3580210D01*
X1987883D01*
X1986203Y3579760D01*
X1984698Y3578890D01*
X1983468Y3577661D01*
X1982599Y3576155D01*
X1982148Y3574475D01*
Y3572736D01*
X1982599Y3571057D01*
X1983468Y3569551D01*
X1984698Y3568321D01*
X1986203Y3567452D01*
X1987883Y3567002D01*
X1989622D01*
X1990390Y3567207D01*
X1996278Y3561319D01*
X1997370Y3560589D01*
X1998658Y3560333D01*
X2036919D01*
X2037316Y3559645D01*
X2038546Y3558415D01*
X2040051Y3557546D01*
X2041731Y3557096D01*
X2043470D01*
X2045150Y3557546D01*
X2046655Y3558415D01*
X2047885Y3559645D01*
X2048754Y3561151D01*
X2048851Y3561511D01*
X2050121Y3561344D01*
Y3547540D01*
X2050016Y3547435D01*
X2049147Y3545929D01*
X2048696Y3544249D01*
Y3542510D01*
X2049147Y3540831D01*
X2050016Y3539325D01*
X2050121Y3539220D01*
Y3485468D01*
X2050515Y3483486D01*
X2051638Y3481805D01*
X2083395Y3450048D01*
Y3361008D01*
X2083789Y3359026D01*
X2084912Y3357345D01*
X2116161Y3326096D01*
Y3193989D01*
X2102899Y3180727D01*
X2088290D01*
X2087485Y3182672D01*
X2085839Y3185135D01*
X2083744Y3187230D01*
X2081281Y3188876D01*
X2078543Y3190010D01*
X2075638Y3190588D01*
X2072675D01*
X2069769Y3190010D01*
X2067032Y3188876D01*
X2064569Y3187230D01*
X2062474Y3185135D01*
X2060828Y3182672D01*
X2059694Y3179935D01*
X2059116Y3177029D01*
Y3174066D01*
X2059694Y3171161D01*
X2060828Y3168423D01*
X2062474Y3165960D01*
X2064569Y3163865D01*
X2067032Y3162220D01*
X2069460Y3161214D01*
X2069534Y3160924D01*
Y3160172D01*
X2069460Y3159881D01*
X2067032Y3158876D01*
X2064569Y3157230D01*
X2062474Y3155135D01*
X2060828Y3152672D01*
X2059694Y3149935D01*
X2059116Y3147029D01*
Y3144066D01*
X2059694Y3141161D01*
X2060828Y3138423D01*
X2061406Y3137559D01*
X2058606Y3134758D01*
X2055933D01*
X1955797Y3234894D01*
Y3540117D01*
X1958367Y3542687D01*
X1959097Y3543779D01*
X1959353Y3545067D01*
Y3550328D01*
X1959097Y3551616D01*
X1958367Y3552708D01*
X1958083Y3552993D01*
Y3560273D01*
X1960953Y3563143D01*
X1961721Y3562938D01*
X1963460D01*
X1965139Y3563388D01*
X1966645Y3564257D01*
X1967875Y3565487D01*
X1968744Y3566992D01*
X1969194Y3568672D01*
Y3570411D01*
X1968744Y3572091D01*
X1967875Y3573596D01*
X1966645Y3574826D01*
X1965139Y3575695D01*
X1963460Y3576146D01*
X1961721D01*
X1960041Y3575695D01*
X1958535Y3574826D01*
X1957306Y3573596D01*
X1956436Y3572091D01*
X1955986Y3570411D01*
Y3568672D01*
X1956192Y3567905D01*
X1952336Y3564048D01*
X1951606Y3562956D01*
X1951350Y3561668D01*
Y3554949D01*
X1950506Y3554302D01*
X1948767D01*
X1947087Y3553852D01*
X1945582Y3552982D01*
X1944352Y3551753D01*
X1943483Y3550247D01*
X1943033Y3548567D01*
Y3546828D01*
X1943483Y3545149D01*
X1944352Y3543643D01*
X1945582Y3542413D01*
X1946016Y3542162D01*
Y3232237D01*
X1946272Y3230949D01*
X1947002Y3229857D01*
X2050895Y3125963D01*
X2051988Y3125233D01*
X2053276Y3124977D01*
X2059966D01*
X2061406Y3123537D01*
X2060828Y3122672D01*
X2059694Y3119935D01*
X2059116Y3117029D01*
Y3114066D01*
X2059694Y3111161D01*
X2060828Y3108423D01*
X2062474Y3105960D01*
X2064569Y3103865D01*
X2067032Y3102220D01*
X2069460Y3101214D01*
X2069534Y3100924D01*
Y3100172D01*
X2069460Y3099881D01*
X2067032Y3098876D01*
X2064569Y3097230D01*
X2062474Y3095135D01*
X2060828Y3092672D01*
X2059694Y3089935D01*
X2059116Y3087029D01*
Y3086818D01*
X2074156D01*
X2089196D01*
Y3087029D01*
X2088618Y3089935D01*
X2087485Y3092672D01*
X2085839Y3095135D01*
X2083744Y3097230D01*
X2081281Y3098876D01*
X2078853Y3099881D01*
X2078779Y3100172D01*
Y3100924D01*
X2078853Y3101214D01*
X2081281Y3102220D01*
X2083744Y3103865D01*
X2085839Y3105960D01*
X2087485Y3108423D01*
X2088618Y3111161D01*
X2089196Y3114066D01*
Y3117029D01*
X2088618Y3119935D01*
X2087485Y3122672D01*
X2085839Y3125135D01*
X2083744Y3127230D01*
X2081281Y3128876D01*
X2078853Y3129881D01*
X2078778Y3130172D01*
Y3130924D01*
X2078853Y3131214D01*
X2081281Y3132220D01*
X2083744Y3133865D01*
X2085839Y3135960D01*
X2087485Y3138423D01*
X2088618Y3141161D01*
X2089196Y3144066D01*
Y3147029D01*
X2088618Y3149935D01*
X2087485Y3152672D01*
X2085839Y3155135D01*
X2083744Y3157230D01*
X2081281Y3158876D01*
X2078853Y3159881D01*
X2078779Y3160172D01*
Y3160924D01*
X2078853Y3161214D01*
X2081281Y3162220D01*
X2083744Y3163865D01*
X2085839Y3165960D01*
X2087485Y3168423D01*
X2088290Y3170368D01*
X2105045D01*
X2107027Y3170762D01*
X2108707Y3171885D01*
X2125003Y3188181D01*
X2126126Y3189861D01*
X2126520Y3191844D01*
Y3328242D01*
X2126126Y3330224D01*
X2125003Y3331904D01*
X2125003Y3331904D01*
X2093754Y3363153D01*
Y3452194D01*
X2093360Y3454176D01*
X2092237Y3455856D01*
X2060480Y3487613D01*
Y3539220D01*
X2060585Y3539325D01*
X2061454Y3540831D01*
X2061904Y3542510D01*
Y3544249D01*
X2061454Y3545929D01*
X2060585Y3547435D01*
X2060480Y3547540D01*
Y3573955D01*
X2060086Y3575938D01*
X2058963Y3577618D01*
X2051082Y3585499D01*
Y3592052D01*
X2051187Y3592157D01*
X2052056Y3593663D01*
X2052507Y3595342D01*
Y3597081D01*
X2052056Y3598761D01*
X2051187Y3600267D01*
X2049957Y3601496D01*
X2048452Y3602366D01*
X2046772Y3602816D01*
D02*
G37*
G36*
X1583776Y3577088D02*
X1580737D01*
X1577802Y3576301D01*
X1575171Y3574782D01*
X1573022Y3572633D01*
X1571503Y3570002D01*
X1570716Y3567067D01*
Y3564028D01*
X1571503Y3561093D01*
X1573022Y3558462D01*
X1575171Y3556313D01*
X1577802Y3554794D01*
X1580737Y3554008D01*
X1583776D01*
X1586711Y3554794D01*
X1589342Y3556313D01*
X1591491Y3558462D01*
X1593010Y3561093D01*
X1593796Y3564028D01*
Y3567067D01*
X1593010Y3570002D01*
X1591491Y3572633D01*
X1589342Y3574782D01*
X1586711Y3576301D01*
X1583776Y3577088D01*
D02*
G37*
G36*
X1507576D02*
X1504537D01*
X1501602Y3576301D01*
X1498971Y3574782D01*
X1496822Y3572633D01*
X1495303Y3570002D01*
X1494516Y3567067D01*
Y3564028D01*
X1495303Y3561093D01*
X1496822Y3558462D01*
X1498971Y3556313D01*
X1501602Y3554794D01*
X1504537Y3554008D01*
X1507576D01*
X1510511Y3554794D01*
X1513142Y3556313D01*
X1515291Y3558462D01*
X1516810Y3561093D01*
X1517596Y3564028D01*
Y3567067D01*
X1516810Y3570002D01*
X1515291Y3572633D01*
X1513142Y3574782D01*
X1510511Y3576301D01*
X1507576Y3577088D01*
D02*
G37*
G36*
X2008340Y3535397D02*
X2002570D01*
Y3527627D01*
X2008340D01*
Y3535397D01*
D02*
G37*
G36*
X2000030D02*
X1994260D01*
Y3527627D01*
X2000030D01*
Y3535397D01*
D02*
G37*
G36*
X2036940D02*
X2031171D01*
Y3527627D01*
X2036940D01*
Y3535397D01*
D02*
G37*
G36*
X2028631D02*
X2022861D01*
Y3527627D01*
X2028631D01*
Y3535397D01*
D02*
G37*
G36*
X1875576Y3541094D02*
X1873837D01*
X1872157Y3540644D01*
X1870652Y3539774D01*
X1869422Y3538545D01*
X1868553Y3537039D01*
X1868103Y3535359D01*
Y3533620D01*
X1868553Y3531941D01*
X1869422Y3530435D01*
X1870652Y3529205D01*
X1872157Y3528336D01*
X1873837Y3527886D01*
X1875576D01*
X1877256Y3528336D01*
X1878761Y3529205D01*
X1879991Y3530435D01*
X1880095Y3530615D01*
X1928207D01*
X1928604Y3529927D01*
X1929834Y3528697D01*
X1931339Y3527828D01*
X1933019Y3527378D01*
X1934758D01*
X1936438Y3527828D01*
X1937943Y3528697D01*
X1939173Y3529927D01*
X1940042Y3531432D01*
X1940493Y3533112D01*
Y3534851D01*
X1940042Y3536531D01*
X1939173Y3538036D01*
X1937943Y3539266D01*
X1936438Y3540135D01*
X1934758Y3540586D01*
X1933019D01*
X1931339Y3540135D01*
X1929834Y3539266D01*
X1928604Y3538036D01*
X1928207Y3537348D01*
X1880682D01*
X1879991Y3538545D01*
X1878761Y3539774D01*
X1877256Y3540644D01*
X1875576Y3541094D01*
D02*
G37*
G36*
X1757072Y3526346D02*
Y3521120D01*
X1762299D01*
X1761956Y3522399D01*
X1761087Y3523905D01*
X1759857Y3525134D01*
X1758351Y3526004D01*
X1757072Y3526346D01*
D02*
G37*
G36*
X1754532D02*
X1753253Y3526004D01*
X1751747Y3525134D01*
X1750518Y3523905D01*
X1749648Y3522399D01*
X1749306Y3521120D01*
X1754532D01*
Y3526346D01*
D02*
G37*
G36*
X1493420Y3523806D02*
Y3518580D01*
X1498647D01*
X1498304Y3519859D01*
X1497435Y3521365D01*
X1496205Y3522594D01*
X1494699Y3523464D01*
X1493420Y3523806D01*
D02*
G37*
G36*
X1490880D02*
X1489601Y3523464D01*
X1488095Y3522594D01*
X1486866Y3521365D01*
X1485996Y3519859D01*
X1485654Y3518580D01*
X1490880D01*
Y3523806D01*
D02*
G37*
G36*
X2036940Y3525086D02*
X2031171D01*
Y3517317D01*
X2036940D01*
Y3525086D01*
D02*
G37*
G36*
X2028631D02*
X2022861D01*
Y3517317D01*
X2028631D01*
Y3525086D01*
D02*
G37*
G36*
X2080446Y3519650D02*
Y3514424D01*
X2085673D01*
X2085330Y3515703D01*
X2084461Y3517209D01*
X2083231Y3518438D01*
X2081725Y3519308D01*
X2080446Y3519650D01*
D02*
G37*
G36*
X2077906D02*
X2076627Y3519308D01*
X2075121Y3518438D01*
X2073892Y3517209D01*
X2073022Y3515703D01*
X2072680Y3514424D01*
X2077906D01*
Y3519650D01*
D02*
G37*
G36*
X1762299Y3518580D02*
X1757072D01*
Y3513353D01*
X1758351Y3513696D01*
X1759857Y3514565D01*
X1761087Y3515795D01*
X1761956Y3517301D01*
X1762299Y3518580D01*
D02*
G37*
G36*
X1754532D02*
X1749306D01*
X1749648Y3517301D01*
X1750518Y3515795D01*
X1751747Y3514565D01*
X1753253Y3513696D01*
X1754532Y3513353D01*
Y3518580D01*
D02*
G37*
G36*
X1498647Y3516040D02*
X1493420D01*
Y3510813D01*
X1494699Y3511156D01*
X1496205Y3512025D01*
X1497435Y3513255D01*
X1498304Y3514761D01*
X1498647Y3516040D01*
D02*
G37*
G36*
X1490880D02*
X1485654D01*
X1485996Y3514761D01*
X1486866Y3513255D01*
X1488095Y3512025D01*
X1489601Y3511156D01*
X1490880Y3510813D01*
Y3516040D01*
D02*
G37*
G36*
X2008340Y3525087D02*
X2001300D01*
X1994260D01*
Y3517317D01*
X1994260D01*
X1994831Y3516462D01*
X1994560Y3515809D01*
Y3513406D01*
X1995480Y3511186D01*
X1997179Y3509487D01*
X1999399Y3508567D01*
X2001801D01*
X2004021Y3509487D01*
X2005721Y3511186D01*
X2006640Y3513406D01*
Y3515809D01*
X2006453Y3516261D01*
X2007159Y3517317D01*
X2008340D01*
Y3525087D01*
D02*
G37*
G36*
X2085673Y3511884D02*
X2080446D01*
Y3506657D01*
X2081725Y3507000D01*
X2083231Y3507869D01*
X2084461Y3509099D01*
X2085330Y3510605D01*
X2085673Y3511884D01*
D02*
G37*
G36*
X2077906D02*
X2072680D01*
X2073022Y3510605D01*
X2073892Y3509099D01*
X2075121Y3507869D01*
X2076627Y3507000D01*
X2077906Y3506657D01*
Y3511884D01*
D02*
G37*
G36*
X1757072Y3510852D02*
Y3505626D01*
X1762299D01*
X1761956Y3506905D01*
X1761087Y3508411D01*
X1759857Y3509640D01*
X1758351Y3510510D01*
X1757072Y3510852D01*
D02*
G37*
G36*
X1754532D02*
X1753253Y3510510D01*
X1751747Y3509640D01*
X1750518Y3508411D01*
X1749648Y3506905D01*
X1749306Y3505626D01*
X1754532D01*
Y3510852D01*
D02*
G37*
G36*
X1762299Y3503086D02*
X1757072D01*
Y3497859D01*
X1758351Y3498202D01*
X1759857Y3499071D01*
X1761087Y3500301D01*
X1761956Y3501807D01*
X1762299Y3503086D01*
D02*
G37*
G36*
X1754532D02*
X1749306D01*
X1749648Y3501807D01*
X1750518Y3500301D01*
X1751747Y3499071D01*
X1753253Y3498202D01*
X1754532Y3497859D01*
Y3503086D01*
D02*
G37*
G36*
X1775638Y3390588D02*
X1775426D01*
Y3376817D01*
X1789196D01*
Y3377029D01*
X1788618Y3379935D01*
X1787485Y3382672D01*
X1785839Y3385135D01*
X1783744Y3387230D01*
X1781281Y3388876D01*
X1778543Y3390010D01*
X1775638Y3390588D01*
D02*
G37*
G36*
X1772886D02*
X1772675D01*
X1769769Y3390010D01*
X1767032Y3388876D01*
X1764569Y3387230D01*
X1762474Y3385135D01*
X1760828Y3382672D01*
X1759694Y3379935D01*
X1759116Y3377029D01*
Y3376817D01*
X1772886D01*
Y3390588D01*
D02*
G37*
G36*
X2115638Y3400588D02*
X2112675D01*
X2109769Y3400010D01*
X2107032Y3398876D01*
X2104569Y3397230D01*
X2102474Y3395135D01*
X2100828Y3392672D01*
X2099694Y3389935D01*
X2099116Y3387029D01*
Y3384066D01*
X2099694Y3381161D01*
X2100828Y3378423D01*
X2102474Y3375960D01*
X2104569Y3373865D01*
X2107032Y3372220D01*
X2109769Y3371086D01*
X2112675Y3370508D01*
X2115638D01*
X2118543Y3371086D01*
X2121281Y3372220D01*
X2123744Y3373865D01*
X2125839Y3375960D01*
X2127485Y3378423D01*
X2128618Y3381161D01*
X2129196Y3384066D01*
Y3387029D01*
X2128618Y3389935D01*
X2127485Y3392672D01*
X2125839Y3395135D01*
X2123744Y3397230D01*
X2121281Y3398876D01*
X2118543Y3400010D01*
X2115638Y3400588D01*
D02*
G37*
G36*
X1789196Y3374277D02*
X1775426D01*
Y3360508D01*
X1775638D01*
X1778543Y3361086D01*
X1781281Y3362220D01*
X1783744Y3363865D01*
X1785839Y3365960D01*
X1787485Y3368423D01*
X1788618Y3371161D01*
X1789196Y3374066D01*
Y3374277D01*
D02*
G37*
G36*
X1772886D02*
X1759116D01*
Y3374066D01*
X1759694Y3371161D01*
X1760828Y3368423D01*
X1762474Y3365960D01*
X1764569Y3363865D01*
X1767032Y3362220D01*
X1769769Y3361086D01*
X1772675Y3360508D01*
X1772886D01*
Y3374277D01*
D02*
G37*
G36*
X1545852Y3620434D02*
X1544113D01*
X1542433Y3619984D01*
X1540927Y3619114D01*
X1539698Y3617885D01*
X1538828Y3616379D01*
X1538378Y3614699D01*
Y3612960D01*
X1538828Y3611281D01*
X1539698Y3609775D01*
X1540927Y3608545D01*
X1541616Y3608148D01*
Y3539631D01*
X1541872Y3538342D01*
X1542602Y3537250D01*
X1628230Y3451622D01*
Y3368306D01*
X1627541Y3367908D01*
X1626312Y3366678D01*
X1625442Y3365173D01*
X1624992Y3363493D01*
Y3361754D01*
X1625442Y3360074D01*
X1626312Y3358569D01*
X1627541Y3357339D01*
X1629047Y3356470D01*
X1630727Y3356020D01*
X1632466D01*
X1634145Y3356470D01*
X1635651Y3357339D01*
X1636881Y3358569D01*
X1637750Y3360074D01*
X1638200Y3361754D01*
Y3363493D01*
X1637750Y3365173D01*
X1636881Y3366678D01*
X1635651Y3367908D01*
X1634963Y3368306D01*
Y3453017D01*
X1634707Y3454305D01*
X1633977Y3455397D01*
X1548349Y3541025D01*
Y3608148D01*
X1549037Y3608545D01*
X1550267Y3609775D01*
X1551136Y3611281D01*
X1551586Y3612960D01*
Y3614699D01*
X1551136Y3616379D01*
X1550267Y3617885D01*
X1549037Y3619114D01*
X1547531Y3619984D01*
X1545852Y3620434D01*
D02*
G37*
G36*
X1744838Y3372838D02*
X1741875D01*
X1738969Y3372260D01*
X1736232Y3371126D01*
X1733769Y3369480D01*
X1731674Y3367385D01*
X1730028Y3364922D01*
X1728894Y3362185D01*
X1728316Y3359279D01*
Y3356317D01*
X1728894Y3353411D01*
X1730028Y3350674D01*
X1731674Y3348210D01*
X1733769Y3346115D01*
X1736232Y3344469D01*
X1738969Y3343336D01*
X1741875Y3342758D01*
X1744838D01*
X1747743Y3343336D01*
X1750480Y3344469D01*
X1752944Y3346115D01*
X1755039Y3348210D01*
X1756685Y3350674D01*
X1757818Y3353411D01*
X1758396Y3356317D01*
Y3359279D01*
X1757818Y3362185D01*
X1756685Y3364922D01*
X1755039Y3367385D01*
X1752944Y3369480D01*
X1750480Y3371126D01*
X1747743Y3372260D01*
X1744838Y3372838D01*
D02*
G37*
G36*
X1706738D02*
X1703775D01*
X1700869Y3372260D01*
X1698132Y3371126D01*
X1695669Y3369480D01*
X1693574Y3367385D01*
X1691928Y3364922D01*
X1690794Y3362185D01*
X1690216Y3359279D01*
Y3356317D01*
X1690794Y3353411D01*
X1691928Y3350674D01*
X1693574Y3348210D01*
X1695669Y3346115D01*
X1698132Y3344469D01*
X1700869Y3343336D01*
X1703775Y3342758D01*
X1706738D01*
X1709643Y3343336D01*
X1712381Y3344469D01*
X1714844Y3346115D01*
X1716939Y3348210D01*
X1718585Y3350674D01*
X1719718Y3353411D01*
X1720296Y3356317D01*
Y3359279D01*
X1719718Y3362185D01*
X1718585Y3364922D01*
X1716939Y3367385D01*
X1714844Y3369480D01*
X1712381Y3371126D01*
X1709643Y3372260D01*
X1706738Y3372838D01*
D02*
G37*
G36*
X1885638Y3370588D02*
X1882675D01*
X1879769Y3370010D01*
X1877032Y3368876D01*
X1874569Y3367230D01*
X1872474Y3365135D01*
X1870828Y3362672D01*
X1869694Y3359935D01*
X1869116Y3357029D01*
Y3354066D01*
X1869694Y3351161D01*
X1870828Y3348423D01*
X1872474Y3345960D01*
X1874569Y3343865D01*
X1877032Y3342220D01*
X1879769Y3341086D01*
X1882675Y3340508D01*
X1885638D01*
X1888543Y3341086D01*
X1891281Y3342220D01*
X1893744Y3343865D01*
X1895839Y3345960D01*
X1897485Y3348423D01*
X1898618Y3351161D01*
X1899196Y3354066D01*
Y3357029D01*
X1898618Y3359935D01*
X1897485Y3362672D01*
X1895839Y3365135D01*
X1893744Y3367230D01*
X1891281Y3368876D01*
X1888543Y3370010D01*
X1885638Y3370588D01*
D02*
G37*
G36*
X1845638D02*
X1842675D01*
X1839769Y3370010D01*
X1837032Y3368876D01*
X1834569Y3367230D01*
X1832474Y3365135D01*
X1830828Y3362672D01*
X1829694Y3359935D01*
X1829116Y3357029D01*
Y3354066D01*
X1829694Y3351161D01*
X1830828Y3348423D01*
X1832474Y3345960D01*
X1834569Y3343865D01*
X1837032Y3342220D01*
X1839769Y3341086D01*
X1842675Y3340508D01*
X1845638D01*
X1848543Y3341086D01*
X1851281Y3342220D01*
X1853744Y3343865D01*
X1855839Y3345960D01*
X1857485Y3348423D01*
X1858618Y3351161D01*
X1859196Y3354066D01*
Y3357029D01*
X1858618Y3359935D01*
X1857485Y3362672D01*
X1855839Y3365135D01*
X1853744Y3367230D01*
X1851281Y3368876D01*
X1848543Y3370010D01*
X1845638Y3370588D01*
D02*
G37*
G36*
X2039584Y3417404D02*
X2033360D01*
X2027213Y3416430D01*
X2021294Y3414507D01*
X2015749Y3411681D01*
X2010714Y3408023D01*
X2006313Y3403622D01*
X2002655Y3398587D01*
X1999829Y3393042D01*
X1997906Y3387123D01*
X1996932Y3380976D01*
Y3374752D01*
X1997906Y3368605D01*
X1999829Y3362686D01*
X2002655Y3357140D01*
X2006313Y3352105D01*
X2010714Y3347704D01*
X2015749Y3344046D01*
X2021294Y3341220D01*
X2027213Y3339297D01*
X2033360Y3338324D01*
X2039584D01*
X2045731Y3339297D01*
X2051651Y3341220D01*
X2057196Y3344046D01*
X2062231Y3347704D01*
X2066632Y3352105D01*
X2070290Y3357140D01*
X2073116Y3362686D01*
X2075039Y3368605D01*
X2076012Y3374752D01*
Y3380976D01*
X2075039Y3387123D01*
X2073116Y3393042D01*
X2070290Y3398587D01*
X2066632Y3403622D01*
X2062231Y3408023D01*
X2057196Y3411681D01*
X2051651Y3414507D01*
X2045731Y3416430D01*
X2039584Y3417404D01*
D02*
G37*
G36*
X1554952D02*
X1548728D01*
X1542581Y3416430D01*
X1536662Y3414507D01*
X1531117Y3411681D01*
X1526082Y3408023D01*
X1521681Y3403622D01*
X1518023Y3398587D01*
X1515197Y3393042D01*
X1513274Y3387123D01*
X1512300Y3380976D01*
Y3374752D01*
X1513274Y3368605D01*
X1515197Y3362686D01*
X1518023Y3357140D01*
X1521681Y3352105D01*
X1526082Y3347704D01*
X1531117Y3344046D01*
X1536662Y3341220D01*
X1542581Y3339297D01*
X1548728Y3338324D01*
X1554952D01*
X1561099Y3339297D01*
X1567018Y3341220D01*
X1572564Y3344046D01*
X1577599Y3347704D01*
X1582000Y3352105D01*
X1585658Y3357140D01*
X1588483Y3362686D01*
X1590407Y3368605D01*
X1591380Y3374752D01*
Y3380976D01*
X1590407Y3387123D01*
X1588483Y3393042D01*
X1585658Y3398587D01*
X1582000Y3403622D01*
X1577599Y3408023D01*
X1572564Y3411681D01*
X1567018Y3414507D01*
X1561099Y3416430D01*
X1554952Y3417404D01*
D02*
G37*
G36*
X1744838Y3322038D02*
X1741875D01*
X1738969Y3321460D01*
X1736232Y3320326D01*
X1733769Y3318680D01*
X1731674Y3316585D01*
X1730028Y3314122D01*
X1728894Y3311385D01*
X1728316Y3308479D01*
Y3305516D01*
X1728894Y3302611D01*
X1730028Y3299874D01*
X1731674Y3297410D01*
X1733769Y3295316D01*
X1736232Y3293669D01*
X1738969Y3292536D01*
X1741875Y3291958D01*
X1744838D01*
X1747743Y3292536D01*
X1750480Y3293669D01*
X1752944Y3295316D01*
X1755039Y3297410D01*
X1756685Y3299874D01*
X1757818Y3302611D01*
X1758396Y3305516D01*
Y3308479D01*
X1757818Y3311385D01*
X1756685Y3314122D01*
X1755039Y3316585D01*
X1752944Y3318680D01*
X1750480Y3320326D01*
X1747743Y3321460D01*
X1744838Y3322038D01*
D02*
G37*
G36*
X1977430Y3277188D02*
X1975691D01*
X1974011Y3276738D01*
X1972505Y3275868D01*
X1971276Y3274639D01*
X1970406Y3273133D01*
X1969957Y3271453D01*
Y3269714D01*
X1970406Y3268035D01*
X1971276Y3266529D01*
X1972505Y3265299D01*
X1974011Y3264430D01*
X1975691Y3263980D01*
X1977430D01*
X1978198Y3264185D01*
X2000790Y3241593D01*
Y3240213D01*
X1999769Y3240010D01*
X1997032Y3238876D01*
X1994569Y3237230D01*
X1992474Y3235135D01*
X1990828Y3232672D01*
X1989694Y3229935D01*
X1989116Y3227029D01*
Y3224066D01*
X1989694Y3221161D01*
X1990828Y3218423D01*
X1992474Y3215960D01*
X1994569Y3213865D01*
X1997032Y3212220D01*
X1999769Y3211086D01*
X2002675Y3210508D01*
X2005638D01*
X2008543Y3211086D01*
X2011281Y3212220D01*
X2013744Y3213865D01*
X2015839Y3215960D01*
X2017485Y3218423D01*
X2018618Y3221161D01*
X2019196Y3224066D01*
Y3227029D01*
X2018618Y3229935D01*
X2017485Y3232672D01*
X2015839Y3235135D01*
X2013744Y3237230D01*
X2011281Y3238876D01*
X2008543Y3240010D01*
X2007523Y3240213D01*
Y3242988D01*
X2007267Y3244276D01*
X2006537Y3245368D01*
X1982959Y3268947D01*
X1983165Y3269714D01*
Y3271453D01*
X1982714Y3273133D01*
X1981845Y3274639D01*
X1980615Y3275868D01*
X1979109Y3276738D01*
X1977430Y3277188D01*
D02*
G37*
G36*
X2080626Y3240250D02*
X2077663D01*
X2074757Y3239672D01*
X2072020Y3238538D01*
X2069557Y3236892D01*
X2067462Y3234797D01*
X2065816Y3232334D01*
X2064682Y3229597D01*
X2064104Y3226691D01*
Y3223728D01*
X2064682Y3220823D01*
X2065816Y3218086D01*
X2067462Y3215622D01*
X2069557Y3213528D01*
X2072020Y3211881D01*
X2074757Y3210748D01*
X2077663Y3210170D01*
X2080626D01*
X2083531Y3210748D01*
X2086268Y3211881D01*
X2088732Y3213528D01*
X2090827Y3215622D01*
X2092473Y3218086D01*
X2093606Y3220823D01*
X2094184Y3223728D01*
Y3226691D01*
X2093606Y3229597D01*
X2092473Y3232334D01*
X2090827Y3234797D01*
X2088732Y3236892D01*
X2086268Y3238538D01*
X2083531Y3239672D01*
X2080626Y3240250D01*
D02*
G37*
G36*
X2046273Y3238598D02*
X2043310D01*
X2040404Y3238020D01*
X2037667Y3236886D01*
X2035204Y3235240D01*
X2033109Y3233145D01*
X2031463Y3230682D01*
X2030329Y3227945D01*
X2029751Y3225039D01*
Y3222076D01*
X2030329Y3219171D01*
X2031463Y3216433D01*
X2033109Y3213970D01*
X2035204Y3211875D01*
X2037667Y3210229D01*
X2040404Y3209095D01*
X2043310Y3208518D01*
X2046273D01*
X2049178Y3209095D01*
X2051915Y3210229D01*
X2054379Y3211875D01*
X2056474Y3213970D01*
X2058120Y3216433D01*
X2059253Y3219171D01*
X2059831Y3222076D01*
Y3225039D01*
X2059253Y3227945D01*
X2058120Y3230682D01*
X2056474Y3233145D01*
X2054379Y3235240D01*
X2051915Y3236886D01*
X2049178Y3238020D01*
X2046273Y3238598D01*
D02*
G37*
G36*
X1595638Y3230588D02*
X1592675D01*
X1589769Y3230010D01*
X1587032Y3228876D01*
X1584569Y3227230D01*
X1582474Y3225135D01*
X1580828Y3222672D01*
X1579694Y3219935D01*
X1579116Y3217029D01*
Y3214066D01*
X1579694Y3211161D01*
X1580828Y3208423D01*
X1582474Y3205960D01*
X1584569Y3203865D01*
X1587032Y3202220D01*
X1589769Y3201086D01*
X1592675Y3200508D01*
X1595638D01*
X1598543Y3201086D01*
X1601281Y3202220D01*
X1603744Y3203865D01*
X1605839Y3205960D01*
X1607485Y3208423D01*
X1608618Y3211161D01*
X1609196Y3214066D01*
Y3217029D01*
X1608618Y3219935D01*
X1607485Y3222672D01*
X1605839Y3225135D01*
X1603744Y3227230D01*
X1601281Y3228876D01*
X1598543Y3230010D01*
X1595638Y3230588D01*
D02*
G37*
G36*
Y3180588D02*
X1592675D01*
X1589769Y3180010D01*
X1587032Y3178876D01*
X1584569Y3177230D01*
X1582474Y3175135D01*
X1580828Y3172672D01*
X1579694Y3169935D01*
X1579116Y3167029D01*
Y3164066D01*
X1579694Y3161161D01*
X1580828Y3158423D01*
X1582474Y3155960D01*
X1584569Y3153865D01*
X1587032Y3152220D01*
X1589769Y3151086D01*
X1592675Y3150508D01*
X1595638D01*
X1598543Y3151086D01*
X1601281Y3152220D01*
X1603744Y3153865D01*
X1605839Y3155960D01*
X1607485Y3158423D01*
X1608618Y3161161D01*
X1609196Y3164066D01*
Y3167029D01*
X1608618Y3169935D01*
X1607485Y3172672D01*
X1605839Y3175135D01*
X1603744Y3177230D01*
X1601281Y3178876D01*
X1598543Y3180010D01*
X1595638Y3180588D01*
D02*
G37*
G36*
X1995638Y3170588D02*
X1992675D01*
X1989769Y3170010D01*
X1987032Y3168876D01*
X1984569Y3167230D01*
X1982474Y3165135D01*
X1980828Y3162672D01*
X1979694Y3159935D01*
X1979116Y3157029D01*
Y3154066D01*
X1979694Y3151161D01*
X1980828Y3148423D01*
X1982474Y3145960D01*
X1984569Y3143865D01*
X1987032Y3142220D01*
X1989769Y3141086D01*
X1992675Y3140508D01*
X1995638D01*
X1998543Y3141086D01*
X2001281Y3142220D01*
X2003744Y3143865D01*
X2005839Y3145960D01*
X2007485Y3148423D01*
X2008618Y3151161D01*
X2009196Y3154066D01*
Y3157029D01*
X2008618Y3159935D01*
X2007485Y3162672D01*
X2005839Y3165135D01*
X2003744Y3167230D01*
X2001281Y3168876D01*
X1998543Y3170010D01*
X1995638Y3170588D01*
D02*
G37*
G36*
X1595638Y3110588D02*
X1595426D01*
Y3096818D01*
X1609196D01*
Y3097029D01*
X1608618Y3099935D01*
X1607485Y3102672D01*
X1605839Y3105135D01*
X1603744Y3107230D01*
X1601281Y3108876D01*
X1598543Y3110010D01*
X1595638Y3110588D01*
D02*
G37*
G36*
X1592886D02*
X1592675D01*
X1589769Y3110010D01*
X1587032Y3108876D01*
X1584569Y3107230D01*
X1582474Y3105135D01*
X1580828Y3102672D01*
X1579694Y3099935D01*
X1579116Y3097029D01*
Y3096818D01*
X1592886D01*
Y3110588D01*
D02*
G37*
G36*
X1975638Y3120588D02*
X1972675D01*
X1969769Y3120010D01*
X1967032Y3118876D01*
X1964569Y3117230D01*
X1962474Y3115135D01*
X1960828Y3112672D01*
X1959694Y3109935D01*
X1959116Y3107029D01*
Y3104066D01*
X1959694Y3101161D01*
X1960828Y3098423D01*
X1962474Y3095960D01*
X1964569Y3093865D01*
X1967032Y3092220D01*
X1969769Y3091086D01*
X1972675Y3090508D01*
X1975638D01*
X1978543Y3091086D01*
X1981281Y3092220D01*
X1983744Y3093865D01*
X1985839Y3095960D01*
X1987485Y3098423D01*
X1988618Y3101161D01*
X1989196Y3104066D01*
Y3107029D01*
X1988618Y3109935D01*
X1987485Y3112672D01*
X1985839Y3115135D01*
X1983744Y3117230D01*
X1981281Y3118876D01*
X1978543Y3120010D01*
X1975638Y3120588D01*
D02*
G37*
G36*
X1609196Y3094278D02*
X1595426D01*
Y3080508D01*
X1595638D01*
X1598543Y3081086D01*
X1601281Y3082220D01*
X1603744Y3083865D01*
X1605839Y3085960D01*
X1607485Y3088423D01*
X1608618Y3091161D01*
X1609196Y3094066D01*
Y3094278D01*
D02*
G37*
G36*
X1592886D02*
X1579116D01*
Y3094066D01*
X1579694Y3091161D01*
X1580828Y3088423D01*
X1582474Y3085960D01*
X1584569Y3083865D01*
X1587032Y3082220D01*
X1589769Y3081086D01*
X1592675Y3080508D01*
X1592886D01*
Y3094278D01*
D02*
G37*
G36*
X2089196Y3084278D02*
X2075426D01*
Y3070508D01*
X2075638D01*
X2078543Y3071086D01*
X2081281Y3072220D01*
X2083744Y3073865D01*
X2085839Y3075960D01*
X2087485Y3078423D01*
X2088618Y3081161D01*
X2089196Y3084066D01*
Y3084278D01*
D02*
G37*
G36*
X2072886D02*
X2059116D01*
Y3084066D01*
X2059694Y3081161D01*
X2060828Y3078423D01*
X2062474Y3075960D01*
X2064569Y3073865D01*
X2067032Y3072220D01*
X2069769Y3071086D01*
X2072675Y3070508D01*
X2072886D01*
Y3084278D01*
D02*
G37*
G36*
X1745638Y3100588D02*
X1742675D01*
X1739769Y3100010D01*
X1737032Y3098876D01*
X1734569Y3097230D01*
X1732474Y3095135D01*
X1730828Y3092672D01*
X1729694Y3089935D01*
X1729116Y3087029D01*
Y3084066D01*
X1729694Y3081161D01*
X1730828Y3078423D01*
X1732474Y3075960D01*
X1734569Y3073865D01*
X1737032Y3072220D01*
X1739769Y3071086D01*
X1742675Y3070508D01*
X1745638D01*
X1748543Y3071086D01*
X1751281Y3072220D01*
X1753744Y3073865D01*
X1755839Y3075960D01*
X1757485Y3078423D01*
X1758618Y3081161D01*
X1759196Y3084066D01*
Y3087029D01*
X1758618Y3089935D01*
X1757485Y3092672D01*
X1755839Y3095135D01*
X1753744Y3097230D01*
X1751281Y3098876D01*
X1748543Y3100010D01*
X1745638Y3100588D01*
D02*
G37*
G36*
X2645254Y3653110D02*
X2643975Y3652767D01*
X2642469Y3651897D01*
X2641239Y3650668D01*
X2640834Y3649966D01*
X2639367D01*
X2639108Y3650414D01*
X2637879Y3651643D01*
X2636373Y3652513D01*
X2635094Y3652856D01*
Y3646359D01*
Y3639862D01*
X2636373Y3640205D01*
X2637879Y3641075D01*
X2639108Y3642304D01*
X2639514Y3643006D01*
X2640981D01*
X2641239Y3642558D01*
X2642469Y3641328D01*
X2643975Y3640459D01*
X2645254Y3640116D01*
Y3646613D01*
Y3653110D01*
D02*
G37*
G36*
X2647794D02*
Y3647883D01*
X2653021D01*
X2652678Y3649162D01*
X2651808Y3650668D01*
X2650579Y3651897D01*
X2649073Y3652767D01*
X2647794Y3653110D01*
D02*
G37*
G36*
X2609948D02*
Y3647883D01*
X2615175D01*
X2614832Y3649162D01*
X2613962Y3650668D01*
X2612733Y3651897D01*
X2611227Y3652767D01*
X2609948Y3653110D01*
D02*
G37*
G36*
X2607408D02*
X2606129Y3652767D01*
X2604623Y3651897D01*
X2603393Y3650668D01*
X2602524Y3649162D01*
X2602181Y3647883D01*
X2607408D01*
Y3653110D01*
D02*
G37*
G36*
X2632554Y3652856D02*
X2631275Y3652513D01*
X2629769Y3651643D01*
X2628539Y3650414D01*
X2627670Y3648908D01*
X2627327Y3647629D01*
X2632554D01*
Y3652856D01*
D02*
G37*
G36*
X2653021Y3645343D02*
X2647794D01*
Y3640116D01*
X2649073Y3640459D01*
X2650579Y3641328D01*
X2651808Y3642558D01*
X2652678Y3644064D01*
X2653021Y3645343D01*
D02*
G37*
G36*
X2615175D02*
X2609948D01*
Y3640116D01*
X2611227Y3640459D01*
X2612733Y3641328D01*
X2613962Y3642558D01*
X2614832Y3644064D01*
X2615175Y3645343D01*
D02*
G37*
G36*
X2607408D02*
X2602181D01*
X2602524Y3644064D01*
X2603393Y3642558D01*
X2604623Y3641328D01*
X2606129Y3640459D01*
X2607408Y3640116D01*
Y3645343D01*
D02*
G37*
G36*
X2632554Y3645089D02*
X2627327D01*
X2627670Y3643810D01*
X2628539Y3642304D01*
X2629769Y3641075D01*
X2631275Y3640205D01*
X2632554Y3639862D01*
Y3645089D01*
D02*
G37*
G36*
X2820700Y3640555D02*
Y3635328D01*
X2825927D01*
X2825584Y3636607D01*
X2824715Y3638112D01*
X2823485Y3639342D01*
X2821979Y3640211D01*
X2820700Y3640555D01*
D02*
G37*
G36*
X2818160D02*
X2816881Y3640211D01*
X2815375Y3639342D01*
X2814146Y3638112D01*
X2813276Y3636607D01*
X2812934Y3635328D01*
X2818160D01*
Y3640555D01*
D02*
G37*
G36*
X2825927Y3632788D02*
X2820700D01*
Y3627561D01*
X2821979Y3627904D01*
X2823485Y3628773D01*
X2824715Y3630003D01*
X2825584Y3631508D01*
X2825927Y3632788D01*
D02*
G37*
G36*
X2818160D02*
X2812934D01*
X2813276Y3631508D01*
X2814146Y3630003D01*
X2815375Y3628773D01*
X2816881Y3627904D01*
X2818160Y3627561D01*
Y3632788D01*
D02*
G37*
G36*
X2474974Y3629724D02*
Y3624498D01*
X2480201D01*
X2479858Y3625777D01*
X2478989Y3627283D01*
X2477759Y3628512D01*
X2476253Y3629382D01*
X2474974Y3629724D01*
D02*
G37*
G36*
X2472434D02*
X2471155Y3629382D01*
X2469649Y3628512D01*
X2468420Y3627283D01*
X2467550Y3625777D01*
X2467208Y3624498D01*
X2472434D01*
Y3629724D01*
D02*
G37*
G36*
X2480201Y3621958D02*
X2474974D01*
Y3616731D01*
X2476253Y3617074D01*
X2477759Y3617943D01*
X2478989Y3619173D01*
X2479858Y3620679D01*
X2480201Y3621958D01*
D02*
G37*
G36*
X2472434D02*
X2467208D01*
X2467550Y3620679D01*
X2468420Y3619173D01*
X2469649Y3617943D01*
X2471155Y3617074D01*
X2472434Y3616731D01*
Y3621958D01*
D02*
G37*
G36*
X2336290Y3620072D02*
Y3614846D01*
X2341517D01*
X2341174Y3616125D01*
X2340305Y3617631D01*
X2339075Y3618860D01*
X2337569Y3619730D01*
X2336290Y3620072D01*
D02*
G37*
G36*
X2333750D02*
X2332471Y3619730D01*
X2330965Y3618860D01*
X2329736Y3617631D01*
X2328866Y3616125D01*
X2328524Y3614846D01*
X2333750D01*
Y3620072D01*
D02*
G37*
G36*
X2771802Y3628647D02*
X2769399D01*
X2767179Y3627727D01*
X2765480Y3626028D01*
X2764560Y3623808D01*
Y3621406D01*
X2764748Y3620953D01*
X2764042Y3619897D01*
X2762860D01*
Y3612127D01*
X2769900D01*
X2776941D01*
Y3619897D01*
X2776941D01*
X2776370Y3620752D01*
X2776640Y3621406D01*
Y3623808D01*
X2775721Y3626028D01*
X2774022Y3627727D01*
X2771802Y3628647D01*
D02*
G37*
G36*
X2748340Y3619895D02*
X2742570D01*
Y3612125D01*
X2748340D01*
Y3619895D01*
D02*
G37*
G36*
X2740030D02*
X2734260D01*
Y3612125D01*
X2740030D01*
Y3619895D01*
D02*
G37*
G36*
X2341517Y3612306D02*
X2336290D01*
Y3607079D01*
X2337569Y3607422D01*
X2339075Y3608291D01*
X2340305Y3609521D01*
X2341174Y3611027D01*
X2341517Y3612306D01*
D02*
G37*
G36*
X2333750D02*
X2328524D01*
X2328866Y3611027D01*
X2329736Y3609521D01*
X2330965Y3608291D01*
X2332471Y3607422D01*
X2333750Y3607079D01*
Y3612306D01*
D02*
G37*
G36*
X2776941Y3609587D02*
X2771170D01*
Y3601817D01*
X2776941D01*
Y3609587D01*
D02*
G37*
G36*
X2768630D02*
X2762860D01*
Y3601817D01*
X2768630D01*
Y3609587D01*
D02*
G37*
G36*
X2748340Y3609585D02*
X2742570D01*
Y3601815D01*
X2748340D01*
Y3609585D01*
D02*
G37*
G36*
X2740030D02*
X2734260D01*
Y3601815D01*
X2740030D01*
Y3609585D01*
D02*
G37*
G36*
X2653776Y3612214D02*
X2651837D01*
X2649963Y3611712D01*
X2648284Y3610742D01*
X2646912Y3609370D01*
X2645942Y3607691D01*
X2645440Y3605817D01*
Y3603878D01*
X2645942Y3602004D01*
X2646912Y3600325D01*
X2648284Y3598954D01*
X2649963Y3597984D01*
X2651837Y3597482D01*
X2653776D01*
X2655650Y3597984D01*
X2657329Y3598954D01*
X2658701Y3600325D01*
X2659670Y3602004D01*
X2660172Y3603878D01*
Y3605817D01*
X2659670Y3607691D01*
X2658701Y3609370D01*
X2657329Y3610742D01*
X2655650Y3611712D01*
X2653776Y3612214D01*
D02*
G37*
G36*
X2615676D02*
X2613737D01*
X2611863Y3611712D01*
X2610184Y3610742D01*
X2608812Y3609370D01*
X2607842Y3607691D01*
X2607340Y3605817D01*
Y3603878D01*
X2607842Y3602004D01*
X2608812Y3600325D01*
X2610184Y3598954D01*
X2611863Y3597984D01*
X2613737Y3597482D01*
X2615676D01*
X2617550Y3597984D01*
X2619229Y3598954D01*
X2620601Y3600325D01*
X2621570Y3602004D01*
X2622072Y3603878D01*
Y3605817D01*
X2621570Y3607691D01*
X2620601Y3609370D01*
X2619229Y3610742D01*
X2617550Y3611712D01*
X2615676Y3612214D01*
D02*
G37*
G36*
X2801650Y3601438D02*
Y3596212D01*
X2806877D01*
X2806534Y3597491D01*
X2805665Y3598997D01*
X2804435Y3600226D01*
X2802929Y3601096D01*
X2801650Y3601438D01*
D02*
G37*
G36*
X2799110D02*
X2797831Y3601096D01*
X2796325Y3600226D01*
X2795096Y3598997D01*
X2794226Y3597491D01*
X2793884Y3596212D01*
X2799110D01*
Y3601438D01*
D02*
G37*
G36*
X2806877Y3593672D02*
X2801650D01*
Y3588445D01*
X2802929Y3588788D01*
X2804435Y3589657D01*
X2805665Y3590887D01*
X2806534Y3592393D01*
X2806877Y3593672D01*
D02*
G37*
G36*
X2799110D02*
X2793884D01*
X2794226Y3592393D01*
X2795096Y3590887D01*
X2796325Y3589657D01*
X2797831Y3588788D01*
X2799110Y3588445D01*
Y3593672D01*
D02*
G37*
G36*
X2323776Y3577088D02*
X2320737D01*
X2317802Y3576301D01*
X2315171Y3574782D01*
X2313022Y3572633D01*
X2311503Y3570002D01*
X2310716Y3567067D01*
Y3564028D01*
X2311503Y3561093D01*
X2313022Y3558462D01*
X2315171Y3556313D01*
X2317802Y3554794D01*
X2320737Y3554008D01*
X2323776D01*
X2326711Y3554794D01*
X2329342Y3556313D01*
X2331491Y3558462D01*
X2333010Y3561093D01*
X2333796Y3564028D01*
Y3567067D01*
X2333010Y3570002D01*
X2331491Y3572633D01*
X2329342Y3574782D01*
X2326711Y3576301D01*
X2323776Y3577088D01*
D02*
G37*
G36*
X2247576D02*
X2244537D01*
X2241602Y3576301D01*
X2238971Y3574782D01*
X2236822Y3572633D01*
X2235303Y3570002D01*
X2234516Y3567067D01*
Y3564028D01*
X2235303Y3561093D01*
X2236822Y3558462D01*
X2238971Y3556313D01*
X2241602Y3554794D01*
X2244537Y3554008D01*
X2247576D01*
X2250511Y3554794D01*
X2253142Y3556313D01*
X2255291Y3558462D01*
X2256810Y3561093D01*
X2257596Y3564028D01*
Y3567067D01*
X2256810Y3570002D01*
X2255291Y3572633D01*
X2253142Y3574782D01*
X2250511Y3576301D01*
X2247576Y3577088D01*
D02*
G37*
G36*
X2748340Y3535397D02*
X2742570D01*
Y3527627D01*
X2748340D01*
Y3535397D01*
D02*
G37*
G36*
X2740030D02*
X2734260D01*
Y3527627D01*
X2740030D01*
Y3535397D01*
D02*
G37*
G36*
X2776941D02*
X2771171D01*
Y3527627D01*
X2776941D01*
Y3535397D01*
D02*
G37*
G36*
X2768631D02*
X2762860D01*
Y3527627D01*
X2768631D01*
Y3535397D01*
D02*
G37*
G36*
X2615576Y3541094D02*
X2613837D01*
X2612158Y3540644D01*
X2610652Y3539774D01*
X2609422Y3538545D01*
X2608553Y3537039D01*
X2608102Y3535359D01*
Y3533620D01*
X2608553Y3531941D01*
X2609422Y3530435D01*
X2610652Y3529205D01*
X2612158Y3528336D01*
X2613837Y3527886D01*
X2615576D01*
X2617256Y3528336D01*
X2618762Y3529205D01*
X2619991Y3530435D01*
X2620095Y3530615D01*
X2668206D01*
X2668604Y3529927D01*
X2669833Y3528697D01*
X2671339Y3527828D01*
X2673019Y3527378D01*
X2674758D01*
X2676437Y3527828D01*
X2677943Y3528697D01*
X2679173Y3529927D01*
X2680042Y3531432D01*
X2680493Y3533112D01*
Y3534851D01*
X2680042Y3536531D01*
X2679173Y3538036D01*
X2677943Y3539266D01*
X2676437Y3540135D01*
X2674758Y3540586D01*
X2673019D01*
X2671339Y3540135D01*
X2669833Y3539266D01*
X2668604Y3538036D01*
X2668206Y3537348D01*
X2620682D01*
X2619991Y3538545D01*
X2618762Y3539774D01*
X2617256Y3540644D01*
X2615576Y3541094D01*
D02*
G37*
G36*
X2497072Y3526346D02*
Y3521120D01*
X2502299D01*
X2501956Y3522399D01*
X2501087Y3523905D01*
X2499857Y3525134D01*
X2498351Y3526004D01*
X2497072Y3526346D01*
D02*
G37*
G36*
X2494532D02*
X2493253Y3526004D01*
X2491747Y3525134D01*
X2490518Y3523905D01*
X2489648Y3522399D01*
X2489306Y3521120D01*
X2494532D01*
Y3526346D01*
D02*
G37*
G36*
X2233420Y3523806D02*
Y3518580D01*
X2238647D01*
X2238304Y3519859D01*
X2237435Y3521365D01*
X2236205Y3522594D01*
X2234699Y3523464D01*
X2233420Y3523806D01*
D02*
G37*
G36*
X2230880D02*
X2229601Y3523464D01*
X2228095Y3522594D01*
X2226866Y3521365D01*
X2225996Y3519859D01*
X2225654Y3518580D01*
X2230880D01*
Y3523806D01*
D02*
G37*
G36*
X2776941Y3525086D02*
X2771171D01*
Y3517317D01*
X2776941D01*
Y3525086D01*
D02*
G37*
G36*
X2768631D02*
X2762860D01*
Y3517317D01*
X2768631D01*
Y3525086D01*
D02*
G37*
G36*
X2820446Y3519650D02*
Y3514424D01*
X2825673D01*
X2825331Y3515703D01*
X2824461Y3517209D01*
X2823232Y3518438D01*
X2821725Y3519308D01*
X2820446Y3519650D01*
D02*
G37*
G36*
X2817906D02*
X2816628Y3519308D01*
X2815121Y3518438D01*
X2813892Y3517209D01*
X2813022Y3515703D01*
X2812680Y3514424D01*
X2817906D01*
Y3519650D01*
D02*
G37*
G36*
X2502299Y3518580D02*
X2497072D01*
Y3513353D01*
X2498351Y3513696D01*
X2499857Y3514565D01*
X2501087Y3515795D01*
X2501956Y3517301D01*
X2502299Y3518580D01*
D02*
G37*
G36*
X2494532D02*
X2489306D01*
X2489648Y3517301D01*
X2490518Y3515795D01*
X2491747Y3514565D01*
X2493253Y3513696D01*
X2494532Y3513353D01*
Y3518580D01*
D02*
G37*
G36*
X2238647Y3516040D02*
X2233420D01*
Y3510813D01*
X2234699Y3511156D01*
X2236205Y3512025D01*
X2237435Y3513255D01*
X2238304Y3514761D01*
X2238647Y3516040D01*
D02*
G37*
G36*
X2230880D02*
X2225654D01*
X2225996Y3514761D01*
X2226866Y3513255D01*
X2228095Y3512025D01*
X2229601Y3511156D01*
X2230880Y3510813D01*
Y3516040D01*
D02*
G37*
G36*
X2748340Y3525087D02*
X2741300D01*
X2734260D01*
Y3517317D01*
X2734260D01*
X2734831Y3516462D01*
X2734560Y3515809D01*
Y3513406D01*
X2735480Y3511186D01*
X2737179Y3509487D01*
X2739399Y3508567D01*
X2741801D01*
X2744022Y3509487D01*
X2745721Y3511186D01*
X2746640Y3513406D01*
Y3515809D01*
X2746453Y3516261D01*
X2747159Y3517317D01*
X2748340D01*
Y3525087D01*
D02*
G37*
G36*
X2825673Y3511884D02*
X2820446D01*
Y3506657D01*
X2821725Y3507000D01*
X2823232Y3507869D01*
X2824461Y3509099D01*
X2825331Y3510605D01*
X2825673Y3511884D01*
D02*
G37*
G36*
X2817906D02*
X2812680D01*
X2813022Y3510605D01*
X2813892Y3509099D01*
X2815121Y3507869D01*
X2816628Y3507000D01*
X2817906Y3506657D01*
Y3511884D01*
D02*
G37*
G36*
X2497072Y3510852D02*
Y3505626D01*
X2502299D01*
X2501956Y3506905D01*
X2501087Y3508411D01*
X2499857Y3509640D01*
X2498351Y3510510D01*
X2497072Y3510852D01*
D02*
G37*
G36*
X2494532D02*
X2493253Y3510510D01*
X2491747Y3509640D01*
X2490518Y3508411D01*
X2489648Y3506905D01*
X2489306Y3505626D01*
X2494532D01*
Y3510852D01*
D02*
G37*
G36*
X2502299Y3503086D02*
X2497072D01*
Y3497859D01*
X2498351Y3498202D01*
X2499857Y3499071D01*
X2501087Y3500301D01*
X2501956Y3501807D01*
X2502299Y3503086D01*
D02*
G37*
G36*
X2494532D02*
X2489306D01*
X2489648Y3501807D01*
X2490518Y3500301D01*
X2491747Y3499071D01*
X2493253Y3498202D01*
X2494532Y3497859D01*
Y3503086D01*
D02*
G37*
G36*
X2515638Y3390588D02*
X2515426D01*
Y3376817D01*
X2529196D01*
Y3377029D01*
X2528618Y3379935D01*
X2527485Y3382672D01*
X2525839Y3385135D01*
X2523744Y3387230D01*
X2521281Y3388876D01*
X2518543Y3390010D01*
X2515638Y3390588D01*
D02*
G37*
G36*
X2512886D02*
X2512675D01*
X2509769Y3390010D01*
X2507032Y3388876D01*
X2504569Y3387230D01*
X2502474Y3385135D01*
X2500828Y3382672D01*
X2499694Y3379935D01*
X2499116Y3377029D01*
Y3376817D01*
X2512886D01*
Y3390588D01*
D02*
G37*
G36*
X2215638Y3400588D02*
X2212675D01*
X2209769Y3400010D01*
X2207032Y3398876D01*
X2204569Y3397230D01*
X2202474Y3395135D01*
X2200828Y3392672D01*
X2199694Y3389935D01*
X2199116Y3387029D01*
Y3384066D01*
X2199694Y3381161D01*
X2200828Y3378423D01*
X2202474Y3375960D01*
X2204569Y3373865D01*
X2207032Y3372220D01*
X2209769Y3371086D01*
X2212675Y3370508D01*
X2215638D01*
X2218543Y3371086D01*
X2221281Y3372220D01*
X2223744Y3373865D01*
X2225839Y3375960D01*
X2227485Y3378423D01*
X2228618Y3381161D01*
X2229196Y3384066D01*
Y3387029D01*
X2228618Y3389935D01*
X2227485Y3392672D01*
X2225839Y3395135D01*
X2223744Y3397230D01*
X2221281Y3398876D01*
X2218543Y3400010D01*
X2215638Y3400588D01*
D02*
G37*
G36*
X2529196Y3374277D02*
X2515426D01*
Y3360508D01*
X2515638D01*
X2518543Y3361086D01*
X2521281Y3362220D01*
X2523744Y3363865D01*
X2525839Y3365960D01*
X2527485Y3368423D01*
X2528618Y3371161D01*
X2529196Y3374066D01*
Y3374277D01*
D02*
G37*
G36*
X2512886D02*
X2499116D01*
Y3374066D01*
X2499694Y3371161D01*
X2500828Y3368423D01*
X2502474Y3365960D01*
X2504569Y3363865D01*
X2507032Y3362220D01*
X2509769Y3361086D01*
X2512675Y3360508D01*
X2512886D01*
Y3374277D01*
D02*
G37*
G36*
X2285852Y3620434D02*
X2284113D01*
X2282433Y3619984D01*
X2280927Y3619114D01*
X2279698Y3617885D01*
X2278828Y3616379D01*
X2278378Y3614699D01*
Y3612960D01*
X2278828Y3611281D01*
X2279698Y3609775D01*
X2280927Y3608545D01*
X2281616Y3608148D01*
Y3539631D01*
X2281872Y3538342D01*
X2282602Y3537250D01*
X2368230Y3451622D01*
Y3368306D01*
X2367541Y3367908D01*
X2366312Y3366678D01*
X2365442Y3365173D01*
X2364992Y3363493D01*
Y3361754D01*
X2365442Y3360074D01*
X2366312Y3358569D01*
X2367541Y3357339D01*
X2369047Y3356470D01*
X2370727Y3356020D01*
X2372466D01*
X2374145Y3356470D01*
X2375651Y3357339D01*
X2376881Y3358569D01*
X2377750Y3360074D01*
X2378200Y3361754D01*
Y3363493D01*
X2377750Y3365173D01*
X2376881Y3366678D01*
X2375651Y3367908D01*
X2374963Y3368306D01*
Y3453017D01*
X2374707Y3454305D01*
X2373977Y3455397D01*
X2288349Y3541025D01*
Y3608148D01*
X2289037Y3608545D01*
X2290267Y3609775D01*
X2291136Y3611281D01*
X2291586Y3612960D01*
Y3614699D01*
X2291136Y3616379D01*
X2290267Y3617885D01*
X2289037Y3619114D01*
X2287531Y3619984D01*
X2285852Y3620434D01*
D02*
G37*
G36*
X2484838Y3372838D02*
X2481875D01*
X2478969Y3372260D01*
X2476232Y3371126D01*
X2473769Y3369480D01*
X2471674Y3367385D01*
X2470028Y3364922D01*
X2468894Y3362185D01*
X2468316Y3359279D01*
Y3356317D01*
X2468894Y3353411D01*
X2470028Y3350674D01*
X2471674Y3348210D01*
X2473769Y3346115D01*
X2476232Y3344469D01*
X2478969Y3343336D01*
X2481875Y3342758D01*
X2484838D01*
X2487743Y3343336D01*
X2490480Y3344469D01*
X2492944Y3346115D01*
X2495039Y3348210D01*
X2496685Y3350674D01*
X2497818Y3353411D01*
X2498396Y3356317D01*
Y3359279D01*
X2497818Y3362185D01*
X2496685Y3364922D01*
X2495039Y3367385D01*
X2492944Y3369480D01*
X2490480Y3371126D01*
X2487743Y3372260D01*
X2484838Y3372838D01*
D02*
G37*
G36*
X2446738D02*
X2443775D01*
X2440869Y3372260D01*
X2438132Y3371126D01*
X2435669Y3369480D01*
X2433574Y3367385D01*
X2431928Y3364922D01*
X2430794Y3362185D01*
X2430216Y3359279D01*
Y3356317D01*
X2430794Y3353411D01*
X2431928Y3350674D01*
X2433574Y3348210D01*
X2435669Y3346115D01*
X2438132Y3344469D01*
X2440869Y3343336D01*
X2443775Y3342758D01*
X2446738D01*
X2449643Y3343336D01*
X2452381Y3344469D01*
X2454844Y3346115D01*
X2456939Y3348210D01*
X2458585Y3350674D01*
X2459718Y3353411D01*
X2460296Y3356317D01*
Y3359279D01*
X2459718Y3362185D01*
X2458585Y3364922D01*
X2456939Y3367385D01*
X2454844Y3369480D01*
X2452381Y3371126D01*
X2449643Y3372260D01*
X2446738Y3372838D01*
D02*
G37*
G36*
X2625638Y3370588D02*
X2622675D01*
X2619769Y3370010D01*
X2617032Y3368876D01*
X2614569Y3367230D01*
X2612474Y3365135D01*
X2610828Y3362672D01*
X2609695Y3359935D01*
X2609117Y3357029D01*
Y3354066D01*
X2609695Y3351161D01*
X2610828Y3348423D01*
X2612474Y3345960D01*
X2614569Y3343865D01*
X2617032Y3342220D01*
X2619769Y3341086D01*
X2622675Y3340508D01*
X2625638D01*
X2628543Y3341086D01*
X2631281Y3342220D01*
X2633744Y3343865D01*
X2635839Y3345960D01*
X2637485Y3348423D01*
X2638618Y3351161D01*
X2639196Y3354066D01*
Y3357029D01*
X2638618Y3359935D01*
X2637485Y3362672D01*
X2635839Y3365135D01*
X2633744Y3367230D01*
X2631281Y3368876D01*
X2628543Y3370010D01*
X2625638Y3370588D01*
D02*
G37*
G36*
X2585638D02*
X2582675D01*
X2579769Y3370010D01*
X2577032Y3368876D01*
X2574569Y3367230D01*
X2572474Y3365135D01*
X2570828Y3362672D01*
X2569695Y3359935D01*
X2569117Y3357029D01*
Y3354066D01*
X2569695Y3351161D01*
X2570828Y3348423D01*
X2572474Y3345960D01*
X2574569Y3343865D01*
X2577032Y3342220D01*
X2579769Y3341086D01*
X2582675Y3340508D01*
X2585638D01*
X2588543Y3341086D01*
X2591281Y3342220D01*
X2593744Y3343865D01*
X2595839Y3345960D01*
X2597485Y3348423D01*
X2598618Y3351161D01*
X2599196Y3354066D01*
Y3357029D01*
X2598618Y3359935D01*
X2597485Y3362672D01*
X2595839Y3365135D01*
X2593744Y3367230D01*
X2591281Y3368876D01*
X2588543Y3370010D01*
X2585638Y3370588D01*
D02*
G37*
G36*
X2779584Y3417404D02*
X2773361D01*
X2767213Y3416430D01*
X2761294Y3414507D01*
X2755749Y3411681D01*
X2750714Y3408023D01*
X2746313Y3403622D01*
X2742655Y3398587D01*
X2739829Y3393042D01*
X2737906Y3387123D01*
X2736932Y3380976D01*
Y3374752D01*
X2737906Y3368605D01*
X2739829Y3362686D01*
X2742655Y3357140D01*
X2746313Y3352105D01*
X2750714Y3347704D01*
X2755749Y3344046D01*
X2761294Y3341220D01*
X2767213Y3339297D01*
X2773361Y3338324D01*
X2779584D01*
X2785732Y3339297D01*
X2791650Y3341220D01*
X2797196Y3344046D01*
X2802231Y3347704D01*
X2806632Y3352105D01*
X2810290Y3357140D01*
X2813116Y3362686D01*
X2815039Y3368605D01*
X2816012Y3374752D01*
Y3380976D01*
X2815039Y3387123D01*
X2813116Y3393042D01*
X2810290Y3398587D01*
X2806632Y3403622D01*
X2802231Y3408023D01*
X2797196Y3411681D01*
X2791650Y3414507D01*
X2785732Y3416430D01*
X2779584Y3417404D01*
D02*
G37*
G36*
X2294952D02*
X2288728D01*
X2282581Y3416430D01*
X2276662Y3414507D01*
X2271117Y3411681D01*
X2266082Y3408023D01*
X2261681Y3403622D01*
X2258023Y3398587D01*
X2255197Y3393042D01*
X2253274Y3387123D01*
X2252300Y3380976D01*
Y3374752D01*
X2253274Y3368605D01*
X2255197Y3362686D01*
X2258023Y3357140D01*
X2261681Y3352105D01*
X2266082Y3347704D01*
X2271117Y3344046D01*
X2276662Y3341220D01*
X2282581Y3339297D01*
X2288728Y3338324D01*
X2294952D01*
X2301099Y3339297D01*
X2307018Y3341220D01*
X2312564Y3344046D01*
X2317599Y3347704D01*
X2322000Y3352105D01*
X2325658Y3357140D01*
X2328484Y3362686D01*
X2330407Y3368605D01*
X2331380Y3374752D01*
Y3380976D01*
X2330407Y3387123D01*
X2328484Y3393042D01*
X2325658Y3398587D01*
X2322000Y3403622D01*
X2317599Y3408023D01*
X2312564Y3411681D01*
X2307018Y3414507D01*
X2301099Y3416430D01*
X2294952Y3417404D01*
D02*
G37*
G36*
X2484838Y3322038D02*
X2481875D01*
X2478969Y3321460D01*
X2476232Y3320326D01*
X2473769Y3318680D01*
X2471674Y3316585D01*
X2470028Y3314122D01*
X2468894Y3311385D01*
X2468316Y3308479D01*
Y3305516D01*
X2468894Y3302611D01*
X2470028Y3299874D01*
X2471674Y3297410D01*
X2473769Y3295316D01*
X2476232Y3293669D01*
X2478969Y3292536D01*
X2481875Y3291958D01*
X2484838D01*
X2487743Y3292536D01*
X2490480Y3293669D01*
X2492944Y3295316D01*
X2495039Y3297410D01*
X2496685Y3299874D01*
X2497818Y3302611D01*
X2498396Y3305516D01*
Y3308479D01*
X2497818Y3311385D01*
X2496685Y3314122D01*
X2495039Y3316585D01*
X2492944Y3318680D01*
X2490480Y3320326D01*
X2487743Y3321460D01*
X2484838Y3322038D01*
D02*
G37*
G36*
X2717430Y3277188D02*
X2715691D01*
X2714012Y3276738D01*
X2712505Y3275868D01*
X2711276Y3274639D01*
X2710406Y3273133D01*
X2709956Y3271453D01*
Y3269714D01*
X2710406Y3268035D01*
X2711276Y3266529D01*
X2712505Y3265299D01*
X2714012Y3264430D01*
X2715691Y3263980D01*
X2717430D01*
X2718198Y3264185D01*
X2740790Y3241593D01*
Y3240213D01*
X2739769Y3240010D01*
X2737032Y3238876D01*
X2734569Y3237230D01*
X2732474Y3235135D01*
X2730828Y3232672D01*
X2729695Y3229935D01*
X2729117Y3227029D01*
Y3224066D01*
X2729695Y3221161D01*
X2730828Y3218423D01*
X2732474Y3215960D01*
X2734569Y3213865D01*
X2737032Y3212220D01*
X2739769Y3211086D01*
X2742675Y3210508D01*
X2745638D01*
X2748543Y3211086D01*
X2751281Y3212220D01*
X2753744Y3213865D01*
X2755839Y3215960D01*
X2757485Y3218423D01*
X2758618Y3221161D01*
X2759196Y3224066D01*
Y3227029D01*
X2758618Y3229935D01*
X2757485Y3232672D01*
X2755839Y3235135D01*
X2753744Y3237230D01*
X2751281Y3238876D01*
X2748543Y3240010D01*
X2747523Y3240213D01*
Y3242988D01*
X2747267Y3244276D01*
X2746537Y3245368D01*
X2722959Y3268947D01*
X2723164Y3269714D01*
Y3271453D01*
X2722715Y3273133D01*
X2721845Y3274639D01*
X2720616Y3275868D01*
X2719109Y3276738D01*
X2717430Y3277188D01*
D02*
G37*
G36*
X2820626Y3240250D02*
X2817663D01*
X2814757Y3239672D01*
X2812020Y3238538D01*
X2809557Y3236892D01*
X2807462Y3234797D01*
X2805816Y3232334D01*
X2804682Y3229597D01*
X2804104Y3226691D01*
Y3223728D01*
X2804682Y3220823D01*
X2805816Y3218086D01*
X2807462Y3215622D01*
X2809557Y3213528D01*
X2812020Y3211881D01*
X2814757Y3210748D01*
X2817663Y3210170D01*
X2820626D01*
X2823531Y3210748D01*
X2826269Y3211881D01*
X2828732Y3213528D01*
X2830827Y3215622D01*
X2832473Y3218086D01*
X2833606Y3220823D01*
X2834184Y3223728D01*
Y3226691D01*
X2833606Y3229597D01*
X2832473Y3232334D01*
X2830827Y3234797D01*
X2828732Y3236892D01*
X2826269Y3238538D01*
X2823531Y3239672D01*
X2820626Y3240250D01*
D02*
G37*
G36*
X2786273Y3238598D02*
X2783310D01*
X2780404Y3238020D01*
X2777667Y3236886D01*
X2775204Y3235240D01*
X2773109Y3233145D01*
X2771463Y3230682D01*
X2770329Y3227945D01*
X2769751Y3225039D01*
Y3222076D01*
X2770329Y3219171D01*
X2771463Y3216433D01*
X2773109Y3213970D01*
X2775204Y3211875D01*
X2777667Y3210229D01*
X2780404Y3209095D01*
X2783310Y3208518D01*
X2786273D01*
X2789178Y3209095D01*
X2791916Y3210229D01*
X2794379Y3211875D01*
X2796474Y3213970D01*
X2798120Y3216433D01*
X2799254Y3219171D01*
X2799832Y3222076D01*
Y3225039D01*
X2799254Y3227945D01*
X2798120Y3230682D01*
X2796474Y3233145D01*
X2794379Y3235240D01*
X2791916Y3236886D01*
X2789178Y3238020D01*
X2786273Y3238598D01*
D02*
G37*
G36*
X2335638Y3230588D02*
X2332675D01*
X2329769Y3230010D01*
X2327032Y3228876D01*
X2324569Y3227230D01*
X2322474Y3225135D01*
X2320828Y3222672D01*
X2319694Y3219935D01*
X2319116Y3217029D01*
Y3214066D01*
X2319694Y3211161D01*
X2320828Y3208423D01*
X2322474Y3205960D01*
X2324569Y3203865D01*
X2327032Y3202220D01*
X2329769Y3201086D01*
X2332675Y3200508D01*
X2335638D01*
X2338543Y3201086D01*
X2341281Y3202220D01*
X2343744Y3203865D01*
X2345839Y3205960D01*
X2347485Y3208423D01*
X2348618Y3211161D01*
X2349196Y3214066D01*
Y3217029D01*
X2348618Y3219935D01*
X2347485Y3222672D01*
X2345839Y3225135D01*
X2343744Y3227230D01*
X2341281Y3228876D01*
X2338543Y3230010D01*
X2335638Y3230588D01*
D02*
G37*
G36*
Y3180588D02*
X2332675D01*
X2329769Y3180010D01*
X2327032Y3178876D01*
X2324569Y3177230D01*
X2322474Y3175135D01*
X2320828Y3172672D01*
X2319694Y3169935D01*
X2319116Y3167029D01*
Y3164066D01*
X2319694Y3161161D01*
X2320828Y3158423D01*
X2322474Y3155960D01*
X2324569Y3153865D01*
X2327032Y3152220D01*
X2329769Y3151086D01*
X2332675Y3150508D01*
X2335638D01*
X2338543Y3151086D01*
X2341281Y3152220D01*
X2343744Y3153865D01*
X2345839Y3155960D01*
X2347485Y3158423D01*
X2348618Y3161161D01*
X2349196Y3164066D01*
Y3167029D01*
X2348618Y3169935D01*
X2347485Y3172672D01*
X2345839Y3175135D01*
X2343744Y3177230D01*
X2341281Y3178876D01*
X2338543Y3180010D01*
X2335638Y3180588D01*
D02*
G37*
G36*
X2735638Y3170588D02*
X2732675D01*
X2729769Y3170010D01*
X2727032Y3168876D01*
X2724569Y3167230D01*
X2722474Y3165135D01*
X2720828Y3162672D01*
X2719695Y3159935D01*
X2719117Y3157029D01*
Y3154066D01*
X2719695Y3151161D01*
X2720828Y3148423D01*
X2722474Y3145960D01*
X2724569Y3143865D01*
X2727032Y3142220D01*
X2729769Y3141086D01*
X2732675Y3140508D01*
X2735638D01*
X2738543Y3141086D01*
X2741281Y3142220D01*
X2743744Y3143865D01*
X2745839Y3145960D01*
X2747485Y3148423D01*
X2748618Y3151161D01*
X2749196Y3154066D01*
Y3157029D01*
X2748618Y3159935D01*
X2747485Y3162672D01*
X2745839Y3165135D01*
X2743744Y3167230D01*
X2741281Y3168876D01*
X2738543Y3170010D01*
X2735638Y3170588D01*
D02*
G37*
G36*
X2335638Y3110588D02*
X2335426D01*
Y3096818D01*
X2349196D01*
Y3097029D01*
X2348618Y3099935D01*
X2347485Y3102672D01*
X2345839Y3105135D01*
X2343744Y3107230D01*
X2341281Y3108876D01*
X2338543Y3110010D01*
X2335638Y3110588D01*
D02*
G37*
G36*
X2332886D02*
X2332675D01*
X2329769Y3110010D01*
X2327032Y3108876D01*
X2324569Y3107230D01*
X2322474Y3105135D01*
X2320828Y3102672D01*
X2319694Y3099935D01*
X2319116Y3097029D01*
Y3096818D01*
X2332886D01*
Y3110588D01*
D02*
G37*
G36*
X2715638Y3120588D02*
X2712675D01*
X2709769Y3120010D01*
X2707032Y3118876D01*
X2704569Y3117230D01*
X2702474Y3115135D01*
X2700828Y3112672D01*
X2699695Y3109935D01*
X2699117Y3107029D01*
Y3104066D01*
X2699695Y3101161D01*
X2700828Y3098423D01*
X2702474Y3095960D01*
X2704569Y3093865D01*
X2707032Y3092220D01*
X2709769Y3091086D01*
X2712675Y3090508D01*
X2715638D01*
X2718543Y3091086D01*
X2721281Y3092220D01*
X2723744Y3093865D01*
X2725839Y3095960D01*
X2727485Y3098423D01*
X2728618Y3101161D01*
X2729196Y3104066D01*
Y3107029D01*
X2728618Y3109935D01*
X2727485Y3112672D01*
X2725839Y3115135D01*
X2723744Y3117230D01*
X2721281Y3118876D01*
X2718543Y3120010D01*
X2715638Y3120588D01*
D02*
G37*
G36*
X2349196Y3094278D02*
X2335426D01*
Y3080508D01*
X2335638D01*
X2338543Y3081086D01*
X2341281Y3082220D01*
X2343744Y3083865D01*
X2345839Y3085960D01*
X2347485Y3088423D01*
X2348618Y3091161D01*
X2349196Y3094066D01*
Y3094278D01*
D02*
G37*
G36*
X2332886D02*
X2319116D01*
Y3094066D01*
X2319694Y3091161D01*
X2320828Y3088423D01*
X2322474Y3085960D01*
X2324569Y3083865D01*
X2327032Y3082220D01*
X2329769Y3081086D01*
X2332675Y3080508D01*
X2332886D01*
Y3094278D01*
D02*
G37*
G36*
X2829196Y3084277D02*
X2815427D01*
Y3070508D01*
X2815638D01*
X2818543Y3071086D01*
X2821281Y3072220D01*
X2823744Y3073865D01*
X2825839Y3075960D01*
X2827485Y3078423D01*
X2828618Y3081161D01*
X2829196Y3084066D01*
Y3084277D01*
D02*
G37*
G36*
X2812887D02*
X2799117D01*
Y3084066D01*
X2799695Y3081161D01*
X2800828Y3078423D01*
X2802474Y3075960D01*
X2804569Y3073865D01*
X2807032Y3072220D01*
X2809769Y3071086D01*
X2812675Y3070508D01*
X2812887D01*
Y3084277D01*
D02*
G37*
G36*
X2485638Y3100588D02*
X2482675D01*
X2479769Y3100010D01*
X2477032Y3098876D01*
X2474569Y3097230D01*
X2472474Y3095135D01*
X2470828Y3092672D01*
X2469694Y3089935D01*
X2469116Y3087029D01*
Y3084066D01*
X2469694Y3081161D01*
X2470828Y3078423D01*
X2472474Y3075960D01*
X2474569Y3073865D01*
X2477032Y3072220D01*
X2479769Y3071086D01*
X2482675Y3070508D01*
X2485638D01*
X2488543Y3071086D01*
X2491281Y3072220D01*
X2493744Y3073865D01*
X2495839Y3075960D01*
X2497485Y3078423D01*
X2498618Y3081161D01*
X2499196Y3084066D01*
Y3087029D01*
X2498618Y3089935D01*
X2497485Y3092672D01*
X2495839Y3095135D01*
X2493744Y3097230D01*
X2491281Y3098876D01*
X2488543Y3100010D01*
X2485638Y3100588D01*
D02*
G37*
G36*
X3385254Y3653110D02*
X3383975Y3652767D01*
X3382469Y3651897D01*
X3381239Y3650668D01*
X3380834Y3649966D01*
X3379367D01*
X3379108Y3650414D01*
X3377879Y3651643D01*
X3376373Y3652513D01*
X3375094Y3652856D01*
Y3646359D01*
Y3639862D01*
X3376373Y3640205D01*
X3377879Y3641075D01*
X3379108Y3642304D01*
X3379514Y3643006D01*
X3380981D01*
X3381239Y3642558D01*
X3382469Y3641328D01*
X3383975Y3640459D01*
X3385254Y3640116D01*
Y3646613D01*
Y3653110D01*
D02*
G37*
G36*
X3387794D02*
Y3647883D01*
X3393021D01*
X3392678Y3649162D01*
X3391808Y3650668D01*
X3390579Y3651897D01*
X3389073Y3652767D01*
X3387794Y3653110D01*
D02*
G37*
G36*
X3349948D02*
Y3647883D01*
X3355175D01*
X3354832Y3649162D01*
X3353962Y3650668D01*
X3352733Y3651897D01*
X3351227Y3652767D01*
X3349948Y3653110D01*
D02*
G37*
G36*
X3347408D02*
X3346129Y3652767D01*
X3344623Y3651897D01*
X3343393Y3650668D01*
X3342524Y3649162D01*
X3342181Y3647883D01*
X3347408D01*
Y3653110D01*
D02*
G37*
G36*
X3372554Y3652856D02*
X3371275Y3652513D01*
X3369769Y3651643D01*
X3368539Y3650414D01*
X3367670Y3648908D01*
X3367327Y3647629D01*
X3372554D01*
Y3652856D01*
D02*
G37*
G36*
X3393021Y3645343D02*
X3387794D01*
Y3640116D01*
X3389073Y3640459D01*
X3390579Y3641328D01*
X3391808Y3642558D01*
X3392678Y3644064D01*
X3393021Y3645343D01*
D02*
G37*
G36*
X3355175D02*
X3349948D01*
Y3640116D01*
X3351227Y3640459D01*
X3352733Y3641328D01*
X3353962Y3642558D01*
X3354832Y3644064D01*
X3355175Y3645343D01*
D02*
G37*
G36*
X3347408D02*
X3342181D01*
X3342524Y3644064D01*
X3343393Y3642558D01*
X3344623Y3641328D01*
X3346129Y3640459D01*
X3347408Y3640116D01*
Y3645343D01*
D02*
G37*
G36*
X3372554Y3645089D02*
X3367327D01*
X3367670Y3643810D01*
X3368539Y3642304D01*
X3369769Y3641075D01*
X3371275Y3640205D01*
X3372554Y3639862D01*
Y3645089D01*
D02*
G37*
G36*
X3560700Y3640555D02*
Y3635328D01*
X3565927D01*
X3565584Y3636607D01*
X3564715Y3638112D01*
X3563485Y3639342D01*
X3561979Y3640211D01*
X3560700Y3640555D01*
D02*
G37*
G36*
X3558160D02*
X3556881Y3640211D01*
X3555375Y3639342D01*
X3554146Y3638112D01*
X3553276Y3636607D01*
X3552934Y3635328D01*
X3558160D01*
Y3640555D01*
D02*
G37*
G36*
X3565927Y3632788D02*
X3560700D01*
Y3627561D01*
X3561979Y3627904D01*
X3563485Y3628773D01*
X3564715Y3630003D01*
X3565584Y3631508D01*
X3565927Y3632788D01*
D02*
G37*
G36*
X3558160D02*
X3552934D01*
X3553276Y3631508D01*
X3554146Y3630003D01*
X3555375Y3628773D01*
X3556881Y3627904D01*
X3558160Y3627561D01*
Y3632788D01*
D02*
G37*
G36*
X3214974Y3629724D02*
Y3624498D01*
X3220201D01*
X3219858Y3625777D01*
X3218989Y3627283D01*
X3217759Y3628512D01*
X3216253Y3629382D01*
X3214974Y3629724D01*
D02*
G37*
G36*
X3212434D02*
X3211155Y3629382D01*
X3209649Y3628512D01*
X3208420Y3627283D01*
X3207550Y3625777D01*
X3207208Y3624498D01*
X3212434D01*
Y3629724D01*
D02*
G37*
G36*
X3220201Y3621958D02*
X3214974D01*
Y3616731D01*
X3216253Y3617074D01*
X3217759Y3617943D01*
X3218989Y3619173D01*
X3219858Y3620679D01*
X3220201Y3621958D01*
D02*
G37*
G36*
X3212434D02*
X3207208D01*
X3207550Y3620679D01*
X3208420Y3619173D01*
X3209649Y3617943D01*
X3211155Y3617074D01*
X3212434Y3616731D01*
Y3621958D01*
D02*
G37*
G36*
X3076290Y3620072D02*
Y3614846D01*
X3081517D01*
X3081174Y3616125D01*
X3080305Y3617631D01*
X3079075Y3618860D01*
X3077569Y3619730D01*
X3076290Y3620072D01*
D02*
G37*
G36*
X3073750D02*
X3072471Y3619730D01*
X3070965Y3618860D01*
X3069736Y3617631D01*
X3068866Y3616125D01*
X3068524Y3614846D01*
X3073750D01*
Y3620072D01*
D02*
G37*
G36*
X3511802Y3628647D02*
X3509399D01*
X3507179Y3627727D01*
X3505480Y3626028D01*
X3504560Y3623808D01*
Y3621406D01*
X3504748Y3620953D01*
X3504042Y3619897D01*
X3502860D01*
Y3612127D01*
X3509900D01*
X3516941D01*
Y3619897D01*
X3516941D01*
X3516370Y3620752D01*
X3516640Y3621406D01*
Y3623808D01*
X3515721Y3626028D01*
X3514022Y3627727D01*
X3511802Y3628647D01*
D02*
G37*
G36*
X3488340Y3619895D02*
X3482570D01*
Y3612125D01*
X3488340D01*
Y3619895D01*
D02*
G37*
G36*
X3480030D02*
X3474260D01*
Y3612125D01*
X3480030D01*
Y3619895D01*
D02*
G37*
G36*
X3081517Y3612306D02*
X3076290D01*
Y3607079D01*
X3077569Y3607422D01*
X3079075Y3608291D01*
X3080305Y3609521D01*
X3081174Y3611027D01*
X3081517Y3612306D01*
D02*
G37*
G36*
X3073750D02*
X3068524D01*
X3068866Y3611027D01*
X3069736Y3609521D01*
X3070965Y3608291D01*
X3072471Y3607422D01*
X3073750Y3607079D01*
Y3612306D01*
D02*
G37*
G36*
X3516941Y3609587D02*
X3511170D01*
Y3601817D01*
X3516941D01*
Y3609587D01*
D02*
G37*
G36*
X3508630D02*
X3502860D01*
Y3601817D01*
X3508630D01*
Y3609587D01*
D02*
G37*
G36*
X3488340Y3609585D02*
X3482570D01*
Y3601815D01*
X3488340D01*
Y3609585D01*
D02*
G37*
G36*
X3480030D02*
X3474260D01*
Y3601815D01*
X3480030D01*
Y3609585D01*
D02*
G37*
G36*
X3393776Y3612214D02*
X3391837D01*
X3389963Y3611712D01*
X3388284Y3610742D01*
X3386912Y3609370D01*
X3385942Y3607691D01*
X3385440Y3605817D01*
Y3603878D01*
X3385942Y3602004D01*
X3386912Y3600325D01*
X3388284Y3598954D01*
X3389963Y3597984D01*
X3391837Y3597482D01*
X3393776D01*
X3395650Y3597984D01*
X3397329Y3598954D01*
X3398701Y3600325D01*
X3399670Y3602004D01*
X3400172Y3603878D01*
Y3605817D01*
X3399670Y3607691D01*
X3398701Y3609370D01*
X3397329Y3610742D01*
X3395650Y3611712D01*
X3393776Y3612214D01*
D02*
G37*
G36*
X3355676D02*
X3353737D01*
X3351863Y3611712D01*
X3350184Y3610742D01*
X3348812Y3609370D01*
X3347842Y3607691D01*
X3347340Y3605817D01*
Y3603878D01*
X3347842Y3602004D01*
X3348812Y3600325D01*
X3350184Y3598954D01*
X3351863Y3597984D01*
X3353737Y3597482D01*
X3355676D01*
X3357550Y3597984D01*
X3359229Y3598954D01*
X3360601Y3600325D01*
X3361570Y3602004D01*
X3362072Y3603878D01*
Y3605817D01*
X3361570Y3607691D01*
X3360601Y3609370D01*
X3359229Y3610742D01*
X3357550Y3611712D01*
X3355676Y3612214D01*
D02*
G37*
G36*
X3541650Y3601438D02*
Y3596212D01*
X3546877D01*
X3546534Y3597491D01*
X3545665Y3598997D01*
X3544435Y3600226D01*
X3542929Y3601096D01*
X3541650Y3601438D01*
D02*
G37*
G36*
X3539110D02*
X3537831Y3601096D01*
X3536325Y3600226D01*
X3535096Y3598997D01*
X3534226Y3597491D01*
X3533884Y3596212D01*
X3539110D01*
Y3601438D01*
D02*
G37*
G36*
X3546877Y3593672D02*
X3541650D01*
Y3588445D01*
X3542929Y3588788D01*
X3544435Y3589657D01*
X3545665Y3590887D01*
X3546534Y3592393D01*
X3546877Y3593672D01*
D02*
G37*
G36*
X3539110D02*
X3533884D01*
X3534226Y3592393D01*
X3535096Y3590887D01*
X3536325Y3589657D01*
X3537831Y3588788D01*
X3539110Y3588445D01*
Y3593672D01*
D02*
G37*
G36*
X3063776Y3577088D02*
X3060737D01*
X3057802Y3576301D01*
X3055171Y3574782D01*
X3053022Y3572633D01*
X3051503Y3570002D01*
X3050716Y3567067D01*
Y3564028D01*
X3051503Y3561093D01*
X3053022Y3558462D01*
X3055171Y3556313D01*
X3057802Y3554794D01*
X3060737Y3554008D01*
X3063776D01*
X3066711Y3554794D01*
X3069342Y3556313D01*
X3071491Y3558462D01*
X3073010Y3561093D01*
X3073796Y3564028D01*
Y3567067D01*
X3073010Y3570002D01*
X3071491Y3572633D01*
X3069342Y3574782D01*
X3066711Y3576301D01*
X3063776Y3577088D01*
D02*
G37*
G36*
X2987576D02*
X2984537D01*
X2981602Y3576301D01*
X2978971Y3574782D01*
X2976822Y3572633D01*
X2975303Y3570002D01*
X2974516Y3567067D01*
Y3564028D01*
X2975303Y3561093D01*
X2976822Y3558462D01*
X2978971Y3556313D01*
X2981602Y3554794D01*
X2984537Y3554008D01*
X2987576D01*
X2990511Y3554794D01*
X2993142Y3556313D01*
X2995291Y3558462D01*
X2996810Y3561093D01*
X2997596Y3564028D01*
Y3567067D01*
X2996810Y3570002D01*
X2995291Y3572633D01*
X2993142Y3574782D01*
X2990511Y3576301D01*
X2987576Y3577088D01*
D02*
G37*
G36*
X3488340Y3535397D02*
X3482570D01*
Y3527627D01*
X3488340D01*
Y3535397D01*
D02*
G37*
G36*
X3480030D02*
X3474260D01*
Y3527627D01*
X3480030D01*
Y3535397D01*
D02*
G37*
G36*
X3516941D02*
X3511171D01*
Y3527627D01*
X3516941D01*
Y3535397D01*
D02*
G37*
G36*
X3508631D02*
X3502860D01*
Y3527627D01*
X3508631D01*
Y3535397D01*
D02*
G37*
G36*
X3355576Y3541094D02*
X3353837D01*
X3352158Y3540644D01*
X3350652Y3539774D01*
X3349422Y3538545D01*
X3348553Y3537039D01*
X3348102Y3535359D01*
Y3533620D01*
X3348553Y3531941D01*
X3349422Y3530435D01*
X3350652Y3529205D01*
X3352158Y3528336D01*
X3353837Y3527886D01*
X3355576D01*
X3357256Y3528336D01*
X3358762Y3529205D01*
X3359991Y3530435D01*
X3360095Y3530615D01*
X3408206D01*
X3408604Y3529927D01*
X3409833Y3528697D01*
X3411339Y3527828D01*
X3413019Y3527378D01*
X3414758D01*
X3416437Y3527828D01*
X3417943Y3528697D01*
X3419173Y3529927D01*
X3420042Y3531432D01*
X3420493Y3533112D01*
Y3534851D01*
X3420042Y3536531D01*
X3419173Y3538036D01*
X3417943Y3539266D01*
X3416437Y3540135D01*
X3414758Y3540586D01*
X3413019D01*
X3411339Y3540135D01*
X3409833Y3539266D01*
X3408604Y3538036D01*
X3408206Y3537348D01*
X3360682D01*
X3359991Y3538545D01*
X3358762Y3539774D01*
X3357256Y3540644D01*
X3355576Y3541094D01*
D02*
G37*
G36*
X3237072Y3526346D02*
Y3521120D01*
X3242299D01*
X3241956Y3522399D01*
X3241087Y3523905D01*
X3239857Y3525134D01*
X3238351Y3526004D01*
X3237072Y3526346D01*
D02*
G37*
G36*
X3234532D02*
X3233253Y3526004D01*
X3231747Y3525134D01*
X3230518Y3523905D01*
X3229648Y3522399D01*
X3229306Y3521120D01*
X3234532D01*
Y3526346D01*
D02*
G37*
G36*
X2973420Y3523806D02*
Y3518580D01*
X2978647D01*
X2978304Y3519859D01*
X2977435Y3521365D01*
X2976205Y3522594D01*
X2974699Y3523464D01*
X2973420Y3523806D01*
D02*
G37*
G36*
X2970880D02*
X2969601Y3523464D01*
X2968095Y3522594D01*
X2966866Y3521365D01*
X2965996Y3519859D01*
X2965654Y3518580D01*
X2970880D01*
Y3523806D01*
D02*
G37*
G36*
X3516941Y3525087D02*
X3511171D01*
Y3517317D01*
X3516941D01*
Y3525087D01*
D02*
G37*
G36*
X3508631D02*
X3502860D01*
Y3517317D01*
X3508631D01*
Y3525087D01*
D02*
G37*
G36*
X3560446Y3519650D02*
Y3514424D01*
X3565673D01*
X3565331Y3515703D01*
X3564461Y3517209D01*
X3563232Y3518438D01*
X3561725Y3519308D01*
X3560446Y3519650D01*
D02*
G37*
G36*
X3557906D02*
X3556628Y3519308D01*
X3555121Y3518438D01*
X3553892Y3517209D01*
X3553022Y3515703D01*
X3552680Y3514424D01*
X3557906D01*
Y3519650D01*
D02*
G37*
G36*
X3242299Y3518580D02*
X3237072D01*
Y3513353D01*
X3238351Y3513696D01*
X3239857Y3514565D01*
X3241087Y3515795D01*
X3241956Y3517301D01*
X3242299Y3518580D01*
D02*
G37*
G36*
X3234532D02*
X3229306D01*
X3229648Y3517301D01*
X3230518Y3515795D01*
X3231747Y3514565D01*
X3233253Y3513696D01*
X3234532Y3513353D01*
Y3518580D01*
D02*
G37*
G36*
X2978647Y3516040D02*
X2973420D01*
Y3510813D01*
X2974699Y3511156D01*
X2976205Y3512025D01*
X2977435Y3513255D01*
X2978304Y3514761D01*
X2978647Y3516040D01*
D02*
G37*
G36*
X2970880D02*
X2965654D01*
X2965996Y3514761D01*
X2966866Y3513255D01*
X2968095Y3512025D01*
X2969601Y3511156D01*
X2970880Y3510813D01*
Y3516040D01*
D02*
G37*
G36*
X3488340Y3525087D02*
X3481300D01*
X3474260D01*
Y3517317D01*
X3474260D01*
X3474831Y3516462D01*
X3474560Y3515809D01*
Y3513406D01*
X3475480Y3511186D01*
X3477179Y3509487D01*
X3479399Y3508567D01*
X3481801D01*
X3484022Y3509487D01*
X3485721Y3511186D01*
X3486640Y3513406D01*
Y3515809D01*
X3486453Y3516261D01*
X3487159Y3517317D01*
X3488340D01*
Y3525087D01*
D02*
G37*
G36*
X3565673Y3511884D02*
X3560446D01*
Y3506657D01*
X3561725Y3507000D01*
X3563232Y3507869D01*
X3564461Y3509099D01*
X3565331Y3510605D01*
X3565673Y3511884D01*
D02*
G37*
G36*
X3557906D02*
X3552680D01*
X3553022Y3510605D01*
X3553892Y3509099D01*
X3555121Y3507869D01*
X3556628Y3507000D01*
X3557906Y3506657D01*
Y3511884D01*
D02*
G37*
G36*
X3237072Y3510852D02*
Y3505626D01*
X3242299D01*
X3241956Y3506905D01*
X3241087Y3508411D01*
X3239857Y3509640D01*
X3238351Y3510510D01*
X3237072Y3510852D01*
D02*
G37*
G36*
X3234532D02*
X3233253Y3510510D01*
X3231747Y3509640D01*
X3230518Y3508411D01*
X3229648Y3506905D01*
X3229306Y3505626D01*
X3234532D01*
Y3510852D01*
D02*
G37*
G36*
X3242299Y3503086D02*
X3237072D01*
Y3497859D01*
X3238351Y3498202D01*
X3239857Y3499071D01*
X3241087Y3500301D01*
X3241956Y3501807D01*
X3242299Y3503086D01*
D02*
G37*
G36*
X3234532D02*
X3229306D01*
X3229648Y3501807D01*
X3230518Y3500301D01*
X3231747Y3499071D01*
X3233253Y3498202D01*
X3234532Y3497859D01*
Y3503086D01*
D02*
G37*
G36*
X3255638Y3390588D02*
X3255426D01*
Y3376817D01*
X3269196D01*
Y3377029D01*
X3268618Y3379935D01*
X3267485Y3382672D01*
X3265839Y3385135D01*
X3263744Y3387230D01*
X3261281Y3388876D01*
X3258543Y3390010D01*
X3255638Y3390588D01*
D02*
G37*
G36*
X3252886D02*
X3252675D01*
X3249769Y3390010D01*
X3247032Y3388876D01*
X3244569Y3387230D01*
X3242474Y3385135D01*
X3240828Y3382672D01*
X3239695Y3379935D01*
X3239117Y3377029D01*
Y3376817D01*
X3252886D01*
Y3390588D01*
D02*
G37*
G36*
X3269196Y3374277D02*
X3255426D01*
Y3360508D01*
X3255638D01*
X3258543Y3361086D01*
X3261281Y3362220D01*
X3263744Y3363865D01*
X3265839Y3365960D01*
X3267485Y3368423D01*
X3268618Y3371161D01*
X3269196Y3374066D01*
Y3374277D01*
D02*
G37*
G36*
X3252886D02*
X3239117D01*
Y3374066D01*
X3239695Y3371161D01*
X3240828Y3368423D01*
X3242474Y3365960D01*
X3244569Y3363865D01*
X3247032Y3362220D01*
X3249769Y3361086D01*
X3252675Y3360508D01*
X3252886D01*
Y3374277D01*
D02*
G37*
G36*
X3025852Y3620434D02*
X3024113D01*
X3022433Y3619984D01*
X3020927Y3619114D01*
X3019698Y3617885D01*
X3018828Y3616379D01*
X3018378Y3614699D01*
Y3612960D01*
X3018828Y3611281D01*
X3019698Y3609775D01*
X3020927Y3608545D01*
X3021616Y3608148D01*
Y3539631D01*
X3021872Y3538342D01*
X3022602Y3537250D01*
X3108230Y3451622D01*
Y3368306D01*
X3107542Y3367908D01*
X3106312Y3366678D01*
X3105443Y3365173D01*
X3104992Y3363493D01*
Y3361754D01*
X3105443Y3360074D01*
X3106312Y3358569D01*
X3107542Y3357339D01*
X3109048Y3356470D01*
X3110727Y3356020D01*
X3112466D01*
X3114146Y3356470D01*
X3115652Y3357339D01*
X3116881Y3358569D01*
X3117751Y3360074D01*
X3118200Y3361754D01*
Y3363493D01*
X3117751Y3365173D01*
X3116881Y3366678D01*
X3115652Y3367908D01*
X3114963Y3368306D01*
Y3453017D01*
X3114707Y3454305D01*
X3113977Y3455397D01*
X3028349Y3541025D01*
Y3608148D01*
X3029037Y3608545D01*
X3030267Y3609775D01*
X3031136Y3611281D01*
X3031586Y3612960D01*
Y3614699D01*
X3031136Y3616379D01*
X3030267Y3617885D01*
X3029037Y3619114D01*
X3027531Y3619984D01*
X3025852Y3620434D01*
D02*
G37*
G36*
X3224838Y3372838D02*
X3221875D01*
X3218969Y3372260D01*
X3216232Y3371126D01*
X3213769Y3369480D01*
X3211674Y3367385D01*
X3210028Y3364922D01*
X3208894Y3362185D01*
X3208316Y3359279D01*
Y3356317D01*
X3208894Y3353411D01*
X3210028Y3350674D01*
X3211674Y3348210D01*
X3213769Y3346115D01*
X3216232Y3344469D01*
X3218969Y3343336D01*
X3221875Y3342758D01*
X3224838D01*
X3227744Y3343336D01*
X3230481Y3344469D01*
X3232944Y3346115D01*
X3235039Y3348210D01*
X3236685Y3350674D01*
X3237818Y3353411D01*
X3238396Y3356317D01*
Y3359279D01*
X3237818Y3362185D01*
X3236685Y3364922D01*
X3235039Y3367385D01*
X3232944Y3369480D01*
X3230481Y3371126D01*
X3227744Y3372260D01*
X3224838Y3372838D01*
D02*
G37*
G36*
X3186738D02*
X3183775D01*
X3180869Y3372260D01*
X3178132Y3371126D01*
X3175669Y3369480D01*
X3173574Y3367385D01*
X3171928Y3364922D01*
X3170794Y3362185D01*
X3170216Y3359279D01*
Y3356317D01*
X3170794Y3353411D01*
X3171928Y3350674D01*
X3173574Y3348210D01*
X3175669Y3346115D01*
X3178132Y3344469D01*
X3180869Y3343336D01*
X3183775Y3342758D01*
X3186738D01*
X3189643Y3343336D01*
X3192380Y3344469D01*
X3194844Y3346115D01*
X3196939Y3348210D01*
X3198585Y3350674D01*
X3199718Y3353411D01*
X3200296Y3356317D01*
Y3359279D01*
X3199718Y3362185D01*
X3198585Y3364922D01*
X3196939Y3367385D01*
X3194844Y3369480D01*
X3192380Y3371126D01*
X3189643Y3372260D01*
X3186738Y3372838D01*
D02*
G37*
G36*
X3365638Y3370588D02*
X3362675D01*
X3359769Y3370010D01*
X3357032Y3368876D01*
X3354569Y3367230D01*
X3352474Y3365135D01*
X3350828Y3362672D01*
X3349695Y3359935D01*
X3349117Y3357029D01*
Y3354066D01*
X3349695Y3351161D01*
X3350828Y3348423D01*
X3352474Y3345960D01*
X3354569Y3343865D01*
X3357032Y3342220D01*
X3359769Y3341086D01*
X3362675Y3340508D01*
X3365638D01*
X3368543Y3341086D01*
X3371281Y3342220D01*
X3373744Y3343865D01*
X3375839Y3345960D01*
X3377485Y3348423D01*
X3378618Y3351161D01*
X3379196Y3354066D01*
Y3357029D01*
X3378618Y3359935D01*
X3377485Y3362672D01*
X3375839Y3365135D01*
X3373744Y3367230D01*
X3371281Y3368876D01*
X3368543Y3370010D01*
X3365638Y3370588D01*
D02*
G37*
G36*
X3325638D02*
X3322675D01*
X3319769Y3370010D01*
X3317032Y3368876D01*
X3314569Y3367230D01*
X3312474Y3365135D01*
X3310828Y3362672D01*
X3309695Y3359935D01*
X3309117Y3357029D01*
Y3354066D01*
X3309695Y3351161D01*
X3310828Y3348423D01*
X3312474Y3345960D01*
X3314569Y3343865D01*
X3317032Y3342220D01*
X3319769Y3341086D01*
X3322675Y3340508D01*
X3325638D01*
X3328543Y3341086D01*
X3331281Y3342220D01*
X3333744Y3343865D01*
X3335839Y3345960D01*
X3337485Y3348423D01*
X3338618Y3351161D01*
X3339196Y3354066D01*
Y3357029D01*
X3338618Y3359935D01*
X3337485Y3362672D01*
X3335839Y3365135D01*
X3333744Y3367230D01*
X3331281Y3368876D01*
X3328543Y3370010D01*
X3325638Y3370588D01*
D02*
G37*
G36*
X3519584Y3417404D02*
X3513361D01*
X3507213Y3416430D01*
X3501294Y3414507D01*
X3495749Y3411681D01*
X3490714Y3408023D01*
X3486313Y3403622D01*
X3482655Y3398587D01*
X3479829Y3393042D01*
X3477906Y3387123D01*
X3476932Y3380976D01*
Y3374752D01*
X3477906Y3368605D01*
X3479829Y3362686D01*
X3482655Y3357140D01*
X3486313Y3352105D01*
X3490714Y3347704D01*
X3495749Y3344046D01*
X3501294Y3341220D01*
X3507213Y3339297D01*
X3513361Y3338324D01*
X3519584D01*
X3525732Y3339297D01*
X3531650Y3341220D01*
X3537196Y3344046D01*
X3542231Y3347704D01*
X3546632Y3352105D01*
X3550290Y3357140D01*
X3553116Y3362686D01*
X3555039Y3368605D01*
X3556012Y3374752D01*
Y3380976D01*
X3555039Y3387123D01*
X3553116Y3393042D01*
X3550290Y3398587D01*
X3546632Y3403622D01*
X3542231Y3408023D01*
X3537196Y3411681D01*
X3531650Y3414507D01*
X3525732Y3416430D01*
X3519584Y3417404D01*
D02*
G37*
G36*
X3034952D02*
X3028729D01*
X3022581Y3416430D01*
X3016662Y3414507D01*
X3011117Y3411681D01*
X3006082Y3408023D01*
X3001681Y3403622D01*
X2998023Y3398587D01*
X2995197Y3393042D01*
X2993274Y3387123D01*
X2992300Y3380976D01*
Y3374752D01*
X2993274Y3368605D01*
X2995197Y3362686D01*
X2998023Y3357140D01*
X3001681Y3352105D01*
X3006082Y3347704D01*
X3011117Y3344046D01*
X3016662Y3341220D01*
X3022581Y3339297D01*
X3028729Y3338324D01*
X3034952D01*
X3041100Y3339297D01*
X3047018Y3341220D01*
X3052564Y3344046D01*
X3057599Y3347704D01*
X3062000Y3352105D01*
X3065658Y3357140D01*
X3068484Y3362686D01*
X3070407Y3368605D01*
X3071380Y3374752D01*
Y3380976D01*
X3070407Y3387123D01*
X3068484Y3393042D01*
X3065658Y3398587D01*
X3062000Y3403622D01*
X3057599Y3408023D01*
X3052564Y3411681D01*
X3047018Y3414507D01*
X3041100Y3416430D01*
X3034952Y3417404D01*
D02*
G37*
G36*
X3224838Y3322038D02*
X3221875D01*
X3218969Y3321460D01*
X3216232Y3320326D01*
X3213769Y3318680D01*
X3211674Y3316585D01*
X3210028Y3314122D01*
X3208894Y3311385D01*
X3208316Y3308479D01*
Y3305516D01*
X3208894Y3302611D01*
X3210028Y3299874D01*
X3211674Y3297410D01*
X3213769Y3295316D01*
X3216232Y3293669D01*
X3218969Y3292536D01*
X3221875Y3291958D01*
X3224838D01*
X3227744Y3292536D01*
X3230481Y3293669D01*
X3232944Y3295316D01*
X3235039Y3297410D01*
X3236685Y3299874D01*
X3237818Y3302611D01*
X3238396Y3305516D01*
Y3308479D01*
X3237818Y3311385D01*
X3236685Y3314122D01*
X3235039Y3316585D01*
X3232944Y3318680D01*
X3230481Y3320326D01*
X3227744Y3321460D01*
X3224838Y3322038D01*
D02*
G37*
G36*
X3457430Y3277188D02*
X3455691D01*
X3454012Y3276738D01*
X3452505Y3275868D01*
X3451276Y3274639D01*
X3450406Y3273133D01*
X3449956Y3271453D01*
Y3269714D01*
X3450406Y3268035D01*
X3451276Y3266529D01*
X3452505Y3265299D01*
X3454012Y3264430D01*
X3455691Y3263980D01*
X3457430D01*
X3458198Y3264185D01*
X3480790Y3241593D01*
Y3240213D01*
X3479769Y3240010D01*
X3477032Y3238876D01*
X3474569Y3237230D01*
X3472474Y3235135D01*
X3470828Y3232672D01*
X3469695Y3229935D01*
X3469117Y3227029D01*
Y3224066D01*
X3469695Y3221161D01*
X3470828Y3218423D01*
X3472474Y3215960D01*
X3474569Y3213865D01*
X3477032Y3212220D01*
X3479769Y3211086D01*
X3482675Y3210508D01*
X3485638D01*
X3488543Y3211086D01*
X3491281Y3212220D01*
X3493744Y3213865D01*
X3495839Y3215960D01*
X3497485Y3218423D01*
X3498618Y3221161D01*
X3499196Y3224066D01*
Y3227029D01*
X3498618Y3229935D01*
X3497485Y3232672D01*
X3495839Y3235135D01*
X3493744Y3237230D01*
X3491281Y3238876D01*
X3488543Y3240010D01*
X3487523Y3240213D01*
Y3242988D01*
X3487267Y3244276D01*
X3486537Y3245368D01*
X3462959Y3268947D01*
X3463164Y3269714D01*
Y3271453D01*
X3462715Y3273133D01*
X3461845Y3274639D01*
X3460616Y3275868D01*
X3459109Y3276738D01*
X3457430Y3277188D01*
D02*
G37*
G36*
X3560626Y3240250D02*
X3557663D01*
X3554757Y3239672D01*
X3552020Y3238538D01*
X3549557Y3236892D01*
X3547462Y3234797D01*
X3545816Y3232334D01*
X3544682Y3229597D01*
X3544104Y3226691D01*
Y3223728D01*
X3544682Y3220823D01*
X3545816Y3218086D01*
X3547462Y3215622D01*
X3549557Y3213528D01*
X3552020Y3211881D01*
X3554757Y3210748D01*
X3557663Y3210170D01*
X3560626D01*
X3563531Y3210748D01*
X3566269Y3211881D01*
X3568732Y3213528D01*
X3570827Y3215622D01*
X3572473Y3218086D01*
X3573606Y3220823D01*
X3574184Y3223728D01*
Y3226691D01*
X3573606Y3229597D01*
X3572473Y3232334D01*
X3570827Y3234797D01*
X3568732Y3236892D01*
X3566269Y3238538D01*
X3563531Y3239672D01*
X3560626Y3240250D01*
D02*
G37*
G36*
X3526273Y3238598D02*
X3523310D01*
X3520404Y3238020D01*
X3517667Y3236886D01*
X3515204Y3235240D01*
X3513109Y3233145D01*
X3511463Y3230682D01*
X3510329Y3227945D01*
X3509751Y3225039D01*
Y3222076D01*
X3510329Y3219171D01*
X3511463Y3216433D01*
X3513109Y3213970D01*
X3515204Y3211875D01*
X3517667Y3210229D01*
X3520404Y3209095D01*
X3523310Y3208518D01*
X3526273D01*
X3529178Y3209095D01*
X3531916Y3210229D01*
X3534379Y3211875D01*
X3536474Y3213970D01*
X3538120Y3216433D01*
X3539254Y3219171D01*
X3539832Y3222076D01*
Y3225039D01*
X3539254Y3227945D01*
X3538120Y3230682D01*
X3536474Y3233145D01*
X3534379Y3235240D01*
X3531916Y3236886D01*
X3529178Y3238020D01*
X3526273Y3238598D01*
D02*
G37*
G36*
X3075638Y3230588D02*
X3072675D01*
X3069769Y3230010D01*
X3067032Y3228876D01*
X3064569Y3227230D01*
X3062474Y3225135D01*
X3060828Y3222672D01*
X3059695Y3219935D01*
X3059117Y3217029D01*
Y3214066D01*
X3059695Y3211161D01*
X3060828Y3208423D01*
X3062474Y3205960D01*
X3064569Y3203865D01*
X3067032Y3202220D01*
X3069769Y3201086D01*
X3072675Y3200508D01*
X3075638D01*
X3078543Y3201086D01*
X3081281Y3202220D01*
X3083744Y3203865D01*
X3085839Y3205960D01*
X3087485Y3208423D01*
X3088618Y3211161D01*
X3089196Y3214066D01*
Y3217029D01*
X3088618Y3219935D01*
X3087485Y3222672D01*
X3085839Y3225135D01*
X3083744Y3227230D01*
X3081281Y3228876D01*
X3078543Y3230010D01*
X3075638Y3230588D01*
D02*
G37*
G36*
Y3180588D02*
X3072675D01*
X3069769Y3180010D01*
X3067032Y3178876D01*
X3064569Y3177230D01*
X3062474Y3175135D01*
X3060828Y3172672D01*
X3059695Y3169935D01*
X3059117Y3167029D01*
Y3164066D01*
X3059695Y3161161D01*
X3060828Y3158423D01*
X3062474Y3155960D01*
X3064569Y3153865D01*
X3067032Y3152220D01*
X3069769Y3151086D01*
X3072675Y3150508D01*
X3075638D01*
X3078543Y3151086D01*
X3081281Y3152220D01*
X3083744Y3153865D01*
X3085839Y3155960D01*
X3087485Y3158423D01*
X3088618Y3161161D01*
X3089196Y3164066D01*
Y3167029D01*
X3088618Y3169935D01*
X3087485Y3172672D01*
X3085839Y3175135D01*
X3083744Y3177230D01*
X3081281Y3178876D01*
X3078543Y3180010D01*
X3075638Y3180588D01*
D02*
G37*
G36*
X3475638Y3170588D02*
X3472675D01*
X3469769Y3170010D01*
X3467032Y3168876D01*
X3464569Y3167230D01*
X3462474Y3165135D01*
X3460828Y3162672D01*
X3459695Y3159935D01*
X3459117Y3157029D01*
Y3154066D01*
X3459695Y3151161D01*
X3460828Y3148423D01*
X3462474Y3145960D01*
X3464569Y3143865D01*
X3467032Y3142220D01*
X3469769Y3141086D01*
X3472675Y3140508D01*
X3475638D01*
X3478543Y3141086D01*
X3481281Y3142220D01*
X3483744Y3143865D01*
X3485839Y3145960D01*
X3487485Y3148423D01*
X3488618Y3151161D01*
X3489196Y3154066D01*
Y3157029D01*
X3488618Y3159935D01*
X3487485Y3162672D01*
X3485839Y3165135D01*
X3483744Y3167230D01*
X3481281Y3168876D01*
X3478543Y3170010D01*
X3475638Y3170588D01*
D02*
G37*
G36*
X3075638Y3110588D02*
X3075426D01*
Y3096818D01*
X3089196D01*
Y3097029D01*
X3088618Y3099935D01*
X3087485Y3102672D01*
X3085839Y3105135D01*
X3083744Y3107230D01*
X3081281Y3108876D01*
X3078543Y3110010D01*
X3075638Y3110588D01*
D02*
G37*
G36*
X3072886D02*
X3072675D01*
X3069769Y3110010D01*
X3067032Y3108876D01*
X3064569Y3107230D01*
X3062474Y3105135D01*
X3060828Y3102672D01*
X3059695Y3099935D01*
X3059117Y3097029D01*
Y3096818D01*
X3072886D01*
Y3110588D01*
D02*
G37*
G36*
X3455638Y3120588D02*
X3452675D01*
X3449769Y3120010D01*
X3447032Y3118876D01*
X3444569Y3117230D01*
X3442474Y3115135D01*
X3440828Y3112672D01*
X3439695Y3109935D01*
X3439117Y3107029D01*
Y3104066D01*
X3439695Y3101161D01*
X3440828Y3098423D01*
X3442474Y3095960D01*
X3444569Y3093865D01*
X3447032Y3092220D01*
X3449769Y3091086D01*
X3452675Y3090508D01*
X3455638D01*
X3458543Y3091086D01*
X3461281Y3092220D01*
X3463744Y3093865D01*
X3465839Y3095960D01*
X3467485Y3098423D01*
X3468618Y3101161D01*
X3469196Y3104066D01*
Y3107029D01*
X3468618Y3109935D01*
X3467485Y3112672D01*
X3465839Y3115135D01*
X3463744Y3117230D01*
X3461281Y3118876D01*
X3458543Y3120010D01*
X3455638Y3120588D01*
D02*
G37*
G36*
X3089196Y3094278D02*
X3075426D01*
Y3080508D01*
X3075638D01*
X3078543Y3081086D01*
X3081281Y3082220D01*
X3083744Y3083865D01*
X3085839Y3085960D01*
X3087485Y3088423D01*
X3088618Y3091161D01*
X3089196Y3094066D01*
Y3094278D01*
D02*
G37*
G36*
X3072886D02*
X3059117D01*
Y3094066D01*
X3059695Y3091161D01*
X3060828Y3088423D01*
X3062474Y3085960D01*
X3064569Y3083865D01*
X3067032Y3082220D01*
X3069769Y3081086D01*
X3072675Y3080508D01*
X3072886D01*
Y3094278D01*
D02*
G37*
G36*
X3569196Y3084277D02*
X3555427D01*
Y3070508D01*
X3555638D01*
X3558543Y3071086D01*
X3561281Y3072220D01*
X3563744Y3073865D01*
X3565839Y3075960D01*
X3567485Y3078423D01*
X3568618Y3081161D01*
X3569196Y3084066D01*
Y3084277D01*
D02*
G37*
G36*
X3552887D02*
X3539117D01*
Y3084066D01*
X3539695Y3081161D01*
X3540828Y3078423D01*
X3542474Y3075960D01*
X3544569Y3073865D01*
X3547032Y3072220D01*
X3549769Y3071086D01*
X3552675Y3070508D01*
X3552887D01*
Y3084277D01*
D02*
G37*
G36*
X3225638Y3100588D02*
X3222675D01*
X3219769Y3100010D01*
X3217032Y3098876D01*
X3214569Y3097230D01*
X3212474Y3095135D01*
X3210828Y3092672D01*
X3209695Y3089935D01*
X3209117Y3087029D01*
Y3084066D01*
X3209695Y3081161D01*
X3210828Y3078423D01*
X3212474Y3075960D01*
X3214569Y3073865D01*
X3217032Y3072220D01*
X3219769Y3071086D01*
X3222675Y3070508D01*
X3225638D01*
X3228543Y3071086D01*
X3231281Y3072220D01*
X3233744Y3073865D01*
X3235839Y3075960D01*
X3237485Y3078423D01*
X3238618Y3081161D01*
X3239196Y3084066D01*
Y3087029D01*
X3238618Y3089935D01*
X3237485Y3092672D01*
X3235839Y3095135D01*
X3233744Y3097230D01*
X3231281Y3098876D01*
X3228543Y3100010D01*
X3225638Y3100588D01*
D02*
G37*
G36*
X4125254Y3653110D02*
X4123975Y3652767D01*
X4122469Y3651897D01*
X4121239Y3650668D01*
X4120834Y3649966D01*
X4119367D01*
X4119108Y3650414D01*
X4117879Y3651643D01*
X4116373Y3652513D01*
X4115094Y3652856D01*
Y3646359D01*
Y3639862D01*
X4116373Y3640205D01*
X4117879Y3641075D01*
X4119108Y3642304D01*
X4119514Y3643006D01*
X4120981D01*
X4121239Y3642558D01*
X4122469Y3641328D01*
X4123975Y3640459D01*
X4125254Y3640116D01*
Y3646613D01*
Y3653110D01*
D02*
G37*
G36*
X4127794D02*
Y3647883D01*
X4133021D01*
X4132678Y3649162D01*
X4131808Y3650668D01*
X4130579Y3651897D01*
X4129073Y3652767D01*
X4127794Y3653110D01*
D02*
G37*
G36*
X4089948D02*
Y3647883D01*
X4095175D01*
X4094832Y3649162D01*
X4093962Y3650668D01*
X4092733Y3651897D01*
X4091227Y3652767D01*
X4089948Y3653110D01*
D02*
G37*
G36*
X4087408D02*
X4086129Y3652767D01*
X4084623Y3651897D01*
X4083393Y3650668D01*
X4082524Y3649162D01*
X4082181Y3647883D01*
X4087408D01*
Y3653110D01*
D02*
G37*
G36*
X4112554Y3652856D02*
X4111275Y3652513D01*
X4109769Y3651643D01*
X4108539Y3650414D01*
X4107670Y3648908D01*
X4107327Y3647629D01*
X4112554D01*
Y3652856D01*
D02*
G37*
G36*
X4133021Y3645343D02*
X4127794D01*
Y3640116D01*
X4129073Y3640459D01*
X4130579Y3641328D01*
X4131808Y3642558D01*
X4132678Y3644064D01*
X4133021Y3645343D01*
D02*
G37*
G36*
X4095175D02*
X4089948D01*
Y3640116D01*
X4091227Y3640459D01*
X4092733Y3641328D01*
X4093962Y3642558D01*
X4094832Y3644064D01*
X4095175Y3645343D01*
D02*
G37*
G36*
X4087408D02*
X4082181D01*
X4082524Y3644064D01*
X4083393Y3642558D01*
X4084623Y3641328D01*
X4086129Y3640459D01*
X4087408Y3640116D01*
Y3645343D01*
D02*
G37*
G36*
X4112554Y3645089D02*
X4107327D01*
X4107670Y3643810D01*
X4108539Y3642304D01*
X4109769Y3641075D01*
X4111275Y3640205D01*
X4112554Y3639862D01*
Y3645089D01*
D02*
G37*
G36*
X4300700Y3640555D02*
Y3635328D01*
X4305927D01*
X4305584Y3636607D01*
X4304715Y3638112D01*
X4303485Y3639342D01*
X4301979Y3640211D01*
X4300700Y3640555D01*
D02*
G37*
G36*
X4298160D02*
X4296881Y3640211D01*
X4295375Y3639342D01*
X4294146Y3638112D01*
X4293276Y3636607D01*
X4292934Y3635328D01*
X4298160D01*
Y3640555D01*
D02*
G37*
G36*
X4305927Y3632788D02*
X4300700D01*
Y3627561D01*
X4301979Y3627904D01*
X4303485Y3628773D01*
X4304715Y3630003D01*
X4305584Y3631508D01*
X4305927Y3632788D01*
D02*
G37*
G36*
X4298160D02*
X4292934D01*
X4293276Y3631508D01*
X4294146Y3630003D01*
X4295375Y3628773D01*
X4296881Y3627904D01*
X4298160Y3627561D01*
Y3632788D01*
D02*
G37*
G36*
X3954974Y3629724D02*
Y3624498D01*
X3960201D01*
X3959858Y3625777D01*
X3958989Y3627283D01*
X3957759Y3628512D01*
X3956253Y3629382D01*
X3954974Y3629724D01*
D02*
G37*
G36*
X3952434D02*
X3951155Y3629382D01*
X3949649Y3628512D01*
X3948420Y3627283D01*
X3947550Y3625777D01*
X3947208Y3624498D01*
X3952434D01*
Y3629724D01*
D02*
G37*
G36*
X3960201Y3621958D02*
X3954974D01*
Y3616731D01*
X3956253Y3617074D01*
X3957759Y3617943D01*
X3958989Y3619173D01*
X3959858Y3620679D01*
X3960201Y3621958D01*
D02*
G37*
G36*
X3952434D02*
X3947208D01*
X3947550Y3620679D01*
X3948420Y3619173D01*
X3949649Y3617943D01*
X3951155Y3617074D01*
X3952434Y3616731D01*
Y3621958D01*
D02*
G37*
G36*
X3816290Y3620072D02*
Y3614846D01*
X3821517D01*
X3821174Y3616125D01*
X3820305Y3617631D01*
X3819075Y3618860D01*
X3817569Y3619730D01*
X3816290Y3620072D01*
D02*
G37*
G36*
X3813750D02*
X3812471Y3619730D01*
X3810965Y3618860D01*
X3809736Y3617631D01*
X3808866Y3616125D01*
X3808524Y3614846D01*
X3813750D01*
Y3620072D01*
D02*
G37*
G36*
X4228340Y3619895D02*
X4222570D01*
Y3612124D01*
X4228340D01*
Y3619895D01*
D02*
G37*
G36*
X4220030D02*
X4214260D01*
Y3612124D01*
X4220030D01*
Y3619895D01*
D02*
G37*
G36*
X4251802Y3628647D02*
X4249399D01*
X4247179Y3627727D01*
X4245480Y3626028D01*
X4244560Y3623808D01*
Y3621406D01*
X4244748Y3620953D01*
X4244042Y3619897D01*
X4242860D01*
Y3612127D01*
X4249900D01*
Y3610857D01*
D01*
Y3612127D01*
X4256941D01*
Y3619897D01*
X4256941D01*
X4256370Y3620752D01*
X4256640Y3621406D01*
Y3623808D01*
X4255721Y3626028D01*
X4254022Y3627727D01*
X4251802Y3628647D01*
D02*
G37*
G36*
X3821517Y3612306D02*
X3816290D01*
Y3607079D01*
X3817569Y3607422D01*
X3819075Y3608291D01*
X3820305Y3609521D01*
X3821174Y3611027D01*
X3821517Y3612306D01*
D02*
G37*
G36*
X3813750D02*
X3808524D01*
X3808866Y3611027D01*
X3809736Y3609521D01*
X3810965Y3608291D01*
X3812471Y3607422D01*
X3813750Y3607079D01*
Y3612306D01*
D02*
G37*
G36*
X4256941Y3609587D02*
X4251170D01*
Y3601817D01*
X4256941D01*
Y3609587D01*
D02*
G37*
G36*
X4248630D02*
X4242860D01*
Y3601817D01*
X4248630D01*
Y3609587D01*
D02*
G37*
G36*
X4228340Y3609584D02*
X4222570D01*
Y3601815D01*
X4228340D01*
Y3609584D01*
D02*
G37*
G36*
X4220030D02*
X4214260D01*
Y3601815D01*
X4220030D01*
Y3609584D01*
D02*
G37*
G36*
X4133776Y3612214D02*
X4131837D01*
X4129963Y3611712D01*
X4128284Y3610742D01*
X4126912Y3609370D01*
X4125942Y3607691D01*
X4125440Y3605817D01*
Y3603878D01*
X4125942Y3602004D01*
X4126912Y3600325D01*
X4128284Y3598954D01*
X4129963Y3597984D01*
X4131837Y3597482D01*
X4133776D01*
X4135650Y3597984D01*
X4137329Y3598954D01*
X4138701Y3600325D01*
X4139670Y3602004D01*
X4140172Y3603878D01*
Y3605817D01*
X4139670Y3607691D01*
X4138701Y3609370D01*
X4137329Y3610742D01*
X4135650Y3611712D01*
X4133776Y3612214D01*
D02*
G37*
G36*
X4095676D02*
X4093737D01*
X4091863Y3611712D01*
X4090184Y3610742D01*
X4088812Y3609370D01*
X4087842Y3607691D01*
X4087340Y3605817D01*
Y3603878D01*
X4087842Y3602004D01*
X4088812Y3600325D01*
X4090184Y3598954D01*
X4091863Y3597984D01*
X4093737Y3597482D01*
X4095676D01*
X4097550Y3597984D01*
X4099229Y3598954D01*
X4100601Y3600325D01*
X4101570Y3602004D01*
X4102072Y3603878D01*
Y3605817D01*
X4101570Y3607691D01*
X4100601Y3609370D01*
X4099229Y3610742D01*
X4097550Y3611712D01*
X4095676Y3612214D01*
D02*
G37*
G36*
X4281650Y3601438D02*
Y3596212D01*
X4286877D01*
X4286534Y3597491D01*
X4285665Y3598997D01*
X4284435Y3600226D01*
X4282929Y3601096D01*
X4281650Y3601438D01*
D02*
G37*
G36*
X4279110D02*
X4277831Y3601096D01*
X4276325Y3600226D01*
X4275096Y3598997D01*
X4274226Y3597491D01*
X4273884Y3596212D01*
X4279110D01*
Y3601438D01*
D02*
G37*
G36*
X4286877Y3593672D02*
X4281650D01*
Y3588445D01*
X4282929Y3588788D01*
X4284435Y3589657D01*
X4285665Y3590887D01*
X4286534Y3592393D01*
X4286877Y3593672D01*
D02*
G37*
G36*
X4279110D02*
X4273884D01*
X4274226Y3592393D01*
X4275096Y3590887D01*
X4276325Y3589657D01*
X4277831Y3588788D01*
X4279110Y3588445D01*
Y3593672D01*
D02*
G37*
G36*
X3803776Y3577088D02*
X3800737D01*
X3797802Y3576301D01*
X3795171Y3574782D01*
X3793022Y3572633D01*
X3791503Y3570002D01*
X3790716Y3567067D01*
Y3564028D01*
X3791503Y3561093D01*
X3793022Y3558462D01*
X3795171Y3556313D01*
X3797802Y3554794D01*
X3800737Y3554008D01*
X3803776D01*
X3806711Y3554794D01*
X3809342Y3556313D01*
X3811490Y3558462D01*
X3813010Y3561093D01*
X3813796Y3564028D01*
Y3567067D01*
X3813010Y3570002D01*
X3811490Y3572633D01*
X3809342Y3574782D01*
X3806711Y3576301D01*
X3803776Y3577088D01*
D02*
G37*
G36*
X3727576D02*
X3724537D01*
X3721602Y3576301D01*
X3718971Y3574782D01*
X3716822Y3572633D01*
X3715303Y3570002D01*
X3714516Y3567067D01*
Y3564028D01*
X3715303Y3561093D01*
X3716822Y3558462D01*
X3718971Y3556313D01*
X3721602Y3554794D01*
X3724537Y3554008D01*
X3727576D01*
X3730511Y3554794D01*
X3733142Y3556313D01*
X3735291Y3558462D01*
X3736810Y3561093D01*
X3737596Y3564028D01*
Y3567067D01*
X3736810Y3570002D01*
X3735291Y3572633D01*
X3733142Y3574782D01*
X3730511Y3576301D01*
X3727576Y3577088D01*
D02*
G37*
G36*
X4256941Y3535397D02*
X4251170D01*
Y3527627D01*
X4256941D01*
Y3535397D01*
D02*
G37*
G36*
X4248630D02*
X4242860D01*
Y3527627D01*
X4248630D01*
Y3535397D01*
D02*
G37*
G36*
X4228340D02*
X4222570D01*
Y3527626D01*
X4228340D01*
Y3535397D01*
D02*
G37*
G36*
X4220031D02*
X4214260D01*
Y3527626D01*
X4220031D01*
Y3535397D01*
D02*
G37*
G36*
X4095576Y3541094D02*
X4093837D01*
X4092157Y3540644D01*
X4090652Y3539774D01*
X4089422Y3538545D01*
X4088553Y3537039D01*
X4088102Y3535359D01*
Y3533620D01*
X4088553Y3531941D01*
X4089422Y3530435D01*
X4090652Y3529205D01*
X4092157Y3528336D01*
X4093837Y3527886D01*
X4095576D01*
X4097256Y3528336D01*
X4098761Y3529205D01*
X4099991Y3530435D01*
X4100095Y3530615D01*
X4148206D01*
X4148604Y3529927D01*
X4149833Y3528697D01*
X4151339Y3527828D01*
X4153019Y3527378D01*
X4154758D01*
X4156437Y3527828D01*
X4157943Y3528697D01*
X4159173Y3529927D01*
X4160042Y3531432D01*
X4160493Y3533112D01*
Y3534851D01*
X4160042Y3536531D01*
X4159173Y3538036D01*
X4157943Y3539266D01*
X4156437Y3540135D01*
X4154758Y3540586D01*
X4153019D01*
X4151339Y3540135D01*
X4149833Y3539266D01*
X4148604Y3538036D01*
X4148206Y3537348D01*
X4100682D01*
X4099991Y3538545D01*
X4098761Y3539774D01*
X4097256Y3540644D01*
X4095576Y3541094D01*
D02*
G37*
G36*
X3977072Y3526346D02*
Y3521120D01*
X3982299D01*
X3981956Y3522399D01*
X3981087Y3523905D01*
X3979857Y3525134D01*
X3978351Y3526004D01*
X3977072Y3526346D01*
D02*
G37*
G36*
X3974532D02*
X3973253Y3526004D01*
X3971747Y3525134D01*
X3970518Y3523905D01*
X3969648Y3522399D01*
X3969306Y3521120D01*
X3974532D01*
Y3526346D01*
D02*
G37*
G36*
X3713420Y3523806D02*
Y3518580D01*
X3718647D01*
X3718304Y3519859D01*
X3717435Y3521365D01*
X3716205Y3522594D01*
X3714699Y3523464D01*
X3713420Y3523806D01*
D02*
G37*
G36*
X3710880D02*
X3709601Y3523464D01*
X3708095Y3522594D01*
X3706866Y3521365D01*
X3705996Y3519859D01*
X3705654Y3518580D01*
X3710880D01*
Y3523806D01*
D02*
G37*
G36*
X4256941Y3525087D02*
X4251170D01*
Y3517317D01*
X4256941D01*
Y3525087D01*
D02*
G37*
G36*
X4248630D02*
X4242860D01*
Y3517317D01*
X4248630D01*
Y3525087D01*
D02*
G37*
G36*
X4300446Y3519650D02*
Y3514424D01*
X4305673D01*
X4305331Y3515703D01*
X4304461Y3517209D01*
X4303232Y3518438D01*
X4301725Y3519308D01*
X4300446Y3519650D01*
D02*
G37*
G36*
X4297906D02*
X4296628Y3519308D01*
X4295121Y3518438D01*
X4293892Y3517209D01*
X4293022Y3515703D01*
X4292680Y3514424D01*
X4297906D01*
Y3519650D01*
D02*
G37*
G36*
X3982299Y3518580D02*
X3977072D01*
Y3513353D01*
X3978351Y3513696D01*
X3979857Y3514565D01*
X3981087Y3515795D01*
X3981956Y3517301D01*
X3982299Y3518580D01*
D02*
G37*
G36*
X3974532D02*
X3969306D01*
X3969648Y3517301D01*
X3970518Y3515795D01*
X3971747Y3514565D01*
X3973253Y3513696D01*
X3974532Y3513353D01*
Y3518580D01*
D02*
G37*
G36*
X3718647Y3516040D02*
X3713420D01*
Y3510813D01*
X3714699Y3511156D01*
X3716205Y3512025D01*
X3717435Y3513255D01*
X3718304Y3514761D01*
X3718647Y3516040D01*
D02*
G37*
G36*
X3710880D02*
X3705654D01*
X3705996Y3514761D01*
X3706866Y3513255D01*
X3708095Y3512025D01*
X3709601Y3511156D01*
X3710880Y3510813D01*
Y3516040D01*
D02*
G37*
G36*
X4228340Y3525086D02*
X4221300D01*
X4214260D01*
Y3517317D01*
X4214260D01*
X4214831Y3516462D01*
X4214560Y3515809D01*
Y3513406D01*
X4215480Y3511186D01*
X4217179Y3509487D01*
X4219399Y3508567D01*
X4221801D01*
X4224022Y3509487D01*
X4225721Y3511186D01*
X4226640Y3513406D01*
Y3515809D01*
X4226453Y3516261D01*
X4227159Y3517317D01*
X4228340D01*
Y3525086D01*
D02*
G37*
G36*
X4305673Y3511884D02*
X4300446D01*
Y3506657D01*
X4301725Y3507000D01*
X4303232Y3507869D01*
X4304461Y3509099D01*
X4305331Y3510605D01*
X4305673Y3511884D01*
D02*
G37*
G36*
X4297906D02*
X4292680D01*
X4293022Y3510605D01*
X4293892Y3509099D01*
X4295121Y3507869D01*
X4296628Y3507000D01*
X4297906Y3506657D01*
Y3511884D01*
D02*
G37*
G36*
X3977072Y3510852D02*
Y3505626D01*
X3982299D01*
X3981956Y3506905D01*
X3981087Y3508411D01*
X3979857Y3509640D01*
X3978351Y3510510D01*
X3977072Y3510852D01*
D02*
G37*
G36*
X3974532D02*
X3973253Y3510510D01*
X3971747Y3509640D01*
X3970518Y3508411D01*
X3969648Y3506905D01*
X3969306Y3505626D01*
X3974532D01*
Y3510852D01*
D02*
G37*
G36*
X3982299Y3503086D02*
X3977072D01*
Y3497859D01*
X3978351Y3498202D01*
X3979857Y3499071D01*
X3981087Y3500301D01*
X3981956Y3501807D01*
X3982299Y3503086D01*
D02*
G37*
G36*
X3974532D02*
X3969306D01*
X3969648Y3501807D01*
X3970518Y3500301D01*
X3971747Y3499071D01*
X3973253Y3498202D01*
X3974532Y3497859D01*
Y3503086D01*
D02*
G37*
G36*
X3995638Y3390588D02*
X3995426D01*
Y3376818D01*
X4009196D01*
Y3377029D01*
X4008618Y3379935D01*
X4007485Y3382672D01*
X4005839Y3385135D01*
X4003744Y3387230D01*
X4001281Y3388876D01*
X3998543Y3390010D01*
X3995638Y3390588D01*
D02*
G37*
G36*
X3992886D02*
X3992675D01*
X3989769Y3390010D01*
X3987032Y3388876D01*
X3984569Y3387230D01*
X3982474Y3385135D01*
X3980828Y3382672D01*
X3979695Y3379935D01*
X3979117Y3377029D01*
Y3376818D01*
X3992886D01*
Y3390588D01*
D02*
G37*
G36*
X3695638Y3400588D02*
X3692675D01*
X3689769Y3400010D01*
X3687032Y3398876D01*
X3684569Y3397230D01*
X3682474Y3395135D01*
X3680828Y3392672D01*
X3679695Y3389935D01*
X3679117Y3387029D01*
Y3384066D01*
X3679695Y3381161D01*
X3680828Y3378423D01*
X3682474Y3375960D01*
X3684569Y3373865D01*
X3687032Y3372220D01*
X3689769Y3371086D01*
X3692675Y3370508D01*
X3695638D01*
X3698543Y3371086D01*
X3701281Y3372220D01*
X3703744Y3373865D01*
X3705839Y3375960D01*
X3707485Y3378423D01*
X3708618Y3381161D01*
X3709196Y3384066D01*
Y3387029D01*
X3708618Y3389935D01*
X3707485Y3392672D01*
X3705839Y3395135D01*
X3703744Y3397230D01*
X3701281Y3398876D01*
X3698543Y3400010D01*
X3695638Y3400588D01*
D02*
G37*
G36*
X4009196Y3374278D02*
X3995426D01*
Y3360508D01*
X3995638D01*
X3998543Y3361086D01*
X4001281Y3362220D01*
X4003744Y3363865D01*
X4005839Y3365960D01*
X4007485Y3368423D01*
X4008618Y3371161D01*
X4009196Y3374066D01*
Y3374278D01*
D02*
G37*
G36*
X3992886D02*
X3979117D01*
Y3374066D01*
X3979695Y3371161D01*
X3980828Y3368423D01*
X3982474Y3365960D01*
X3984569Y3363865D01*
X3987032Y3362220D01*
X3989769Y3361086D01*
X3992675Y3360508D01*
X3992886D01*
Y3374278D01*
D02*
G37*
G36*
X3765852Y3620434D02*
X3764113D01*
X3762433Y3619984D01*
X3760927Y3619114D01*
X3759698Y3617885D01*
X3758828Y3616379D01*
X3758378Y3614699D01*
Y3612960D01*
X3758828Y3611281D01*
X3759698Y3609775D01*
X3760927Y3608545D01*
X3761616Y3608148D01*
Y3539631D01*
X3761872Y3538342D01*
X3762602Y3537250D01*
X3848230Y3451622D01*
Y3368306D01*
X3847542Y3367908D01*
X3846312Y3366678D01*
X3845443Y3365173D01*
X3844992Y3363493D01*
Y3361754D01*
X3845443Y3360074D01*
X3846312Y3358569D01*
X3847542Y3357339D01*
X3849047Y3356470D01*
X3850727Y3356020D01*
X3852466D01*
X3854146Y3356470D01*
X3855651Y3357339D01*
X3856881Y3358569D01*
X3857750Y3360074D01*
X3858200Y3361754D01*
Y3363493D01*
X3857750Y3365173D01*
X3856881Y3366678D01*
X3855651Y3367908D01*
X3854963Y3368306D01*
Y3453017D01*
X3854707Y3454305D01*
X3853977Y3455397D01*
X3768349Y3541025D01*
Y3608148D01*
X3769037Y3608545D01*
X3770267Y3609775D01*
X3771136Y3611281D01*
X3771586Y3612960D01*
Y3614699D01*
X3771136Y3616379D01*
X3770267Y3617885D01*
X3769037Y3619114D01*
X3767531Y3619984D01*
X3765852Y3620434D01*
D02*
G37*
G36*
X3964838Y3372838D02*
X3961875D01*
X3958969Y3372260D01*
X3956232Y3371126D01*
X3953769Y3369480D01*
X3951674Y3367385D01*
X3950028Y3364922D01*
X3948894Y3362185D01*
X3948316Y3359279D01*
Y3356317D01*
X3948894Y3353411D01*
X3950028Y3350674D01*
X3951674Y3348210D01*
X3953769Y3346115D01*
X3956232Y3344469D01*
X3958969Y3343336D01*
X3961875Y3342758D01*
X3964838D01*
X3967744Y3343336D01*
X3970481Y3344469D01*
X3972944Y3346115D01*
X3975039Y3348210D01*
X3976685Y3350674D01*
X3977818Y3353411D01*
X3978396Y3356317D01*
Y3359279D01*
X3977818Y3362185D01*
X3976685Y3364922D01*
X3975039Y3367385D01*
X3972944Y3369480D01*
X3970481Y3371126D01*
X3967744Y3372260D01*
X3964838Y3372838D01*
D02*
G37*
G36*
X3926738D02*
X3923775D01*
X3920869Y3372260D01*
X3918132Y3371126D01*
X3915669Y3369480D01*
X3913574Y3367385D01*
X3911928Y3364922D01*
X3910794Y3362185D01*
X3910216Y3359279D01*
Y3356317D01*
X3910794Y3353411D01*
X3911928Y3350674D01*
X3913574Y3348210D01*
X3915669Y3346115D01*
X3918132Y3344469D01*
X3920869Y3343336D01*
X3923775Y3342758D01*
X3926738D01*
X3929643Y3343336D01*
X3932380Y3344469D01*
X3934844Y3346115D01*
X3936939Y3348210D01*
X3938585Y3350674D01*
X3939718Y3353411D01*
X3940296Y3356317D01*
Y3359279D01*
X3939718Y3362185D01*
X3938585Y3364922D01*
X3936939Y3367385D01*
X3934844Y3369480D01*
X3932380Y3371126D01*
X3929643Y3372260D01*
X3926738Y3372838D01*
D02*
G37*
G36*
X4105638Y3370588D02*
X4102675D01*
X4099769Y3370010D01*
X4097032Y3368876D01*
X4094569Y3367230D01*
X4092474Y3365135D01*
X4090828Y3362672D01*
X4089695Y3359935D01*
X4089117Y3357029D01*
Y3354066D01*
X4089695Y3351161D01*
X4090828Y3348423D01*
X4092474Y3345960D01*
X4094569Y3343865D01*
X4097032Y3342220D01*
X4099769Y3341086D01*
X4102675Y3340508D01*
X4105638D01*
X4108543Y3341086D01*
X4111281Y3342220D01*
X4113744Y3343865D01*
X4115839Y3345960D01*
X4117485Y3348423D01*
X4118618Y3351161D01*
X4119196Y3354066D01*
Y3357029D01*
X4118618Y3359935D01*
X4117485Y3362672D01*
X4115839Y3365135D01*
X4113744Y3367230D01*
X4111281Y3368876D01*
X4108543Y3370010D01*
X4105638Y3370588D01*
D02*
G37*
G36*
X4065638D02*
X4062675D01*
X4059769Y3370010D01*
X4057032Y3368876D01*
X4054569Y3367230D01*
X4052474Y3365135D01*
X4050828Y3362672D01*
X4049695Y3359935D01*
X4049117Y3357029D01*
Y3354066D01*
X4049695Y3351161D01*
X4050828Y3348423D01*
X4052474Y3345960D01*
X4054569Y3343865D01*
X4057032Y3342220D01*
X4059769Y3341086D01*
X4062675Y3340508D01*
X4065638D01*
X4068543Y3341086D01*
X4071281Y3342220D01*
X4073744Y3343865D01*
X4075839Y3345960D01*
X4077485Y3348423D01*
X4078618Y3351161D01*
X4079196Y3354066D01*
Y3357029D01*
X4078618Y3359935D01*
X4077485Y3362672D01*
X4075839Y3365135D01*
X4073744Y3367230D01*
X4071281Y3368876D01*
X4068543Y3370010D01*
X4065638Y3370588D01*
D02*
G37*
G36*
X4259584Y3417404D02*
X4253361D01*
X4247213Y3416430D01*
X4241294Y3414507D01*
X4235749Y3411681D01*
X4230714Y3408023D01*
X4226313Y3403622D01*
X4222655Y3398587D01*
X4219829Y3393042D01*
X4217906Y3387123D01*
X4216932Y3380976D01*
Y3374752D01*
X4217906Y3368605D01*
X4219829Y3362686D01*
X4222655Y3357140D01*
X4226313Y3352105D01*
X4230714Y3347704D01*
X4235749Y3344046D01*
X4241294Y3341220D01*
X4247213Y3339297D01*
X4253361Y3338324D01*
X4259584D01*
X4265732Y3339297D01*
X4271650Y3341220D01*
X4277196Y3344046D01*
X4282231Y3347704D01*
X4286632Y3352105D01*
X4290290Y3357140D01*
X4293116Y3362686D01*
X4295039Y3368605D01*
X4296012Y3374752D01*
Y3380976D01*
X4295039Y3387123D01*
X4293116Y3393042D01*
X4290290Y3398587D01*
X4286632Y3403622D01*
X4282231Y3408023D01*
X4277196Y3411681D01*
X4271650Y3414507D01*
X4265732Y3416430D01*
X4259584Y3417404D01*
D02*
G37*
G36*
X3774952D02*
X3768729D01*
X3762581Y3416430D01*
X3756662Y3414507D01*
X3751117Y3411681D01*
X3746082Y3408023D01*
X3741681Y3403622D01*
X3738023Y3398587D01*
X3735197Y3393042D01*
X3733274Y3387123D01*
X3732300Y3380976D01*
Y3374752D01*
X3733274Y3368605D01*
X3735197Y3362686D01*
X3738023Y3357140D01*
X3741681Y3352105D01*
X3746082Y3347704D01*
X3751117Y3344046D01*
X3756662Y3341220D01*
X3762581Y3339297D01*
X3768729Y3338324D01*
X3774952D01*
X3781100Y3339297D01*
X3787018Y3341220D01*
X3792564Y3344046D01*
X3797599Y3347704D01*
X3802000Y3352105D01*
X3805658Y3357140D01*
X3808484Y3362686D01*
X3810407Y3368605D01*
X3811380Y3374752D01*
Y3380976D01*
X3810407Y3387123D01*
X3808484Y3393042D01*
X3805658Y3398587D01*
X3802000Y3403622D01*
X3797599Y3408023D01*
X3792564Y3411681D01*
X3787018Y3414507D01*
X3781100Y3416430D01*
X3774952Y3417404D01*
D02*
G37*
G36*
X3964838Y3322038D02*
X3961875D01*
X3958969Y3321460D01*
X3956232Y3320326D01*
X3953769Y3318680D01*
X3951674Y3316585D01*
X3950028Y3314122D01*
X3948894Y3311385D01*
X3948316Y3308479D01*
Y3305516D01*
X3948894Y3302611D01*
X3950028Y3299874D01*
X3951674Y3297410D01*
X3953769Y3295316D01*
X3956232Y3293669D01*
X3958969Y3292536D01*
X3961875Y3291958D01*
X3964838D01*
X3967744Y3292536D01*
X3970481Y3293669D01*
X3972944Y3295316D01*
X3975039Y3297410D01*
X3976685Y3299874D01*
X3977818Y3302611D01*
X3978396Y3305516D01*
Y3308479D01*
X3977818Y3311385D01*
X3976685Y3314122D01*
X3975039Y3316585D01*
X3972944Y3318680D01*
X3970481Y3320326D01*
X3967744Y3321460D01*
X3964838Y3322038D01*
D02*
G37*
G36*
X4197430Y3277188D02*
X4195691D01*
X4194012Y3276738D01*
X4192505Y3275868D01*
X4191276Y3274639D01*
X4190406Y3273133D01*
X4189956Y3271453D01*
Y3269714D01*
X4190406Y3268035D01*
X4191276Y3266529D01*
X4192505Y3265299D01*
X4194012Y3264430D01*
X4195691Y3263980D01*
X4197430D01*
X4198198Y3264185D01*
X4220790Y3241593D01*
Y3240213D01*
X4219769Y3240010D01*
X4217032Y3238876D01*
X4214569Y3237230D01*
X4212474Y3235135D01*
X4210828Y3232672D01*
X4209695Y3229935D01*
X4209117Y3227029D01*
Y3224066D01*
X4209695Y3221161D01*
X4210828Y3218423D01*
X4212474Y3215960D01*
X4214569Y3213865D01*
X4217032Y3212220D01*
X4219769Y3211086D01*
X4222675Y3210508D01*
X4225638D01*
X4228543Y3211086D01*
X4231281Y3212220D01*
X4233744Y3213865D01*
X4235839Y3215960D01*
X4237485Y3218423D01*
X4238618Y3221161D01*
X4239196Y3224066D01*
Y3227029D01*
X4238618Y3229935D01*
X4237485Y3232672D01*
X4235839Y3235135D01*
X4233744Y3237230D01*
X4231281Y3238876D01*
X4228543Y3240010D01*
X4227523Y3240213D01*
Y3242988D01*
X4227267Y3244276D01*
X4226537Y3245368D01*
X4202959Y3268947D01*
X4203164Y3269714D01*
Y3271453D01*
X4202715Y3273133D01*
X4201845Y3274639D01*
X4200616Y3275868D01*
X4199109Y3276738D01*
X4197430Y3277188D01*
D02*
G37*
G36*
X4300626Y3240250D02*
X4297663D01*
X4294757Y3239672D01*
X4292020Y3238538D01*
X4289557Y3236892D01*
X4287462Y3234797D01*
X4285816Y3232334D01*
X4284682Y3229597D01*
X4284104Y3226691D01*
Y3223728D01*
X4284682Y3220823D01*
X4285816Y3218086D01*
X4287462Y3215622D01*
X4289557Y3213528D01*
X4292020Y3211881D01*
X4294757Y3210748D01*
X4297663Y3210170D01*
X4300626D01*
X4303531Y3210748D01*
X4306269Y3211881D01*
X4308732Y3213528D01*
X4310827Y3215622D01*
X4312473Y3218086D01*
X4313606Y3220823D01*
X4314184Y3223728D01*
Y3226691D01*
X4313606Y3229597D01*
X4312473Y3232334D01*
X4310827Y3234797D01*
X4308732Y3236892D01*
X4306269Y3238538D01*
X4303531Y3239672D01*
X4300626Y3240250D01*
D02*
G37*
G36*
X4266273Y3238598D02*
X4263310D01*
X4260404Y3238020D01*
X4257667Y3236886D01*
X4255204Y3235240D01*
X4253109Y3233145D01*
X4251463Y3230682D01*
X4250329Y3227945D01*
X4249751Y3225039D01*
Y3222076D01*
X4250329Y3219171D01*
X4251463Y3216433D01*
X4253109Y3213970D01*
X4255204Y3211875D01*
X4257667Y3210229D01*
X4260404Y3209095D01*
X4263310Y3208518D01*
X4266273D01*
X4269178Y3209095D01*
X4271916Y3210229D01*
X4274379Y3211875D01*
X4276474Y3213970D01*
X4278120Y3216433D01*
X4279254Y3219171D01*
X4279832Y3222076D01*
Y3225039D01*
X4279254Y3227945D01*
X4278120Y3230682D01*
X4276474Y3233145D01*
X4274379Y3235240D01*
X4271916Y3236886D01*
X4269178Y3238020D01*
X4266273Y3238598D01*
D02*
G37*
G36*
X3815638Y3230588D02*
X3812675D01*
X3809769Y3230010D01*
X3807032Y3228876D01*
X3804569Y3227230D01*
X3802474Y3225135D01*
X3800828Y3222672D01*
X3799695Y3219935D01*
X3799117Y3217029D01*
Y3214066D01*
X3799695Y3211161D01*
X3800828Y3208423D01*
X3802474Y3205960D01*
X3804569Y3203865D01*
X3807032Y3202220D01*
X3809769Y3201086D01*
X3812675Y3200508D01*
X3815638D01*
X3818543Y3201086D01*
X3821281Y3202220D01*
X3823744Y3203865D01*
X3825839Y3205960D01*
X3827485Y3208423D01*
X3828618Y3211161D01*
X3829196Y3214066D01*
Y3217029D01*
X3828618Y3219935D01*
X3827485Y3222672D01*
X3825839Y3225135D01*
X3823744Y3227230D01*
X3821281Y3228876D01*
X3818543Y3230010D01*
X3815638Y3230588D01*
D02*
G37*
G36*
Y3180588D02*
X3812675D01*
X3809769Y3180010D01*
X3807032Y3178876D01*
X3804569Y3177230D01*
X3802474Y3175135D01*
X3800828Y3172672D01*
X3799695Y3169935D01*
X3799117Y3167029D01*
Y3164066D01*
X3799695Y3161161D01*
X3800828Y3158423D01*
X3802474Y3155960D01*
X3804569Y3153865D01*
X3807032Y3152220D01*
X3809769Y3151086D01*
X3812675Y3150508D01*
X3815638D01*
X3818543Y3151086D01*
X3821281Y3152220D01*
X3823744Y3153865D01*
X3825839Y3155960D01*
X3827485Y3158423D01*
X3828618Y3161161D01*
X3829196Y3164066D01*
Y3167029D01*
X3828618Y3169935D01*
X3827485Y3172672D01*
X3825839Y3175135D01*
X3823744Y3177230D01*
X3821281Y3178876D01*
X3818543Y3180010D01*
X3815638Y3180588D01*
D02*
G37*
G36*
X4215638Y3170588D02*
X4212675D01*
X4209769Y3170010D01*
X4207032Y3168876D01*
X4204569Y3167230D01*
X4202474Y3165135D01*
X4200828Y3162672D01*
X4199695Y3159935D01*
X4199117Y3157029D01*
Y3154066D01*
X4199695Y3151161D01*
X4200828Y3148423D01*
X4202474Y3145960D01*
X4204569Y3143865D01*
X4207032Y3142220D01*
X4209769Y3141086D01*
X4212675Y3140508D01*
X4215638D01*
X4218543Y3141086D01*
X4221281Y3142220D01*
X4223744Y3143865D01*
X4225839Y3145960D01*
X4227485Y3148423D01*
X4228618Y3151161D01*
X4229196Y3154066D01*
Y3157029D01*
X4228618Y3159935D01*
X4227485Y3162672D01*
X4225839Y3165135D01*
X4223744Y3167230D01*
X4221281Y3168876D01*
X4218543Y3170010D01*
X4215638Y3170588D01*
D02*
G37*
G36*
X3815638Y3110588D02*
X3815426D01*
Y3096818D01*
X3829196D01*
Y3097029D01*
X3828618Y3099935D01*
X3827485Y3102672D01*
X3825839Y3105135D01*
X3823744Y3107230D01*
X3821281Y3108876D01*
X3818543Y3110010D01*
X3815638Y3110588D01*
D02*
G37*
G36*
X3812886D02*
X3812675D01*
X3809769Y3110010D01*
X3807032Y3108876D01*
X3804569Y3107230D01*
X3802474Y3105135D01*
X3800828Y3102672D01*
X3799695Y3099935D01*
X3799117Y3097029D01*
Y3096818D01*
X3812886D01*
Y3110588D01*
D02*
G37*
G36*
X4195638Y3120588D02*
X4192675D01*
X4189769Y3120010D01*
X4187032Y3118876D01*
X4184569Y3117230D01*
X4182474Y3115135D01*
X4180828Y3112672D01*
X4179695Y3109935D01*
X4179117Y3107029D01*
Y3104066D01*
X4179695Y3101161D01*
X4180828Y3098423D01*
X4182474Y3095960D01*
X4184569Y3093865D01*
X4187032Y3092220D01*
X4189769Y3091086D01*
X4192675Y3090508D01*
X4195638D01*
X4198543Y3091086D01*
X4201281Y3092220D01*
X4203744Y3093865D01*
X4205839Y3095960D01*
X4207485Y3098423D01*
X4208618Y3101161D01*
X4209196Y3104066D01*
Y3107029D01*
X4208618Y3109935D01*
X4207485Y3112672D01*
X4205839Y3115135D01*
X4203744Y3117230D01*
X4201281Y3118876D01*
X4198543Y3120010D01*
X4195638Y3120588D01*
D02*
G37*
G36*
X3829196Y3094278D02*
X3815426D01*
Y3080508D01*
X3815638D01*
X3818543Y3081086D01*
X3821281Y3082220D01*
X3823744Y3083865D01*
X3825839Y3085960D01*
X3827485Y3088423D01*
X3828618Y3091161D01*
X3829196Y3094066D01*
Y3094278D01*
D02*
G37*
G36*
X3812886D02*
X3799117D01*
Y3094066D01*
X3799695Y3091161D01*
X3800828Y3088423D01*
X3802474Y3085960D01*
X3804569Y3083865D01*
X3807032Y3082220D01*
X3809769Y3081086D01*
X3812675Y3080508D01*
X3812886D01*
Y3094278D01*
D02*
G37*
G36*
X4309196Y3084277D02*
X4295427D01*
Y3070508D01*
X4295638D01*
X4298543Y3071086D01*
X4301281Y3072220D01*
X4303744Y3073865D01*
X4305839Y3075960D01*
X4307485Y3078423D01*
X4308618Y3081161D01*
X4309196Y3084066D01*
Y3084277D01*
D02*
G37*
G36*
X4292886D02*
X4279117D01*
Y3084066D01*
X4279695Y3081161D01*
X4280828Y3078423D01*
X4282474Y3075960D01*
X4284569Y3073865D01*
X4287032Y3072220D01*
X4289769Y3071086D01*
X4292675Y3070508D01*
X4292886D01*
Y3084277D01*
D02*
G37*
G36*
X3965638Y3100588D02*
X3962675D01*
X3959769Y3100010D01*
X3957032Y3098876D01*
X3954569Y3097230D01*
X3952474Y3095135D01*
X3950828Y3092672D01*
X3949695Y3089935D01*
X3949117Y3087029D01*
Y3084066D01*
X3949695Y3081161D01*
X3950828Y3078423D01*
X3952474Y3075960D01*
X3954569Y3073865D01*
X3957032Y3072220D01*
X3959769Y3071086D01*
X3962675Y3070508D01*
X3965638D01*
X3968543Y3071086D01*
X3971281Y3072220D01*
X3973744Y3073865D01*
X3975839Y3075960D01*
X3977485Y3078423D01*
X3978618Y3081161D01*
X3979196Y3084066D01*
Y3087029D01*
X3978618Y3089935D01*
X3977485Y3092672D01*
X3975839Y3095135D01*
X3973744Y3097230D01*
X3971281Y3098876D01*
X3968543Y3100010D01*
X3965638Y3100588D01*
D02*
G37*
%LPD*%
D63*
X1418763Y2637962D02*
X1472478D01*
X1490678Y2619762D01*
X3851596Y3362624D02*
Y3453017D01*
X3764982Y3539631D02*
Y3613830D01*
Y3539631D02*
X3851596Y3453017D01*
X4091913Y3624406D02*
X4150078D01*
X4074894Y3607388D02*
X4091913Y3624406D01*
X4074894Y3420952D02*
Y3607388D01*
X3992614Y3338671D02*
X4074894Y3420952D01*
X3992614Y3249517D02*
Y3338671D01*
X4074156Y2985548D02*
Y3049132D01*
X3780476Y3604178D02*
X3790128Y3613830D01*
X3780476Y3538900D02*
Y3604178D01*
X3933192Y3190096D02*
X3992614Y3249517D01*
X3895284Y3228004D02*
X3933192Y3190096D01*
X4074156Y3049132D01*
X3780476Y3538900D02*
X3895284Y3424092D01*
Y3228004D02*
Y3424092D01*
X4281360Y3128344D02*
X4294156Y3115548D01*
X4273276Y3128344D02*
X4281360D01*
X4169383Y3547444D02*
X4169637Y3547698D01*
X4169383Y3232237D02*
X4273276Y3128344D01*
X4169383Y3232237D02*
Y3547444D01*
X4280000Y3131392D02*
X4294156Y3145548D01*
X4274539Y3131392D02*
X4280000D01*
X4174716Y3561668D02*
X4182591Y3569542D01*
X4174716Y3551598D02*
Y3561668D01*
Y3551598D02*
X4175987Y3550328D01*
X4172430Y3541512D02*
X4175987Y3545067D01*
X4172430Y3233500D02*
X4274539Y3131392D01*
X4175987Y3545067D02*
Y3550328D01*
X4172430Y3233500D02*
Y3541512D01*
X4218658Y3563700D02*
X4262600D01*
X4208752Y3573606D02*
X4218658Y3563700D01*
X4095215Y3533982D02*
X4153889D01*
X4094706Y3534490D02*
X4095215Y3533982D01*
X4224156Y3225548D02*
Y3242988D01*
X4196560Y3270584D02*
X4224156Y3242988D01*
X3111596Y3362624D02*
Y3453017D01*
X3024982Y3539631D02*
Y3613830D01*
Y3539631D02*
X3111596Y3453017D01*
X3351913Y3624406D02*
X3410078D01*
X3334894Y3607388D02*
X3351913Y3624406D01*
X3334894Y3420952D02*
Y3607388D01*
X3252614Y3338671D02*
X3334894Y3420952D01*
X3252614Y3249517D02*
Y3338671D01*
X3334156Y2985548D02*
Y3049132D01*
X3040476Y3604178D02*
X3050128Y3613830D01*
X3040476Y3538900D02*
Y3604178D01*
X3193192Y3190096D02*
X3252614Y3249517D01*
X3155284Y3228004D02*
X3193192Y3190096D01*
X3334156Y3049132D01*
X3040476Y3538900D02*
X3155284Y3424092D01*
Y3228004D02*
Y3424092D01*
X3541360Y3128344D02*
X3554156Y3115548D01*
X3533276Y3128344D02*
X3541360D01*
X3429383Y3547444D02*
X3429637Y3547698D01*
X3429383Y3232237D02*
X3533276Y3128344D01*
X3429383Y3232237D02*
Y3547444D01*
X3540000Y3131392D02*
X3554156Y3145548D01*
X3534539Y3131392D02*
X3540000D01*
X3434716Y3561668D02*
X3442591Y3569542D01*
X3434716Y3551598D02*
Y3561668D01*
Y3551598D02*
X3435987Y3550328D01*
X3432430Y3541512D02*
X3435987Y3545067D01*
X3432430Y3233500D02*
X3534539Y3131392D01*
X3435987Y3545067D02*
Y3550328D01*
X3432430Y3233500D02*
Y3541512D01*
X3478658Y3563700D02*
X3522600D01*
X3468752Y3573606D02*
X3478658Y3563700D01*
X3355215Y3533982D02*
X3413889D01*
X3354706Y3534490D02*
X3355215Y3533982D01*
X3484156Y3225548D02*
Y3242988D01*
X3456560Y3270584D02*
X3484156Y3242988D01*
X2371596Y3362624D02*
Y3453017D01*
X2284982Y3539631D02*
Y3613830D01*
Y3539631D02*
X2371596Y3453017D01*
X2611913Y3624406D02*
X2670078D01*
X2594894Y3607388D02*
X2611913Y3624406D01*
X2594894Y3420952D02*
Y3607388D01*
X2512614Y3338671D02*
X2594894Y3420952D01*
X2512614Y3249517D02*
Y3338671D01*
X2594156Y2985548D02*
Y3049132D01*
X2300476Y3604178D02*
X2310128Y3613830D01*
X2300476Y3538900D02*
Y3604178D01*
X2453192Y3190096D02*
X2512614Y3249517D01*
X2415284Y3228004D02*
X2453192Y3190096D01*
X2594156Y3049132D01*
X2300476Y3538900D02*
X2415284Y3424092D01*
Y3228004D02*
Y3424092D01*
X2801360Y3128344D02*
X2814156Y3115548D01*
X2793276Y3128344D02*
X2801360D01*
X2689383Y3547444D02*
X2689637Y3547698D01*
X2689383Y3232237D02*
X2793276Y3128344D01*
X2689383Y3232237D02*
Y3547444D01*
X2800000Y3131392D02*
X2814156Y3145548D01*
X2794539Y3131392D02*
X2800000D01*
X2694716Y3561668D02*
X2702591Y3569542D01*
X2694716Y3551598D02*
Y3561668D01*
Y3551598D02*
X2695987Y3550328D01*
X2692430Y3541512D02*
X2695987Y3545067D01*
X2692430Y3233500D02*
X2794539Y3131392D01*
X2695987Y3545067D02*
Y3550328D01*
X2692430Y3233500D02*
Y3541512D01*
X2738658Y3563700D02*
X2782600D01*
X2728752Y3573606D02*
X2738658Y3563700D01*
X2615215Y3533982D02*
X2673889D01*
X2614706Y3534490D02*
X2615215Y3533982D01*
X2744156Y3225548D02*
Y3242988D01*
X2716560Y3270584D02*
X2744156Y3242988D01*
X2061360Y3128344D02*
X2074156Y3115548D01*
X2060000Y3131392D02*
X2074156Y3145548D01*
X1952431Y3233500D02*
X2054539Y3131392D01*
X2053276Y3128344D02*
X2061360D01*
X1949382Y3232237D02*
X2053276Y3128344D01*
X2054539Y3131392D02*
X2060000D01*
X1949382Y3232237D02*
Y3547444D01*
X1952431Y3233500D02*
Y3541512D01*
X1949382Y3547444D02*
X1949637Y3547698D01*
X1952431Y3541512D02*
X1955986Y3545067D01*
X1954716Y3551598D02*
Y3561668D01*
X1962590Y3569542D01*
X1955986Y3545067D02*
Y3550328D01*
X1954716Y3551598D02*
X1955986Y3550328D01*
X1998658Y3563700D02*
X2042601D01*
X1976561Y3270584D02*
X2004156Y3242988D01*
Y3225548D02*
Y3242988D01*
X1874707Y3534490D02*
X1875215Y3533982D01*
X1933889D01*
X1713192Y3190096D02*
X1854156Y3049132D01*
X1675284Y3228004D02*
X1713192Y3190096D01*
X1772613Y3249517D01*
Y3338671D01*
X1854895Y3420952D01*
Y3607388D01*
X1871913Y3624406D01*
X1930078D01*
X1988752Y3573606D02*
X1998658Y3563700D01*
X1631596Y3362624D02*
Y3453017D01*
X1544982Y3539631D02*
Y3613830D01*
Y3539631D02*
X1631596Y3453017D01*
X1675284Y3228004D02*
Y3424092D01*
X1854156Y2985548D02*
Y3049132D01*
X1560476Y3604178D02*
X1570128Y3613830D01*
X1560476Y3538900D02*
X1675284Y3424092D01*
X1560476Y3538900D02*
Y3604178D01*
D64*
X3010080Y2661429D02*
X3060980Y2610530D01*
X3490870D02*
X3506364Y2626024D01*
X3060980Y2610530D02*
X3490870D01*
X2770804Y2630464D02*
Y2696803D01*
X2809721Y2735720D01*
X2752648Y2612308D02*
X2770804Y2630464D01*
X2270080Y2661429D02*
X2319202Y2612308D01*
X2752648D01*
X1578440Y2613070D02*
X2013410D01*
X2029633Y2629292D01*
X1530080Y2661429D02*
X1578440Y2613070D01*
X2029633Y2695631D02*
X2069721Y2735720D01*
X2029633Y2629292D02*
Y2695631D01*
X4268643Y2578180D02*
X4288098Y2597636D01*
Y2657448D01*
X3702954D02*
X3748094Y2612308D01*
X3593239D02*
X3671895D01*
X2962954Y2657448D02*
X3008094Y2612308D01*
X2222954Y2657448D02*
X2268094Y2612308D01*
X4246364Y2626024D02*
Y2692363D01*
X4289721Y2735720D01*
X4234934Y2614594D02*
X4246364Y2626024D01*
X3750080Y2661429D02*
X3796916Y2614594D01*
X3750080Y2661429D02*
Y2729016D01*
X3796916Y2614594D02*
X4234934D01*
X4134245Y2760766D02*
X4134382D01*
X4074184Y2761020D02*
X4133991D01*
X4134245Y2760766D01*
X4223980Y2655488D02*
X4224214Y2655253D01*
X4164270Y2655488D02*
X4223980D01*
X4104548D02*
X4164270D01*
X4044212D02*
X4104410D01*
X3981982Y2903374D02*
X3984156Y2905548D01*
X3981982Y2761020D02*
Y2903374D01*
X3894352Y2761020D02*
X3954550D01*
X3981982D02*
X4074184D01*
X3954550D02*
X3981982D01*
X3864380Y2731048D02*
X3894352Y2761020D01*
X3984268Y2655488D02*
X4044212D01*
X3924070D02*
X3984268D01*
X3864380Y2655610D02*
Y2731048D01*
X3804182Y2655488D02*
X3924070D01*
X3975802Y3504356D02*
Y3519850D01*
X3953705Y3623228D02*
X3975802Y3601130D01*
Y3519850D02*
Y3601130D01*
Y3483142D02*
X3994156Y3464788D01*
Y3375548D02*
Y3464788D01*
X3975802Y3483142D02*
Y3504356D01*
X3942274Y3634658D02*
X3953705Y3623228D01*
X3815020Y3633642D02*
X3816036Y3634658D01*
X3942274D01*
X3815020Y3613576D02*
Y3633642D01*
X3737804Y3634658D02*
X3816036D01*
X3699835Y3596688D02*
X3737804Y3634658D01*
X3699835Y3529626D02*
Y3596688D01*
X3719901Y3189803D02*
Y3509560D01*
Y3189803D02*
X3814156Y3095548D01*
X3699835Y3529626D02*
X3719901Y3509560D01*
X4359156Y2749082D02*
Y3020548D01*
Y2695874D02*
Y2749082D01*
X4341498Y2695874D02*
X4359156D01*
X4341272Y2695962D02*
X4341341Y2696031D01*
X4341498Y2695874D01*
X4294156Y3085548D02*
X4359156Y3020548D01*
X4268240Y2749082D02*
X4359156D01*
X4238522Y2719364D02*
X4268240Y2749082D01*
X4305546Y2696128D02*
X4341106D01*
X4235443Y2637422D02*
Y2719364D01*
X4147590D02*
X4238522D01*
X4359156Y2695874D02*
X4374634D01*
X4224396Y2626375D02*
X4235443Y2637422D01*
X4147590Y2719364D02*
Y2872114D01*
X4138932Y2710705D02*
X4147590Y2719364D01*
X4134650Y2710705D02*
X4138932D01*
X4134552Y2710608D02*
X4134650Y2710705D01*
X4114156Y2905548D02*
X4147590Y2872114D01*
X4074354Y2710608D02*
X4134552D01*
X4164100Y2626278D02*
X4224298D01*
X4104156D02*
X4164100D01*
X3910133Y2710860D02*
X4015543D01*
X3861248Y2861228D02*
Y3048456D01*
X3822746Y2822726D02*
X3861248Y2861228D01*
X3822746Y2742478D02*
Y2822726D01*
X3814156Y3095548D02*
X3861248Y3048456D01*
X4015934Y2710608D02*
X4074120D01*
X4044466Y2626278D02*
X4104156D01*
X3984268D02*
X4044466D01*
X3924324D02*
X3984268D01*
X3863872D02*
X3924187D01*
X3909976Y2710703D02*
X3910133Y2710860D01*
X3894620Y2710703D02*
X3909976D01*
X3894522Y2710606D02*
X3894620Y2710703D01*
X3783608Y2703340D02*
X3822746Y2742478D01*
X3783608Y2646720D02*
Y2703340D01*
X3804182Y2626278D02*
X3863872D01*
X3783608Y2646720D02*
X3804117Y2626212D01*
X3506364Y2626024D02*
Y2692363D01*
X3549721Y2735720D01*
X3010080Y2661429D02*
Y2729016D01*
X3548098Y2657448D02*
X3593239Y2612308D01*
X3394245Y2760766D02*
X3394382D01*
X3334184Y2761020D02*
X3393991D01*
X3394245Y2760766D01*
X3483980Y2655488D02*
X3484214Y2655253D01*
X3424270Y2655488D02*
X3483980D01*
X3364548D02*
X3424270D01*
X3304212D02*
X3364410D01*
X3241982Y2903374D02*
X3244156Y2905548D01*
X3241982Y2761020D02*
Y2903374D01*
X3154352Y2761020D02*
X3214550D01*
X3241982D02*
X3334184D01*
X3214550D02*
X3241982D01*
X3124380Y2731048D02*
X3154352Y2761020D01*
X3244268Y2655488D02*
X3304212D01*
X3184070D02*
X3244268D01*
X3124380Y2655610D02*
Y2731048D01*
X3064182Y2655488D02*
X3184070D01*
X3235802Y3504356D02*
Y3519850D01*
X3213705Y3623228D02*
X3235802Y3601130D01*
Y3519850D02*
Y3601130D01*
Y3483142D02*
X3254156Y3464788D01*
Y3375548D02*
Y3464788D01*
X3235802Y3483142D02*
Y3504356D01*
X3202274Y3634658D02*
X3213705Y3623228D01*
X3075020Y3633642D02*
X3076036Y3634658D01*
X3202274D01*
X3075020Y3613576D02*
Y3633642D01*
X2997804Y3634658D02*
X3076036D01*
X2959835Y3596688D02*
X2997804Y3634658D01*
X2959835Y3529626D02*
Y3596688D01*
X2979901Y3189803D02*
Y3509560D01*
Y3189803D02*
X3074156Y3095548D01*
X2959835Y3529626D02*
X2979901Y3509560D01*
X3619156Y2749082D02*
Y3020548D01*
Y2695874D02*
Y2749082D01*
X3601498Y2695874D02*
X3619156D01*
X3601272Y2695962D02*
X3601341Y2696031D01*
X3601498Y2695874D01*
X3554156Y3085548D02*
X3619156Y3020548D01*
X3528240Y2749082D02*
X3619156D01*
X3498522Y2719364D02*
X3528240Y2749082D01*
X3565546Y2696128D02*
X3601106D01*
X3495443Y2637422D02*
Y2719364D01*
X3407590D02*
X3498522D01*
X3619156Y2695874D02*
X3634634D01*
X3484396Y2626375D02*
X3495443Y2637422D01*
X3407590Y2719364D02*
Y2872114D01*
X3398932Y2710705D02*
X3407590Y2719364D01*
X3394650Y2710705D02*
X3398932D01*
X3394552Y2710608D02*
X3394650Y2710705D01*
X3374156Y2905548D02*
X3407590Y2872114D01*
X3334354Y2710608D02*
X3394552D01*
X3424100Y2626278D02*
X3484298D01*
X3364156D02*
X3424100D01*
X3170133Y2710860D02*
X3275543D01*
X3121248Y2861228D02*
Y3048456D01*
X3082746Y2822726D02*
X3121248Y2861228D01*
X3082746Y2742478D02*
Y2822726D01*
X3074156Y3095548D02*
X3121248Y3048456D01*
X3275934Y2710608D02*
X3334120D01*
X3304466Y2626278D02*
X3364156D01*
X3244268D02*
X3304466D01*
X3184324D02*
X3244268D01*
X3123872D02*
X3184187D01*
X3169976Y2710703D02*
X3170133Y2710860D01*
X3154620Y2710703D02*
X3169976D01*
X3154522Y2710606D02*
X3154620Y2710703D01*
X3043608Y2703340D02*
X3082746Y2742478D01*
X3043608Y2646720D02*
Y2703340D01*
X3064182Y2626278D02*
X3123872D01*
X3043608Y2646720D02*
X3064117Y2626212D01*
X2270080Y2661429D02*
Y2729016D01*
X2808098Y2657448D02*
X2853239Y2612308D01*
X2654245Y2760766D02*
X2654382D01*
X2594184Y2761020D02*
X2653991D01*
X2654245Y2760766D01*
X2743980Y2655488D02*
X2744214Y2655253D01*
X2684270Y2655488D02*
X2743980D01*
X2624548D02*
X2684270D01*
X2564212D02*
X2624410D01*
X2501982Y2903374D02*
X2504156Y2905548D01*
X2501982Y2761020D02*
Y2903374D01*
X2414352Y2761020D02*
X2474550D01*
X2501982D02*
X2594184D01*
X2474550D02*
X2501982D01*
X2384380Y2731048D02*
X2414352Y2761020D01*
X2504268Y2655488D02*
X2564212D01*
X2444070D02*
X2504268D01*
X2384380Y2655610D02*
Y2731048D01*
X2324182Y2655488D02*
X2444070D01*
X2495802Y3504356D02*
Y3519850D01*
X2473704Y3623228D02*
X2495802Y3601130D01*
Y3519850D02*
Y3601130D01*
Y3483142D02*
X2514156Y3464788D01*
Y3375548D02*
Y3464788D01*
X2495802Y3483142D02*
Y3504356D01*
X2462274Y3634658D02*
X2473704Y3623228D01*
X2335020Y3633642D02*
X2336036Y3634658D01*
X2462274D01*
X2335020Y3613576D02*
Y3633642D01*
X2257804Y3634658D02*
X2336036D01*
X2219834Y3596688D02*
X2257804Y3634658D01*
X2219834Y3529626D02*
Y3596688D01*
X2239901Y3189803D02*
Y3509560D01*
Y3189803D02*
X2334156Y3095548D01*
X2219834Y3529626D02*
X2239901Y3509560D01*
X2879156Y2749082D02*
Y3020548D01*
Y2695874D02*
Y2749082D01*
X2861498Y2695874D02*
X2879156D01*
X2861272Y2695962D02*
X2861341Y2696031D01*
X2861498Y2695874D01*
X2814156Y3085548D02*
X2879156Y3020548D01*
X2788240Y2749082D02*
X2879156D01*
X2758522Y2719364D02*
X2788240Y2749082D01*
X2825546Y2696128D02*
X2861106D01*
X2755443Y2637422D02*
Y2719364D01*
X2667590D02*
X2758522D01*
X2879156Y2695874D02*
X2894634D01*
X2744396Y2626375D02*
X2755443Y2637422D01*
X2667590Y2719364D02*
Y2872114D01*
X2658932Y2710705D02*
X2667590Y2719364D01*
X2654650Y2710705D02*
X2658932D01*
X2654552Y2710608D02*
X2654650Y2710705D01*
X2634156Y2905548D02*
X2667590Y2872114D01*
X2594354Y2710608D02*
X2654552D01*
X2684100Y2626278D02*
X2744298D01*
X2624156D02*
X2684100D01*
X2430133Y2710860D02*
X2535543D01*
X2381248Y2861228D02*
Y3048456D01*
X2342746Y2822726D02*
X2381248Y2861228D01*
X2342746Y2742478D02*
Y2822726D01*
X2334156Y3095548D02*
X2381248Y3048456D01*
X2535934Y2710608D02*
X2594120D01*
X2564466Y2626278D02*
X2624156D01*
X2504268D02*
X2564466D01*
X2444324D02*
X2504268D01*
X2383872D02*
X2444187D01*
X2429976Y2710703D02*
X2430133Y2710860D01*
X2414620Y2710703D02*
X2429976D01*
X2414522Y2710606D02*
X2414620Y2710703D01*
X2303608Y2703340D02*
X2342746Y2742478D01*
X2303608Y2646720D02*
Y2703340D01*
X2324182Y2626278D02*
X2383872D01*
X2303608Y2646720D02*
X2324116Y2626212D01*
X2853239Y2612308D02*
X2931895D01*
X3619218Y2657448D02*
X3702954D01*
X2879218D02*
X2962954D01*
X2139218D02*
X2222954D01*
X2113239Y2612308D02*
X2191895D01*
X2068098Y2657448D02*
X2113239Y2612308D01*
X1530080Y2661429D02*
Y2729016D01*
X1914245Y2760766D02*
X1914382D01*
X1854184Y2761020D02*
X1913991D01*
X1914245Y2760766D01*
X2003980Y2655488D02*
X2004214Y2655253D01*
X1944270Y2655488D02*
X2003980D01*
X1884548D02*
X1944270D01*
X1824212D02*
X1884410D01*
X1761982Y2903374D02*
X1764156Y2905548D01*
X1761982Y2761020D02*
Y2903374D01*
X1674352Y2761020D02*
X1734550D01*
X1761982D02*
X1854184D01*
X1734550D02*
X1761982D01*
X1644380Y2731048D02*
X1674352Y2761020D01*
X1764268Y2655488D02*
X1824212D01*
X1704070D02*
X1764268D01*
X1644380Y2655610D02*
Y2731048D01*
X1584182Y2655488D02*
X1704070D01*
X1774156Y3375548D02*
Y3464788D01*
X1755802Y3519850D02*
Y3601130D01*
Y3504356D02*
Y3519850D01*
X1722274Y3634658D02*
X1733704Y3623228D01*
X1596036Y3634658D02*
X1722274D01*
X1733704Y3623228D02*
X1755802Y3601130D01*
Y3483142D02*
X1774156Y3464788D01*
X1755802Y3483142D02*
Y3504356D01*
X1595020Y3633642D02*
X1596036Y3634658D01*
X1595020Y3613576D02*
Y3633642D01*
X1517804Y3634658D02*
X1596036D01*
X1479834Y3596688D02*
X1517804Y3634658D01*
X1479834Y3529626D02*
Y3596688D01*
Y3529626D02*
X1499901Y3509560D01*
Y3189803D02*
X1594156Y3095548D01*
X1499901Y3189803D02*
Y3509560D01*
X2074156Y3085548D02*
X2139156Y3020548D01*
Y2749082D02*
Y3020548D01*
X2048240Y2749082D02*
X2139156D01*
X2018522Y2719364D02*
X2048240Y2749082D01*
X1927590Y2719364D02*
Y2872114D01*
X1894156Y2905548D02*
X1927590Y2872114D01*
X1918932Y2710705D02*
X1927590Y2719364D01*
X2018522D01*
X1914650Y2710705D02*
X1918932D01*
X1914552Y2710608D02*
X1914650Y2710705D01*
X1854354Y2710608D02*
X1914552D01*
X1795934D02*
X1854120D01*
X2139156Y2695874D02*
Y2749082D01*
Y2695874D02*
X2154634D01*
X2121498D02*
X2139156D01*
X2121272Y2695962D02*
X2121341Y2696031D01*
X2121498Y2695874D01*
X2085546Y2696128D02*
X2121106D01*
X2015442Y2637422D02*
Y2719364D01*
X2004396Y2626375D02*
X2015442Y2637422D01*
X1944100Y2626278D02*
X2004298D01*
X1884156D02*
X1944100D01*
X1824466D02*
X1884156D01*
X1764268D02*
X1824466D01*
X1594156Y3095548D02*
X1641248Y3048456D01*
Y2861228D02*
Y3048456D01*
X1602746Y2822726D02*
X1641248Y2861228D01*
X1602746Y2742478D02*
Y2822726D01*
X1690133Y2710860D02*
X1795543D01*
X1689976Y2710703D02*
X1690133Y2710860D01*
X1674620Y2710703D02*
X1689976D01*
X1674522Y2710606D02*
X1674620Y2710703D01*
X1704324Y2626278D02*
X1764268D01*
X1643872D02*
X1704187D01*
X1563608Y2703340D02*
X1602746Y2742478D01*
X1563608Y2646720D02*
X1584116Y2626212D01*
X1563608Y2646720D02*
Y2703340D01*
X1584182Y2626278D02*
X1643872D01*
D65*
X824156Y2710548D02*
Y3087280D01*
X754156Y3157280D02*
X824156Y3087280D01*
X754156Y3157280D02*
Y3560548D01*
Y3610548D01*
X824156Y2670548D02*
Y2710548D01*
D66*
X3049164Y2599862D02*
X3496205D01*
X3517365Y2621022D01*
X2970710Y2678316D02*
X3049164Y2599862D01*
X2970678Y2619762D02*
X2999977Y2590464D01*
X3499832D01*
X3532761Y2623392D01*
X2782997Y2673734D02*
X2844374Y2735112D01*
X2760268Y2603926D02*
X2782997Y2626654D01*
Y2673734D01*
X2230710Y2678316D02*
X2305100Y2603926D01*
X2760268D01*
X1531806Y2625678D02*
X1564734Y2592750D01*
X2022119D02*
X2052760Y2623392D01*
X1564734Y2592750D02*
X2022119D01*
X2017474Y2601132D02*
X2042841Y2626498D01*
X1490710Y2678316D02*
X1567894Y2601132D01*
X2017474D01*
X2042841Y2626498D02*
Y2673578D01*
X2104374Y2735112D01*
X3725175Y2596976D02*
X4246345D01*
X3710858Y2611292D02*
X3725175Y2596976D01*
X3688926Y2634060D02*
X3710858Y2612127D01*
Y2611292D02*
Y2612127D01*
X3607047Y2634060D02*
X3688926D01*
X2955018Y2635422D02*
X2970678Y2619762D01*
X2865685Y2635422D02*
X2955018D01*
X2843658Y2657448D02*
X2865685Y2635422D01*
X2253464Y2596976D02*
X2766345D01*
X2230678Y2619762D02*
X2253464Y2596976D01*
X2213586Y2636854D02*
X2230678Y2619762D01*
X4278857Y2671398D02*
X4309709D01*
X4272761Y2665302D02*
X4278857Y2671398D01*
X4316335Y2664771D02*
Y2664771D01*
X4309709Y2671398D02*
X4316335Y2664771D01*
Y2664771D02*
X4323658Y2657448D01*
X4246345Y2596976D02*
X4272761Y2623392D01*
Y2665302D01*
X3747278Y2985548D02*
X3814156D01*
X4257365Y2668102D02*
X4324374Y2735112D01*
X4241284Y2604942D02*
X4257365Y2621022D01*
Y2668102D01*
X3784084Y2604942D02*
X4241284D01*
X3720663Y2697820D02*
Y2958932D01*
X3747278Y2985548D01*
X3710710Y2687868D02*
X3720663Y2697820D01*
X3710710Y2678316D02*
Y2687868D01*
Y2678316D02*
X3784084Y2604942D01*
X3538857Y2671398D02*
X3569709D01*
X3532761Y2665302D02*
X3538857Y2671398D01*
X3576335Y2664771D02*
Y2664771D01*
X3569709Y2671398D02*
X3576335Y2664771D01*
Y2664771D02*
X3583658Y2657448D01*
X3607047Y2634060D01*
X3532761Y2623392D02*
Y2665302D01*
X3007278Y2985548D02*
X3074156D01*
X3517365Y2668102D02*
X3584374Y2735112D01*
X3517365Y2621022D02*
Y2668102D01*
X2980663Y2697820D02*
Y2958932D01*
X3007278Y2985548D01*
X2970710Y2687868D02*
X2980663Y2697820D01*
X2970710Y2678316D02*
Y2687868D01*
X2798857Y2671398D02*
X2829709D01*
X2792761Y2665302D02*
X2798857Y2671398D01*
X2836335Y2664771D02*
Y2664771D01*
X2829709Y2671398D02*
X2836335Y2664771D01*
Y2664771D02*
X2843658Y2657448D01*
X2766345Y2596976D02*
X2792761Y2623392D01*
Y2665302D01*
X2267278Y2985548D02*
X2334156D01*
X2240663Y2697820D02*
Y2958932D01*
X2267278Y2985548D01*
X2230710Y2687868D02*
X2240663Y2697820D01*
X2230710Y2678316D02*
Y2687868D01*
X2058857Y2671398D02*
X2089709D01*
X2096335Y2664771D01*
X2052760Y2665302D02*
X2058857Y2671398D01*
X2052760Y2623392D02*
Y2665302D01*
X2096335Y2664771D02*
Y2664771D01*
Y2664771D02*
X2103658Y2657448D01*
X1490678Y2619762D02*
X1496594Y2625678D01*
X1531806D01*
X2103658Y2657448D02*
X2124252Y2636854D01*
X2213586D01*
X1527278Y2985548D02*
X1594156D01*
X1500663Y2958932D02*
X1527278Y2985548D01*
X1490710Y2687868D02*
X1500663Y2697820D01*
Y2958932D01*
X1490710Y2678316D02*
Y2687868D01*
D68*
X4275301Y3485468D02*
Y3543380D01*
Y3485468D02*
X4308575Y3452194D01*
X4275301Y3543380D02*
Y3573955D01*
X4265902Y3583353D02*
X4275301Y3573955D01*
X4341341Y3191844D02*
Y3328242D01*
X4308575Y3361008D02*
X4341341Y3328242D01*
X4325045Y3175548D02*
X4341341Y3191844D01*
X4308575Y3361008D02*
Y3452194D01*
X4294156Y3175548D02*
X4325045D01*
X4265902Y3583353D02*
Y3596212D01*
X3535301Y3485468D02*
Y3543380D01*
Y3485468D02*
X3568575Y3452194D01*
X3535301Y3543380D02*
Y3573955D01*
X3525902Y3583353D02*
X3535301Y3573955D01*
X3601341Y3191844D02*
Y3328242D01*
X3568575Y3361008D02*
X3601341Y3328242D01*
X3585045Y3175548D02*
X3601341Y3191844D01*
X3568575Y3361008D02*
Y3452194D01*
X3554156Y3175548D02*
X3585045D01*
X3525902Y3583353D02*
Y3596212D01*
X2795301Y3485468D02*
Y3543380D01*
Y3485468D02*
X2828575Y3452194D01*
X2795301Y3543380D02*
Y3573955D01*
X2785902Y3583353D02*
X2795301Y3573955D01*
X2861341Y3191844D02*
Y3328242D01*
X2828575Y3361008D02*
X2861341Y3328242D01*
X2845045Y3175548D02*
X2861341Y3191844D01*
X2828575Y3361008D02*
Y3452194D01*
X2814156Y3175548D02*
X2845045D01*
X2785902Y3583353D02*
Y3596212D01*
X2055300Y3485468D02*
Y3543380D01*
Y3485468D02*
X2088575Y3452194D01*
Y3361008D02*
Y3452194D01*
X2121340Y3191844D02*
Y3328242D01*
X2088575Y3361008D02*
X2121340Y3328242D01*
X2105045Y3175548D02*
X2121340Y3191844D01*
X2074156Y3175548D02*
X2105045D01*
X2055300Y3543380D02*
Y3573955D01*
X2045903Y3583353D02*
X2055300Y3573955D01*
X2045903Y3583353D02*
Y3596212D01*
D69*
X3814156Y3215548D02*
D03*
X3074156D02*
D03*
X2334156D02*
D03*
X1594156D02*
D03*
X4334156Y2885548D02*
D03*
X3694156D02*
D03*
Y3385548D02*
D03*
X4334156D02*
D03*
X3594156Y2885548D02*
D03*
X2954156D02*
D03*
Y3385548D02*
D03*
X3594156D02*
D03*
X2854156Y2885548D02*
D03*
X2214156D02*
D03*
Y3385548D02*
D03*
X2854156D02*
D03*
X2114156Y2885548D02*
D03*
X1474156D02*
D03*
Y3385548D02*
D03*
X2114156D02*
D03*
X4294156Y3175548D02*
D03*
X3814156Y3095548D02*
D03*
X4294156Y3115548D02*
D03*
Y3145548D02*
D03*
X3814156Y3165548D02*
D03*
X4064156Y3355548D02*
D03*
X3963356Y3357798D02*
D03*
X4104156Y3355548D02*
D03*
X4024156Y2905548D02*
D03*
X4074156D02*
D03*
X3984156D02*
D03*
X3814156Y2985548D02*
D03*
X4244156Y3025548D02*
D03*
Y2985548D02*
D03*
X3964156Y3085548D02*
D03*
X4074156Y2985548D02*
D03*
X3925256Y3357798D02*
D03*
X4194156Y3105548D02*
D03*
X4214156Y3155548D02*
D03*
X4264791Y3223558D02*
D03*
X4224156Y3225548D02*
D03*
X4299144Y3225210D02*
D03*
X4294156Y3085548D02*
D03*
X3994156Y3375548D02*
D03*
X4114156Y2905548D02*
D03*
X3554156Y3175548D02*
D03*
X3074156Y3095548D02*
D03*
X3554156Y3115548D02*
D03*
Y3145548D02*
D03*
X3074156Y3165548D02*
D03*
X3324156Y3355548D02*
D03*
X3223356Y3357798D02*
D03*
X3364156Y3355548D02*
D03*
X3284156Y2905548D02*
D03*
X3334156D02*
D03*
X3244156D02*
D03*
X3074156Y2985548D02*
D03*
X3504156Y3025548D02*
D03*
Y2985548D02*
D03*
X3224156Y3085548D02*
D03*
X3334156Y2985548D02*
D03*
X3185256Y3357798D02*
D03*
X3454156Y3105548D02*
D03*
X3474156Y3155548D02*
D03*
X3524791Y3223558D02*
D03*
X3484156Y3225548D02*
D03*
X3559144Y3225210D02*
D03*
X3554156Y3085548D02*
D03*
X3254156Y3375548D02*
D03*
X3374156Y2905548D02*
D03*
X2814156Y3175548D02*
D03*
X2334156Y3095548D02*
D03*
X2814156Y3115548D02*
D03*
Y3145548D02*
D03*
X2334156Y3165548D02*
D03*
X2584156Y3355548D02*
D03*
X2483356Y3357798D02*
D03*
X2624156Y3355548D02*
D03*
X2544156Y2905548D02*
D03*
X2594156D02*
D03*
X2504156D02*
D03*
X2334156Y2985548D02*
D03*
X2764156Y3025548D02*
D03*
Y2985548D02*
D03*
X2484156Y3085548D02*
D03*
X2594156Y2985548D02*
D03*
X2445256Y3357798D02*
D03*
X2714156Y3105548D02*
D03*
X2734156Y3155548D02*
D03*
X2784791Y3223558D02*
D03*
X2744156Y3225548D02*
D03*
X2819144Y3225210D02*
D03*
X2814156Y3085548D02*
D03*
X2514156Y3375548D02*
D03*
X2634156Y2905548D02*
D03*
X3963356Y3306998D02*
D03*
X3223356D02*
D03*
X2483356D02*
D03*
X2074156Y3175548D02*
D03*
X1594156Y3095548D02*
D03*
X2074156Y3115548D02*
D03*
Y3145548D02*
D03*
X1594156Y3165548D02*
D03*
X1844156Y3355548D02*
D03*
X1743356Y3357798D02*
D03*
X1884156Y3355548D02*
D03*
X1804156Y2905548D02*
D03*
X1854156D02*
D03*
X1764156D02*
D03*
X1594156Y2985548D02*
D03*
X2024156Y3025548D02*
D03*
Y2985548D02*
D03*
X1744156Y3085548D02*
D03*
X1854156Y2985548D02*
D03*
X1705256Y3357798D02*
D03*
X1974156Y3105548D02*
D03*
X1994156Y3155548D02*
D03*
X2044791Y3223558D02*
D03*
X2004156Y3225548D02*
D03*
X2079144Y3225210D02*
D03*
X2074156Y3085548D02*
D03*
X1774156Y3375548D02*
D03*
X1894156Y2905548D02*
D03*
X1743356Y3306998D02*
D03*
D70*
X4429156Y2535548D02*
D03*
X2534330D02*
D03*
X649156D02*
D03*
Y3735548D02*
D03*
X2539156D02*
D03*
X4429156D02*
D03*
D71*
X4249901Y3526357D02*
D03*
X4221300D02*
D03*
Y3610855D02*
D03*
X4249901Y3610857D02*
D03*
X3509901Y3526357D02*
D03*
X3481300D02*
D03*
Y3610855D02*
D03*
X3509901Y3610857D02*
D03*
X2769901Y3526357D02*
D03*
X2741300D02*
D03*
Y3610855D02*
D03*
X2769901Y3610857D02*
D03*
X2029901Y3526357D02*
D03*
X2001300D02*
D03*
Y3610855D02*
D03*
X2029901Y3610857D02*
D03*
D72*
X824156Y3560548D02*
D03*
Y3610548D02*
D03*
X754156Y3560548D02*
D03*
Y3610548D02*
D03*
X789156Y3560548D02*
D03*
Y3610548D02*
D03*
X789156Y2660548D02*
D03*
Y2710548D02*
D03*
X824156Y2660548D02*
D03*
Y2710548D02*
D03*
X754156Y2660548D02*
D03*
Y2710548D02*
D03*
D73*
X3771841Y3377864D02*
D03*
X4256472D02*
D03*
X3031841D02*
D03*
X3516472D02*
D03*
X2291840D02*
D03*
X2776472D02*
D03*
X1551840D02*
D03*
X2036472D02*
D03*
X3771841Y2893232D02*
D03*
X4256472D02*
D03*
X3031841D02*
D03*
X3516472D02*
D03*
X2291840D02*
D03*
X2776472D02*
D03*
X1551840D02*
D03*
X2036472D02*
D03*
D74*
X4268643Y2578180D02*
D03*
X3710858Y2611292D02*
D03*
X1418763Y2637962D02*
D03*
X3954466Y2710608D02*
D03*
X4015764Y2761528D02*
D03*
X3712150Y3517310D02*
D03*
X4289721Y2735720D02*
D03*
X3750080Y2729016D02*
D03*
X4359156Y2732298D02*
D03*
X4288098Y2657448D02*
D03*
X3671895Y2612308D02*
D03*
X4359218Y2657448D02*
D03*
X3748094Y2612308D02*
D03*
X4323658Y2657448D02*
D03*
X3851596Y3362624D02*
D03*
X3764982Y3613830D02*
D03*
X4134382Y2760766D02*
D03*
X4074184Y2761020D02*
D03*
X4224214Y2655488D02*
D03*
X4164270D02*
D03*
X4104410D02*
D03*
X4044212D02*
D03*
X3954550Y2761020D02*
D03*
X3894352D02*
D03*
X3924070Y2655488D02*
D03*
X3984268D02*
D03*
X3864380D02*
D03*
X3804182D02*
D03*
X4324374Y2735112D02*
D03*
X3710710Y2687868D02*
D03*
X3975802Y3519850D02*
D03*
Y3504356D02*
D03*
X3953705Y3623228D02*
D03*
X3815020Y3613576D02*
D03*
X4374380Y2695620D02*
D03*
X4341106Y2695112D02*
D03*
X4305546Y2695366D02*
D03*
X4224298Y2626278D02*
D03*
X4074354Y2710608D02*
D03*
X4134552D02*
D03*
X4164100Y2626278D02*
D03*
X4104156D02*
D03*
X3822746Y2742478D02*
D03*
X4015934Y2710608D02*
D03*
X4044466Y2626278D02*
D03*
X3984268D02*
D03*
X3910270Y2710608D02*
D03*
X3924324Y2626278D02*
D03*
X3894522Y2710608D02*
D03*
X3863872Y2626278D02*
D03*
X3804182D02*
D03*
X4275301Y3543380D02*
D03*
X4265902Y3596212D02*
D03*
X4150078Y3624406D02*
D03*
X3790128Y3613830D02*
D03*
X4113824Y3646359D02*
D03*
X4169637Y3547698D02*
D03*
X4182591Y3569542D02*
D03*
X4262600Y3563700D02*
D03*
X4208752Y3573606D02*
D03*
X4280381Y3594942D02*
D03*
X4153889Y3533982D02*
D03*
X4094706Y3534490D02*
D03*
X4196560Y3270584D02*
D03*
X4299177Y3513154D02*
D03*
X4299431Y3634058D02*
D03*
X4126524Y3646613D02*
D03*
X4088678D02*
D03*
X3214466Y2710608D02*
D03*
X3275764Y2761528D02*
D03*
X2972150Y3517310D02*
D03*
X3549721Y2735720D02*
D03*
X3010080Y2729016D02*
D03*
X3619156Y2732298D02*
D03*
X3548098Y2657448D02*
D03*
X2931895Y2612308D02*
D03*
X3619218Y2657448D02*
D03*
X3008094Y2612308D02*
D03*
X3583658Y2657448D02*
D03*
X2970678Y2619762D02*
D03*
X3111596Y3362624D02*
D03*
X3024982Y3613830D02*
D03*
X3394382Y2760766D02*
D03*
X3334184Y2761020D02*
D03*
X3484214Y2655488D02*
D03*
X3424270D02*
D03*
X3364410D02*
D03*
X3304212D02*
D03*
X3214550Y2761020D02*
D03*
X3154352D02*
D03*
X3184070Y2655488D02*
D03*
X3244268D02*
D03*
X3124380D02*
D03*
X3064182D02*
D03*
X3584374Y2735112D02*
D03*
X2970710Y2687868D02*
D03*
X3235802Y3519850D02*
D03*
Y3504356D02*
D03*
X3213705Y3623228D02*
D03*
X3075020Y3613576D02*
D03*
X3634380Y2695620D02*
D03*
X3601106Y2695112D02*
D03*
X3565546Y2695366D02*
D03*
X3484298Y2626278D02*
D03*
X3334354Y2710608D02*
D03*
X3394552D02*
D03*
X3424100Y2626278D02*
D03*
X3364156D02*
D03*
X3082746Y2742478D02*
D03*
X3275934Y2710608D02*
D03*
X3304466Y2626278D02*
D03*
X3244268D02*
D03*
X3170270Y2710608D02*
D03*
X3184324Y2626278D02*
D03*
X3154522Y2710608D02*
D03*
X3123872Y2626278D02*
D03*
X3064182D02*
D03*
X3535301Y3543380D02*
D03*
X3525902Y3596212D02*
D03*
X3410078Y3624406D02*
D03*
X3050128Y3613830D02*
D03*
X3373824Y3646359D02*
D03*
X3429637Y3547698D02*
D03*
X3442591Y3569542D02*
D03*
X3522600Y3563700D02*
D03*
X3468752Y3573606D02*
D03*
X3540381Y3594942D02*
D03*
X3413889Y3533982D02*
D03*
X3354706Y3534490D02*
D03*
X3456560Y3270584D02*
D03*
X3559177Y3513154D02*
D03*
X3559431Y3634058D02*
D03*
X3386524Y3646613D02*
D03*
X3348678D02*
D03*
X2474466Y2710608D02*
D03*
X2535764Y2761528D02*
D03*
X2232150Y3517310D02*
D03*
X2809721Y2735720D02*
D03*
X2270080Y2729016D02*
D03*
X2879156Y2732298D02*
D03*
X2808098Y2657448D02*
D03*
X2191895Y2612308D02*
D03*
X2879218Y2657448D02*
D03*
X2268094Y2612308D02*
D03*
X2843658Y2657448D02*
D03*
X2230678Y2619762D02*
D03*
X2371596Y3362624D02*
D03*
X2284982Y3613830D02*
D03*
X2654382Y2760766D02*
D03*
X2594184Y2761020D02*
D03*
X2744214Y2655488D02*
D03*
X2684270D02*
D03*
X2624410D02*
D03*
X2564212D02*
D03*
X2474550Y2761020D02*
D03*
X2414352D02*
D03*
X2444070Y2655488D02*
D03*
X2504268D02*
D03*
X2384380D02*
D03*
X2324182D02*
D03*
X2844374Y2735112D02*
D03*
X2230710Y2687868D02*
D03*
X2495802Y3519850D02*
D03*
Y3504356D02*
D03*
X2473704Y3623228D02*
D03*
X2335020Y3613576D02*
D03*
X2894380Y2695620D02*
D03*
X2861106Y2695112D02*
D03*
X2825546Y2695366D02*
D03*
X2744298Y2626278D02*
D03*
X2594354Y2710608D02*
D03*
X2654552D02*
D03*
X2684100Y2626278D02*
D03*
X2624156D02*
D03*
X2342746Y2742478D02*
D03*
X2535934Y2710608D02*
D03*
X2564466Y2626278D02*
D03*
X2504268D02*
D03*
X2430270Y2710608D02*
D03*
X2444324Y2626278D02*
D03*
X2414522Y2710608D02*
D03*
X2383872Y2626278D02*
D03*
X2324182D02*
D03*
X2795301Y3543380D02*
D03*
X2785902Y3596212D02*
D03*
X2670078Y3624406D02*
D03*
X2310128Y3613830D02*
D03*
X2633824Y3646359D02*
D03*
X2689637Y3547698D02*
D03*
X2702591Y3569542D02*
D03*
X2782600Y3563700D02*
D03*
X2728752Y3573606D02*
D03*
X2800381Y3594942D02*
D03*
X2673889Y3533982D02*
D03*
X2614706Y3534490D02*
D03*
X2716560Y3270584D02*
D03*
X2819177Y3513154D02*
D03*
X2819431Y3634058D02*
D03*
X2646524Y3646613D02*
D03*
X2608678D02*
D03*
X1962590Y3569542D02*
D03*
X1949637Y3547698D02*
D03*
X2055300Y3543380D02*
D03*
X2042601Y3563700D02*
D03*
X2045903Y3596212D02*
D03*
X2060381Y3594942D02*
D03*
X2079431Y3634058D02*
D03*
X2079176Y3513154D02*
D03*
X1976561Y3270584D02*
D03*
X1874707Y3534490D02*
D03*
X1933889Y3533982D02*
D03*
X1755802Y3504356D02*
D03*
X1930078Y3624406D02*
D03*
X1868678Y3646613D02*
D03*
X1906524D02*
D03*
X1893824Y3646359D02*
D03*
X1988752Y3573606D02*
D03*
X1490678Y2619762D02*
D03*
X1528094Y2612308D02*
D03*
X1795764Y2761528D02*
D03*
X1492150Y3517310D02*
D03*
X2069721Y2735720D02*
D03*
X1530080Y2729016D02*
D03*
X2139156Y2732298D02*
D03*
X2068098Y2657448D02*
D03*
X2139218D02*
D03*
X1451895Y2612308D02*
D03*
X2103658Y2657448D02*
D03*
X1631596Y3362624D02*
D03*
X1544982Y3613830D02*
D03*
X1914382Y2760766D02*
D03*
X1854184Y2761020D02*
D03*
X2004214Y2655488D02*
D03*
X1944270D02*
D03*
X1884410D02*
D03*
X1824212D02*
D03*
X1734550Y2761020D02*
D03*
X1674352D02*
D03*
X1704070Y2655488D02*
D03*
X1764268D02*
D03*
X1644380D02*
D03*
X1584182D02*
D03*
X2104374Y2735112D02*
D03*
X1490710Y2687868D02*
D03*
X1570128Y3613830D02*
D03*
X1755802Y3519850D02*
D03*
X1733704Y3623228D02*
D03*
X1595020Y3613576D02*
D03*
X1914552Y2710608D02*
D03*
X1854354D02*
D03*
X1795934D02*
D03*
X2154380Y2695620D02*
D03*
X2085546Y2695366D02*
D03*
X2121106Y2695112D02*
D03*
X2004298Y2626278D02*
D03*
X1944100D02*
D03*
X1824466D02*
D03*
X1884156D02*
D03*
X1764268D02*
D03*
X1602746Y2742478D02*
D03*
X1734466Y2710608D02*
D03*
X1674522D02*
D03*
X1690270D02*
D03*
X1704324Y2626278D02*
D03*
X1643872D02*
D03*
X1584182D02*
D03*
D75*
X824156Y2626016D02*
Y2660548D01*
X901964Y2548208D02*
X1463995D01*
X824156Y2626016D02*
X901964Y2548208D01*
X1463995D02*
X1528094Y2612308D01*
M02*
