G04*
G04 #@! TF.GenerationSoftware,Altium Limited,Altium Designer,25.8.1 (18)*
G04*
G04 Layer_Color=16777164*
%FSLAX44Y44*%
%MOMM*%
G71*
G04*
G04 #@! TF.SameCoordinates,76810562-5797-4D89-AFA6-D846846B59B0*
G04*
G04*
G04 #@! TF.FilePolarity,Positive*
G04*
G01*
G75*
%ADD13C,0.2000*%
%ADD16C,0.1270*%
%ADD78C,0.1000*%
D13*
X4225156Y2777148D02*
G03*
X4225156Y2777148I-1000J0D01*
G01*
X3485156D02*
G03*
X3485156Y2777148I-1000J0D01*
G01*
X2745156D02*
G03*
X2745156Y2777148I-1000J0D01*
G01*
X2005156D02*
G03*
X2005156Y2777148I-1000J0D01*
G01*
D16*
X4174406Y2695548D02*
X4253906D01*
X4174406D02*
Y2745548D01*
X4253906D01*
Y2695548D02*
Y2745548D01*
X3434406Y2695548D02*
X3513906D01*
X3434406D02*
Y2745548D01*
X3513906D01*
Y2695548D02*
Y2745548D01*
X2694406Y2695548D02*
X2773906D01*
X2694406D02*
Y2745548D01*
X2773906D01*
Y2695548D02*
Y2745548D01*
X1954406Y2695548D02*
X2033906D01*
X1954406D02*
Y2745548D01*
X2033906D01*
Y2695548D02*
Y2745548D01*
D78*
X3741156Y3211548D02*
X3757156D01*
X3741156Y3219548D02*
X3757156D01*
Y3211548D02*
Y3219548D01*
X3741156Y3211548D02*
Y3219548D01*
Y3161548D02*
X3757156D01*
X3741156Y3169548D02*
X3757156D01*
Y3161548D02*
Y3169548D01*
X3741156Y3161548D02*
Y3169548D01*
X3001157Y3211548D02*
X3017156D01*
X3001157Y3219548D02*
X3017156D01*
Y3211548D02*
Y3219548D01*
X3001157Y3211548D02*
Y3219548D01*
Y3162152D02*
X3017156D01*
X3001157Y3170152D02*
X3017156D01*
Y3162152D02*
Y3170152D01*
X3001157Y3162152D02*
Y3170152D01*
X2266156Y3211548D02*
X2282157D01*
X2266156Y3219548D02*
X2282157D01*
Y3211548D02*
Y3219548D01*
X2266156Y3211548D02*
Y3219548D01*
Y3161548D02*
X2282157D01*
X2266156Y3169548D02*
X2282157D01*
Y3161548D02*
Y3169548D01*
X2266156Y3161548D02*
Y3169548D01*
X1513656Y3211548D02*
X1529657D01*
X1513656Y3219548D02*
X1529657D01*
Y3211548D02*
Y3219548D01*
X1513656Y3211548D02*
Y3219548D01*
Y3161548D02*
X1529657D01*
X1513656Y3169548D02*
X1529657D01*
Y3161548D02*
Y3169548D01*
X1513656Y3161548D02*
Y3169548D01*
X4266031Y3587766D02*
X4282031D01*
X4266031Y3579766D02*
X4282031D01*
X4266031D02*
Y3587766D01*
X4282031Y3579766D02*
Y3587766D01*
X3526031D02*
X3542031D01*
X3526031Y3579766D02*
X3542031D01*
X3526031D02*
Y3587766D01*
X3542031Y3579766D02*
Y3587766D01*
X2786031D02*
X2802031D01*
X2786031Y3579766D02*
X2802031D01*
X2786031D02*
Y3587766D01*
X2802031Y3579766D02*
Y3587766D01*
X2046030D02*
X2062030D01*
X2046030Y3579766D02*
X2062030D01*
X2046030D02*
Y3587766D01*
X2062030Y3579766D02*
Y3587766D01*
X4181956Y3551698D02*
X4197957D01*
X4181956Y3543698D02*
X4197957D01*
X4181956D02*
Y3551698D01*
X4197957Y3543698D02*
Y3551698D01*
X4181956Y3564398D02*
X4197957D01*
X4181956Y3556398D02*
X4197957D01*
X4181956D02*
Y3564398D01*
X4197957Y3556398D02*
Y3564398D01*
X4181956Y3596148D02*
X4197957D01*
X4181956Y3588148D02*
X4197957D01*
X4181956D02*
Y3596148D01*
X4197957Y3588148D02*
Y3596148D01*
X4181956Y3583448D02*
X4197957D01*
X4181956Y3575448D02*
X4197957D01*
X4181956D02*
Y3583448D01*
X4197957Y3575448D02*
Y3583448D01*
X4181703Y3521600D02*
X4197703D01*
X4181703Y3529600D02*
X4197703D01*
Y3521600D02*
Y3529600D01*
X4181703Y3521600D02*
Y3529600D01*
X4140237Y3533348D02*
Y3549348D01*
X4148236Y3533348D02*
Y3549348D01*
X4140237Y3533348D02*
X4148236D01*
X4140237Y3549348D02*
X4148236D01*
X4127537Y3533348D02*
Y3549348D01*
X4135536Y3533348D02*
Y3549348D01*
X4127537Y3533348D02*
X4135536D01*
X4127537Y3549348D02*
X4135536D01*
X4099597Y3533348D02*
Y3549348D01*
X4107596Y3533348D02*
Y3549348D01*
X4099597Y3533348D02*
X4107596D01*
X4099597Y3549348D02*
X4107596D01*
X4112296Y3533348D02*
Y3549348D01*
X4120297Y3533348D02*
Y3549348D01*
X4112296Y3533348D02*
X4120297D01*
X4112296Y3549348D02*
X4120297D01*
X3441956Y3551698D02*
X3457957D01*
X3441956Y3543698D02*
X3457957D01*
X3441956D02*
Y3551698D01*
X3457957Y3543698D02*
Y3551698D01*
X3441956Y3564398D02*
X3457957D01*
X3441956Y3556398D02*
X3457957D01*
X3441956D02*
Y3564398D01*
X3457957Y3556398D02*
Y3564398D01*
X3441956Y3596148D02*
X3457957D01*
X3441956Y3588148D02*
X3457957D01*
X3441956D02*
Y3596148D01*
X3457957Y3588148D02*
Y3596148D01*
X3441956Y3583448D02*
X3457957D01*
X3441956Y3575448D02*
X3457957D01*
X3441956D02*
Y3583448D01*
X3457957Y3575448D02*
Y3583448D01*
X3441703Y3521600D02*
X3457703D01*
X3441703Y3529600D02*
X3457703D01*
Y3521600D02*
Y3529600D01*
X3441703Y3521600D02*
Y3529600D01*
X3400237Y3533348D02*
Y3549348D01*
X3408236Y3533348D02*
Y3549348D01*
X3400237Y3533348D02*
X3408236D01*
X3400237Y3549348D02*
X3408236D01*
X3387537Y3533348D02*
Y3549348D01*
X3395536Y3533348D02*
Y3549348D01*
X3387537Y3533348D02*
X3395536D01*
X3387537Y3549348D02*
X3395536D01*
X3359597Y3533348D02*
Y3549348D01*
X3367596Y3533348D02*
Y3549348D01*
X3359597Y3533348D02*
X3367596D01*
X3359597Y3549348D02*
X3367596D01*
X3372296Y3533348D02*
Y3549348D01*
X3380297Y3533348D02*
Y3549348D01*
X3372296Y3533348D02*
X3380297D01*
X3372296Y3549348D02*
X3380297D01*
X2701956Y3551698D02*
X2717957D01*
X2701956Y3543698D02*
X2717957D01*
X2701956D02*
Y3551698D01*
X2717957Y3543698D02*
Y3551698D01*
X2701956Y3564398D02*
X2717957D01*
X2701956Y3556398D02*
X2717957D01*
X2701956D02*
Y3564398D01*
X2717957Y3556398D02*
Y3564398D01*
X2701956Y3596148D02*
X2717957D01*
X2701956Y3588148D02*
X2717957D01*
X2701956D02*
Y3596148D01*
X2717957Y3588148D02*
Y3596148D01*
X2701956Y3583448D02*
X2717957D01*
X2701956Y3575448D02*
X2717957D01*
X2701956D02*
Y3583448D01*
X2717957Y3575448D02*
Y3583448D01*
X2701703Y3521600D02*
X2717703D01*
X2701703Y3529600D02*
X2717703D01*
Y3521600D02*
Y3529600D01*
X2701703Y3521600D02*
Y3529600D01*
X2660237Y3533348D02*
Y3549348D01*
X2668236Y3533348D02*
Y3549348D01*
X2660237Y3533348D02*
X2668236D01*
X2660237Y3549348D02*
X2668236D01*
X2647537Y3533348D02*
Y3549348D01*
X2655536Y3533348D02*
Y3549348D01*
X2647537Y3533348D02*
X2655536D01*
X2647537Y3549348D02*
X2655536D01*
X2619597Y3533348D02*
Y3549348D01*
X2627596Y3533348D02*
Y3549348D01*
X2619597Y3533348D02*
X2627596D01*
X2619597Y3549348D02*
X2627596D01*
X2632296Y3533348D02*
Y3549348D01*
X2640297Y3533348D02*
Y3549348D01*
X2632296Y3533348D02*
X2640297D01*
X2632296Y3549348D02*
X2640297D01*
X1892296Y3533348D02*
Y3549348D01*
X1900296Y3533348D02*
Y3549348D01*
X1892296Y3533348D02*
X1900296D01*
X1892296Y3549348D02*
X1900296D01*
X1879597Y3533348D02*
Y3549348D01*
X1887596Y3533348D02*
Y3549348D01*
X1879597Y3533348D02*
X1887596D01*
X1879597Y3549348D02*
X1887596D01*
X1920237Y3533348D02*
Y3549348D01*
X1928237Y3533348D02*
Y3549348D01*
X1920237Y3533348D02*
X1928237D01*
X1920237Y3549348D02*
X1928237D01*
X1907536Y3533348D02*
Y3549348D01*
X1915536Y3533348D02*
Y3549348D01*
X1907536Y3533348D02*
X1915536D01*
X1907536Y3549348D02*
X1915536D01*
X1961703Y3521600D02*
X1977702D01*
X1961703Y3529600D02*
X1977702D01*
Y3521600D02*
Y3529600D01*
X1961703Y3521600D02*
Y3529600D01*
X1961956Y3596148D02*
X1977957D01*
X1961956Y3588148D02*
X1977957D01*
X1961956D02*
Y3596148D01*
X1977957Y3588148D02*
Y3596148D01*
X1961956Y3583448D02*
X1977957D01*
X1961956Y3575448D02*
X1977957D01*
X1961956D02*
Y3583448D01*
X1977957Y3575448D02*
Y3583448D01*
X1961956Y3564398D02*
X1977957D01*
X1961956Y3556398D02*
X1977957D01*
X1961956D02*
Y3564398D01*
X1977957Y3556398D02*
Y3564398D01*
X1961956Y3551698D02*
X1977957D01*
X1961956Y3543698D02*
X1977957D01*
X1961956D02*
Y3551698D01*
X1977957Y3543698D02*
Y3551698D01*
X4337106Y2681522D02*
X4345107D01*
X4337106Y2665522D02*
X4345107D01*
Y2681522D01*
X4337106Y2665522D02*
Y2681522D01*
X4371142Y2682284D02*
X4379142D01*
X4371142Y2666284D02*
X4379142D01*
Y2682284D01*
X4371142Y2666284D02*
Y2682284D01*
X4301546Y2681776D02*
X4309547D01*
X4301546Y2665776D02*
X4309547D01*
Y2681776D01*
X4301546Y2665776D02*
Y2681776D01*
X3778576Y2736108D02*
Y2766108D01*
X3764576Y2736108D02*
Y2766108D01*
Y2736108D02*
X3778576D01*
X3764576Y2766108D02*
X3778576D01*
X3687156Y2762048D02*
X3724156D01*
X3687156Y2695048D02*
X3724156D01*
X3687156D02*
Y2762048D01*
X3724156Y2695048D02*
Y2762048D01*
X3947226Y3574016D02*
Y3582016D01*
X3931227Y3574016D02*
Y3582016D01*
Y3574016D02*
X3947226D01*
X3931227Y3582016D02*
X3947226D01*
X3800246Y2738478D02*
Y2746478D01*
X3816246Y2738478D02*
Y2746478D01*
X3800246D02*
X3816246D01*
X3800246Y2738478D02*
X3816246D01*
X4295406Y2705548D02*
Y2725548D01*
X4282906Y2705548D02*
Y2725548D01*
X4295406D01*
X4282906Y2705548D02*
X4295406D01*
X4365406Y2705798D02*
Y2725798D01*
X4352906Y2705798D02*
Y2725798D01*
X4365406D01*
X4352906Y2705798D02*
X4365406D01*
X3716707Y2657548D02*
Y2677548D01*
X3704207Y2657548D02*
Y2677548D01*
X3716707D01*
X3704207Y2657548D02*
X3716707D01*
X3678606D02*
Y2677548D01*
X3666106Y2657548D02*
Y2677548D01*
X3678606D01*
X3666106Y2657548D02*
X3678606D01*
X3754807D02*
Y2677548D01*
X3742307Y2657548D02*
Y2677548D01*
X3754807D01*
X3742307Y2657548D02*
X3754807D01*
X4330406Y2705548D02*
Y2725548D01*
X4317906Y2705548D02*
Y2725548D01*
X4330406D01*
X4317906Y2705548D02*
X4330406D01*
X4295406Y2665548D02*
Y2685548D01*
X4282906Y2665548D02*
Y2685548D01*
X4295406D01*
X4282906Y2665548D02*
X4295406D01*
X4365406Y2665798D02*
Y2685798D01*
X4352906Y2665798D02*
Y2685798D01*
X4365406D01*
X4352906Y2665798D02*
X4365406D01*
X3716707Y2619448D02*
Y2639448D01*
X3704207Y2619448D02*
Y2639448D01*
X3716707D01*
X3704207Y2619448D02*
X3716707D01*
X3678606D02*
Y2639448D01*
X3666106Y2619448D02*
Y2639448D01*
X3678606D01*
X3666106Y2619448D02*
X3678606D01*
X3754807D02*
Y2639448D01*
X3742307Y2619448D02*
Y2639448D01*
X3754807D01*
X3742307Y2619448D02*
X3754807D01*
X4330406Y2665548D02*
Y2685548D01*
X4317906Y2665548D02*
Y2685548D01*
X4330406D01*
X4317906Y2665548D02*
X4330406D01*
X3597106Y2681522D02*
X3605107D01*
X3597106Y2665522D02*
X3605107D01*
Y2681522D01*
X3597106Y2665522D02*
Y2681522D01*
X3631142Y2682284D02*
X3639142D01*
X3631142Y2666284D02*
X3639142D01*
Y2682284D01*
X3631142Y2666284D02*
Y2682284D01*
X3561546Y2681776D02*
X3569547D01*
X3561546Y2665776D02*
X3569547D01*
Y2681776D01*
X3561546Y2665776D02*
Y2681776D01*
X3038576Y2736108D02*
Y2766108D01*
X3024576Y2736108D02*
Y2766108D01*
Y2736108D02*
X3038576D01*
X3024576Y2766108D02*
X3038576D01*
X2947156Y2762048D02*
X2984156D01*
X2947156Y2695048D02*
X2984156D01*
X2947156D02*
Y2762048D01*
X2984156Y2695048D02*
Y2762048D01*
X3207226Y3574016D02*
Y3582016D01*
X3191227Y3574016D02*
Y3582016D01*
Y3574016D02*
X3207226D01*
X3191227Y3582016D02*
X3207226D01*
X3060246Y2738478D02*
Y2746478D01*
X3076246Y2738478D02*
Y2746478D01*
X3060246D02*
X3076246D01*
X3060246Y2738478D02*
X3076246D01*
X3555406Y2705548D02*
Y2725548D01*
X3542906Y2705548D02*
Y2725548D01*
X3555406D01*
X3542906Y2705548D02*
X3555406D01*
X3625406Y2705798D02*
Y2725798D01*
X3612906Y2705798D02*
Y2725798D01*
X3625406D01*
X3612906Y2705798D02*
X3625406D01*
X2976707Y2657548D02*
Y2677548D01*
X2964207Y2657548D02*
Y2677548D01*
X2976707D01*
X2964207Y2657548D02*
X2976707D01*
X2938606D02*
Y2677548D01*
X2926106Y2657548D02*
Y2677548D01*
X2938606D01*
X2926106Y2657548D02*
X2938606D01*
X3014807D02*
Y2677548D01*
X3002307Y2657548D02*
Y2677548D01*
X3014807D01*
X3002307Y2657548D02*
X3014807D01*
X3590406Y2705548D02*
Y2725548D01*
X3577906Y2705548D02*
Y2725548D01*
X3590406D01*
X3577906Y2705548D02*
X3590406D01*
X3555406Y2665548D02*
Y2685548D01*
X3542906Y2665548D02*
Y2685548D01*
X3555406D01*
X3542906Y2665548D02*
X3555406D01*
X3625406Y2665798D02*
Y2685798D01*
X3612906Y2665798D02*
Y2685798D01*
X3625406D01*
X3612906Y2665798D02*
X3625406D01*
X2976707Y2619448D02*
Y2639448D01*
X2964207Y2619448D02*
Y2639448D01*
X2976707D01*
X2964207Y2619448D02*
X2976707D01*
X2938606D02*
Y2639448D01*
X2926106Y2619448D02*
Y2639448D01*
X2938606D01*
X2926106Y2619448D02*
X2938606D01*
X3014807D02*
Y2639448D01*
X3002307Y2619448D02*
Y2639448D01*
X3014807D01*
X3002307Y2619448D02*
X3014807D01*
X3590406Y2665548D02*
Y2685548D01*
X3577906Y2665548D02*
Y2685548D01*
X3590406D01*
X3577906Y2665548D02*
X3590406D01*
X2857106Y2681522D02*
X2865107D01*
X2857106Y2665522D02*
X2865107D01*
Y2681522D01*
X2857106Y2665522D02*
Y2681522D01*
X2891142Y2682284D02*
X2899142D01*
X2891142Y2666284D02*
X2899142D01*
Y2682284D01*
X2891142Y2666284D02*
Y2682284D01*
X2821546Y2681776D02*
X2829547D01*
X2821546Y2665776D02*
X2829547D01*
Y2681776D01*
X2821546Y2665776D02*
Y2681776D01*
X2298576Y2736108D02*
Y2766108D01*
X2284576Y2736108D02*
Y2766108D01*
Y2736108D02*
X2298576D01*
X2284576Y2766108D02*
X2298576D01*
X2207156Y2762048D02*
X2244156D01*
X2207156Y2695048D02*
X2244156D01*
X2207156D02*
Y2762048D01*
X2244156Y2695048D02*
Y2762048D01*
X2467226Y3574016D02*
Y3582016D01*
X2451226Y3574016D02*
Y3582016D01*
Y3574016D02*
X2467226D01*
X2451226Y3582016D02*
X2467226D01*
X2320246Y2738478D02*
Y2746478D01*
X2336246Y2738478D02*
Y2746478D01*
X2320246D02*
X2336246D01*
X2320246Y2738478D02*
X2336246D01*
X2815406Y2705548D02*
Y2725548D01*
X2802906Y2705548D02*
Y2725548D01*
X2815406D01*
X2802906Y2705548D02*
X2815406D01*
X2885406Y2705798D02*
Y2725798D01*
X2872906Y2705798D02*
Y2725798D01*
X2885406D01*
X2872906Y2705798D02*
X2885406D01*
X2236706Y2657548D02*
Y2677548D01*
X2224206Y2657548D02*
Y2677548D01*
X2236706D01*
X2224206Y2657548D02*
X2236706D01*
X2198606D02*
Y2677548D01*
X2186106Y2657548D02*
Y2677548D01*
X2198606D01*
X2186106Y2657548D02*
X2198606D01*
X2274806D02*
Y2677548D01*
X2262306Y2657548D02*
Y2677548D01*
X2274806D01*
X2262306Y2657548D02*
X2274806D01*
X2850406Y2705548D02*
Y2725548D01*
X2837906Y2705548D02*
Y2725548D01*
X2850406D01*
X2837906Y2705548D02*
X2850406D01*
X2815406Y2665548D02*
Y2685548D01*
X2802906Y2665548D02*
Y2685548D01*
X2815406D01*
X2802906Y2665548D02*
X2815406D01*
X2885406Y2665798D02*
Y2685798D01*
X2872906Y2665798D02*
Y2685798D01*
X2885406D01*
X2872906Y2665798D02*
X2885406D01*
X2236706Y2619448D02*
Y2639448D01*
X2224206Y2619448D02*
Y2639448D01*
X2236706D01*
X2224206Y2619448D02*
X2236706D01*
X2198606D02*
Y2639448D01*
X2186106Y2619448D02*
Y2639448D01*
X2198606D01*
X2186106Y2619448D02*
X2198606D01*
X2274806D02*
Y2639448D01*
X2262306Y2619448D02*
Y2639448D01*
X2274806D01*
X2262306Y2619448D02*
X2274806D01*
X2850406Y2665548D02*
Y2685548D01*
X2837906Y2665548D02*
Y2685548D01*
X2850406D01*
X2837906Y2665548D02*
X2850406D01*
X2117106Y2681522D02*
X2125106D01*
X2117106Y2665522D02*
X2125106D01*
Y2681522D01*
X2117106Y2665522D02*
Y2681522D01*
X2151142Y2682284D02*
X2159142D01*
X2151142Y2666284D02*
X2159142D01*
Y2682284D01*
X2151142Y2666284D02*
Y2682284D01*
X2081546Y2681776D02*
X2089546D01*
X2081546Y2665776D02*
X2089546D01*
Y2681776D01*
X2081546Y2665776D02*
Y2681776D01*
X1558576Y2736108D02*
Y2766108D01*
X1544576Y2736108D02*
Y2766108D01*
Y2736108D02*
X1558576D01*
X1544576Y2766108D02*
X1558576D01*
X1467156Y2762048D02*
X1504156D01*
X1467156Y2695048D02*
X1504156D01*
X1467156D02*
Y2762048D01*
X1504156Y2695048D02*
Y2762048D01*
X1727226Y3574016D02*
Y3582016D01*
X1711226Y3574016D02*
Y3582016D01*
Y3574016D02*
X1727226D01*
X1711226Y3582016D02*
X1727226D01*
X1580246Y2738478D02*
Y2746478D01*
X1596246Y2738478D02*
Y2746478D01*
X1580246D02*
X1596246D01*
X1580246Y2738478D02*
X1596246D01*
X2075406Y2705548D02*
Y2725548D01*
X2062906Y2705548D02*
Y2725548D01*
X2075406D01*
X2062906Y2705548D02*
X2075406D01*
X2145406Y2705798D02*
Y2725798D01*
X2132906Y2705798D02*
Y2725798D01*
X2145406D01*
X2132906Y2705798D02*
X2145406D01*
X1496706Y2657548D02*
Y2677548D01*
X1484206Y2657548D02*
Y2677548D01*
X1496706D01*
X1484206Y2657548D02*
X1496706D01*
X1458606D02*
Y2677548D01*
X1446106Y2657548D02*
Y2677548D01*
X1458606D01*
X1446106Y2657548D02*
X1458606D01*
X1534806D02*
Y2677548D01*
X1522306Y2657548D02*
Y2677548D01*
X1534806D01*
X1522306Y2657548D02*
X1534806D01*
X2110406Y2705548D02*
Y2725548D01*
X2097906Y2705548D02*
Y2725548D01*
X2110406D01*
X2097906Y2705548D02*
X2110406D01*
X2075406Y2665548D02*
Y2685548D01*
X2062906Y2665548D02*
Y2685548D01*
X2075406D01*
X2062906Y2665548D02*
X2075406D01*
X2145406Y2665798D02*
Y2685798D01*
X2132906Y2665798D02*
Y2685798D01*
X2145406D01*
X2132906Y2665798D02*
X2145406D01*
X1496706Y2619448D02*
Y2639448D01*
X1484206Y2619448D02*
Y2639448D01*
X1496706D01*
X1484206Y2619448D02*
X1496706D01*
X1458606D02*
Y2639448D01*
X1446106Y2619448D02*
Y2639448D01*
X1458606D01*
X1446106Y2619448D02*
X1458606D01*
X1534806D02*
Y2639448D01*
X1522306Y2619448D02*
Y2639448D01*
X1534806D01*
X1522306Y2619448D02*
X1534806D01*
X2110406Y2665548D02*
Y2685548D01*
X2097906Y2665548D02*
Y2685548D01*
X2110406D01*
X2097906Y2665548D02*
X2110406D01*
M02*
