G04*
G04 #@! TF.GenerationSoftware,Altium Limited,Altium Designer,25.8.1 (18)*
G04*
G04 Layer_Color=1930808*
%FSLAX44Y44*%
%MOMM*%
G71*
G04*
G04 #@! TF.SameCoordinates,76810562-5797-4D89-AFA6-D846846B59B0*
G04*
G04*
G04 #@! TF.FilePolarity,Positive*
G04*
G01*
G75*
%ADD76R,0.6350X0.6350*%
D76*
X3764156Y3552848D02*
D03*
X3789557D02*
D03*
Y3578248D02*
D03*
X3764156D02*
D03*
X3738757Y3552848D02*
D03*
Y3578248D02*
D03*
X3713357Y3552848D02*
D03*
Y3578248D02*
D03*
X3814957D02*
D03*
Y3552848D02*
D03*
X3024156D02*
D03*
X3049556D02*
D03*
Y3578248D02*
D03*
X3024156D02*
D03*
X2998756Y3552848D02*
D03*
Y3578248D02*
D03*
X2973356Y3552848D02*
D03*
Y3578248D02*
D03*
X3074956D02*
D03*
Y3552848D02*
D03*
X2284156D02*
D03*
X2309556D02*
D03*
Y3578248D02*
D03*
X2284156D02*
D03*
X2258756Y3552848D02*
D03*
Y3578248D02*
D03*
X2233356Y3552848D02*
D03*
Y3578248D02*
D03*
X2334956D02*
D03*
Y3552848D02*
D03*
X1544156D02*
D03*
X1569556D02*
D03*
Y3578248D02*
D03*
X1544156D02*
D03*
X1518756Y3552848D02*
D03*
Y3578248D02*
D03*
X1493356Y3552848D02*
D03*
Y3578248D02*
D03*
X1594956D02*
D03*
Y3552848D02*
D03*
M02*
