G04*
G04 #@! TF.GenerationSoftware,Altium Limited,Altium Designer,25.8.1 (18)*
G04*
G04 Layer_Color=255*
%FSLAX44Y44*%
%MOMM*%
G71*
G04*
G04 #@! TF.SameCoordinates,76810562-5797-4D89-AFA6-D846846B59B0*
G04*
G04*
G04 #@! TF.FilePolarity,Positive*
G04*
G01*
G75*
%ADD69C,2.5000*%
%ADD70C,6.3000*%
%ADD71R,0.9000X1.3000*%
%ADD72C,2.4000*%
%ADD73C,7.4000*%
D69*
X3814156Y3215548D02*
D03*
X3074156D02*
D03*
X2334156D02*
D03*
X1594156D02*
D03*
X4334156Y2885548D02*
D03*
X3694156D02*
D03*
Y3385548D02*
D03*
X4334156D02*
D03*
X3594156Y2885548D02*
D03*
X2954156D02*
D03*
Y3385548D02*
D03*
X3594156D02*
D03*
X2854156Y2885548D02*
D03*
X2214156D02*
D03*
Y3385548D02*
D03*
X2854156D02*
D03*
X2114156Y2885548D02*
D03*
X1474156D02*
D03*
Y3385548D02*
D03*
X2114156D02*
D03*
X4294156Y3175548D02*
D03*
X3814156Y3095548D02*
D03*
X4294156Y3115548D02*
D03*
Y3145548D02*
D03*
X3814156Y3165548D02*
D03*
X4064156Y3355548D02*
D03*
X3963356Y3357798D02*
D03*
X4104156Y3355548D02*
D03*
X4024156Y2905548D02*
D03*
X4074156D02*
D03*
X3984156D02*
D03*
X3814156Y2985548D02*
D03*
X4244156Y3025548D02*
D03*
Y2985548D02*
D03*
X3964156Y3085548D02*
D03*
X4074156Y2985548D02*
D03*
X3925256Y3357798D02*
D03*
X4194156Y3105548D02*
D03*
X4214156Y3155548D02*
D03*
X4264791Y3223558D02*
D03*
X4224156Y3225548D02*
D03*
X4299144Y3225210D02*
D03*
X4294156Y3085548D02*
D03*
X3994156Y3375548D02*
D03*
X4114156Y2905548D02*
D03*
X3554156Y3175548D02*
D03*
X3074156Y3095548D02*
D03*
X3554156Y3115548D02*
D03*
Y3145548D02*
D03*
X3074156Y3165548D02*
D03*
X3324156Y3355548D02*
D03*
X3223356Y3357798D02*
D03*
X3364156Y3355548D02*
D03*
X3284156Y2905548D02*
D03*
X3334156D02*
D03*
X3244156D02*
D03*
X3074156Y2985548D02*
D03*
X3504156Y3025548D02*
D03*
Y2985548D02*
D03*
X3224156Y3085548D02*
D03*
X3334156Y2985548D02*
D03*
X3185256Y3357798D02*
D03*
X3454156Y3105548D02*
D03*
X3474156Y3155548D02*
D03*
X3524791Y3223558D02*
D03*
X3484156Y3225548D02*
D03*
X3559144Y3225210D02*
D03*
X3554156Y3085548D02*
D03*
X3254156Y3375548D02*
D03*
X3374156Y2905548D02*
D03*
X2814156Y3175548D02*
D03*
X2334156Y3095548D02*
D03*
X2814156Y3115548D02*
D03*
Y3145548D02*
D03*
X2334156Y3165548D02*
D03*
X2584156Y3355548D02*
D03*
X2483356Y3357798D02*
D03*
X2624156Y3355548D02*
D03*
X2544156Y2905548D02*
D03*
X2594156D02*
D03*
X2504156D02*
D03*
X2334156Y2985548D02*
D03*
X2764156Y3025548D02*
D03*
Y2985548D02*
D03*
X2484156Y3085548D02*
D03*
X2594156Y2985548D02*
D03*
X2445256Y3357798D02*
D03*
X2714156Y3105548D02*
D03*
X2734156Y3155548D02*
D03*
X2784791Y3223558D02*
D03*
X2744156Y3225548D02*
D03*
X2819144Y3225210D02*
D03*
X2814156Y3085548D02*
D03*
X2514156Y3375548D02*
D03*
X2634156Y2905548D02*
D03*
X3963356Y3306998D02*
D03*
X3223356D02*
D03*
X2483356D02*
D03*
X2074156Y3175548D02*
D03*
X1594156Y3095548D02*
D03*
X2074156Y3115548D02*
D03*
Y3145548D02*
D03*
X1594156Y3165548D02*
D03*
X1844156Y3355548D02*
D03*
X1743356Y3357798D02*
D03*
X1884156Y3355548D02*
D03*
X1804156Y2905548D02*
D03*
X1854156D02*
D03*
X1764156D02*
D03*
X1594156Y2985548D02*
D03*
X2024156Y3025548D02*
D03*
Y2985548D02*
D03*
X1744156Y3085548D02*
D03*
X1854156Y2985548D02*
D03*
X1705256Y3357798D02*
D03*
X1974156Y3105548D02*
D03*
X1994156Y3155548D02*
D03*
X2044791Y3223558D02*
D03*
X2004156Y3225548D02*
D03*
X2079144Y3225210D02*
D03*
X2074156Y3085548D02*
D03*
X1774156Y3375548D02*
D03*
X1894156Y2905548D02*
D03*
X1743356Y3306998D02*
D03*
D70*
X4429156Y2535548D02*
D03*
X2534330D02*
D03*
X649156D02*
D03*
Y3735548D02*
D03*
X2539156D02*
D03*
X4429156D02*
D03*
D71*
X4249901Y3526357D02*
D03*
X4221300D02*
D03*
Y3610855D02*
D03*
X4249901Y3610857D02*
D03*
X3509901Y3526357D02*
D03*
X3481300D02*
D03*
Y3610855D02*
D03*
X3509901Y3610857D02*
D03*
X2769901Y3526357D02*
D03*
X2741300D02*
D03*
Y3610855D02*
D03*
X2769901Y3610857D02*
D03*
X2029901Y3526357D02*
D03*
X2001300D02*
D03*
Y3610855D02*
D03*
X2029901Y3610857D02*
D03*
D72*
X824156Y3560548D02*
D03*
Y3610548D02*
D03*
X754156Y3560548D02*
D03*
Y3610548D02*
D03*
X789156Y3560548D02*
D03*
Y3610548D02*
D03*
X789156Y2660548D02*
D03*
Y2710548D02*
D03*
X824156Y2660548D02*
D03*
Y2710548D02*
D03*
X754156Y2660548D02*
D03*
Y2710548D02*
D03*
D73*
X3771841Y3377864D02*
D03*
X4256472D02*
D03*
X3031841D02*
D03*
X3516472D02*
D03*
X2291840D02*
D03*
X2776472D02*
D03*
X1551840D02*
D03*
X2036472D02*
D03*
X3771841Y2893232D02*
D03*
X4256472D02*
D03*
X3031841D02*
D03*
X3516472D02*
D03*
X2291840D02*
D03*
X2776472D02*
D03*
X1551840D02*
D03*
X2036472D02*
D03*
M02*
