G04*
G04 #@! TF.GenerationSoftware,Altium Limited,Altium Designer,25.8.1 (18)*
G04*
G04 Layer_Color=255*
%FSLAX44Y44*%
%MOMM*%
G71*
G04*
G04 #@! TF.SameCoordinates,76810562-5797-4D89-AFA6-D846846B59B0*
G04*
G04*
G04 #@! TF.FilePolarity,Positive*
G04*
G01*
G75*
%ADD20R,0.5000X0.7500*%
%ADD21R,0.7366X2.7940*%
%ADD22R,0.7500X0.5000*%
%ADD23R,1.3970X2.1590*%
%ADD24R,1.0000X1.5000*%
%ADD25R,0.9500X0.8500*%
%ADD26R,1.5000X1.0000*%
%ADD27R,0.9000X0.8000*%
%ADD28R,1.0000X5.5000*%
%ADD29R,1.6000X3.0000*%
%ADD30R,1.0200X3.1200*%
%ADD31R,2.1000X3.3000*%
%ADD32R,2.1000X0.9000*%
%ADD33R,0.7000X0.8500*%
%ADD34R,1.3000X0.8000*%
%ADD35R,2.1590X1.3970*%
%ADD62R,1.6500X0.6500*%
%ADD69C,2.5000*%
%ADD70C,6.3000*%
%ADD71R,0.9000X1.3000*%
%ADD72C,2.4000*%
%ADD73C,7.4000*%
D20*
X3756407Y3215548D02*
D03*
X3741906D02*
D03*
X3756407Y3165548D02*
D03*
X3741906D02*
D03*
X3016407Y3215548D02*
D03*
X3001906D02*
D03*
X3016407Y3166152D02*
D03*
X3001906D02*
D03*
X2281407Y3215548D02*
D03*
X2266906D02*
D03*
X2281407Y3165548D02*
D03*
X2266906D02*
D03*
X1528907Y3215548D02*
D03*
X1514406D02*
D03*
X1528907Y3165548D02*
D03*
X1514406D02*
D03*
X4266780Y3583766D02*
D03*
X4281281D02*
D03*
X3526780D02*
D03*
X3541281D02*
D03*
X2786780D02*
D03*
X2801281D02*
D03*
X2046781D02*
D03*
X2061281D02*
D03*
X4182707Y3547698D02*
D03*
X4197206D02*
D03*
X4182707Y3560398D02*
D03*
X4197206D02*
D03*
X4182707Y3592148D02*
D03*
X4197206D02*
D03*
X4182707Y3579448D02*
D03*
X4197206D02*
D03*
X4196953Y3525600D02*
D03*
X4182452D02*
D03*
X3442707Y3547698D02*
D03*
X3457206D02*
D03*
X3442707Y3560398D02*
D03*
X3457206D02*
D03*
X3442707Y3592148D02*
D03*
X3457206D02*
D03*
X3442707Y3579448D02*
D03*
X3457206D02*
D03*
X3456953Y3525600D02*
D03*
X3442452D02*
D03*
X2702707Y3547698D02*
D03*
X2717206D02*
D03*
X2702707Y3560398D02*
D03*
X2717206D02*
D03*
X2702707Y3592148D02*
D03*
X2717206D02*
D03*
X2702707Y3579448D02*
D03*
X2717206D02*
D03*
X2716953Y3525600D02*
D03*
X2702452D02*
D03*
X1976953D02*
D03*
X1962453D02*
D03*
X1962706Y3592148D02*
D03*
X1977207D02*
D03*
X1962706Y3579448D02*
D03*
X1977207D02*
D03*
X1962706Y3560398D02*
D03*
X1977207D02*
D03*
X1962706Y3547698D02*
D03*
X1977207D02*
D03*
D21*
X4139156Y3625168D02*
D03*
Y3584528D02*
D03*
X4126457Y3625168D02*
D03*
Y3584528D02*
D03*
X4113756Y3625168D02*
D03*
Y3584528D02*
D03*
X4101057Y3625168D02*
D03*
Y3584528D02*
D03*
X4088357Y3625168D02*
D03*
Y3584528D02*
D03*
X3399156Y3625168D02*
D03*
Y3584528D02*
D03*
X3386457Y3625168D02*
D03*
Y3584528D02*
D03*
X3373756Y3625168D02*
D03*
Y3584528D02*
D03*
X3361057Y3625168D02*
D03*
Y3584528D02*
D03*
X3348357Y3625168D02*
D03*
Y3584528D02*
D03*
X2659156Y3625168D02*
D03*
Y3584528D02*
D03*
X2646457Y3625168D02*
D03*
Y3584528D02*
D03*
X2633756Y3625168D02*
D03*
Y3584528D02*
D03*
X2621057Y3625168D02*
D03*
Y3584528D02*
D03*
X2608357Y3625168D02*
D03*
Y3584528D02*
D03*
X1919156Y3625168D02*
D03*
Y3584528D02*
D03*
X1906456Y3625168D02*
D03*
Y3584528D02*
D03*
X1893757Y3625168D02*
D03*
Y3584528D02*
D03*
X1881057Y3625168D02*
D03*
Y3584528D02*
D03*
X1868356Y3625168D02*
D03*
Y3584528D02*
D03*
D22*
X4144236Y3534098D02*
D03*
Y3548598D02*
D03*
X4131537Y3534098D02*
D03*
Y3548598D02*
D03*
X4103596Y3534098D02*
D03*
Y3548598D02*
D03*
X4116296Y3534098D02*
D03*
Y3548598D02*
D03*
X3404236Y3534098D02*
D03*
Y3548598D02*
D03*
X3391537Y3534098D02*
D03*
Y3548598D02*
D03*
X3363596Y3534098D02*
D03*
Y3548598D02*
D03*
X3376296Y3534098D02*
D03*
Y3548598D02*
D03*
X2664236Y3534098D02*
D03*
Y3548598D02*
D03*
X2651537Y3534098D02*
D03*
Y3548598D02*
D03*
X2623596Y3534098D02*
D03*
Y3548598D02*
D03*
X2636296Y3534098D02*
D03*
Y3548598D02*
D03*
X1896297Y3534098D02*
D03*
Y3548598D02*
D03*
X1883596Y3534098D02*
D03*
Y3548598D02*
D03*
X1924236Y3534098D02*
D03*
Y3548598D02*
D03*
X1911537Y3534098D02*
D03*
Y3548598D02*
D03*
D23*
X2079176Y3616786D02*
D03*
Y3530426D02*
D03*
X2124388Y3616786D02*
D03*
Y3530426D02*
D03*
X2819177Y3616786D02*
D03*
Y3530426D02*
D03*
X2864388Y3616786D02*
D03*
Y3530426D02*
D03*
X3559177Y3616786D02*
D03*
Y3530426D02*
D03*
X3604388Y3616786D02*
D03*
Y3530426D02*
D03*
X4299177Y3616786D02*
D03*
Y3530426D02*
D03*
X4344388Y3616786D02*
D03*
Y3530426D02*
D03*
D24*
X3894156Y2750048D02*
D03*
X3878156D02*
D03*
X3910156D02*
D03*
X3894156Y2701048D02*
D03*
X3910156D02*
D03*
X3878156D02*
D03*
X3954156Y2750048D02*
D03*
X3938156D02*
D03*
X3970156D02*
D03*
X3954156Y2701048D02*
D03*
X3970156D02*
D03*
X3938156D02*
D03*
X4015806Y2750548D02*
D03*
X3999807D02*
D03*
X4031806D02*
D03*
X4015806Y2701548D02*
D03*
X4031806D02*
D03*
X3999807D02*
D03*
X4074156Y2750048D02*
D03*
X4058156D02*
D03*
X4090156D02*
D03*
X4074156Y2701048D02*
D03*
X4090156D02*
D03*
X4058156D02*
D03*
X4134156Y2750048D02*
D03*
X4118156D02*
D03*
X4150156D02*
D03*
X4134156Y2701048D02*
D03*
X4150156D02*
D03*
X4118156D02*
D03*
X3154156Y2750048D02*
D03*
X3138156D02*
D03*
X3170156D02*
D03*
X3154156Y2701048D02*
D03*
X3170156D02*
D03*
X3138156D02*
D03*
X3214156Y2750048D02*
D03*
X3198156D02*
D03*
X3230156D02*
D03*
X3214156Y2701048D02*
D03*
X3230156D02*
D03*
X3198156D02*
D03*
X3275806Y2750548D02*
D03*
X3259807D02*
D03*
X3291806D02*
D03*
X3275806Y2701548D02*
D03*
X3291806D02*
D03*
X3259807D02*
D03*
X3334156Y2750048D02*
D03*
X3318156D02*
D03*
X3350156D02*
D03*
X3334156Y2701048D02*
D03*
X3350156D02*
D03*
X3318156D02*
D03*
X3394156Y2750048D02*
D03*
X3378156D02*
D03*
X3410156D02*
D03*
X3394156Y2701048D02*
D03*
X3410156D02*
D03*
X3378156D02*
D03*
X2414156Y2750048D02*
D03*
X2398156D02*
D03*
X2430156D02*
D03*
X2414156Y2701048D02*
D03*
X2430156D02*
D03*
X2398156D02*
D03*
X2474156Y2750048D02*
D03*
X2458156D02*
D03*
X2490156D02*
D03*
X2474156Y2701048D02*
D03*
X2490156D02*
D03*
X2458156D02*
D03*
X2535806Y2750548D02*
D03*
X2519806D02*
D03*
X2551806D02*
D03*
X2535806Y2701548D02*
D03*
X2551806D02*
D03*
X2519806D02*
D03*
X2594156Y2750048D02*
D03*
X2578156D02*
D03*
X2610156D02*
D03*
X2594156Y2701048D02*
D03*
X2610156D02*
D03*
X2578156D02*
D03*
X2654156Y2750048D02*
D03*
X2638156D02*
D03*
X2670156D02*
D03*
X2654156Y2701048D02*
D03*
X2670156D02*
D03*
X2638156D02*
D03*
X1674156Y2750048D02*
D03*
X1658156D02*
D03*
X1690156D02*
D03*
X1674156Y2701048D02*
D03*
X1690156D02*
D03*
X1658156D02*
D03*
X1734156Y2750048D02*
D03*
X1718156D02*
D03*
X1750156D02*
D03*
X1734156Y2701048D02*
D03*
X1750156D02*
D03*
X1718156D02*
D03*
X1795806Y2750548D02*
D03*
X1779806D02*
D03*
X1811806D02*
D03*
X1795806Y2701548D02*
D03*
X1811806D02*
D03*
X1779806D02*
D03*
X1854156Y2750048D02*
D03*
X1838156D02*
D03*
X1870156D02*
D03*
X1854156Y2701048D02*
D03*
X1870156D02*
D03*
X1838156D02*
D03*
X1914156Y2750048D02*
D03*
X1898156D02*
D03*
X1930156D02*
D03*
X1914156Y2701048D02*
D03*
X1930156D02*
D03*
X1898156D02*
D03*
X3804156Y2665048D02*
D03*
X3788156D02*
D03*
X3820156D02*
D03*
X3804156Y2616048D02*
D03*
X3820156D02*
D03*
X3788156D02*
D03*
X3864156Y2665048D02*
D03*
X3848156D02*
D03*
X3880156D02*
D03*
X3864156Y2616048D02*
D03*
X3880156D02*
D03*
X3848156D02*
D03*
X3924156Y2665048D02*
D03*
X3908156D02*
D03*
X3940156D02*
D03*
X3924156Y2616048D02*
D03*
X3940156D02*
D03*
X3908156D02*
D03*
X3984156Y2665048D02*
D03*
X3968156D02*
D03*
X4000156D02*
D03*
X3984156Y2616048D02*
D03*
X4000156D02*
D03*
X3968156D02*
D03*
X4044156Y2665048D02*
D03*
X4028156D02*
D03*
X4060156D02*
D03*
X4044156Y2616048D02*
D03*
X4060156D02*
D03*
X4028156D02*
D03*
X4104156Y2665048D02*
D03*
X4088156D02*
D03*
X4120156D02*
D03*
X4104156Y2616048D02*
D03*
X4120156D02*
D03*
X4088156D02*
D03*
X4164156Y2665048D02*
D03*
X4148156D02*
D03*
X4180156D02*
D03*
X4164156Y2616048D02*
D03*
X4180156D02*
D03*
X4148156D02*
D03*
X4224156Y2665048D02*
D03*
X4208156D02*
D03*
X4240156D02*
D03*
X4224156Y2616048D02*
D03*
X4240156D02*
D03*
X4208156D02*
D03*
X3064156Y2665048D02*
D03*
X3048156D02*
D03*
X3080156D02*
D03*
X3064156Y2616048D02*
D03*
X3080156D02*
D03*
X3048156D02*
D03*
X3124156Y2665048D02*
D03*
X3108156D02*
D03*
X3140156D02*
D03*
X3124156Y2616048D02*
D03*
X3140156D02*
D03*
X3108156D02*
D03*
X3184156Y2665048D02*
D03*
X3168156D02*
D03*
X3200156D02*
D03*
X3184156Y2616048D02*
D03*
X3200156D02*
D03*
X3168156D02*
D03*
X3244156Y2665048D02*
D03*
X3228156D02*
D03*
X3260156D02*
D03*
X3244156Y2616048D02*
D03*
X3260156D02*
D03*
X3228156D02*
D03*
X3304156Y2665048D02*
D03*
X3288156D02*
D03*
X3320156D02*
D03*
X3304156Y2616048D02*
D03*
X3320156D02*
D03*
X3288156D02*
D03*
X3364156Y2665048D02*
D03*
X3348156D02*
D03*
X3380156D02*
D03*
X3364156Y2616048D02*
D03*
X3380156D02*
D03*
X3348156D02*
D03*
X3424156Y2665048D02*
D03*
X3408156D02*
D03*
X3440156D02*
D03*
X3424156Y2616048D02*
D03*
X3440156D02*
D03*
X3408156D02*
D03*
X3484156Y2665048D02*
D03*
X3468156D02*
D03*
X3500156D02*
D03*
X3484156Y2616048D02*
D03*
X3500156D02*
D03*
X3468156D02*
D03*
X2324156Y2665048D02*
D03*
X2308156D02*
D03*
X2340156D02*
D03*
X2324156Y2616048D02*
D03*
X2340156D02*
D03*
X2308156D02*
D03*
X2384156Y2665048D02*
D03*
X2368156D02*
D03*
X2400156D02*
D03*
X2384156Y2616048D02*
D03*
X2400156D02*
D03*
X2368156D02*
D03*
X2444156Y2665048D02*
D03*
X2428156D02*
D03*
X2460156D02*
D03*
X2444156Y2616048D02*
D03*
X2460156D02*
D03*
X2428156D02*
D03*
X2504156Y2665048D02*
D03*
X2488156D02*
D03*
X2520156D02*
D03*
X2504156Y2616048D02*
D03*
X2520156D02*
D03*
X2488156D02*
D03*
X2564156Y2665048D02*
D03*
X2548156D02*
D03*
X2580156D02*
D03*
X2564156Y2616048D02*
D03*
X2580156D02*
D03*
X2548156D02*
D03*
X2624156Y2665048D02*
D03*
X2608156D02*
D03*
X2640156D02*
D03*
X2624156Y2616048D02*
D03*
X2640156D02*
D03*
X2608156D02*
D03*
X2684156Y2665048D02*
D03*
X2668156D02*
D03*
X2700156D02*
D03*
X2684156Y2616048D02*
D03*
X2700156D02*
D03*
X2668156D02*
D03*
X2744156Y2665048D02*
D03*
X2728156D02*
D03*
X2760156D02*
D03*
X2744156Y2616048D02*
D03*
X2760156D02*
D03*
X2728156D02*
D03*
X1584156Y2665048D02*
D03*
X1568156D02*
D03*
X1600156D02*
D03*
X1584156Y2616048D02*
D03*
X1600156D02*
D03*
X1568156D02*
D03*
X1644156Y2665048D02*
D03*
X1628156D02*
D03*
X1660156D02*
D03*
X1644156Y2616048D02*
D03*
X1660156D02*
D03*
X1628156D02*
D03*
X1704156Y2665048D02*
D03*
X1688156D02*
D03*
X1720156D02*
D03*
X1704156Y2616048D02*
D03*
X1720156D02*
D03*
X1688156D02*
D03*
X1764156Y2665048D02*
D03*
X1748156D02*
D03*
X1780156D02*
D03*
X1764156Y2616048D02*
D03*
X1780156D02*
D03*
X1748156D02*
D03*
X1824156Y2665048D02*
D03*
X1808156D02*
D03*
X1840156D02*
D03*
X1824156Y2616048D02*
D03*
X1840156D02*
D03*
X1808156D02*
D03*
X1884156Y2665048D02*
D03*
X1868156D02*
D03*
X1900156D02*
D03*
X1884156Y2616048D02*
D03*
X1900156D02*
D03*
X1868156D02*
D03*
X1944156Y2665048D02*
D03*
X1928156D02*
D03*
X1960156D02*
D03*
X1944156Y2616048D02*
D03*
X1960156D02*
D03*
X1928156D02*
D03*
X2004156Y2665048D02*
D03*
X1988156D02*
D03*
X2020156D02*
D03*
X2004156Y2616048D02*
D03*
X2020156D02*
D03*
X1988156D02*
D03*
D25*
X4341106Y2681522D02*
D03*
Y2665522D02*
D03*
X4375143Y2682284D02*
D03*
Y2666284D02*
D03*
X4305546Y2681776D02*
D03*
Y2665776D02*
D03*
X3601106Y2681522D02*
D03*
Y2665522D02*
D03*
X3635143Y2682284D02*
D03*
Y2666284D02*
D03*
X3565546Y2681776D02*
D03*
Y2665776D02*
D03*
X2861106Y2681522D02*
D03*
Y2665522D02*
D03*
X2895143Y2682284D02*
D03*
Y2666284D02*
D03*
X2825546Y2681776D02*
D03*
Y2665776D02*
D03*
X2121106Y2681522D02*
D03*
Y2665522D02*
D03*
X2155142Y2682284D02*
D03*
Y2666284D02*
D03*
X2085546Y2681776D02*
D03*
Y2665776D02*
D03*
D26*
X4038656Y3520298D02*
D03*
Y3536298D02*
D03*
Y3504298D02*
D03*
X3989656Y3520298D02*
D03*
Y3504298D02*
D03*
Y3536298D02*
D03*
X3298656Y3520298D02*
D03*
Y3536298D02*
D03*
Y3504298D02*
D03*
X3249656Y3520298D02*
D03*
Y3504298D02*
D03*
Y3536298D02*
D03*
X2558656Y3520298D02*
D03*
Y3536298D02*
D03*
Y3504298D02*
D03*
X2509656Y3520298D02*
D03*
Y3504298D02*
D03*
Y3536298D02*
D03*
X1818656Y3520298D02*
D03*
Y3536298D02*
D03*
Y3504298D02*
D03*
X1769656Y3520298D02*
D03*
Y3504298D02*
D03*
Y3536298D02*
D03*
D27*
X3781577Y2741958D02*
D03*
Y2760258D02*
D03*
X3761577Y2751108D02*
D03*
X3041577Y2741958D02*
D03*
Y2760258D02*
D03*
X3021577Y2751108D02*
D03*
X2301576Y2741958D02*
D03*
Y2760258D02*
D03*
X2281576Y2751108D02*
D03*
X1561576Y2741958D02*
D03*
Y2760258D02*
D03*
X1541576Y2751108D02*
D03*
D28*
X4224156Y2743048D02*
D03*
X4204156D02*
D03*
X3484156D02*
D03*
X3464156D02*
D03*
X2744156D02*
D03*
X2724156D02*
D03*
X2004156D02*
D03*
X1984156D02*
D03*
D29*
X4248156Y2720548D02*
D03*
X4180156D02*
D03*
X3508156D02*
D03*
X3440156D02*
D03*
X2768156D02*
D03*
X2700156D02*
D03*
X2028156D02*
D03*
X1960156D02*
D03*
D30*
X3764156Y3538648D02*
D03*
X3789556D02*
D03*
X3764156Y3592448D02*
D03*
X3789556D02*
D03*
X3738756D02*
D03*
Y3538648D02*
D03*
X3713356Y3592448D02*
D03*
Y3538648D02*
D03*
X3814956D02*
D03*
Y3592448D02*
D03*
X3024156Y3538648D02*
D03*
X3049556D02*
D03*
X3024156Y3592448D02*
D03*
X3049556D02*
D03*
X2998756D02*
D03*
Y3538648D02*
D03*
X2973356Y3592448D02*
D03*
Y3538648D02*
D03*
X3074956D02*
D03*
Y3592448D02*
D03*
X2284156Y3538648D02*
D03*
X2309556D02*
D03*
X2284156Y3592448D02*
D03*
X2309556D02*
D03*
X2258756D02*
D03*
Y3538648D02*
D03*
X2233356Y3592448D02*
D03*
Y3538648D02*
D03*
X2334956D02*
D03*
Y3592448D02*
D03*
X1544156Y3538648D02*
D03*
X1569556D02*
D03*
X1544156Y3592448D02*
D03*
X1569556D02*
D03*
X1518756D02*
D03*
Y3538648D02*
D03*
X1493356Y3592448D02*
D03*
Y3538648D02*
D03*
X1594956D02*
D03*
Y3592448D02*
D03*
D31*
X3677156Y2728548D02*
D03*
X2937156D02*
D03*
X2197156D02*
D03*
X1457156D02*
D03*
D32*
X3734156Y2751548D02*
D03*
Y2728548D02*
D03*
Y2705548D02*
D03*
X2994156Y2751548D02*
D03*
Y2728548D02*
D03*
Y2705548D02*
D03*
X2254156Y2751548D02*
D03*
Y2728548D02*
D03*
Y2705548D02*
D03*
X1514156Y2751548D02*
D03*
Y2728548D02*
D03*
Y2705548D02*
D03*
D33*
X3947477Y3578016D02*
D03*
X3930976D02*
D03*
X3799996Y2742478D02*
D03*
X3816496D02*
D03*
X3207477Y3578016D02*
D03*
X3190976D02*
D03*
X3059996Y2742478D02*
D03*
X3076496D02*
D03*
X2467476Y3578016D02*
D03*
X2450976D02*
D03*
X2319996Y2742478D02*
D03*
X2336496D02*
D03*
X1727476Y3578016D02*
D03*
X1710976D02*
D03*
X1579996Y2742478D02*
D03*
X1596496D02*
D03*
D34*
X4289156Y2725298D02*
D03*
Y2705798D02*
D03*
X4359156Y2725548D02*
D03*
Y2706048D02*
D03*
X3710457Y2677298D02*
D03*
Y2657798D02*
D03*
X3672356Y2677298D02*
D03*
Y2657798D02*
D03*
X3748557Y2677298D02*
D03*
Y2657798D02*
D03*
X4324156Y2725298D02*
D03*
Y2705798D02*
D03*
X4289156Y2685298D02*
D03*
Y2665798D02*
D03*
X4359156Y2685548D02*
D03*
Y2666048D02*
D03*
X3710457Y2639198D02*
D03*
Y2619698D02*
D03*
X3672356Y2639198D02*
D03*
Y2619698D02*
D03*
X3748557Y2639198D02*
D03*
Y2619698D02*
D03*
X4324156Y2685298D02*
D03*
Y2665798D02*
D03*
X3549156Y2725298D02*
D03*
Y2705798D02*
D03*
X3619156Y2725548D02*
D03*
Y2706048D02*
D03*
X2970457Y2677298D02*
D03*
Y2657798D02*
D03*
X2932356Y2677298D02*
D03*
Y2657798D02*
D03*
X3008557Y2677298D02*
D03*
Y2657798D02*
D03*
X3584156Y2725298D02*
D03*
Y2705798D02*
D03*
X3549156Y2685298D02*
D03*
Y2665798D02*
D03*
X3619156Y2685548D02*
D03*
Y2666048D02*
D03*
X2970457Y2639198D02*
D03*
Y2619698D02*
D03*
X2932356Y2639198D02*
D03*
Y2619698D02*
D03*
X3008557Y2639198D02*
D03*
Y2619698D02*
D03*
X3584156Y2685298D02*
D03*
Y2665798D02*
D03*
X2809156Y2725298D02*
D03*
Y2705798D02*
D03*
X2879156Y2725548D02*
D03*
Y2706048D02*
D03*
X2230456Y2677298D02*
D03*
Y2657798D02*
D03*
X2192356Y2677298D02*
D03*
Y2657798D02*
D03*
X2268556Y2677298D02*
D03*
Y2657798D02*
D03*
X2844156Y2725298D02*
D03*
Y2705798D02*
D03*
X2809156Y2685298D02*
D03*
Y2665798D02*
D03*
X2879156Y2685548D02*
D03*
Y2666048D02*
D03*
X2230456Y2639198D02*
D03*
Y2619698D02*
D03*
X2192356Y2639198D02*
D03*
Y2619698D02*
D03*
X2268556Y2639198D02*
D03*
Y2619698D02*
D03*
X2844156Y2685298D02*
D03*
Y2665798D02*
D03*
X2069156Y2725298D02*
D03*
Y2705798D02*
D03*
X2139156Y2725548D02*
D03*
Y2706048D02*
D03*
X1490456Y2677298D02*
D03*
Y2657798D02*
D03*
X1452356Y2677298D02*
D03*
Y2657798D02*
D03*
X1528556Y2677298D02*
D03*
Y2657798D02*
D03*
X2104156Y2725298D02*
D03*
Y2705798D02*
D03*
X2069156Y2685298D02*
D03*
Y2665798D02*
D03*
X2139156Y2685548D02*
D03*
Y2666048D02*
D03*
X1490456Y2639198D02*
D03*
Y2619698D02*
D03*
X1452356Y2639198D02*
D03*
Y2619698D02*
D03*
X1528556Y2639198D02*
D03*
Y2619698D02*
D03*
X2104156Y2685298D02*
D03*
Y2665798D02*
D03*
D35*
X4057336Y3623154D02*
D03*
X3970976D02*
D03*
X4057336Y3577942D02*
D03*
X3970976D02*
D03*
X3317336Y3623154D02*
D03*
X3230976D02*
D03*
X3317336Y3577942D02*
D03*
X3230976D02*
D03*
X2577336Y3623154D02*
D03*
X2490976D02*
D03*
X2577336Y3577942D02*
D03*
X2490976D02*
D03*
X1837336Y3623154D02*
D03*
X1750976D02*
D03*
X1837336Y3577942D02*
D03*
X1750976D02*
D03*
D62*
X4221300Y3533606D02*
D03*
Y3543606D02*
D03*
Y3553606D02*
D03*
Y3563606D02*
D03*
Y3573606D02*
D03*
Y3583606D02*
D03*
Y3593606D02*
D03*
Y3603606D02*
D03*
X4249901Y3533606D02*
D03*
Y3543606D02*
D03*
Y3553606D02*
D03*
Y3563606D02*
D03*
Y3573606D02*
D03*
Y3583606D02*
D03*
Y3593606D02*
D03*
Y3603606D02*
D03*
X3481300Y3533606D02*
D03*
Y3543606D02*
D03*
Y3553606D02*
D03*
Y3563606D02*
D03*
Y3573606D02*
D03*
Y3583606D02*
D03*
Y3593606D02*
D03*
Y3603606D02*
D03*
X3509901Y3533606D02*
D03*
Y3543606D02*
D03*
Y3553606D02*
D03*
Y3563606D02*
D03*
Y3573606D02*
D03*
Y3583606D02*
D03*
Y3593606D02*
D03*
Y3603606D02*
D03*
X2741300Y3533606D02*
D03*
Y3543606D02*
D03*
Y3553606D02*
D03*
Y3563606D02*
D03*
Y3573606D02*
D03*
Y3583606D02*
D03*
Y3593606D02*
D03*
Y3603606D02*
D03*
X2769901Y3533606D02*
D03*
Y3543606D02*
D03*
Y3553606D02*
D03*
Y3563606D02*
D03*
Y3573606D02*
D03*
Y3583606D02*
D03*
Y3593606D02*
D03*
Y3603606D02*
D03*
X2001300Y3533606D02*
D03*
Y3543606D02*
D03*
Y3553606D02*
D03*
Y3563606D02*
D03*
Y3573606D02*
D03*
Y3583606D02*
D03*
Y3593606D02*
D03*
Y3603606D02*
D03*
X2029901Y3533606D02*
D03*
Y3543606D02*
D03*
Y3553606D02*
D03*
Y3563606D02*
D03*
Y3573606D02*
D03*
Y3583606D02*
D03*
Y3593606D02*
D03*
Y3603606D02*
D03*
D69*
X3814156Y3215548D02*
D03*
X3074156D02*
D03*
X2334156D02*
D03*
X1594156D02*
D03*
X4334156Y2885548D02*
D03*
X3694156D02*
D03*
Y3385548D02*
D03*
X4334156D02*
D03*
X3594156Y2885548D02*
D03*
X2954156D02*
D03*
Y3385548D02*
D03*
X3594156D02*
D03*
X2854156Y2885548D02*
D03*
X2214156D02*
D03*
Y3385548D02*
D03*
X2854156D02*
D03*
X2114156Y2885548D02*
D03*
X1474156D02*
D03*
Y3385548D02*
D03*
X2114156D02*
D03*
X4294156Y3175548D02*
D03*
X3814156Y3095548D02*
D03*
X4294156Y3115548D02*
D03*
Y3145548D02*
D03*
X3814156Y3165548D02*
D03*
X4064156Y3355548D02*
D03*
X3963356Y3357798D02*
D03*
X4104156Y3355548D02*
D03*
X4024156Y2905548D02*
D03*
X4074156D02*
D03*
X3984156D02*
D03*
X3814156Y2985548D02*
D03*
X4244156Y3025548D02*
D03*
Y2985548D02*
D03*
X3964156Y3085548D02*
D03*
X4074156Y2985548D02*
D03*
X3925256Y3357798D02*
D03*
X4194156Y3105548D02*
D03*
X4214156Y3155548D02*
D03*
X4264791Y3223558D02*
D03*
X4224156Y3225548D02*
D03*
X4299144Y3225210D02*
D03*
X4294156Y3085548D02*
D03*
X3994156Y3375548D02*
D03*
X4114156Y2905548D02*
D03*
X3554156Y3175548D02*
D03*
X3074156Y3095548D02*
D03*
X3554156Y3115548D02*
D03*
Y3145548D02*
D03*
X3074156Y3165548D02*
D03*
X3324156Y3355548D02*
D03*
X3223356Y3357798D02*
D03*
X3364156Y3355548D02*
D03*
X3284156Y2905548D02*
D03*
X3334156D02*
D03*
X3244156D02*
D03*
X3074156Y2985548D02*
D03*
X3504156Y3025548D02*
D03*
Y2985548D02*
D03*
X3224156Y3085548D02*
D03*
X3334156Y2985548D02*
D03*
X3185256Y3357798D02*
D03*
X3454156Y3105548D02*
D03*
X3474156Y3155548D02*
D03*
X3524791Y3223558D02*
D03*
X3484156Y3225548D02*
D03*
X3559144Y3225210D02*
D03*
X3554156Y3085548D02*
D03*
X3254156Y3375548D02*
D03*
X3374156Y2905548D02*
D03*
X2814156Y3175548D02*
D03*
X2334156Y3095548D02*
D03*
X2814156Y3115548D02*
D03*
Y3145548D02*
D03*
X2334156Y3165548D02*
D03*
X2584156Y3355548D02*
D03*
X2483356Y3357798D02*
D03*
X2624156Y3355548D02*
D03*
X2544156Y2905548D02*
D03*
X2594156D02*
D03*
X2504156D02*
D03*
X2334156Y2985548D02*
D03*
X2764156Y3025548D02*
D03*
Y2985548D02*
D03*
X2484156Y3085548D02*
D03*
X2594156Y2985548D02*
D03*
X2445256Y3357798D02*
D03*
X2714156Y3105548D02*
D03*
X2734156Y3155548D02*
D03*
X2784791Y3223558D02*
D03*
X2744156Y3225548D02*
D03*
X2819144Y3225210D02*
D03*
X2814156Y3085548D02*
D03*
X2514156Y3375548D02*
D03*
X2634156Y2905548D02*
D03*
X3963356Y3306998D02*
D03*
X3223356D02*
D03*
X2483356D02*
D03*
X2074156Y3175548D02*
D03*
X1594156Y3095548D02*
D03*
X2074156Y3115548D02*
D03*
Y3145548D02*
D03*
X1594156Y3165548D02*
D03*
X1844156Y3355548D02*
D03*
X1743356Y3357798D02*
D03*
X1884156Y3355548D02*
D03*
X1804156Y2905548D02*
D03*
X1854156D02*
D03*
X1764156D02*
D03*
X1594156Y2985548D02*
D03*
X2024156Y3025548D02*
D03*
Y2985548D02*
D03*
X1744156Y3085548D02*
D03*
X1854156Y2985548D02*
D03*
X1705256Y3357798D02*
D03*
X1974156Y3105548D02*
D03*
X1994156Y3155548D02*
D03*
X2044791Y3223558D02*
D03*
X2004156Y3225548D02*
D03*
X2079144Y3225210D02*
D03*
X2074156Y3085548D02*
D03*
X1774156Y3375548D02*
D03*
X1894156Y2905548D02*
D03*
X1743356Y3306998D02*
D03*
D70*
X4429156Y2535548D02*
D03*
X2534330D02*
D03*
X649156D02*
D03*
Y3735548D02*
D03*
X2539156D02*
D03*
X4429156D02*
D03*
D71*
X4249901Y3526357D02*
D03*
X4221300D02*
D03*
Y3610855D02*
D03*
X4249901Y3610857D02*
D03*
X3509901Y3526357D02*
D03*
X3481300D02*
D03*
Y3610855D02*
D03*
X3509901Y3610857D02*
D03*
X2769901Y3526357D02*
D03*
X2741300D02*
D03*
Y3610855D02*
D03*
X2769901Y3610857D02*
D03*
X2029901Y3526357D02*
D03*
X2001300D02*
D03*
Y3610855D02*
D03*
X2029901Y3610857D02*
D03*
D72*
X824156Y3560548D02*
D03*
Y3610548D02*
D03*
X754156Y3560548D02*
D03*
Y3610548D02*
D03*
X789156Y3560548D02*
D03*
Y3610548D02*
D03*
X789156Y2660548D02*
D03*
Y2710548D02*
D03*
X824156Y2660548D02*
D03*
Y2710548D02*
D03*
X754156Y2660548D02*
D03*
Y2710548D02*
D03*
D73*
X3771841Y3377864D02*
D03*
X4256472D02*
D03*
X3031841D02*
D03*
X3516472D02*
D03*
X2291840D02*
D03*
X2776472D02*
D03*
X1551840D02*
D03*
X2036472D02*
D03*
X3771841Y2893232D02*
D03*
X4256472D02*
D03*
X3031841D02*
D03*
X3516472D02*
D03*
X2291840D02*
D03*
X2776472D02*
D03*
X1551840D02*
D03*
X2036472D02*
D03*
M02*
