G04*
G04 #@! TF.GenerationSoftware,Altium Limited,Altium Designer,25.8.1 (18)*
G04*
G04 Layer_Color=128*
%FSLAX44Y44*%
%MOMM*%
G71*
G04*
G04 #@! TF.SameCoordinates,76810562-5797-4D89-AFA6-D846846B59B0*
G04*
G04*
G04 #@! TF.FilePolarity,Positive*
G04*
G01*
G75*
%ADD16C,0.1270*%
D16*
X3809656Y3215548D02*
X3818656D01*
X3814156Y3211048D02*
Y3220048D01*
X3069656Y3215548D02*
X3078656D01*
X3074156Y3211048D02*
Y3220048D01*
X2329656Y3215548D02*
X2338656D01*
X2334156Y3211048D02*
Y3220048D01*
X1589656Y3215548D02*
X1598656D01*
X1594156Y3211048D02*
Y3220048D01*
X4426157Y2510798D02*
X4432156D01*
X4429156Y2507798D02*
Y2513798D01*
X4449026Y2526078D02*
X4455027D01*
X4452026Y2523078D02*
Y2529078D01*
X4443657Y2518048D02*
X4449656D01*
X4446656Y2515048D02*
Y2521048D01*
X4435627Y2512682D02*
X4441628D01*
X4438628Y2509682D02*
Y2515682D01*
X4401407Y2535548D02*
X4407407D01*
X4404406Y2532548D02*
Y2538548D01*
X4416686Y2512678D02*
X4422686D01*
X4419687Y2509678D02*
Y2515678D01*
X4408657Y2518048D02*
X4414656D01*
X4411656Y2515048D02*
Y2521048D01*
X4403290Y2526077D02*
X4409290D01*
X4406291Y2523077D02*
Y2529077D01*
X4426157Y2560298D02*
X4432156D01*
X4429156Y2557298D02*
Y2563298D01*
X4403286Y2545018D02*
X4409286D01*
X4406287Y2542018D02*
Y2548018D01*
X4408657Y2553048D02*
X4414656D01*
X4411656Y2550048D02*
Y2556048D01*
X4416685Y2558414D02*
X4422686D01*
X4419685Y2555414D02*
Y2561414D01*
X4450906Y2535548D02*
X4456906D01*
X4453907Y2532548D02*
Y2538548D01*
X4411157Y2535548D02*
X4447156D01*
X4429156Y2517548D02*
Y2553548D01*
X4435627Y2558418D02*
X4441627D01*
X4438626Y2555418D02*
Y2561418D01*
X4443657Y2553048D02*
X4449656D01*
X4446656Y2550048D02*
Y2556048D01*
X4449023Y2545019D02*
X4455023D01*
X4452022Y2542019D02*
Y2548019D01*
X4247100Y3622607D02*
X4254100D01*
X4250600Y3619107D02*
Y3626107D01*
X4217100Y3514607D02*
X4224100D01*
X4220600Y3511107D02*
Y3518107D01*
X4246901Y3526357D02*
X4252901D01*
X4249901Y3523357D02*
Y3529357D01*
X4218300Y3526357D02*
X4224300D01*
X4221300Y3523358D02*
Y3529357D01*
X4218300Y3610854D02*
X4224300D01*
X4221300Y3607853D02*
Y3613853D01*
X4246901Y3610858D02*
X4252901D01*
X4249901Y3607858D02*
Y3613858D01*
X3507100Y3622607D02*
X3514100D01*
X3510600Y3619107D02*
Y3626107D01*
X3477100Y3514607D02*
X3484100D01*
X3480600Y3511107D02*
Y3518107D01*
X3506901Y3526357D02*
X3512901D01*
X3509901Y3523357D02*
Y3529357D01*
X3478300Y3526357D02*
X3484300D01*
X3481300Y3523358D02*
Y3529357D01*
X3478300Y3610854D02*
X3484300D01*
X3481300Y3607853D02*
Y3613853D01*
X3506901Y3610858D02*
X3512901D01*
X3509901Y3607858D02*
Y3613858D01*
X2767100Y3622607D02*
X2774100D01*
X2770600Y3619107D02*
Y3626107D01*
X2737100Y3514607D02*
X2744100D01*
X2740600Y3511107D02*
Y3518107D01*
X2766901Y3526357D02*
X2772901D01*
X2769901Y3523357D02*
Y3529357D01*
X2738300Y3526357D02*
X2744300D01*
X2741300Y3523358D02*
Y3529357D01*
X2738300Y3610854D02*
X2744300D01*
X2741300Y3607853D02*
Y3613853D01*
X2766901Y3610858D02*
X2772901D01*
X2769901Y3607858D02*
Y3613858D01*
X818157Y3560548D02*
X830156D01*
X824156Y3554548D02*
Y3566548D01*
X818157Y3610548D02*
X830156D01*
X824156Y3604548D02*
Y3616548D01*
X748157Y3560548D02*
X760156D01*
X754156Y3554548D02*
Y3566548D01*
X748157Y3610548D02*
X760156D01*
X754156Y3604548D02*
Y3616548D01*
X783156Y3560548D02*
X795156D01*
X789156Y3554548D02*
Y3566548D01*
X783156Y3610548D02*
X795156D01*
X789156Y3604548D02*
Y3616548D01*
X2531331Y2510798D02*
X2537330D01*
X2534330Y2507798D02*
Y2513798D01*
X2554200Y2526078D02*
X2560201D01*
X2557200Y2523078D02*
Y2529078D01*
X2548831Y2518048D02*
X2554830D01*
X2551830Y2515048D02*
Y2521048D01*
X2540802Y2512682D02*
X2546801D01*
X2543802Y2509682D02*
Y2515682D01*
X2506581Y2535548D02*
X2512581D01*
X2509581Y2532548D02*
Y2538548D01*
X2521861Y2512678D02*
X2527861D01*
X2524861Y2509678D02*
Y2515678D01*
X2513831Y2518048D02*
X2519830D01*
X2516830Y2515048D02*
Y2521048D01*
X2508465Y2526077D02*
X2514465D01*
X2511465Y2523077D02*
Y2529077D01*
X2531331Y2560298D02*
X2537330D01*
X2534330Y2557298D02*
Y2563298D01*
X2508461Y2545018D02*
X2514460D01*
X2511461Y2542018D02*
Y2548018D01*
X2513831Y2553048D02*
X2519830D01*
X2516830Y2550048D02*
Y2556048D01*
X2521859Y2558414D02*
X2527859D01*
X2524859Y2555414D02*
Y2561414D01*
X2556080Y2535548D02*
X2562080D01*
X2559081Y2532548D02*
Y2538548D01*
X2516331Y2535548D02*
X2552330D01*
X2534330Y2517548D02*
Y2553548D01*
X2540800Y2558418D02*
X2546801D01*
X2543801Y2555418D02*
Y2561418D01*
X2548831Y2553048D02*
X2554830D01*
X2551830Y2550048D02*
Y2556048D01*
X2554196Y2545019D02*
X2560197D01*
X2557197Y2542019D02*
Y2548019D01*
X646156Y2510798D02*
X652157D01*
X649156Y2507798D02*
Y2513798D01*
X669026Y2526078D02*
X675026D01*
X672027Y2523078D02*
Y2529078D01*
X663656Y2518048D02*
X669656D01*
X666656Y2515048D02*
Y2521048D01*
X655628Y2512682D02*
X661628D01*
X658627Y2509682D02*
Y2515682D01*
X621407Y2535548D02*
X627407D01*
X624407Y2532548D02*
Y2538548D01*
X636687Y2512678D02*
X642686D01*
X639687Y2509678D02*
Y2515678D01*
X628657Y2518048D02*
X634656D01*
X631656Y2515048D02*
Y2521048D01*
X623290Y2526077D02*
X629291D01*
X626291Y2523077D02*
Y2529077D01*
X646156Y2560298D02*
X652157D01*
X649156Y2557298D02*
Y2563298D01*
X623287Y2545018D02*
X629286D01*
X626287Y2542018D02*
Y2548018D01*
X628657Y2553048D02*
X634656D01*
X631656Y2550048D02*
Y2556048D01*
X636685Y2558414D02*
X642685D01*
X639686Y2555414D02*
Y2561414D01*
X670907Y2535548D02*
X676906D01*
X673906Y2532548D02*
Y2538548D01*
X631157Y2535548D02*
X667157D01*
X649156Y2517548D02*
Y2553548D01*
X655627Y2558418D02*
X661627D01*
X658626Y2555418D02*
Y2561418D01*
X663656Y2553048D02*
X669656D01*
X666656Y2550048D02*
Y2556048D01*
X669023Y2545019D02*
X675022D01*
X672022Y2542019D02*
Y2548019D01*
X2027100Y3622607D02*
X2034100D01*
X2030600Y3619107D02*
Y3626107D01*
X1997100Y3514607D02*
X2004100D01*
X2000600Y3511107D02*
Y3518107D01*
X2026901Y3526357D02*
X2032901D01*
X2029901Y3523357D02*
Y3529357D01*
X1998300Y3526357D02*
X2004300D01*
X2001300Y3523358D02*
Y3529357D01*
X1998300Y3610854D02*
X2004300D01*
X2001300Y3607853D02*
Y3613853D01*
X2026901Y3610858D02*
X2032901D01*
X2029901Y3607858D02*
Y3613858D01*
X4127981Y3604848D02*
X4137632D01*
X4132806Y3600022D02*
Y3609674D01*
X4089880Y3604848D02*
X4099532D01*
X4094706Y3600022D02*
Y3609674D01*
X3387981Y3604848D02*
X3397632D01*
X3392806Y3600022D02*
Y3609674D01*
X3349880Y3604848D02*
X3359532D01*
X3354706Y3600022D02*
Y3609674D01*
X2647981Y3604848D02*
X2657632D01*
X2652806Y3600022D02*
Y3609674D01*
X2609880Y3604848D02*
X2619532D01*
X2614706Y3600022D02*
Y3609674D01*
X1907980Y3604848D02*
X1917632D01*
X1912807Y3600022D02*
Y3609674D01*
X1869881Y3604848D02*
X1879532D01*
X1874707Y3600022D02*
Y3609674D01*
X783157Y2660548D02*
X795156D01*
X789156Y2654548D02*
Y2666548D01*
X783157Y2710548D02*
X795156D01*
X789156Y2704548D02*
Y2716548D01*
X818157Y2660548D02*
X830156D01*
X824156Y2654548D02*
Y2666548D01*
X818157Y2710548D02*
X830156D01*
X824156Y2704548D02*
Y2716548D01*
X748157Y2660548D02*
X760156D01*
X754156Y2654548D02*
Y2666548D01*
X748157Y2710548D02*
X760156D01*
X754156Y2704548D02*
Y2716548D01*
X3749341Y3377864D02*
X3794341D01*
X3771841Y3355364D02*
Y3400364D01*
X4233972Y3377864D02*
X4278972D01*
X4256472Y3355364D02*
Y3400364D01*
X4325206Y2885548D02*
X4343106D01*
X4334156Y2876598D02*
Y2894498D01*
X3685206Y2885548D02*
X3703106D01*
X3694156Y2876598D02*
Y2894498D01*
X3685206Y3385548D02*
X3703106D01*
X3694156Y3376598D02*
Y3394498D01*
X4325206Y3385548D02*
X4343106D01*
X4334156Y3376598D02*
Y3394498D01*
X3009341Y3377864D02*
X3054341D01*
X3031841Y3355364D02*
Y3400364D01*
X3493972Y3377864D02*
X3538972D01*
X3516472Y3355364D02*
Y3400364D01*
X3585206Y2885548D02*
X3603106D01*
X3594156Y2876598D02*
Y2894498D01*
X2945206Y2885548D02*
X2963106D01*
X2954156Y2876598D02*
Y2894498D01*
X2945206Y3385548D02*
X2963106D01*
X2954156Y3376598D02*
Y3394498D01*
X3585206Y3385548D02*
X3603106D01*
X3594156Y3376598D02*
Y3394498D01*
X2269340Y3377864D02*
X2314340D01*
X2291840Y3355364D02*
Y3400364D01*
X2753972Y3377864D02*
X2798972D01*
X2776472Y3355364D02*
Y3400364D01*
X2845206Y2885548D02*
X2863106D01*
X2854156Y2876598D02*
Y2894498D01*
X2205206Y2885548D02*
X2223106D01*
X2214156Y2876598D02*
Y2894498D01*
X2205206Y3385548D02*
X2223106D01*
X2214156Y3376598D02*
Y3394498D01*
X2845206Y3385548D02*
X2863106D01*
X2854156Y3376598D02*
Y3394498D01*
X1529340Y3377864D02*
X1574340D01*
X1551840Y3355364D02*
Y3400364D01*
X2013972Y3377864D02*
X2058972D01*
X2036472Y3355364D02*
Y3400364D01*
X2105206Y2885548D02*
X2123106D01*
X2114156Y2876598D02*
Y2894498D01*
X1465206Y2885548D02*
X1483106D01*
X1474156Y2876598D02*
Y2894498D01*
X1465206Y3385548D02*
X1483106D01*
X1474156Y3376598D02*
Y3394498D01*
X2105206Y3385548D02*
X2123106D01*
X2114156Y3376598D02*
Y3394498D01*
X646156Y3710798D02*
X652157D01*
X649156Y3707798D02*
Y3713798D01*
X669026Y3726078D02*
X675026D01*
X672027Y3723078D02*
Y3729078D01*
X663656Y3718048D02*
X669656D01*
X666656Y3715048D02*
Y3721048D01*
X655628Y3712682D02*
X661628D01*
X658627Y3709682D02*
Y3715682D01*
X621407Y3735548D02*
X627407D01*
X624407Y3732548D02*
Y3738548D01*
X636687Y3712678D02*
X642686D01*
X639687Y3709678D02*
Y3715678D01*
X628657Y3718048D02*
X634656D01*
X631656Y3715048D02*
Y3721048D01*
X623290Y3726077D02*
X629291D01*
X626291Y3723077D02*
Y3729077D01*
X646156Y3760298D02*
X652157D01*
X649156Y3757298D02*
Y3763298D01*
X623287Y3745018D02*
X629286D01*
X626287Y3742018D02*
Y3748018D01*
X628657Y3753048D02*
X634656D01*
X631656Y3750048D02*
Y3756048D01*
X636685Y3758414D02*
X642685D01*
X639686Y3755414D02*
Y3761414D01*
X670907Y3735548D02*
X676906D01*
X673906Y3732548D02*
Y3738548D01*
X631157Y3735548D02*
X667157D01*
X649156Y3717548D02*
Y3753548D01*
X655627Y3758418D02*
X661627D01*
X658626Y3755418D02*
Y3761418D01*
X663656Y3753048D02*
X669656D01*
X666656Y3750048D02*
Y3756048D01*
X669023Y3745019D02*
X675022D01*
X672022Y3742019D02*
Y3748019D01*
X2536156Y3710798D02*
X2542157D01*
X2539156Y3707798D02*
Y3713798D01*
X2559026Y3726078D02*
X2565027D01*
X2562026Y3723078D02*
Y3729078D01*
X2553656Y3718048D02*
X2559657D01*
X2556656Y3715048D02*
Y3721048D01*
X2545627Y3712682D02*
X2551628D01*
X2548627Y3709682D02*
Y3715682D01*
X2511407Y3735548D02*
X2517406D01*
X2514406Y3732548D02*
Y3738548D01*
X2526687Y3712678D02*
X2532686D01*
X2529686Y3709678D02*
Y3715678D01*
X2518656Y3718048D02*
X2524657D01*
X2521656Y3715048D02*
Y3721048D01*
X2513291Y3726077D02*
X2519290D01*
X2516290Y3723077D02*
Y3729077D01*
X2536156Y3760298D02*
X2542157D01*
X2539156Y3757298D02*
Y3763298D01*
X2513286Y3745018D02*
X2519286D01*
X2516286Y3742018D02*
Y3748018D01*
X2518656Y3753048D02*
X2524657D01*
X2521656Y3750048D02*
Y3756048D01*
X2526685Y3758414D02*
X2532686D01*
X2529686Y3755414D02*
Y3761414D01*
X2560906Y3735548D02*
X2566906D01*
X2563907Y3732548D02*
Y3738548D01*
X2521156Y3735548D02*
X2557157D01*
X2539156Y3717548D02*
Y3753548D01*
X2545627Y3758418D02*
X2551626D01*
X2548627Y3755418D02*
Y3761418D01*
X2553656Y3753048D02*
X2559657D01*
X2556656Y3750048D02*
Y3756048D01*
X2559023Y3745019D02*
X2565023D01*
X2562022Y3742019D02*
Y3748019D01*
X4426157Y3710798D02*
X4432156D01*
X4429156Y3707798D02*
Y3713798D01*
X4449026Y3726078D02*
X4455027D01*
X4452026Y3723078D02*
Y3729078D01*
X4443657Y3718048D02*
X4449656D01*
X4446656Y3715048D02*
Y3721048D01*
X4435627Y3712682D02*
X4441628D01*
X4438628Y3709682D02*
Y3715682D01*
X4401407Y3735548D02*
X4407407D01*
X4404406Y3732548D02*
Y3738548D01*
X4416686Y3712678D02*
X4422686D01*
X4419687Y3709678D02*
Y3715678D01*
X4408657Y3718048D02*
X4414656D01*
X4411656Y3715048D02*
Y3721048D01*
X4403290Y3726077D02*
X4409290D01*
X4406291Y3723077D02*
Y3729077D01*
X4426157Y3760298D02*
X4432156D01*
X4429156Y3757298D02*
Y3763298D01*
X4403286Y3745018D02*
X4409286D01*
X4406287Y3742018D02*
Y3748018D01*
X4408657Y3753048D02*
X4414656D01*
X4411656Y3750048D02*
Y3756048D01*
X4416685Y3758414D02*
X4422686D01*
X4419685Y3755414D02*
Y3761414D01*
X4450906Y3735548D02*
X4456906D01*
X4453907Y3732548D02*
Y3738548D01*
X4411157Y3735548D02*
X4447156D01*
X4429156Y3717548D02*
Y3753548D01*
X4435627Y3758418D02*
X4441627D01*
X4438626Y3755418D02*
Y3761418D01*
X4443657Y3753048D02*
X4449656D01*
X4446656Y3750048D02*
Y3756048D01*
X4449023Y3745019D02*
X4455023D01*
X4452022Y3742019D02*
Y3748019D01*
X3793257Y3565548D02*
X3811256D01*
X3802256Y3556548D02*
Y3574548D01*
X3717056Y3565548D02*
X3735056D01*
X3726057Y3556548D02*
Y3574548D01*
X3749341Y2893232D02*
X3794341D01*
X3771841Y2870732D02*
Y2915732D01*
X4233972Y2893232D02*
X4278972D01*
X4256472Y2870732D02*
Y2915732D01*
X4289656Y3175548D02*
X4298656D01*
X4294156Y3171048D02*
Y3180048D01*
X3809656Y3095548D02*
X3818656D01*
X3814156Y3091048D02*
Y3100048D01*
X4289656Y3115548D02*
X4298656D01*
X4294156Y3111048D02*
Y3120048D01*
X4289656Y3145548D02*
X4298656D01*
X4294156Y3141048D02*
Y3150048D01*
X3809656Y3165548D02*
X3818656D01*
X3814156Y3161048D02*
Y3170048D01*
X4059656Y3355548D02*
X4068656D01*
X4064156Y3351048D02*
Y3360048D01*
X3958857Y3357798D02*
X3967856D01*
X3963356Y3353298D02*
Y3362298D01*
X4099656Y3355548D02*
X4108656D01*
X4104156Y3351048D02*
Y3360048D01*
X4019656Y2905548D02*
X4028656D01*
X4024156Y2901048D02*
Y2910048D01*
X4069656Y2905548D02*
X4078656D01*
X4074156Y2901048D02*
Y2910048D01*
X3979656Y2905548D02*
X3988656D01*
X3984156Y2901048D02*
Y2910048D01*
X3809656Y2985548D02*
X3818656D01*
X3814156Y2981048D02*
Y2990048D01*
X4239656Y3025548D02*
X4248656D01*
X4244156Y3021048D02*
Y3030048D01*
X4239656Y2985548D02*
X4248656D01*
X4244156Y2981048D02*
Y2990048D01*
X3959656Y3085548D02*
X3968656D01*
X3964156Y3081048D02*
Y3090048D01*
X4069656Y2985548D02*
X4078656D01*
X4074156Y2981048D02*
Y2990048D01*
X3920757Y3357798D02*
X3929756D01*
X3925256Y3353298D02*
Y3362298D01*
X4189656Y3105548D02*
X4198656D01*
X4194156Y3101048D02*
Y3110048D01*
X4209656Y3155548D02*
X4218656D01*
X4214156Y3151048D02*
Y3160048D01*
X4260291Y3223558D02*
X4269291D01*
X4264791Y3219058D02*
Y3228058D01*
X4219656Y3225548D02*
X4228656D01*
X4224156Y3221048D02*
Y3230048D01*
X4294644Y3225210D02*
X4303644D01*
X4299144Y3220710D02*
Y3229710D01*
X4289656Y3085548D02*
X4298656D01*
X4294156Y3081048D02*
Y3090048D01*
X3989656Y3375548D02*
X3998656D01*
X3994156Y3371048D02*
Y3380048D01*
X4109656Y2905548D02*
X4118656D01*
X4114156Y2901048D02*
Y2910048D01*
X3053257Y3565548D02*
X3071256D01*
X3062256Y3556548D02*
Y3574548D01*
X2977056Y3565548D02*
X2995056D01*
X2986057Y3556548D02*
Y3574548D01*
X3009341Y2893232D02*
X3054341D01*
X3031841Y2870732D02*
Y2915732D01*
X3493972Y2893232D02*
X3538972D01*
X3516472Y2870732D02*
Y2915732D01*
X3549656Y3175548D02*
X3558656D01*
X3554156Y3171048D02*
Y3180048D01*
X3069656Y3095548D02*
X3078656D01*
X3074156Y3091048D02*
Y3100048D01*
X3549656Y3115548D02*
X3558656D01*
X3554156Y3111048D02*
Y3120048D01*
X3549656Y3145548D02*
X3558656D01*
X3554156Y3141048D02*
Y3150048D01*
X3069656Y3165548D02*
X3078656D01*
X3074156Y3161048D02*
Y3170048D01*
X3319656Y3355548D02*
X3328656D01*
X3324156Y3351048D02*
Y3360048D01*
X3218857Y3357798D02*
X3227856D01*
X3223356Y3353298D02*
Y3362298D01*
X3359656Y3355548D02*
X3368656D01*
X3364156Y3351048D02*
Y3360048D01*
X3279656Y2905548D02*
X3288656D01*
X3284156Y2901048D02*
Y2910048D01*
X3329656Y2905548D02*
X3338656D01*
X3334156Y2901048D02*
Y2910048D01*
X3239656Y2905548D02*
X3248656D01*
X3244156Y2901048D02*
Y2910048D01*
X3069656Y2985548D02*
X3078656D01*
X3074156Y2981048D02*
Y2990048D01*
X3499656Y3025548D02*
X3508656D01*
X3504156Y3021048D02*
Y3030048D01*
X3499656Y2985548D02*
X3508656D01*
X3504156Y2981048D02*
Y2990048D01*
X3219656Y3085548D02*
X3228656D01*
X3224156Y3081048D02*
Y3090048D01*
X3329656Y2985548D02*
X3338656D01*
X3334156Y2981048D02*
Y2990048D01*
X3180757Y3357798D02*
X3189756D01*
X3185256Y3353298D02*
Y3362298D01*
X3449656Y3105548D02*
X3458656D01*
X3454156Y3101048D02*
Y3110048D01*
X3469656Y3155548D02*
X3478656D01*
X3474156Y3151048D02*
Y3160048D01*
X3520291Y3223558D02*
X3529291D01*
X3524791Y3219058D02*
Y3228058D01*
X3479656Y3225548D02*
X3488656D01*
X3484156Y3221048D02*
Y3230048D01*
X3554644Y3225210D02*
X3563644D01*
X3559144Y3220710D02*
Y3229710D01*
X3549656Y3085548D02*
X3558656D01*
X3554156Y3081048D02*
Y3090048D01*
X3249656Y3375548D02*
X3258656D01*
X3254156Y3371048D02*
Y3380048D01*
X3369656Y2905548D02*
X3378656D01*
X3374156Y2901048D02*
Y2910048D01*
X2313256Y3565548D02*
X2331256D01*
X2322256Y3556548D02*
Y3574548D01*
X2237056Y3565548D02*
X2255056D01*
X2246056Y3556548D02*
Y3574548D01*
X2269340Y2893232D02*
X2314340D01*
X2291840Y2870732D02*
Y2915732D01*
X2753972Y2893232D02*
X2798972D01*
X2776472Y2870732D02*
Y2915732D01*
X2809656Y3175548D02*
X2818656D01*
X2814156Y3171048D02*
Y3180048D01*
X2329656Y3095548D02*
X2338656D01*
X2334156Y3091048D02*
Y3100048D01*
X2809656Y3115548D02*
X2818656D01*
X2814156Y3111048D02*
Y3120048D01*
X2809656Y3145548D02*
X2818656D01*
X2814156Y3141048D02*
Y3150048D01*
X2329656Y3165548D02*
X2338656D01*
X2334156Y3161048D02*
Y3170048D01*
X2579656Y3355548D02*
X2588656D01*
X2584156Y3351048D02*
Y3360048D01*
X2478856Y3357798D02*
X2487856D01*
X2483356Y3353298D02*
Y3362298D01*
X2619656Y3355548D02*
X2628656D01*
X2624156Y3351048D02*
Y3360048D01*
X2539656Y2905548D02*
X2548656D01*
X2544156Y2901048D02*
Y2910048D01*
X2589656Y2905548D02*
X2598656D01*
X2594156Y2901048D02*
Y2910048D01*
X2499656Y2905548D02*
X2508656D01*
X2504156Y2901048D02*
Y2910048D01*
X2329656Y2985548D02*
X2338656D01*
X2334156Y2981048D02*
Y2990048D01*
X2759656Y3025548D02*
X2768656D01*
X2764156Y3021048D02*
Y3030048D01*
X2759656Y2985548D02*
X2768656D01*
X2764156Y2981048D02*
Y2990048D01*
X2479656Y3085548D02*
X2488656D01*
X2484156Y3081048D02*
Y3090048D01*
X2589656Y2985548D02*
X2598656D01*
X2594156Y2981048D02*
Y2990048D01*
X2440756Y3357798D02*
X2449756D01*
X2445256Y3353298D02*
Y3362298D01*
X2709656Y3105548D02*
X2718656D01*
X2714156Y3101048D02*
Y3110048D01*
X2729656Y3155548D02*
X2738656D01*
X2734156Y3151048D02*
Y3160048D01*
X2780291Y3223558D02*
X2789291D01*
X2784791Y3219058D02*
Y3228058D01*
X2739656Y3225548D02*
X2748656D01*
X2744156Y3221048D02*
Y3230048D01*
X2814644Y3225210D02*
X2823644D01*
X2819144Y3220710D02*
Y3229710D01*
X2809656Y3085548D02*
X2818656D01*
X2814156Y3081048D02*
Y3090048D01*
X2509656Y3375548D02*
X2518656D01*
X2514156Y3371048D02*
Y3380048D01*
X2629656Y2905548D02*
X2638656D01*
X2634156Y2901048D02*
Y2910048D01*
X3958857Y3306998D02*
X3967856D01*
X3963356Y3302498D02*
Y3311498D01*
X3218857Y3306998D02*
X3227856D01*
X3223356Y3302498D02*
Y3311498D01*
X2478856Y3306998D02*
X2487856D01*
X2483356Y3302498D02*
Y3311498D01*
X1573256Y3565548D02*
X1591256D01*
X1582256Y3556548D02*
Y3574548D01*
X1497056Y3565548D02*
X1515056D01*
X1506056Y3556548D02*
Y3574548D01*
X1529340Y2893232D02*
X1574340D01*
X1551840Y2870732D02*
Y2915732D01*
X2013972Y2893232D02*
X2058972D01*
X2036472Y2870732D02*
Y2915732D01*
X2069656Y3175548D02*
X2078656D01*
X2074156Y3171048D02*
Y3180048D01*
X1589656Y3095548D02*
X1598656D01*
X1594156Y3091048D02*
Y3100048D01*
X2069656Y3115548D02*
X2078656D01*
X2074156Y3111048D02*
Y3120048D01*
X2069656Y3145548D02*
X2078656D01*
X2074156Y3141048D02*
Y3150048D01*
X1589656Y3165548D02*
X1598656D01*
X1594156Y3161048D02*
Y3170048D01*
X1839656Y3355548D02*
X1848656D01*
X1844156Y3351048D02*
Y3360048D01*
X1738856Y3357798D02*
X1747856D01*
X1743356Y3353298D02*
Y3362298D01*
X1879656Y3355548D02*
X1888656D01*
X1884156Y3351048D02*
Y3360048D01*
X1799656Y2905548D02*
X1808656D01*
X1804156Y2901048D02*
Y2910048D01*
X1849656Y2905548D02*
X1858656D01*
X1854156Y2901048D02*
Y2910048D01*
X1759656Y2905548D02*
X1768656D01*
X1764156Y2901048D02*
Y2910048D01*
X1589656Y2985548D02*
X1598656D01*
X1594156Y2981048D02*
Y2990048D01*
X2019656Y3025548D02*
X2028656D01*
X2024156Y3021048D02*
Y3030048D01*
X2019656Y2985548D02*
X2028656D01*
X2024156Y2981048D02*
Y2990048D01*
X1739656Y3085548D02*
X1748656D01*
X1744156Y3081048D02*
Y3090048D01*
X1849656Y2985548D02*
X1858656D01*
X1854156Y2981048D02*
Y2990048D01*
X1700756Y3357798D02*
X1709756D01*
X1705256Y3353298D02*
Y3362298D01*
X1969656Y3105548D02*
X1978656D01*
X1974156Y3101048D02*
Y3110048D01*
X1989656Y3155548D02*
X1998656D01*
X1994156Y3151048D02*
Y3160048D01*
X2040291Y3223558D02*
X2049291D01*
X2044791Y3219058D02*
Y3228058D01*
X1999656Y3225548D02*
X2008656D01*
X2004156Y3221048D02*
Y3230048D01*
X2074644Y3225210D02*
X2083644D01*
X2079144Y3220710D02*
Y3229710D01*
X2069656Y3085548D02*
X2078656D01*
X2074156Y3081048D02*
Y3090048D01*
X1769656Y3375548D02*
X1778656D01*
X1774156Y3371048D02*
Y3380048D01*
X1889656Y2905548D02*
X1898656D01*
X1894156Y2901048D02*
Y2910048D01*
X1738856Y3306998D02*
X1747856D01*
X1743356Y3302498D02*
Y3311498D01*
X4266737Y2578180D02*
X4270547D01*
X4268643Y2576275D02*
Y2580085D01*
X3708954Y2611292D02*
X3712763D01*
X3710858Y2609387D02*
Y2613197D01*
X1416857Y2637962D02*
X1420668D01*
X1418763Y2636057D02*
Y2639867D01*
X3952561Y2710608D02*
X3956371D01*
X3954466Y2708703D02*
Y2712513D01*
X4013859Y2761528D02*
X4017669D01*
X4015764Y2759623D02*
Y2763433D01*
X3710245Y3517310D02*
X3714055D01*
X3712150Y3515405D02*
Y3519215D01*
X4287816Y2735720D02*
X4291626D01*
X4289721Y2733815D02*
Y2737625D01*
X3748175Y2729016D02*
X3751985D01*
X3750080Y2727111D02*
Y2730921D01*
X4357251Y2732298D02*
X4361061D01*
X4359156Y2730393D02*
Y2734203D01*
X4286194Y2657448D02*
X4290003D01*
X4288098Y2655543D02*
Y2659353D01*
X3669990Y2612308D02*
X3673799D01*
X3671895Y2610403D02*
Y2614213D01*
X4357314Y2657448D02*
X4361123D01*
X4359218Y2655543D02*
Y2659353D01*
X3746190Y2612308D02*
X3749999D01*
X3748094Y2610403D02*
Y2614213D01*
X4321754Y2657448D02*
X4325563D01*
X4323658Y2655543D02*
Y2659353D01*
X3849691Y3362624D02*
X3853501D01*
X3851596Y3360719D02*
Y3364529D01*
X3763077Y3613830D02*
X3766888D01*
X3764982Y3611925D02*
Y3615735D01*
X4132477Y2760766D02*
X4136288D01*
X4134382Y2758861D02*
Y2762671D01*
X4072279Y2761020D02*
X4076089D01*
X4074184Y2759115D02*
Y2762925D01*
X4222309Y2655488D02*
X4226119D01*
X4224214Y2653583D02*
Y2657393D01*
X4162365Y2655488D02*
X4166176D01*
X4164270Y2653583D02*
Y2657393D01*
X4102505Y2655488D02*
X4106315D01*
X4104410Y2653583D02*
Y2657393D01*
X4042307Y2655488D02*
X4046117D01*
X4044212Y2653583D02*
Y2657393D01*
X3952645Y2761020D02*
X3956455D01*
X3954550Y2759115D02*
Y2762925D01*
X3892448Y2761020D02*
X3896257D01*
X3894352Y2759115D02*
Y2762925D01*
X3922166Y2655488D02*
X3925975D01*
X3924070Y2653583D02*
Y2657393D01*
X3982363Y2655488D02*
X3986173D01*
X3984268Y2653583D02*
Y2657393D01*
X3862475Y2655488D02*
X3866285D01*
X3864380Y2653583D02*
Y2657393D01*
X3802278Y2655488D02*
X3806087D01*
X3804182Y2653583D02*
Y2657393D01*
X4322469Y2735112D02*
X4326279D01*
X4324374Y2733207D02*
Y2737017D01*
X3708806Y2687868D02*
X3712615D01*
X3710710Y2685963D02*
Y2689773D01*
X3973897Y3519850D02*
X3977708D01*
X3975802Y3517945D02*
Y3521755D01*
X3973897Y3504356D02*
X3977708D01*
X3975802Y3502451D02*
Y3506261D01*
X3951799Y3623228D02*
X3955609D01*
X3953705Y3621323D02*
Y3625133D01*
X3813116Y3613576D02*
X3816925D01*
X3815020Y3611671D02*
Y3615481D01*
X4372475Y2695620D02*
X4376285D01*
X4374380Y2693715D02*
Y2697525D01*
X4339201Y2695112D02*
X4343011D01*
X4341106Y2693207D02*
Y2697017D01*
X4303641Y2695366D02*
X4307451D01*
X4305546Y2693461D02*
Y2697271D01*
X4222393Y2626278D02*
X4226203D01*
X4224298Y2624373D02*
Y2628183D01*
X4072449Y2710608D02*
X4076259D01*
X4074354Y2708703D02*
Y2712513D01*
X4132647Y2710608D02*
X4136458D01*
X4134552Y2708703D02*
Y2712513D01*
X4162195Y2626278D02*
X4166005D01*
X4164100Y2624373D02*
Y2628183D01*
X4102251Y2626278D02*
X4106061D01*
X4104156Y2624373D02*
Y2628183D01*
X3820841Y2742478D02*
X3824651D01*
X3822746Y2740573D02*
Y2744383D01*
X4014030Y2710608D02*
X4017839D01*
X4015934Y2708703D02*
Y2712513D01*
X4042561Y2626278D02*
X4046371D01*
X4044466Y2624373D02*
Y2628183D01*
X3982363Y2626278D02*
X3986173D01*
X3984268Y2624373D02*
Y2628183D01*
X3908365Y2710608D02*
X3912175D01*
X3910270Y2708703D02*
Y2712513D01*
X3922419Y2626278D02*
X3926229D01*
X3924324Y2624373D02*
Y2628183D01*
X3892617Y2710608D02*
X3896427D01*
X3894522Y2708703D02*
Y2712513D01*
X3861967Y2626278D02*
X3865777D01*
X3863872Y2624373D02*
Y2628183D01*
X3802278Y2626278D02*
X3806087D01*
X3804182Y2624373D02*
Y2628183D01*
X4273395Y3543380D02*
X4277206D01*
X4275301Y3541475D02*
Y3545285D01*
X4263997Y3596212D02*
X4267808D01*
X4265902Y3594307D02*
Y3598117D01*
X4148174Y3624406D02*
X4151984D01*
X4150078Y3622501D02*
Y3626311D01*
X3788223Y3613830D02*
X3792033D01*
X3790128Y3611925D02*
Y3615735D01*
X4111919Y3646359D02*
X4115729D01*
X4113824Y3644454D02*
Y3648264D01*
X4167732Y3547698D02*
X4171541D01*
X4169637Y3545793D02*
Y3549603D01*
X4180685Y3569542D02*
X4184496D01*
X4182591Y3567637D02*
Y3571447D01*
X4260695Y3563700D02*
X4264506D01*
X4262600Y3561795D02*
Y3565605D01*
X4206848Y3573606D02*
X4210657D01*
X4208752Y3571701D02*
Y3575511D01*
X4278476Y3594942D02*
X4282285D01*
X4280381Y3593037D02*
Y3596847D01*
X4151984Y3533982D02*
X4155793D01*
X4153889Y3532077D02*
Y3535887D01*
X4092802Y3534490D02*
X4096612D01*
X4094706Y3532585D02*
Y3536395D01*
X4194655Y3270584D02*
X4198466D01*
X4196560Y3268679D02*
Y3272489D01*
X4297271Y3513154D02*
X4301082D01*
X4299177Y3511249D02*
Y3515059D01*
X4297526Y3634058D02*
X4301335D01*
X4299431Y3632153D02*
Y3635963D01*
X4124619Y3646613D02*
X4128429D01*
X4126524Y3644708D02*
Y3648518D01*
X4086773Y3646613D02*
X4090583D01*
X4088678Y3644708D02*
Y3648518D01*
X3212561Y2710608D02*
X3216371D01*
X3214466Y2708703D02*
Y2712513D01*
X3273859Y2761528D02*
X3277669D01*
X3275764Y2759623D02*
Y2763433D01*
X2970245Y3517310D02*
X2974055D01*
X2972150Y3515405D02*
Y3519215D01*
X3547816Y2735720D02*
X3551626D01*
X3549721Y2733815D02*
Y2737625D01*
X3008175Y2729016D02*
X3011985D01*
X3010080Y2727111D02*
Y2730921D01*
X3617251Y2732298D02*
X3621061D01*
X3619156Y2730393D02*
Y2734203D01*
X3546194Y2657448D02*
X3550003D01*
X3548098Y2655543D02*
Y2659353D01*
X2929990Y2612308D02*
X2933799D01*
X2931895Y2610403D02*
Y2614213D01*
X3617314Y2657448D02*
X3621123D01*
X3619218Y2655543D02*
Y2659353D01*
X3006190Y2612308D02*
X3009999D01*
X3008094Y2610403D02*
Y2614213D01*
X3581754Y2657448D02*
X3585563D01*
X3583658Y2655543D02*
Y2659353D01*
X2968773Y2619762D02*
X2972583D01*
X2970678Y2617857D02*
Y2621667D01*
X3109691Y3362624D02*
X3113501D01*
X3111596Y3360719D02*
Y3364529D01*
X3023077Y3613830D02*
X3026888D01*
X3024982Y3611925D02*
Y3615735D01*
X3392477Y2760766D02*
X3396288D01*
X3394382Y2758861D02*
Y2762671D01*
X3332279Y2761020D02*
X3336089D01*
X3334184Y2759115D02*
Y2762925D01*
X3482309Y2655488D02*
X3486119D01*
X3484214Y2653583D02*
Y2657393D01*
X3422365Y2655488D02*
X3426176D01*
X3424270Y2653583D02*
Y2657393D01*
X3362505Y2655488D02*
X3366315D01*
X3364410Y2653583D02*
Y2657393D01*
X3302307Y2655488D02*
X3306117D01*
X3304212Y2653583D02*
Y2657393D01*
X3212645Y2761020D02*
X3216455D01*
X3214550Y2759115D02*
Y2762925D01*
X3152448Y2761020D02*
X3156257D01*
X3154352Y2759115D02*
Y2762925D01*
X3182166Y2655488D02*
X3185975D01*
X3184070Y2653583D02*
Y2657393D01*
X3242363Y2655488D02*
X3246173D01*
X3244268Y2653583D02*
Y2657393D01*
X3122475Y2655488D02*
X3126285D01*
X3124380Y2653583D02*
Y2657393D01*
X3062278Y2655488D02*
X3066087D01*
X3064182Y2653583D02*
Y2657393D01*
X3582469Y2735112D02*
X3586279D01*
X3584374Y2733207D02*
Y2737017D01*
X2968806Y2687868D02*
X2972615D01*
X2970710Y2685963D02*
Y2689773D01*
X3233897Y3519850D02*
X3237708D01*
X3235802Y3517945D02*
Y3521755D01*
X3233897Y3504356D02*
X3237708D01*
X3235802Y3502451D02*
Y3506261D01*
X3211799Y3623228D02*
X3215609D01*
X3213705Y3621323D02*
Y3625133D01*
X3073116Y3613576D02*
X3076925D01*
X3075020Y3611671D02*
Y3615481D01*
X3632475Y2695620D02*
X3636285D01*
X3634380Y2693715D02*
Y2697525D01*
X3599201Y2695112D02*
X3603011D01*
X3601106Y2693207D02*
Y2697017D01*
X3563641Y2695366D02*
X3567451D01*
X3565546Y2693461D02*
Y2697271D01*
X3482393Y2626278D02*
X3486203D01*
X3484298Y2624373D02*
Y2628183D01*
X3332449Y2710608D02*
X3336259D01*
X3334354Y2708703D02*
Y2712513D01*
X3392647Y2710608D02*
X3396458D01*
X3394552Y2708703D02*
Y2712513D01*
X3422195Y2626278D02*
X3426005D01*
X3424100Y2624373D02*
Y2628183D01*
X3362251Y2626278D02*
X3366061D01*
X3364156Y2624373D02*
Y2628183D01*
X3080841Y2742478D02*
X3084651D01*
X3082746Y2740573D02*
Y2744383D01*
X3274030Y2710608D02*
X3277839D01*
X3275934Y2708703D02*
Y2712513D01*
X3302561Y2626278D02*
X3306371D01*
X3304466Y2624373D02*
Y2628183D01*
X3242363Y2626278D02*
X3246173D01*
X3244268Y2624373D02*
Y2628183D01*
X3168365Y2710608D02*
X3172175D01*
X3170270Y2708703D02*
Y2712513D01*
X3182419Y2626278D02*
X3186229D01*
X3184324Y2624373D02*
Y2628183D01*
X3152617Y2710608D02*
X3156427D01*
X3154522Y2708703D02*
Y2712513D01*
X3121967Y2626278D02*
X3125777D01*
X3123872Y2624373D02*
Y2628183D01*
X3062278Y2626278D02*
X3066087D01*
X3064182Y2624373D02*
Y2628183D01*
X3533395Y3543380D02*
X3537206D01*
X3535301Y3541475D02*
Y3545285D01*
X3523997Y3596212D02*
X3527808D01*
X3525902Y3594307D02*
Y3598117D01*
X3408174Y3624406D02*
X3411984D01*
X3410078Y3622501D02*
Y3626311D01*
X3048223Y3613830D02*
X3052033D01*
X3050128Y3611925D02*
Y3615735D01*
X3371919Y3646359D02*
X3375729D01*
X3373824Y3644454D02*
Y3648264D01*
X3427732Y3547698D02*
X3431541D01*
X3429637Y3545793D02*
Y3549603D01*
X3440685Y3569542D02*
X3444496D01*
X3442591Y3567637D02*
Y3571447D01*
X3520695Y3563700D02*
X3524506D01*
X3522600Y3561795D02*
Y3565605D01*
X3466848Y3573606D02*
X3470657D01*
X3468752Y3571701D02*
Y3575511D01*
X3538476Y3594942D02*
X3542285D01*
X3540381Y3593037D02*
Y3596847D01*
X3411984Y3533982D02*
X3415793D01*
X3413889Y3532077D02*
Y3535887D01*
X3352802Y3534490D02*
X3356612D01*
X3354706Y3532585D02*
Y3536395D01*
X3454655Y3270584D02*
X3458466D01*
X3456560Y3268679D02*
Y3272489D01*
X3557271Y3513154D02*
X3561082D01*
X3559177Y3511249D02*
Y3515059D01*
X3557526Y3634058D02*
X3561335D01*
X3559431Y3632153D02*
Y3635963D01*
X3384619Y3646613D02*
X3388429D01*
X3386524Y3644708D02*
Y3648518D01*
X3346773Y3646613D02*
X3350583D01*
X3348678Y3644708D02*
Y3648518D01*
X2472561Y2710608D02*
X2476371D01*
X2474466Y2708703D02*
Y2712513D01*
X2533859Y2761528D02*
X2537669D01*
X2535764Y2759623D02*
Y2763433D01*
X2230245Y3517310D02*
X2234055D01*
X2232150Y3515405D02*
Y3519215D01*
X2807816Y2735720D02*
X2811626D01*
X2809721Y2733815D02*
Y2737625D01*
X2268175Y2729016D02*
X2271985D01*
X2270080Y2727111D02*
Y2730921D01*
X2877251Y2732298D02*
X2881061D01*
X2879156Y2730393D02*
Y2734203D01*
X2806194Y2657448D02*
X2810003D01*
X2808098Y2655543D02*
Y2659353D01*
X2189989Y2612308D02*
X2193799D01*
X2191895Y2610403D02*
Y2614213D01*
X2877314Y2657448D02*
X2881123D01*
X2879218Y2655543D02*
Y2659353D01*
X2266190Y2612308D02*
X2270000D01*
X2268094Y2610403D02*
Y2614213D01*
X2841754Y2657448D02*
X2845563D01*
X2843658Y2655543D02*
Y2659353D01*
X2228773Y2619762D02*
X2232583D01*
X2230678Y2617857D02*
Y2621667D01*
X2369691Y3362624D02*
X2373501D01*
X2371596Y3360719D02*
Y3364529D01*
X2283077Y3613830D02*
X2286887D01*
X2284982Y3611925D02*
Y3615735D01*
X2652477Y2760766D02*
X2656288D01*
X2654382Y2758861D02*
Y2762671D01*
X2592279Y2761020D02*
X2596089D01*
X2594184Y2759115D02*
Y2762925D01*
X2742309Y2655488D02*
X2746119D01*
X2744214Y2653583D02*
Y2657393D01*
X2682365Y2655488D02*
X2686176D01*
X2684270Y2653583D02*
Y2657393D01*
X2622505Y2655488D02*
X2626315D01*
X2624410Y2653583D02*
Y2657393D01*
X2562307Y2655488D02*
X2566117D01*
X2564212Y2653583D02*
Y2657393D01*
X2472645Y2761020D02*
X2476455D01*
X2474550Y2759115D02*
Y2762925D01*
X2412447Y2761020D02*
X2416257D01*
X2414352Y2759115D02*
Y2762925D01*
X2442165Y2655488D02*
X2445975D01*
X2444070Y2653583D02*
Y2657393D01*
X2502363Y2655488D02*
X2506173D01*
X2504268Y2653583D02*
Y2657393D01*
X2382475Y2655488D02*
X2386285D01*
X2384380Y2653583D02*
Y2657393D01*
X2322277Y2655488D02*
X2326087D01*
X2324182Y2653583D02*
Y2657393D01*
X2842469Y2735112D02*
X2846279D01*
X2844374Y2733207D02*
Y2737017D01*
X2228805Y2687868D02*
X2232615D01*
X2230710Y2685963D02*
Y2689773D01*
X2493897Y3519850D02*
X2497707D01*
X2495802Y3517945D02*
Y3521755D01*
X2493897Y3504356D02*
X2497707D01*
X2495802Y3502451D02*
Y3506261D01*
X2471799Y3623228D02*
X2475609D01*
X2473704Y3621323D02*
Y3625133D01*
X2333115Y3613576D02*
X2336925D01*
X2335020Y3611671D02*
Y3615481D01*
X2892475Y2695620D02*
X2896285D01*
X2894380Y2693715D02*
Y2697525D01*
X2859201Y2695112D02*
X2863011D01*
X2861106Y2693207D02*
Y2697017D01*
X2823641Y2695366D02*
X2827451D01*
X2825546Y2693461D02*
Y2697271D01*
X2742393Y2626278D02*
X2746203D01*
X2744298Y2624373D02*
Y2628183D01*
X2592449Y2710608D02*
X2596259D01*
X2594354Y2708703D02*
Y2712513D01*
X2652647Y2710608D02*
X2656458D01*
X2654552Y2708703D02*
Y2712513D01*
X2682195Y2626278D02*
X2686005D01*
X2684100Y2624373D02*
Y2628183D01*
X2622251Y2626278D02*
X2626061D01*
X2624156Y2624373D02*
Y2628183D01*
X2340841Y2742478D02*
X2344651D01*
X2342746Y2740573D02*
Y2744383D01*
X2534029Y2710608D02*
X2537839D01*
X2535934Y2708703D02*
Y2712513D01*
X2562561Y2626278D02*
X2566371D01*
X2564466Y2624373D02*
Y2628183D01*
X2502363Y2626278D02*
X2506173D01*
X2504268Y2624373D02*
Y2628183D01*
X2428365Y2710608D02*
X2432175D01*
X2430270Y2708703D02*
Y2712513D01*
X2442419Y2626278D02*
X2446229D01*
X2444324Y2624373D02*
Y2628183D01*
X2412617Y2710608D02*
X2416427D01*
X2414522Y2708703D02*
Y2712513D01*
X2381967Y2626278D02*
X2385777D01*
X2383872Y2624373D02*
Y2628183D01*
X2322277Y2626278D02*
X2326087D01*
X2324182Y2624373D02*
Y2628183D01*
X2793395Y3543380D02*
X2797206D01*
X2795301Y3541475D02*
Y3545285D01*
X2783997Y3596212D02*
X2787808D01*
X2785902Y3594307D02*
Y3598117D01*
X2668174Y3624406D02*
X2671984D01*
X2670078Y3622501D02*
Y3626311D01*
X2308223Y3613830D02*
X2312033D01*
X2310128Y3611925D02*
Y3615735D01*
X2631919Y3646359D02*
X2635729D01*
X2633824Y3644454D02*
Y3648264D01*
X2687732Y3547698D02*
X2691541D01*
X2689637Y3545793D02*
Y3549603D01*
X2700685Y3569542D02*
X2704496D01*
X2702591Y3567637D02*
Y3571447D01*
X2780695Y3563700D02*
X2784506D01*
X2782600Y3561795D02*
Y3565605D01*
X2726848Y3573606D02*
X2730657D01*
X2728752Y3571701D02*
Y3575511D01*
X2798476Y3594942D02*
X2802285D01*
X2800381Y3593037D02*
Y3596847D01*
X2671984Y3533982D02*
X2675793D01*
X2673889Y3532077D02*
Y3535887D01*
X2612802Y3534490D02*
X2616612D01*
X2614706Y3532585D02*
Y3536395D01*
X2714655Y3270584D02*
X2718466D01*
X2716560Y3268679D02*
Y3272489D01*
X2817271Y3513154D02*
X2821082D01*
X2819177Y3511249D02*
Y3515059D01*
X2817526Y3634058D02*
X2821335D01*
X2819431Y3632153D02*
Y3635963D01*
X2644619Y3646613D02*
X2648429D01*
X2646524Y3644708D02*
Y3648518D01*
X2606773Y3646613D02*
X2610583D01*
X2608678Y3644708D02*
Y3648518D01*
X1960685Y3569542D02*
X1964496D01*
X1962590Y3567637D02*
Y3571447D01*
X1947731Y3547698D02*
X1951541D01*
X1949637Y3545793D02*
Y3549603D01*
X2053396Y3543380D02*
X2057206D01*
X2055300Y3541475D02*
Y3545285D01*
X2040695Y3563700D02*
X2044505D01*
X2042601Y3561795D02*
Y3565605D01*
X2043997Y3596212D02*
X2047807D01*
X2045903Y3594307D02*
Y3598117D01*
X2058475Y3594942D02*
X2062285D01*
X2060381Y3593037D02*
Y3596847D01*
X2077525Y3634058D02*
X2081335D01*
X2079431Y3632153D02*
Y3635963D01*
X2077272Y3513154D02*
X2081082D01*
X2079176Y3511249D02*
Y3515059D01*
X1974655Y3270584D02*
X1978466D01*
X1976561Y3268679D02*
Y3272489D01*
X1872802Y3534490D02*
X1876611D01*
X1874707Y3532585D02*
Y3536395D01*
X1931983Y3533982D02*
X1935793D01*
X1933889Y3532077D02*
Y3535887D01*
X1753897Y3504356D02*
X1757707D01*
X1755802Y3502451D02*
Y3506261D01*
X1928174Y3624406D02*
X1931983D01*
X1930078Y3622501D02*
Y3626311D01*
X1866773Y3646613D02*
X1870583D01*
X1868678Y3644708D02*
Y3648518D01*
X1904619Y3646613D02*
X1908429D01*
X1906524Y3644708D02*
Y3648518D01*
X1891919Y3646359D02*
X1895729D01*
X1893824Y3644454D02*
Y3648264D01*
X1986848Y3573606D02*
X1990658D01*
X1988752Y3571701D02*
Y3575511D01*
X1488773Y2619762D02*
X1492583D01*
X1490678Y2617857D02*
Y2621667D01*
X1526190Y2612308D02*
X1530000D01*
X1528094Y2610403D02*
Y2614213D01*
X1793859Y2761528D02*
X1797669D01*
X1795764Y2759623D02*
Y2763433D01*
X1490245Y3517310D02*
X1494055D01*
X1492150Y3515405D02*
Y3519215D01*
X2067816Y2735720D02*
X2071626D01*
X2069721Y2733815D02*
Y2737625D01*
X1528175Y2729016D02*
X1531985D01*
X1530080Y2727111D02*
Y2730921D01*
X2137251Y2732298D02*
X2141061D01*
X2139156Y2730393D02*
Y2734203D01*
X2066194Y2657448D02*
X2070004D01*
X2068098Y2655543D02*
Y2659353D01*
X2137314Y2657448D02*
X2141124D01*
X2139218Y2655543D02*
Y2659353D01*
X1449989Y2612308D02*
X1453799D01*
X1451895Y2610403D02*
Y2614213D01*
X2101754Y2657448D02*
X2105564D01*
X2103658Y2655543D02*
Y2659353D01*
X1629691Y3362624D02*
X1633501D01*
X1631596Y3360719D02*
Y3364529D01*
X1543077Y3613830D02*
X1546887D01*
X1544982Y3611925D02*
Y3615735D01*
X1912477Y2760766D02*
X1916287D01*
X1914382Y2758861D02*
Y2762671D01*
X1852279Y2761020D02*
X1856089D01*
X1854184Y2759115D02*
Y2762925D01*
X2002309Y2655488D02*
X2006119D01*
X2004214Y2653583D02*
Y2657393D01*
X1942365Y2655488D02*
X1946175D01*
X1944270Y2653583D02*
Y2657393D01*
X1882505Y2655488D02*
X1886315D01*
X1884410Y2653583D02*
Y2657393D01*
X1822307Y2655488D02*
X1826117D01*
X1824212Y2653583D02*
Y2657393D01*
X1732645Y2761020D02*
X1736455D01*
X1734550Y2759115D02*
Y2762925D01*
X1672447Y2761020D02*
X1676257D01*
X1674352Y2759115D02*
Y2762925D01*
X1702165Y2655488D02*
X1705975D01*
X1704070Y2653583D02*
Y2657393D01*
X1762363Y2655488D02*
X1766173D01*
X1764268Y2653583D02*
Y2657393D01*
X1642475Y2655488D02*
X1646285D01*
X1644380Y2653583D02*
Y2657393D01*
X1582277Y2655488D02*
X1586087D01*
X1584182Y2653583D02*
Y2657393D01*
X2102469Y2735112D02*
X2106279D01*
X2104374Y2733207D02*
Y2737017D01*
X1488805Y2687868D02*
X1492615D01*
X1490710Y2685963D02*
Y2689773D01*
X1568223Y3613830D02*
X1572033D01*
X1570128Y3611925D02*
Y3615735D01*
X1753897Y3519850D02*
X1757707D01*
X1755802Y3517945D02*
Y3521755D01*
X1731799Y3623228D02*
X1735609D01*
X1733704Y3621323D02*
Y3625133D01*
X1593115Y3613576D02*
X1596925D01*
X1595020Y3611671D02*
Y3615481D01*
X1912647Y2710608D02*
X1916457D01*
X1914552Y2708703D02*
Y2712513D01*
X1852449Y2710608D02*
X1856259D01*
X1854354Y2708703D02*
Y2712513D01*
X1794029Y2710608D02*
X1797839D01*
X1795934Y2708703D02*
Y2712513D01*
X2152475Y2695620D02*
X2156285D01*
X2154380Y2693715D02*
Y2697525D01*
X2083641Y2695366D02*
X2087451D01*
X2085546Y2693461D02*
Y2697271D01*
X2119201Y2695112D02*
X2123011D01*
X2121106Y2693207D02*
Y2697017D01*
X2002393Y2626278D02*
X2006203D01*
X2004298Y2624373D02*
Y2628183D01*
X1942195Y2626278D02*
X1946005D01*
X1944100Y2624373D02*
Y2628183D01*
X1822561Y2626278D02*
X1826371D01*
X1824466Y2624373D02*
Y2628183D01*
X1882251Y2626278D02*
X1886061D01*
X1884156Y2624373D02*
Y2628183D01*
X1762363Y2626278D02*
X1766173D01*
X1764268Y2624373D02*
Y2628183D01*
X1600841Y2742478D02*
X1604651D01*
X1602746Y2740573D02*
Y2744383D01*
X1732561Y2710608D02*
X1736371D01*
X1734466Y2708703D02*
Y2712513D01*
X1672617Y2710608D02*
X1676427D01*
X1674522Y2708703D02*
Y2712513D01*
X1688365Y2710608D02*
X1692175D01*
X1690270Y2708703D02*
Y2712513D01*
X1702419Y2626278D02*
X1706229D01*
X1704324Y2624373D02*
Y2628183D01*
X1641967Y2626278D02*
X1645777D01*
X1643872Y2624373D02*
Y2628183D01*
X1582277Y2626278D02*
X1586087D01*
X1584182Y2624373D02*
Y2628183D01*
M02*
