M48
;Layer_Color=6321
;FILE_FORMAT=4:4
METRIC,LZ
;TYPE=PLATED
T03F00S00C0.6000
%
G90
G05
T03
G00X-00537856Y0038781
M15
G01Y0039381
M16
G00X-00509255Y00387809
M15
G01Y00393809
M16
G00X-00509255Y00472311
M15
G01Y00478311
M16
G00X-00537856Y00472306
M15
G01Y00478306
M16
G00X00202144Y00472306
M15
G01Y00478306
M16
G00X00230745Y00472311
M15
G01Y00478311
M16
G00X00230745Y00387809
M15
G01Y00393809
M16
G00X00202144Y0038781
M15
G01Y0039381
M16
G00X00942144Y0038781
M15
G01Y0039381
M16
G00X00970745Y00387809
M15
G01Y00393809
M16
G00X00970745Y00472311
M15
G01Y00478311
M16
G00X00942144Y00472306
M15
G01Y00478306
M16
G00X01682144Y00472306
M15
G01Y00478306
M16
G00X01710745Y00472311
M15
G01Y00478311
M16
G00X01710745Y00387809
M15
G01Y00393809
M16
G00X01682144Y0038781
M15
G01Y0039381
M16
M17
M30
