M48
;Layer_Color=6321
;FILE_FORMAT=4:4
METRIC,LZ
;TYPE=PLATED
T01F00S00C0.3810
T02F00S00C0.6000
T04F00S00C0.9000
T05F00S00C1.2000
T06F00S00C1.7900
T07F00S00C3.6000
T08F00S00C4.5000
%
T01
X-01120394Y-00497586
X-01087262Y-0052324
X-01048478Y-00515786
X-01011062Y-0052324
X-00954974Y-0050927
X-00954974Y-0048006
X-01048446Y-0044768
X-01009076Y-00406532
X-0093641Y-0039307
X-00864804Y-00374528
X-00864634Y-0042494
X-00848886Y-0042494
X-0080469Y-0042494
X-00804606Y-00374528
X-00743392Y-0037402
X-00743222Y-0042494
X-00684802Y-0042494
X-00684972Y-00374528
X-00624774Y-00374782
X-00624604Y-0042494
X-00594886Y-0048006
X-00595056Y-0050927
X-00655Y-0050927
X-00654746Y-0048006
X-00714944Y-0048006
X-0071469Y-0050927
X-00774888Y-0050927
X-00774888Y-0048006
X-00835086Y-0048006
X-00834832Y-0050927
X-00895284Y-0050927
X-00894776Y-0048006
X-00534942Y-0048006
X-00534858Y-0050927
X-00471058Y-004781
X-00435498Y-004781
X-00399938Y-004781
X-00384776Y-00439928
X-0041805Y-00440436
X-0045361Y-00440182
X-00469436Y-00399828
X-00434782Y-00400436
X-004Y-0040325
X-00269076Y-00406532
X-00308446Y-0044768
X-00308478Y-00515786
X-00271062Y-0052324
X-00214974Y-0050927
X-00214974Y-0048006
X-00154776Y-0048006
X-00155284Y-0050927
X-0019641Y-0039307
X-00347262Y-0052324
X-00094832Y-0050927
X-00095086Y-0048006
X-00034888Y-0048006
X-00034888Y-0050927
X0002531Y-0050927
X00025056Y-0048006
X00085254Y-0048006
X00085Y-0050927
X00144944Y-0050927
X00145114Y-0048006
X00205058Y-0048006
X00205142Y-0050927
X00115396Y-0042494
X00115226Y-00374782
X00055028Y-00374528
X00055198Y-0042494
X-00003222Y-0042494
X-00003392Y-0037402
X-00064606Y-00374528
X-0006469Y-0042494
X-00108886Y-0042494
X-00124634Y-0042494
X-00124804Y-00374528
X00270564Y-00399828
X00305218Y-00400436
X0034Y-0040325
X00355224Y-00439928
X0032195Y-00440436
X0028639Y-00440182
X00268942Y-004781
X00304502Y-004781
X00340062Y-004781
X00392738Y-0052324
X00431522Y-00515786
X00468938Y-0052324
X00525026Y-0050927
X00525026Y-0048006
X00585224Y-0048006
X00584716Y-0050927
X00615366Y-0042494
X00631114Y-0042494
X00615196Y-00374528
X0054359Y-0039307
X00470924Y-00406532
X00431554Y-0044768
X00644914Y-0048006
X00645168Y-0050927
X00705112Y-0050927
X00705112Y-0048006
X00765056Y-0048006
X0076531Y-0050927
X00825Y-0050927
X00825254Y-0048006
X00885114Y-0048006
X00884944Y-0050927
X00945142Y-0050927
X00945058Y-0048006
X01008942Y-004781
X0102639Y-00440182
X01010564Y-00399828
X00855396Y-0042494
X00855226Y-00374782
X00795028Y-00374528
X00795198Y-0042494
X00736778Y-0042494
X00736608Y-0037402
X00675394Y-00374528
X0067531Y-0042494
X01045218Y-00400436
X0108Y-0040325
X01095224Y-00439928
X0106195Y-00440436
X01044502Y-004781
X01080062Y-004781
X01132738Y-0052324
X01171702Y-00524256
X01208938Y-0052324
X01265026Y-0050927
X01265026Y-0048006
X01325224Y-0048006
X01324716Y-0050927
X01385168Y-0050927
X01384914Y-0048006
X01371114Y-0042494
X01355366Y-0042494
X01355196Y-00374528
X01415394Y-00374528
X0141531Y-0042494
X0128359Y-0039307
X01210924Y-00406532
X01171554Y-0044768
X01445112Y-0048006
X01445112Y-0050927
X0150531Y-0050927
X01505056Y-0048006
X01565254Y-0048006
X01565Y-0050927
X01624944Y-0050927
X01625114Y-0048006
X01685058Y-0048006
X01685142Y-0050927
X01729486Y-00557368
X01748942Y-004781
X01784502Y-004781
X01820062Y-004781
X0180195Y-00440436
X0176639Y-00440182
X01750564Y-00399828
X01785218Y-00400436
X0182Y-0040325
X01595396Y-0042494
X01595226Y-00374782
X01535028Y-00374528
X01535198Y-0042494
X01476778Y-0042494
X01476608Y-0037402
X01835224Y-00439928
X-00944136Y00478028
X-00969028Y00478282
X-00994174Y00478282
X-01047006Y00381762
X-00783354Y00384302
X-00783354Y00368808
X-00805452Y0048768
X-00609078Y00488858
X-00576566Y00433994
X-00550404Y00438058
X-0058952Y0041215
X-00605268Y00398434
X-0066445Y00398942
X-00562596Y00135036
X-0090756Y00227076
X-0045998Y00377606
X-00483856Y00407832
X-00496556Y00428152
X-00493254Y00460664
X-00478776Y00459394
X-00459726Y0049851
X-00254174Y00478282
X-00229028Y00478282
X-00204136Y00478028
X-00307006Y00381762
X-0016756Y00227076
X-00043354Y00368808
X-00043354Y00384302
X-00065452Y0048768
X00130922Y00488858
X00163434Y00433994
X00189596Y00438058
X00243444Y00428152
X0015048Y0041215
X00134732Y00398434
X0007555Y00398942
X00177404Y00135036
X0028002Y00377606
X00256144Y00407832
X00261224Y00459394
X00246746Y00460664
X00280274Y0049851
X00485826Y00478282
X00510972Y00478282
X00535864Y00478028
X00432994Y00381762
X0057244Y00227076
X00696646Y00368808
X00696646Y00384302
X00674548Y0048768
X00870922Y00488858
X00903434Y00433994
X00929596Y00438058
X00983444Y00428152
X00996144Y00407832
X0102002Y00377606
X01001224Y00459394
X00986746Y00460664
X01020274Y0049851
X0089048Y0041215
X00874732Y00398434
X0081555Y00398942
X00917404Y00135036
X0131244Y00227076
X01436646Y00368808
X01436646Y00384302
X01414548Y0048768
X01275864Y00478028
X01250972Y00478282
X01225826Y00478282
X01172994Y00381762
X0155555Y00398942
X01614732Y00398434
X0163048Y0041215
X01643434Y00433994
X01669596Y00438058
X01723444Y00428152
X01736144Y00407832
X0176002Y00377606
X01741224Y00459394
X01726746Y00460664
X01760274Y0049851
X01610922Y00488858
X01657404Y00135036
X01587367Y00511065
X01574667Y00510811
X01549521Y00511065
X00847367Y00511065
X00834667Y00510811
X00809521Y00511065
X00107367Y00511065
X00094667Y00510811
X00069521Y00511065
X-00632633Y00511065
X-00645333Y00510811
X-00670479Y00511065
T02
X-019075Y-006175
X-01912866Y-00609471
X-0191475Y-006
X-0191287Y-0059053
X-019075Y-005825
X-01899471Y-00577134
X-0189Y-0057525
X-0188053Y-0057713
X-018725Y-005825
X-01867134Y-00590529
X-0186525Y-006
X-0186713Y-0060947
X-018725Y-006175
X-01880529Y-00622866
X-0189Y-0062475
X-0189947Y-0062287
X-00022326Y-006175
X-00027692Y-00609471
X-00029576Y-006
X-00027696Y-0059053
X-00022326Y-005825
X-00014297Y-00577134
X-00004826Y-0057525
X00004644Y-0057713
X00012674Y-005825
X0001804Y-00590529
X00019924Y-006
X00018044Y-0060947
X00012674Y-006175
X00004645Y-00622866
X-00004826Y-0062475
X-00014296Y-0062287
X018725Y-006175
X01867134Y-00609471
X0186525Y-006
X0186713Y-0059053
X018725Y-005825
X01880529Y-00577134
X0189Y-0057525
X0189947Y-0057713
X019075Y-005825
X01912866Y-00590529
X0191475Y-006
X0191287Y-0060947
X019075Y-006175
X01899471Y-00622866
X0189Y-0062475
X0188053Y-0062287
X0188053Y0057713
X0189Y0057525
X01899471Y00577134
X019075Y005825
X0191287Y0059053
X0191475Y006
X01912866Y00609471
X019075Y006175
X0189947Y0062287
X0189Y0062475
X01880529Y00622866
X018725Y006175
X0186713Y0060947
X0186525Y006
X01867134Y00590529
X018725Y005825
X000175Y005825
X00009471Y00577134
X0Y0057525
X-0000947Y0057713
X-000175Y005825
X-00022866Y00590529
X-0002475Y006
X-0002287Y0060947
X-000175Y006175
X-00009471Y00622866
X0Y0062475
X0000947Y0062287
X000175Y006175
X00022866Y00609471
X0002475Y006
X0002287Y0059053
X-0186713Y0059053
X-0186525Y006
X-01867134Y00609471
X-018725Y006175
X-0188053Y0062287
X-0189Y0062475
X-01899471Y00622866
X-019075Y006175
X-0191287Y0060947
X-0191475Y006
X-01912866Y00590529
X-019075Y005825
X-0189947Y0057713
X-0189Y0057525
X-01880529Y00577134
X-018725Y005825
T04
X01445Y-0023
X01485Y-0023
X01535Y-0023
X01575Y-0023
X01535Y-0015
X01705Y-0015
X01705Y-0011
X01755Y-0005
X01755Y-0002
X01755Y0001
X01755Y0004
X01759988Y00089662
X01725635Y0008801
X01685Y0009
X01675Y0002
X01655Y-0003
X01425Y-0005
X01275Y-0004
X01275Y0003
X01275Y0008
X01275Y-0015
X00965Y-0015
X00965Y-0011
X01015Y-0005
X01015Y-0002
X01015Y0001
X01015Y0004
X01019988Y00089662
X00985635Y0008801
X00945Y0009
X00935Y0002
X00915Y-0003
X00795Y-0015
X00795Y-0023
X00835Y-0023
X00745Y-0023
X00705Y-0023
X00685Y-0005
X00535Y-0004
X00535Y0003
X00535Y0008
X00535Y-0015
X00275Y-0005
X00275Y-0002
X00275Y0001
X00275Y0004
X00279988Y00089662
X00245635Y0008801
X00205Y0009
X00195Y0002
X00175Y-0003
X00225Y-0011
X00225Y-0015
X00055Y-0015
X00055Y-0023
X00095Y-0023
X00005Y-0023
X-00035Y-0023
X-00055Y-0005
X-00205Y-0004
X-00205Y0003
X-00205Y0008
X-00205Y-0015
X-00515Y-0015
X-00515Y-0011
X-00465Y-0005
X-00465Y-0002
X-00465Y0001
X-00465Y0004
X-00460012Y00089662
X-00494365Y0008801
X-00535Y0009
X-00545Y0002
X-00565Y-0003
X-00685Y-0015
X-00685Y-0023
X-00645Y-0023
X-00735Y-0023
X-00775Y-0023
X-00795Y-0005
X-00945Y-0004
X-00945Y0003
X-00945Y0008
X-00945Y-0015
X-007958Y0017145
X-007958Y0022225
X-008339Y0022225
X-00765Y0024
X-00695Y0022
X-00655Y0022
X-000939Y0022225
X-000558Y0022225
X-00025Y0024
X00045Y0022
X00085Y0022
X-000558Y0017145
X006842Y0017145
X006842Y0022225
X006461Y0022225
X00715Y0024
X00785Y0022
X00825Y0022
X013861Y0022225
X014242Y0022225
X014242Y0017145
X01455Y0024
X01525Y0022
X01565Y0022
T05
X-01785Y-00475
X-0175Y-00475
X-0175Y-00425
X-01785Y-00425
X-01715Y-00425
X-01715Y-00475
X-0175Y00425
X-01785Y00425
X-01785Y00475
X-0175Y00475
X-01715Y00475
X-01715Y00425
T06
X01795Y-0025
X01155Y-0025
X01055Y-0025
X00415Y-0025
X00315Y-0025
X-00325Y-0025
X-00425Y-0025
X-01065Y-0025
X-01065Y0025
X-00425Y0025
X-00325Y0025
X00315Y0025
X00415Y0025
X01055Y0025
X01155Y0025
X01795Y0025
T07
X-0189Y-006
X-00004826Y-006
X0189Y-006
X0189Y006
X0Y006
X-0189Y006
T08
X01717316Y-00242316
X01232684Y-00242316
X00977316Y-00242316
X00492684Y-00242316
X00237316Y-00242316
X-00247316Y-00242316
X-00502684Y-00242316
X-00987316Y-00242316
X-00987316Y00242316
X-00502684Y00242316
X-00247316Y00242316
X00237316Y00242316
X00492684Y00242316
X00977316Y00242316
X01232684Y00242316
X01717316Y00242316
M30
