M48
;Layer_Color=6321
;FILE_FORMAT=4:4
METRIC,LZ
;TYPE=NON_PLATED
T09F00S00C0.7000
T10F00S00C0.9652
T11F00S00C1.8000
%
T09
X-00538556Y0037906
X-00508556Y00487059
X00231444Y00487059
X00201444Y0037906
X00941444Y0037906
X00971444Y00487059
X01711444Y00487059
X01681444Y0037906
T10
X-0066445Y004693
X-0062635Y004693
X0007555Y004693
X0011365Y004693
X0081555Y004693
X0085365Y004693
X0155555Y004693
X0159365Y004693
T11
X-010331Y0043
X-009569Y0043
X-002931Y0043
X-002169Y0043
X004469Y0043
X005231Y0043
X011869Y0043
X012631Y0043
M30
