M48
;Layer_Color=6321
;FILE_FORMAT=4:4
METRIC,LZ
T12F00S00C5.0800
%
G90
G05
T12
G00X01898153Y-00685077
M15
G01X01900983Y-00684758
G01X01907627Y-00683629
G01X01910404Y-00682995
G01X0191688Y-0068113
G01X01919568Y-00680189
G01X01925794Y-0067761
G01X0192836Y-00676374
G01X01934259Y-00673114
G01X0193667Y-00671599
G01X01942167Y-00667699
G01X01944394Y-00665923
G01X01949418Y-00661433
G01X01951432Y-00659418
G01X01955923Y-00654394
G01X01957699Y-00652167
G01X01961599Y-00646671
G01X01963114Y-00644259
G01X01966374Y-0063836
G01X0196761Y-00635794
G01X01970189Y-00629568
G01X0197113Y-0062688
G01X01972995Y-00620404
G01X01973629Y-00617627
G01X01974758Y-00610983
G01X01975077Y-00608153
G01X01975454Y-00601424
G01X01975392Y-00600002
G01X019754Y-00600002
G01X01975454Y00601424
G01X01975077Y00608152
G01X01974758Y00610983
G01X01973629Y00617627
G01X01972995Y00620404
G01X0197113Y00626879
G01X01970189Y00629568
G01X0196761Y00635794
G01X01966374Y0063836
G01X01963114Y00644258
G01X01961599Y0064667
G01X01957699Y00652166
G01X01955923Y00654393
G01X01951432Y00659418
G01X01949418Y00661432
G01X01944394Y00665923
G01X01942167Y00667699
G01X0193667Y00671599
G01X01934259Y00673114
G01X0192836Y00676374
G01X01925794Y0067761
G01X01919568Y00680188
G01X0191688Y00681129
G01X01910404Y00682995
G01X01907627Y00683629
G01X01900983Y00684758
G01X01898153Y00685076
G01X01891424Y00685454
G01X01890001Y00685392
G01X01890001Y006854
G01X-01891424Y00685455
G01X-01898153Y00685077
G01X-01900983Y00684758
G01X-01907627Y00683629
G01X-01910404Y00682995
G01X-0191688Y0068113
G01X-01919568Y00680189
G01X-01925794Y0067761
G01X-0192836Y00676374
G01X-01934259Y00673114
G01X-0193667Y00671599
G01X-01942167Y00667699
G01X-01944394Y00665923
G01X-01949418Y00661432
G01X-01951432Y00659418
G01X-01955923Y00654394
G01X-01957699Y00652167
G01X-01961599Y00646671
G01X-01963114Y00644259
G01X-01966374Y0063836
G01X-0196761Y00635794
G01X-01970189Y00629568
G01X-0197113Y0062688
G01X-01972995Y00620404
G01X-01973629Y00617627
G01X-01974758Y00610983
G01X-01975077Y00608153
G01X-01975454Y00601424
G01X-01975392Y00600002
G01X-019754Y00600002
G01X-01975454Y-00601424
G01X-01975077Y-00608153
G01X-01974758Y-00610983
G01X-01973629Y-00617627
G01X-01972995Y-00620404
G01X-0197113Y-0062688
G01X-01970189Y-00629568
G01X-0196761Y-00635794
G01X-01966374Y-0063836
G01X-01963114Y-00644259
G01X-01961599Y-00646671
G01X-01957699Y-00652167
G01X-01955923Y-00654394
G01X-01951432Y-00659418
G01X-01949418Y-00661432
G01X-01944394Y-00665923
G01X-01942167Y-00667699
G01X-0193667Y-00671599
G01X-01934259Y-00673114
G01X-0192836Y-00676374
G01X-01925794Y-0067761
G01X-01919568Y-00680189
G01X-0191688Y-0068113
G01X-01910404Y-00682995
G01X-01907627Y-00683629
G01X-01900983Y-00684758
G01X-01898153Y-00685077
G01X-01891424Y-00685455
G01X-01890001Y-00685392
G01X-01890001Y-006854
G01X01891424Y-00685455
G01X01898153Y-00685077
M16
M17
M30
