<svg xmlns:xlink="http://www.w3.org/1999/xlink" version="1.1" width="410.0" height="365.85" xmlns="http://www.w3.org/2000/svg">
  <g id="scene">
    <path d="M329.44 64.83 L329.44 64.83 M329.44 64.28 L329.44 64.28 M329.44 69.83 L329.44 69.83 M329.44 69.28 L329.44 69.28 M255.44 64.83 L255.44 64.83 M255.44 64.28 L255.44 64.28 M255.44 69.77 L255.44 69.77 M255.44 69.22 L255.44 69.22 M181.94 64.83 L181.94 64.83 M181.94 64.28 L181.94 64.28 M181.94 69.83 L181.94 69.83 M181.94 69.28 L181.94 69.28 M106.69 64.83 L106.69 64.83 M106.69 64.28 L106.69 64.28 M106.69 69.83 L106.69 69.83 M106.69 69.28 L106.69 69.28" data-layerIndex="33" stroke="#000000FF" stroke-width=".2" stroke-linecap="round" fill="none" />
    <path d="M320.0 106.47 L320.0 92.75 M322.03 108.5 L352.13 108.5 M352.26 108.37 L352.26 107.1 M352.38 106.98 L366.74 106.98 M366.86 108.37 L366.86 107.1 M366.99 108.5 L389.85 108.5 M391.88 106.47 L391.88 89.2 M390.34 88.94 L390.34 82.21 M390.47 89.07 L390.23 89.07 M390.47 82.08 L391.74 82.08 M390.48 89.07 L391.75 89.07 M392.0 82.08 L391.75 82.08 M391.88 81.96 L391.88 38.65 M320.0 52.24 L320.0 38.65 M322.03 36.62 L345.4 36.62 M345.53 38.02 L345.53 36.75 M345.65 38.14 L366.23 38.14 M366.35 38.02 L366.35 36.75 M366.48 36.62 L389.85 36.62 M320.13 52.37 L321.4 52.37 M320.13 92.63 L321.4 92.63 M321.52 92.5 L321.52 52.49 M246.0 106.47 L246.0 92.75 M248.03 108.5 L278.13 108.5 M278.26 108.37 L278.26 107.1 M278.38 106.98 L292.74 106.98 M292.86 108.37 L292.86 107.1 M292.99 108.5 L315.85 108.5 M317.88 106.47 L317.88 89.2 M316.34 88.94 L316.34 82.21 M316.47 89.07 L316.23 89.07 M316.47 82.08 L317.74 82.08 M316.48 89.07 L317.75 89.07 M318.0 82.08 L317.75 82.08 M317.88 81.96 L317.88 38.65 M246.0 52.24 L246.0 38.65 M248.03 36.62 L271.4 36.62 M271.53 38.02 L271.53 36.75 M271.65 38.14 L292.23 38.14 M292.35 38.02 L292.35 36.75 M292.48 36.62 L315.85 36.62 M246.13 52.37 L247.4 52.37 M246.13 92.63 L247.4 92.63 M247.52 92.5 L247.52 52.49 M172.0 106.47 L172.0 92.75 M174.03 108.5 L204.13 108.5 M204.26 108.37 L204.26 107.1 M204.38 106.98 L218.74 106.98 M218.86 108.37 L218.86 107.1 M218.99 108.5 L241.85 108.5 M243.88 106.47 L243.88 89.2 M242.34 88.94 L242.34 82.21 M242.47 89.07 L242.23 89.07 M242.47 82.08 L243.74 82.08 M242.48 89.07 L243.75 89.07 M244.0 82.08 L243.75 82.08 M243.88 81.96 L243.88 38.65 M172.0 52.24 L172.0 38.65 M174.03 36.62 L197.4 36.62 M197.53 38.02 L197.53 36.75 M197.65 38.14 L218.23 38.14 M218.35 38.02 L218.35 36.75 M218.48 36.62 L241.85 36.62 M172.13 52.37 L173.4 52.37 M172.13 92.63 L173.4 92.63 M173.52 92.5 L173.52 52.49 M98.0 106.47 L98.0 92.75 M100.03 108.5 L130.13 108.5 M130.26 108.37 L130.26 107.1 M130.38 106.98 L144.74 106.98 M144.86 108.37 L144.86 107.1 M144.99 108.5 L167.85 108.5 M169.88 106.47 L169.88 89.2 M168.34 88.94 L168.34 82.21 M168.47 89.07 L168.23 89.07 M168.47 82.08 L169.74 82.08 M168.48 89.07 L169.75 89.07 M170.0 82.08 L169.75 82.08 M169.88 81.96 L169.88 38.65 M98.0 52.24 L98.0 38.65 M100.03 36.62 L123.4 36.62 M123.53 38.02 L123.53 36.75 M123.65 38.14 L144.23 38.14 M144.35 38.02 L144.35 36.75 M144.48 36.62 L167.85 36.62 M98.13 52.37 L99.4 52.37 M98.13 92.63 L99.4 92.63 M99.52 92.5 L99.52 52.49" data-layerIndex="33" stroke="#000000FF" stroke-width=".25" stroke-linecap="round" fill="none" />
    <path d="M376.5 32.1 L376.5 26.32 M379.66 32.1 L379.66 26.32" data-layerIndex="33" stroke="#000000FF" stroke-width=".05" stroke-linecap="round" fill="none" />
    <path d="M380.22 24.75 L380.51 24.75 M380.58 24.68 L380.58 23.33 M375.66 23.25 L380.51 23.25 M375.58 24.68 L375.58 23.33 M375.66 24.75 L375.95 24.75 M380.58 35.18 L380.58 33.83 M380.22 33.75 L380.51 33.75 M375.66 35.25 L380.51 35.25 M375.58 35.18 L375.58 33.83 M375.66 33.75 L375.95 33.75" data-layerIndex="33" stroke="#000000FF" stroke-width=".15" stroke-linecap="round" fill="none" />
    <path d="M381.93 27.46 L381.93 27.46 M381.93 28.01 L381.93 28.01" data-layerIndex="33" stroke="#000000FF" stroke-width=".2" stroke-linecap="round" fill="none" />
    <path d="M302.5 32.1 L302.5 26.32 M305.66 32.1 L305.66 26.32" data-layerIndex="33" stroke="#000000FF" stroke-width=".05" stroke-linecap="round" fill="none" />
    <path d="M306.22 24.75 L306.51 24.75 M306.58 24.68 L306.58 23.33 M301.66 23.25 L306.51 23.25 M301.58 24.68 L301.58 23.33 M301.66 24.75 L301.95 24.75 M306.58 35.18 L306.58 33.83 M306.22 33.75 L306.51 33.75 M301.66 35.25 L306.51 35.25 M301.58 35.18 L301.58 33.83 M301.66 33.75 L301.95 33.75" data-layerIndex="33" stroke="#000000FF" stroke-width=".15" stroke-linecap="round" fill="none" />
    <path d="M307.93 27.46 L307.93 27.46 M307.93 28.01 L307.93 28.01" data-layerIndex="33" stroke="#000000FF" stroke-width=".2" stroke-linecap="round" fill="none" />
    <path d="M228.5 32.1 L228.5 26.32 M231.66 32.1 L231.66 26.32" data-layerIndex="33" stroke="#000000FF" stroke-width=".05" stroke-linecap="round" fill="none" />
    <path d="M232.22 24.75 L232.51 24.75 M232.58 24.68 L232.58 23.33 M227.66 23.25 L232.51 23.25 M227.58 24.68 L227.58 23.33 M227.66 24.75 L227.95 24.75 M232.58 35.18 L232.58 33.83 M232.22 33.75 L232.51 33.75 M227.66 35.25 L232.51 35.25 M227.58 35.18 L227.58 33.83 M227.66 33.75 L227.95 33.75" data-layerIndex="33" stroke="#000000FF" stroke-width=".15" stroke-linecap="round" fill="none" />
    <path d="M233.93 27.46 L233.93 27.46 M233.93 28.01 L233.93 28.01" data-layerIndex="33" stroke="#000000FF" stroke-width=".2" stroke-linecap="round" fill="none" />
    <path d="M27.57 19.71 L39.31 19.71 M27.57 34.21 L39.31 34.21 M27.44 34.08 L27.44 19.84 M39.44 34.08 L39.44 19.84 M13.53 12.65 L13.35 12.47" data-layerIndex="33" stroke="#000000FF" stroke-width=".25" stroke-linecap="round" fill="none" />
    <path d="M154.5 32.1 L154.5 26.32 M157.66 32.1 L157.66 26.32" data-layerIndex="33" stroke="#000000FF" stroke-width=".05" stroke-linecap="round" fill="none" />
    <path d="M158.22 24.75 L158.51 24.75 M158.58 24.68 L158.58 23.33 M153.66 23.25 L158.51 23.25 M153.58 24.68 L153.58 23.33 M153.66 24.75 L153.95 24.75 M158.58 35.18 L158.58 33.83 M158.22 33.75 L158.51 33.75 M153.66 35.25 L158.51 35.25 M153.58 35.18 L153.58 33.83 M153.66 33.75 L153.95 33.75" data-layerIndex="33" stroke="#000000FF" stroke-width=".15" stroke-linecap="round" fill="none" />
    <path d="M159.93 27.46 L159.93 27.46 M159.93 28.01 L159.93 28.01 M373.52 31.07 L373.52 31.07 M373.52 31.62 L373.52 31.62 M373.52 29.8 L373.52 29.8 M373.52 30.35 L373.52 30.35 M373.52 26.62 L373.52 26.62 M373.52 27.17 L373.52 27.17 M373.52 27.89 L373.52 27.89 M373.52 28.44 L373.52 28.44 M373.49 33.83 L373.49 33.83 M373.49 33.28 L373.49 33.28 M368.67 31.98 L368.67 31.98 M369.22 31.98 L369.22 31.98 M367.4 31.98 L367.4 31.98 M367.95 31.98 L367.95 31.98 M364.61 31.98 L364.61 31.98 M365.16 31.98 L365.16 31.98 M365.88 31.98 L365.88 31.98 M366.43 31.98 L366.43 31.98 M299.52 31.07 L299.52 31.07 M299.52 31.62 L299.52 31.62 M299.52 29.8 L299.52 29.8 M299.52 30.35 L299.52 30.35 M299.52 26.62 L299.52 26.62 M299.52 27.17 L299.52 27.17 M299.52 27.89 L299.52 27.89 M299.52 28.44 L299.52 28.44 M299.49 33.83 L299.49 33.83 M299.49 33.28 L299.49 33.28 M294.67 31.98 L294.67 31.98 M295.22 31.98 L295.22 31.98 M293.4 31.98 L293.4 31.98 M293.95 31.98 L293.95 31.98 M290.61 31.98 L290.61 31.98 M291.16 31.98 L291.16 31.98 M291.88 31.98 L291.88 31.98 M292.43 31.98 L292.43 31.98 M225.52 31.07 L225.52 31.07 M225.52 31.62 L225.52 31.62 M225.52 29.8 L225.52 29.8 M225.52 30.35 L225.52 30.35 M225.52 26.62 L225.52 26.62 M225.52 27.17 L225.52 27.17 M225.52 27.89 L225.52 27.89 M225.52 28.44 L225.52 28.44 M225.49 33.83 L225.49 33.83 M225.49 33.28 L225.49 33.28 M220.67 31.98 L220.67 31.98 M221.22 31.98 L221.22 31.98 M219.4 31.98 L219.4 31.98 M219.95 31.98 L219.95 31.98 M216.61 31.98 L216.61 31.98 M217.16 31.98 L217.16 31.98 M217.88 31.98 L217.88 31.98 M218.43 31.98 L218.43 31.98 M143.88 31.98 L143.88 31.98 M144.43 31.98 L144.43 31.98 M142.61 31.98 L142.61 31.98 M143.16 31.98 L143.16 31.98 M146.67 31.98 L146.67 31.98 M147.22 31.98 L147.22 31.98 M145.4 31.98 L145.4 31.98 M145.95 31.98 L145.95 31.98 M151.49 33.83 L151.49 33.83 M151.49 33.28 L151.49 33.28 M151.52 26.62 L151.52 26.62 M151.52 27.17 L151.52 27.17 M151.52 27.89 L151.52 27.89 M151.52 28.44 L151.52 28.44 M151.52 29.8 L151.52 29.8 M151.52 30.35 L151.52 30.35 M151.52 31.07 L151.52 31.07 M151.52 31.62 L151.52 31.62" data-layerIndex="33" stroke="#000000FF" stroke-width=".2" stroke-linecap="round" fill="none" />
    <path d="M161.81 25.71 L167.65 25.71 M167.78 31.67 L167.78 25.83 M161.81 31.8 L167.65 31.8 M161.68 31.67 L161.68 25.83 M27.44 125.28 L27.44 111.04 M39.44 125.28 L39.44 111.04 M27.57 110.91 L39.31 110.91 M27.57 125.41 L39.31 125.41 M341.55 116.28 L341.55 116.28 M341.43 116.15 L341.43 110.99 M346.45 116.13 L346.45 112.09 M346.35 116.25 L346.33 116.25 M346.34 111.85 L346.37 111.87 M341.55 110.87 L341.55 110.87 M347.55 116.28 L347.55 116.28 M347.43 116.15 L347.43 110.99 M352.45 116.13 L352.45 112.09 M352.35 116.25 L352.33 116.25 M352.34 111.85 L352.37 111.87 M347.55 110.87 L347.55 110.87 M353.72 116.23 L353.72 116.23 M353.59 116.1 L353.59 110.94 M358.62 116.08 L358.62 112.04 M358.52 116.2 L358.49 116.2 M358.51 111.8 L358.53 111.82 M353.72 110.82 L353.72 110.82 M359.55 116.28 L359.55 116.28 M359.43 116.15 L359.43 110.99 M364.45 116.13 L364.45 112.09 M364.35 116.25 L364.33 116.25 M364.34 111.85 L364.37 111.87 M359.55 110.87 L359.55 110.87 M365.55 116.28 L365.55 116.28 M365.43 116.15 L365.43 110.99 M370.45 116.13 L370.45 112.09 M370.35 116.25 L370.33 116.25 M370.34 111.85 L370.37 111.87 M365.55 110.87 L365.55 110.87 M267.55 116.28 L267.55 116.28 M267.43 116.15 L267.43 110.99 M272.45 116.13 L272.45 112.09 M272.35 116.25 L272.33 116.25 M272.34 111.85 L272.37 111.87 M267.55 110.87 L267.55 110.87 M273.55 116.28 L273.55 116.28 M273.43 116.15 L273.43 110.99 M278.45 116.13 L278.45 112.09 M278.35 116.25 L278.33 116.25 M278.34 111.85 L278.37 111.87 M273.55 110.87 L273.55 110.87 M279.72 116.23 L279.72 116.23 M279.59 116.1 L279.59 110.94 M284.62 116.08 L284.62 112.04 M284.52 116.2 L284.49 116.2 M284.51 111.8 L284.53 111.82 M279.72 110.82 L279.72 110.82 M285.55 116.28 L285.55 116.28 M285.43 116.15 L285.43 110.99 M290.45 116.13 L290.45 112.09 M290.35 116.25 L290.33 116.25 M290.34 111.85 L290.37 111.87 M285.55 110.87 L285.55 110.87 M291.55 116.28 L291.55 116.28 M291.43 116.15 L291.43 110.99 M296.45 116.13 L296.45 112.09 M296.35 116.25 L296.33 116.25 M296.34 111.85 L296.37 111.87 M291.55 110.87 L291.55 110.87 M193.55 116.28 L193.55 116.28 M193.43 116.15 L193.43 110.99 M198.45 116.13 L198.45 112.09 M198.35 116.25 L198.33 116.25 M198.34 111.85 L198.37 111.87 M193.55 110.87 L193.55 110.87 M199.55 116.28 L199.55 116.28 M199.43 116.15 L199.43 110.99 M204.45 116.13 L204.45 112.09 M204.35 116.25 L204.33 116.25 M204.34 111.85 L204.37 111.87 M199.55 110.87 L199.55 110.87 M205.72 116.23 L205.72 116.23 M205.59 116.1 L205.59 110.94 M210.62 116.08 L210.62 112.04 M210.52 116.2 L210.49 116.2 M210.51 111.8 L210.53 111.82 M205.72 110.82 L205.72 110.82 M211.55 116.28 L211.55 116.28 M211.43 116.15 L211.43 110.99 M216.45 116.13 L216.45 112.09 M216.35 116.25 L216.33 116.25 M216.34 111.85 L216.37 111.87 M211.55 110.87 L211.55 110.87 M217.55 116.28 L217.55 116.28 M217.43 116.15 L217.43 110.99 M222.45 116.13 L222.45 112.09 M222.35 116.25 L222.33 116.25 M222.34 111.85 L222.37 111.87 M217.55 110.87 L217.55 110.87 M119.55 116.28 L119.55 116.28 M119.43 116.15 L119.43 110.99 M124.45 116.13 L124.45 112.09 M124.35 116.25 L124.33 116.25 M124.34 111.85 L124.37 111.87 M119.55 110.87 L119.55 110.87 M125.55 116.28 L125.55 116.28 M125.43 116.15 L125.43 110.99 M130.45 116.13 L130.45 112.09 M130.35 116.25 L130.33 116.25 M130.34 111.85 L130.37 111.87 M125.55 110.87 L125.55 110.87 M131.72 116.23 L131.72 116.23 M131.59 116.1 L131.59 110.94 M136.62 116.08 L136.62 112.04 M136.52 116.2 L136.49 116.2 M136.51 111.8 L136.53 111.82 M131.72 110.82 L131.72 110.82 M137.55 116.28 L137.55 116.28 M137.43 116.15 L137.43 110.99 M142.45 116.13 L142.45 112.09 M142.35 116.25 L142.33 116.25 M142.34 111.85 L142.37 111.87 M137.55 110.87 L137.55 110.87 M143.55 116.28 L143.55 116.28 M143.43 116.15 L143.43 110.99 M148.45 116.13 L148.45 112.09 M148.35 116.25 L148.33 116.25 M148.34 111.85 L148.37 111.87 M143.55 110.87 L143.55 110.87 M235.81 25.71 L241.65 25.71 M241.78 31.67 L241.78 25.83 M235.81 31.8 L241.65 31.8 M235.68 31.67 L235.68 25.83 M309.81 25.71 L315.65 25.71 M315.78 31.67 L315.78 25.83 M309.81 31.8 L315.65 31.8 M309.68 31.67 L309.68 25.83 M383.81 25.71 L389.65 25.71 M389.78 31.67 L389.78 25.83 M383.81 31.8 L389.65 31.8 M383.68 31.67 L383.68 25.83" data-layerIndex="33" stroke="#000000FF" stroke-width=".25" stroke-linecap="round" fill="none" />
    <path d="M389.01 118.76 L389.01 118.76 M388.26 118.76 L388.26 118.76 M392.41 118.69 L392.41 118.69 M391.66 118.69 L391.66 118.69 M385.45 118.74 L385.45 118.74 M384.7 118.74 L384.7 118.74" data-layerIndex="33" stroke="#000000FF" stroke-width=".2" stroke-linecap="round" fill="none" />
    <path d="M353.22 31.7 L353.22 31.7 M353.35 31.57 L358.51 31.57 M353.37 36.6 L357.41 36.6 M353.25 36.47 L353.25 36.5 M357.63 36.51 L357.65 36.49 M358.63 31.7 L358.63 31.7" data-layerIndex="33" stroke="#000000FF" stroke-width=".25" stroke-linecap="round" fill="none" />
    <path d="M331.08 112.5 L331.68 112.5 M330.98 112.4 L330.98 111.8 M331.08 109.5 L331.68 109.5 M330.98 110.2 L330.98 109.6" data-layerIndex="33" stroke="#000000FF" stroke-width=".2" stroke-linecap="round" fill="none" />
    <path d="M332.55 124.78 L332.55 124.78 M332.43 124.65 L332.43 119.49 M337.45 124.63 L337.45 120.59 M337.35 124.75 L337.33 124.75 M337.34 120.35 L337.37 120.37 M332.55 119.37 L332.55 119.37 M338.55 124.78 L338.55 124.78 M338.43 124.65 L338.43 119.49 M343.45 124.63 L343.45 120.59 M343.35 124.75 L343.33 124.75 M343.34 120.35 L343.37 120.37 M338.55 119.37 L338.55 119.37 M344.55 124.78 L344.55 124.78 M344.43 124.65 L344.43 119.49 M349.45 124.63 L349.45 120.59 M349.35 124.75 L349.33 124.75 M349.34 120.35 L349.37 120.37 M344.55 119.37 L344.55 119.37 M350.55 124.78 L350.55 124.78 M350.43 124.65 L350.43 119.49 M355.45 124.63 L355.45 120.59 M355.35 124.75 L355.33 124.75 M355.34 120.35 L355.37 120.37 M350.55 119.37 L350.55 119.37 M356.55 124.78 L356.55 124.78 M356.43 124.65 L356.43 119.49 M361.45 124.63 L361.45 120.59 M361.35 124.75 L361.33 124.75 M361.34 120.35 L361.37 120.37 M356.55 119.37 L356.55 119.37 M362.55 124.78 L362.55 124.78 M362.43 124.65 L362.43 119.49 M367.45 124.63 L367.45 120.59 M367.35 124.75 L367.33 124.75 M367.34 120.35 L367.37 120.37 M362.55 119.37 L362.55 119.37 M368.55 124.78 L368.55 124.78 M368.43 124.65 L368.43 119.49 M373.45 124.63 L373.45 120.59 M373.35 124.75 L373.33 124.75 M373.34 120.35 L373.37 120.37 M368.55 119.37 L368.55 119.37 M374.55 124.78 L374.55 124.78 M374.43 124.65 L374.43 119.49 M379.45 124.63 L379.45 120.59 M379.35 124.75 L379.33 124.75 M379.34 120.35 L379.37 120.37 M374.55 119.37 L374.55 119.37" data-layerIndex="33" stroke="#000000FF" stroke-width=".25" stroke-linecap="round" fill="none" />
    <path d="M371.97 116.5 L371.97 115.94 M371.97 112.18 L371.97 111.62 M377.82 111.56 L379.85 111.56 M372.03 111.56 L374.06 111.56 M379.92 116.5 L379.92 115.94 M379.92 112.18 L379.92 111.62 M372.03 116.56 L379.85 116.56" data-layerIndex="33" stroke="#000000FF" stroke-width=".13" stroke-linecap="round" fill="none" />
    <path d="M323.79 109.91 L326.39 109.91 M323.79 116.61 L326.39 116.61 M323.69 116.51 L323.69 110.01 M326.49 116.51 L326.49 110.01 M348.45 28.64 L348.45 28.64 M348.45 27.99 L348.45 27.99 M335.35 111.54 L335.35 111.54 M335.35 112.19 L335.35 112.19 M383.99 114.66 L383.99 114.46 M382.89 114.66 L382.89 114.46 M390.99 114.63 L390.99 114.43 M389.89 114.63 L389.89 114.43 M326.12 119.46 L326.12 119.26 M325.02 119.46 L325.02 119.26 M322.31 119.46 L322.31 119.26 M321.21 119.46 L321.21 119.26 M329.93 119.46 L329.93 119.26 M328.83 119.46 L328.83 119.26 M387.49 114.66 L387.49 114.46 M386.39 114.66 L386.39 114.46 M383.99 118.66 L383.99 118.46 M382.89 118.66 L382.89 118.46 M390.99 118.63 L390.99 118.43 M389.89 118.63 L389.89 118.43 M326.12 123.27 L326.12 123.07 M325.02 123.27 L325.02 123.07 M322.31 123.27 L322.31 123.07 M321.21 123.27 L321.21 123.07 M329.93 123.27 L329.93 123.07 M328.83 123.27 L328.83 123.07 M387.49 118.66 L387.49 118.46 M386.39 118.66 L386.39 118.46" data-layerIndex="33" stroke="#000000FF" stroke-width=".2" stroke-linecap="round" fill="none" />
    <path d="M358.99 29.01 L358.99 23.16 M353.02 29.13 L358.86 29.13 M352.89 29.01 L352.89 23.16 M353.02 23.04 L358.86 23.04" data-layerIndex="33" stroke="#000000FF" stroke-width=".25" stroke-linecap="round" fill="none" />
    <path d="M315.01 118.76 L315.01 118.76 M314.26 118.76 L314.26 118.76 M318.41 118.69 L318.41 118.69 M317.66 118.69 L317.66 118.69 M311.45 118.74 L311.45 118.74 M310.7 118.74 L310.7 118.74" data-layerIndex="33" stroke="#000000FF" stroke-width=".2" stroke-linecap="round" fill="none" />
    <path d="M279.22 31.7 L279.22 31.7 M279.35 31.57 L284.51 31.57 M279.37 36.6 L283.41 36.6 M279.25 36.47 L279.25 36.5 M283.63 36.51 L283.65 36.49 M284.63 31.7 L284.63 31.7" data-layerIndex="33" stroke="#000000FF" stroke-width=".25" stroke-linecap="round" fill="none" />
    <path d="M257.08 112.5 L257.68 112.5 M256.98 112.4 L256.98 111.8 M257.08 109.5 L257.68 109.5 M256.98 110.2 L256.98 109.6" data-layerIndex="33" stroke="#000000FF" stroke-width=".2" stroke-linecap="round" fill="none" />
    <path d="M258.55 124.78 L258.55 124.78 M258.43 124.65 L258.43 119.49 M263.45 124.63 L263.45 120.59 M263.35 124.75 L263.33 124.75 M263.34 120.35 L263.37 120.37 M258.55 119.37 L258.55 119.37 M264.55 124.78 L264.55 124.78 M264.43 124.65 L264.43 119.49 M269.45 124.63 L269.45 120.59 M269.35 124.75 L269.33 124.75 M269.34 120.35 L269.37 120.37 M264.55 119.37 L264.55 119.37 M270.55 124.78 L270.55 124.78 M270.43 124.65 L270.43 119.49 M275.45 124.63 L275.45 120.59 M275.35 124.75 L275.33 124.75 M275.34 120.35 L275.37 120.37 M270.55 119.37 L270.55 119.37 M276.55 124.78 L276.55 124.78 M276.43 124.65 L276.43 119.49 M281.45 124.63 L281.45 120.59 M281.35 124.75 L281.33 124.75 M281.34 120.35 L281.37 120.37 M276.55 119.37 L276.55 119.37 M282.55 124.78 L282.55 124.78 M282.43 124.65 L282.43 119.49 M287.45 124.63 L287.45 120.59 M287.35 124.75 L287.33 124.75 M287.34 120.35 L287.37 120.37 M282.55 119.37 L282.55 119.37 M288.55 124.78 L288.55 124.78 M288.43 124.65 L288.43 119.49 M293.45 124.63 L293.45 120.59 M293.35 124.75 L293.33 124.75 M293.34 120.35 L293.37 120.37 M288.55 119.37 L288.55 119.37 M294.55 124.78 L294.55 124.78 M294.43 124.65 L294.43 119.49 M299.45 124.63 L299.45 120.59 M299.35 124.75 L299.33 124.75 M299.34 120.35 L299.37 120.37 M294.55 119.37 L294.55 119.37 M300.55 124.78 L300.55 124.78 M300.43 124.65 L300.43 119.49 M305.45 124.63 L305.45 120.59 M305.35 124.75 L305.33 124.75 M305.34 120.35 L305.37 120.37 M300.55 119.37 L300.55 119.37" data-layerIndex="33" stroke="#000000FF" stroke-width=".25" stroke-linecap="round" fill="none" />
    <path d="M297.97 116.5 L297.97 115.94 M297.97 112.18 L297.97 111.62 M303.82 111.56 L305.85 111.56 M298.03 111.56 L300.06 111.56 M305.92 116.5 L305.92 115.94 M305.92 112.18 L305.92 111.62 M298.03 116.56 L305.85 116.56" data-layerIndex="33" stroke="#000000FF" stroke-width=".13" stroke-linecap="round" fill="none" />
    <path d="M249.79 109.91 L252.39 109.91 M249.79 116.61 L252.39 116.61 M249.69 116.51 L249.69 110.01 M252.49 116.51 L252.49 110.01 M274.45 28.64 L274.45 28.64 M274.45 27.99 L274.45 27.99 M261.35 111.54 L261.35 111.54 M261.35 112.19 L261.35 112.19 M309.99 114.66 L309.99 114.46 M308.89 114.66 L308.89 114.46 M316.99 114.63 L316.99 114.43 M315.89 114.63 L315.89 114.43 M252.12 119.46 L252.12 119.26 M251.02 119.46 L251.02 119.26 M248.31 119.46 L248.31 119.26 M247.21 119.46 L247.21 119.26 M255.93 119.46 L255.93 119.26 M254.83 119.46 L254.83 119.26 M313.49 114.66 L313.49 114.46 M312.39 114.66 L312.39 114.46 M309.99 118.66 L309.99 118.46 M308.89 118.66 L308.89 118.46 M316.99 118.63 L316.99 118.43 M315.89 118.63 L315.89 118.43 M252.12 123.27 L252.12 123.07 M251.02 123.27 L251.02 123.07 M248.31 123.27 L248.31 123.07 M247.21 123.27 L247.21 123.07 M255.93 123.27 L255.93 123.07 M254.83 123.27 L254.83 123.07 M313.49 118.66 L313.49 118.46 M312.39 118.66 L312.39 118.46" data-layerIndex="33" stroke="#000000FF" stroke-width=".2" stroke-linecap="round" fill="none" />
    <path d="M284.99 29.01 L284.99 23.16 M279.02 29.13 L284.86 29.13 M278.89 29.01 L278.89 23.16 M279.02 23.04 L284.86 23.04" data-layerIndex="33" stroke="#000000FF" stroke-width=".25" stroke-linecap="round" fill="none" />
    <path d="M241.01 118.76 L241.01 118.76 M240.26 118.76 L240.26 118.76 M244.41 118.69 L244.41 118.69 M243.66 118.69 L243.66 118.69 M237.45 118.74 L237.45 118.74 M236.7 118.74 L236.7 118.74" data-layerIndex="33" stroke="#000000FF" stroke-width=".2" stroke-linecap="round" fill="none" />
    <path d="M205.22 31.7 L205.22 31.7 M205.35 31.57 L210.51 31.57 M205.37 36.6 L209.41 36.6 M205.25 36.47 L205.25 36.5 M209.63 36.51 L209.65 36.49 M210.63 31.7 L210.63 31.7" data-layerIndex="33" stroke="#000000FF" stroke-width=".25" stroke-linecap="round" fill="none" />
    <path d="M183.08 112.5 L183.68 112.5 M182.98 112.4 L182.98 111.8 M183.08 109.5 L183.68 109.5 M182.98 110.2 L182.98 109.6" data-layerIndex="33" stroke="#000000FF" stroke-width=".2" stroke-linecap="round" fill="none" />
    <path d="M184.55 124.78 L184.55 124.78 M184.43 124.65 L184.43 119.49 M189.45 124.63 L189.45 120.59 M189.35 124.75 L189.33 124.75 M189.34 120.35 L189.37 120.37 M184.55 119.37 L184.55 119.37 M190.55 124.78 L190.55 124.78 M190.43 124.65 L190.43 119.49 M195.45 124.63 L195.45 120.59 M195.35 124.75 L195.33 124.75 M195.34 120.35 L195.37 120.37 M190.55 119.37 L190.55 119.37 M196.55 124.78 L196.55 124.78 M196.43 124.65 L196.43 119.49 M201.45 124.63 L201.45 120.59 M201.35 124.75 L201.33 124.75 M201.34 120.35 L201.37 120.37 M196.55 119.37 L196.55 119.37 M202.55 124.78 L202.55 124.78 M202.43 124.65 L202.43 119.49 M207.45 124.63 L207.45 120.59 M207.35 124.75 L207.33 124.75 M207.34 120.35 L207.37 120.37 M202.55 119.37 L202.55 119.37 M208.55 124.78 L208.55 124.78 M208.43 124.65 L208.43 119.49 M213.45 124.63 L213.45 120.59 M213.35 124.75 L213.33 124.75 M213.34 120.35 L213.37 120.37 M208.55 119.37 L208.55 119.37 M214.55 124.78 L214.55 124.78 M214.43 124.65 L214.43 119.49 M219.45 124.63 L219.45 120.59 M219.35 124.75 L219.33 124.75 M219.34 120.35 L219.37 120.37 M214.55 119.37 L214.55 119.37 M220.55 124.78 L220.55 124.78 M220.43 124.65 L220.43 119.49 M225.45 124.63 L225.45 120.59 M225.35 124.75 L225.33 124.75 M225.34 120.35 L225.37 120.37 M220.55 119.37 L220.55 119.37 M226.55 124.78 L226.55 124.78 M226.43 124.65 L226.43 119.49 M231.45 124.63 L231.45 120.59 M231.35 124.75 L231.33 124.75 M231.34 120.35 L231.37 120.37 M226.55 119.37 L226.55 119.37" data-layerIndex="33" stroke="#000000FF" stroke-width=".25" stroke-linecap="round" fill="none" />
    <path d="M223.97 116.5 L223.97 115.94 M223.97 112.18 L223.97 111.62 M229.82 111.56 L231.85 111.56 M224.03 111.56 L226.06 111.56 M231.92 116.5 L231.92 115.94 M231.92 112.18 L231.92 111.62 M224.03 116.56 L231.85 116.56" data-layerIndex="33" stroke="#000000FF" stroke-width=".13" stroke-linecap="round" fill="none" />
    <path d="M175.79 109.91 L178.39 109.91 M175.79 116.61 L178.39 116.61 M175.69 116.51 L175.69 110.01 M178.49 116.51 L178.49 110.01 M200.45 28.64 L200.45 28.64 M200.45 27.99 L200.45 27.99 M187.35 111.54 L187.35 111.54 M187.35 112.19 L187.35 112.19 M235.99 114.66 L235.99 114.46 M234.89 114.66 L234.89 114.46 M242.99 114.63 L242.99 114.43 M241.89 114.63 L241.89 114.43 M178.12 119.46 L178.12 119.26 M177.02 119.46 L177.02 119.26 M174.31 119.46 L174.31 119.26 M173.21 119.46 L173.21 119.26 M181.93 119.46 L181.93 119.26 M180.83 119.46 L180.83 119.26 M239.49 114.66 L239.49 114.46 M238.39 114.66 L238.39 114.46 M235.99 118.66 L235.99 118.46 M234.89 118.66 L234.89 118.46 M242.99 118.63 L242.99 118.43 M241.89 118.63 L241.89 118.43 M178.12 123.27 L178.12 123.07 M177.02 123.27 L177.02 123.07 M174.31 123.27 L174.31 123.07 M173.21 123.27 L173.21 123.07 M181.93 123.27 L181.93 123.07 M180.83 123.27 L180.83 123.07 M239.49 118.66 L239.49 118.46 M238.39 118.66 L238.39 118.46" data-layerIndex="33" stroke="#000000FF" stroke-width=".2" stroke-linecap="round" fill="none" />
    <path d="M210.99 29.01 L210.99 23.16 M205.02 29.13 L210.86 29.13 M204.89 29.01 L204.89 23.16 M205.02 23.04 L210.86 23.04" data-layerIndex="33" stroke="#000000FF" stroke-width=".25" stroke-linecap="round" fill="none" />
    <path d="M167.01 118.76 L167.01 118.76 M166.26 118.76 L166.26 118.76 M170.41 118.69 L170.41 118.69 M169.66 118.69 L169.66 118.69 M163.45 118.74 L163.45 118.74 M162.7 118.74 L162.7 118.74" data-layerIndex="33" stroke="#000000FF" stroke-width=".2" stroke-linecap="round" fill="none" />
    <path d="M131.22 31.7 L131.22 31.7 M131.35 31.57 L136.51 31.57 M131.37 36.6 L135.41 36.6 M131.25 36.47 L131.25 36.5 M135.63 36.51 L135.65 36.49 M136.63 31.7 L136.63 31.7" data-layerIndex="33" stroke="#000000FF" stroke-width=".25" stroke-linecap="round" fill="none" />
    <path d="M109.08 112.5 L109.68 112.5 M108.98 112.4 L108.98 111.8 M109.08 109.5 L109.68 109.5 M108.98 110.2 L108.98 109.6" data-layerIndex="33" stroke="#000000FF" stroke-width=".2" stroke-linecap="round" fill="none" />
    <path d="M110.55 124.78 L110.55 124.78 M110.43 124.65 L110.43 119.49 M115.45 124.63 L115.45 120.59 M115.35 124.75 L115.33 124.75 M115.34 120.35 L115.37 120.37 M110.55 119.37 L110.55 119.37 M116.55 124.78 L116.55 124.78 M116.43 124.65 L116.43 119.49 M121.45 124.63 L121.45 120.59 M121.35 124.75 L121.33 124.75 M121.34 120.35 L121.37 120.37 M116.55 119.37 L116.55 119.37 M122.55 124.78 L122.55 124.78 M122.43 124.65 L122.43 119.49 M127.45 124.63 L127.45 120.59 M127.35 124.75 L127.33 124.75 M127.34 120.35 L127.37 120.37 M122.55 119.37 L122.55 119.37 M128.55 124.78 L128.55 124.78 M128.43 124.65 L128.43 119.49 M133.45 124.63 L133.45 120.59 M133.35 124.75 L133.33 124.75 M133.34 120.35 L133.37 120.37 M128.55 119.37 L128.55 119.37 M134.55 124.78 L134.55 124.78 M134.43 124.65 L134.43 119.49 M139.45 124.63 L139.45 120.59 M139.35 124.75 L139.33 124.75 M139.34 120.35 L139.37 120.37 M134.55 119.37 L134.55 119.37 M140.55 124.78 L140.55 124.78 M140.43 124.65 L140.43 119.49 M145.45 124.63 L145.45 120.59 M145.35 124.75 L145.33 124.75 M145.34 120.35 L145.37 120.37 M140.55 119.37 L140.55 119.37 M146.55 124.78 L146.55 124.78 M146.43 124.65 L146.43 119.49 M151.45 124.63 L151.45 120.59 M151.35 124.75 L151.33 124.75 M151.34 120.35 L151.37 120.37 M146.55 119.37 L146.55 119.37 M152.55 124.78 L152.55 124.78 M152.43 124.65 L152.43 119.49 M157.45 124.63 L157.45 120.59 M157.35 124.75 L157.33 124.75 M157.34 120.35 L157.37 120.37 M152.55 119.37 L152.55 119.37" data-layerIndex="33" stroke="#000000FF" stroke-width=".25" stroke-linecap="round" fill="none" />
    <path d="M149.97 116.5 L149.97 115.94 M149.97 112.18 L149.97 111.62 M155.82 111.56 L157.85 111.56 M150.03 111.56 L152.06 111.56 M157.92 116.5 L157.92 115.94 M157.92 112.18 L157.92 111.62 M150.03 116.56 L157.85 116.56" data-layerIndex="33" stroke="#000000FF" stroke-width=".13" stroke-linecap="round" fill="none" />
    <path d="M101.79 109.91 L104.39 109.91 M101.79 116.61 L104.39 116.61 M101.69 116.51 L101.69 110.01 M104.49 116.51 L104.49 110.01 M126.45 28.64 L126.45 28.64 M126.45 27.99 L126.45 27.99 M113.35 111.54 L113.35 111.54 M113.35 112.19 L113.35 112.19 M161.99 114.66 L161.99 114.46 M160.89 114.66 L160.89 114.46 M168.99 114.63 L168.99 114.43 M167.89 114.63 L167.89 114.43 M104.12 119.46 L104.12 119.26 M103.02 119.46 L103.02 119.26 M100.31 119.46 L100.31 119.26 M99.21 119.46 L99.21 119.26 M107.93 119.46 L107.93 119.26 M106.83 119.46 L106.83 119.26 M165.49 114.66 L165.49 114.46 M164.39 114.66 L164.39 114.46 M161.99 118.66 L161.99 118.46 M160.89 118.66 L160.89 118.46 M168.99 118.63 L168.99 118.43 M167.89 118.63 L167.89 118.43 M104.12 123.27 L104.12 123.07 M103.02 123.27 L103.02 123.07 M100.31 123.27 L100.31 123.07 M99.21 123.27 L99.21 123.07 M107.93 123.27 L107.93 123.07 M106.83 123.27 L106.83 123.07 M165.49 118.66 L165.49 118.46 M164.39 118.66 L164.39 118.46" data-layerIndex="33" stroke="#000000FF" stroke-width=".2" stroke-linecap="round" fill="none" />
    <path d="M136.99 29.01 L136.99 23.16 M131.02 29.13 L136.86 29.13 M130.89 29.01 L130.89 23.16 M131.02 23.04 L136.86 23.04 M320.0 106.6 A1.91 1.91 0 0 1 321.9 104.69 M389.98 108.5 A1.91 1.91 0 0 1 388.07 106.6 M389.98 108.5 A1.91 1.91 0 0 1 388.07 106.6 M321.9 36.62 A1.91 1.91 0 0 1 323.81 38.52 M391.88 38.52 A1.91 1.91 0 0 1 389.98 40.43 M246.0 106.6 A1.91 1.91 0 0 1 247.9 104.69 M315.98 108.5 A1.91 1.91 0 0 1 314.07 106.6 M315.98 108.5 A1.91 1.91 0 0 1 314.07 106.6 M247.9 36.62 A1.91 1.91 0 0 1 249.81 38.52 M317.88 38.52 A1.91 1.91 0 0 1 315.98 40.43 M172.0 106.6 A1.91 1.91 0 0 1 173.9 104.69 M241.98 108.5 A1.91 1.91 0 0 1 240.07 106.6 M241.98 108.5 A1.91 1.91 0 0 1 240.07 106.6 M173.9 36.62 A1.91 1.91 0 0 1 175.81 38.52 M243.88 38.52 A1.91 1.91 0 0 1 241.98 40.43 M98.0 106.6 A1.91 1.91 0 0 1 99.9 104.69 M167.98 108.5 A1.91 1.91 0 0 1 166.07 106.6 M167.98 108.5 A1.91 1.91 0 0 1 166.07 106.6 M99.9 36.62 A1.91 1.91 0 0 1 101.81 38.52 M169.88 38.52 A1.91 1.91 0 0 1 167.98 40.43" data-layerIndex="33" stroke="#000000FF" stroke-width=".25" stroke-linecap="round" fill="none" />
    <path d="M376.5 32.13 A1.58 1.58 0 0 1 378.08 30.55 M378.08 33.71 A1.58 1.58 0 0 1 376.5 32.13 M379.66 26.29 A1.58 1.58 0 0 1 378.08 27.87 M378.08 24.71 A1.58 1.58 0 0 1 379.66 26.29 M302.5 32.13 A1.58 1.58 0 0 1 304.08 30.55 M304.08 33.71 A1.58 1.58 0 0 1 302.5 32.13 M305.66 26.29 A1.58 1.58 0 0 1 304.08 27.87 M304.08 24.71 A1.58 1.58 0 0 1 305.66 26.29 M228.5 32.13 A1.58 1.58 0 0 1 230.08 30.55 M230.08 33.71 A1.58 1.58 0 0 1 228.5 32.13 M231.66 26.29 A1.58 1.58 0 0 1 230.08 27.87 M230.08 24.71 A1.58 1.58 0 0 1 231.66 26.29 M154.5 32.13 A1.58 1.58 0 0 1 156.08 30.55 M156.08 33.71 A1.58 1.58 0 0 1 154.5 32.13 M157.66 26.29 A1.58 1.58 0 0 1 156.08 27.87 M156.08 24.71 A1.58 1.58 0 0 1 157.66 26.29" data-layerIndex="33" stroke="#000000FF" stroke-width=".05" stroke-linecap="round" fill="none" />
    <ellipse cx="164.7" cy="28.75" rx="1.94" ry="1.94" data-layerIndex="33" stroke="#000000FF" stroke-width=".25" fill="none" />
    <ellipse cx="345.54" cy="109.7" rx=".13" ry=".13" data-layerIndex="33" stroke="#000000FF" stroke-width=".5" fill="none" />
    <ellipse cx="343.94" cy="113.56" rx="1.36" ry="1.36" data-layerIndex="33" stroke="#000000FF" stroke-width=".25" fill="none" />
    <ellipse cx="351.54" cy="109.7" rx=".13" ry=".13" data-layerIndex="33" stroke="#000000FF" stroke-width=".5" fill="none" />
    <ellipse cx="349.94" cy="113.56" rx="1.36" ry="1.36" data-layerIndex="33" stroke="#000000FF" stroke-width=".25" fill="none" />
    <ellipse cx="357.71" cy="109.65" rx=".13" ry=".13" data-layerIndex="33" stroke="#000000FF" stroke-width=".5" fill="none" />
    <ellipse cx="356.11" cy="113.51" rx="1.36" ry="1.36" data-layerIndex="33" stroke="#000000FF" stroke-width=".25" fill="none" />
    <ellipse cx="363.54" cy="109.7" rx=".13" ry=".13" data-layerIndex="33" stroke="#000000FF" stroke-width=".5" fill="none" />
    <ellipse cx="361.94" cy="113.56" rx="1.36" ry="1.36" data-layerIndex="33" stroke="#000000FF" stroke-width=".25" fill="none" />
    <ellipse cx="369.54" cy="109.7" rx=".13" ry=".13" data-layerIndex="33" stroke="#000000FF" stroke-width=".5" fill="none" />
    <ellipse cx="367.94" cy="113.56" rx="1.36" ry="1.36" data-layerIndex="33" stroke="#000000FF" stroke-width=".25" fill="none" />
    <ellipse cx="271.54" cy="109.7" rx=".13" ry=".13" data-layerIndex="33" stroke="#000000FF" stroke-width=".5" fill="none" />
    <ellipse cx="269.94" cy="113.56" rx="1.36" ry="1.36" data-layerIndex="33" stroke="#000000FF" stroke-width=".25" fill="none" />
    <ellipse cx="277.54" cy="109.7" rx=".13" ry=".13" data-layerIndex="33" stroke="#000000FF" stroke-width=".5" fill="none" />
    <ellipse cx="275.94" cy="113.56" rx="1.36" ry="1.36" data-layerIndex="33" stroke="#000000FF" stroke-width=".25" fill="none" />
    <ellipse cx="283.71" cy="109.65" rx=".13" ry=".13" data-layerIndex="33" stroke="#000000FF" stroke-width=".5" fill="none" />
    <ellipse cx="282.11" cy="113.51" rx="1.36" ry="1.36" data-layerIndex="33" stroke="#000000FF" stroke-width=".25" fill="none" />
    <ellipse cx="289.54" cy="109.7" rx=".13" ry=".13" data-layerIndex="33" stroke="#000000FF" stroke-width=".5" fill="none" />
    <ellipse cx="287.94" cy="113.56" rx="1.36" ry="1.36" data-layerIndex="33" stroke="#000000FF" stroke-width=".25" fill="none" />
    <ellipse cx="295.54" cy="109.7" rx=".13" ry=".13" data-layerIndex="33" stroke="#000000FF" stroke-width=".5" fill="none" />
    <ellipse cx="293.94" cy="113.56" rx="1.36" ry="1.36" data-layerIndex="33" stroke="#000000FF" stroke-width=".25" fill="none" />
    <ellipse cx="197.54" cy="109.7" rx=".13" ry=".13" data-layerIndex="33" stroke="#000000FF" stroke-width=".5" fill="none" />
    <ellipse cx="195.94" cy="113.56" rx="1.36" ry="1.36" data-layerIndex="33" stroke="#000000FF" stroke-width=".25" fill="none" />
    <ellipse cx="203.54" cy="109.7" rx=".13" ry=".13" data-layerIndex="33" stroke="#000000FF" stroke-width=".5" fill="none" />
    <ellipse cx="201.94" cy="113.56" rx="1.36" ry="1.36" data-layerIndex="33" stroke="#000000FF" stroke-width=".25" fill="none" />
    <ellipse cx="209.71" cy="109.65" rx=".13" ry=".13" data-layerIndex="33" stroke="#000000FF" stroke-width=".5" fill="none" />
    <ellipse cx="208.11" cy="113.51" rx="1.36" ry="1.36" data-layerIndex="33" stroke="#000000FF" stroke-width=".25" fill="none" />
    <ellipse cx="215.54" cy="109.7" rx=".13" ry=".13" data-layerIndex="33" stroke="#000000FF" stroke-width=".5" fill="none" />
    <ellipse cx="213.94" cy="113.56" rx="1.36" ry="1.36" data-layerIndex="33" stroke="#000000FF" stroke-width=".25" fill="none" />
    <ellipse cx="221.54" cy="109.7" rx=".13" ry=".13" data-layerIndex="33" stroke="#000000FF" stroke-width=".5" fill="none" />
    <ellipse cx="219.94" cy="113.56" rx="1.36" ry="1.36" data-layerIndex="33" stroke="#000000FF" stroke-width=".25" fill="none" />
    <ellipse cx="123.54" cy="109.7" rx=".13" ry=".13" data-layerIndex="33" stroke="#000000FF" stroke-width=".5" fill="none" />
    <ellipse cx="121.94" cy="113.56" rx="1.36" ry="1.36" data-layerIndex="33" stroke="#000000FF" stroke-width=".25" fill="none" />
    <ellipse cx="129.54" cy="109.7" rx=".13" ry=".13" data-layerIndex="33" stroke="#000000FF" stroke-width=".5" fill="none" />
    <ellipse cx="127.94" cy="113.56" rx="1.36" ry="1.36" data-layerIndex="33" stroke="#000000FF" stroke-width=".25" fill="none" />
    <ellipse cx="135.71" cy="109.65" rx=".13" ry=".13" data-layerIndex="33" stroke="#000000FF" stroke-width=".5" fill="none" />
    <ellipse cx="134.11" cy="113.51" rx="1.36" ry="1.36" data-layerIndex="33" stroke="#000000FF" stroke-width=".25" fill="none" />
    <ellipse cx="141.54" cy="109.7" rx=".13" ry=".13" data-layerIndex="33" stroke="#000000FF" stroke-width=".5" fill="none" />
    <ellipse cx="139.94" cy="113.56" rx="1.36" ry="1.36" data-layerIndex="33" stroke="#000000FF" stroke-width=".25" fill="none" />
    <ellipse cx="147.54" cy="109.7" rx=".13" ry=".13" data-layerIndex="33" stroke="#000000FF" stroke-width=".5" fill="none" />
    <ellipse cx="145.94" cy="113.56" rx="1.36" ry="1.36" data-layerIndex="33" stroke="#000000FF" stroke-width=".25" fill="none" />
    <ellipse cx="238.7" cy="28.75" rx="1.94" ry="1.94" data-layerIndex="33" stroke="#000000FF" stroke-width=".25" fill="none" />
    <ellipse cx="312.7" cy="28.75" rx="1.94" ry="1.94" data-layerIndex="33" stroke="#000000FF" stroke-width=".25" fill="none" />
    <ellipse cx="386.7" cy="28.75" rx="1.94" ry="1.94" data-layerIndex="33" stroke="#000000FF" stroke-width=".25" fill="none" />
    <ellipse cx="359.8" cy="35.68" rx=".13" ry=".13" data-layerIndex="33" stroke="#000000FF" stroke-width=".5" fill="none" />
    <ellipse cx="355.94" cy="34.08" rx="1.36" ry="1.36" data-layerIndex="33" stroke="#000000FF" stroke-width=".25" fill="none" />
    <ellipse cx="336.54" cy="118.2" rx=".13" ry=".13" data-layerIndex="33" stroke="#000000FF" stroke-width=".5" fill="none" />
    <ellipse cx="334.94" cy="122.06" rx="1.36" ry="1.36" data-layerIndex="33" stroke="#000000FF" stroke-width=".25" fill="none" />
    <ellipse cx="342.54" cy="118.2" rx=".13" ry=".13" data-layerIndex="33" stroke="#000000FF" stroke-width=".5" fill="none" />
    <ellipse cx="340.94" cy="122.06" rx="1.36" ry="1.36" data-layerIndex="33" stroke="#000000FF" stroke-width=".25" fill="none" />
    <ellipse cx="348.54" cy="118.2" rx=".13" ry=".13" data-layerIndex="33" stroke="#000000FF" stroke-width=".5" fill="none" />
    <ellipse cx="346.94" cy="122.06" rx="1.36" ry="1.36" data-layerIndex="33" stroke="#000000FF" stroke-width=".25" fill="none" />
    <ellipse cx="354.54" cy="118.2" rx=".13" ry=".13" data-layerIndex="33" stroke="#000000FF" stroke-width=".5" fill="none" />
    <ellipse cx="352.94" cy="122.06" rx="1.36" ry="1.36" data-layerIndex="33" stroke="#000000FF" stroke-width=".25" fill="none" />
    <ellipse cx="360.54" cy="118.2" rx=".13" ry=".13" data-layerIndex="33" stroke="#000000FF" stroke-width=".5" fill="none" />
    <ellipse cx="358.94" cy="122.06" rx="1.36" ry="1.36" data-layerIndex="33" stroke="#000000FF" stroke-width=".25" fill="none" />
    <ellipse cx="366.54" cy="118.2" rx=".13" ry=".13" data-layerIndex="33" stroke="#000000FF" stroke-width=".5" fill="none" />
    <ellipse cx="364.94" cy="122.06" rx="1.36" ry="1.36" data-layerIndex="33" stroke="#000000FF" stroke-width=".25" fill="none" />
    <ellipse cx="372.54" cy="118.2" rx=".13" ry=".13" data-layerIndex="33" stroke="#000000FF" stroke-width=".5" fill="none" />
    <ellipse cx="370.94" cy="122.06" rx="1.36" ry="1.36" data-layerIndex="33" stroke="#000000FF" stroke-width=".25" fill="none" />
    <ellipse cx="378.54" cy="118.2" rx=".13" ry=".13" data-layerIndex="33" stroke="#000000FF" stroke-width=".5" fill="none" />
    <ellipse cx="376.94" cy="122.06" rx="1.36" ry="1.36" data-layerIndex="33" stroke="#000000FF" stroke-width=".25" fill="none" />
    <ellipse cx="376.94" cy="108.4" rx=".1" ry=".1" data-layerIndex="33" stroke="#000000FF" stroke-width=".2" fill="none" />
    <ellipse cx="327.94" cy="116.56" rx=".13" ry=".13" data-layerIndex="33" stroke="#000000FF" stroke-width=".25" fill="none" />
    <ellipse cx="355.94" cy="26.06" rx="1.94" ry="1.94" data-layerIndex="33" stroke="#000000FF" stroke-width=".25" fill="none" />
    <ellipse cx="285.8" cy="35.68" rx=".13" ry=".13" data-layerIndex="33" stroke="#000000FF" stroke-width=".5" fill="none" />
    <ellipse cx="281.94" cy="34.08" rx="1.36" ry="1.36" data-layerIndex="33" stroke="#000000FF" stroke-width=".25" fill="none" />
    <ellipse cx="262.54" cy="118.2" rx=".13" ry=".13" data-layerIndex="33" stroke="#000000FF" stroke-width=".5" fill="none" />
    <ellipse cx="260.94" cy="122.06" rx="1.36" ry="1.36" data-layerIndex="33" stroke="#000000FF" stroke-width=".25" fill="none" />
    <ellipse cx="268.54" cy="118.2" rx=".13" ry=".13" data-layerIndex="33" stroke="#000000FF" stroke-width=".5" fill="none" />
    <ellipse cx="266.94" cy="122.06" rx="1.36" ry="1.36" data-layerIndex="33" stroke="#000000FF" stroke-width=".25" fill="none" />
    <ellipse cx="274.54" cy="118.2" rx=".13" ry=".13" data-layerIndex="33" stroke="#000000FF" stroke-width=".5" fill="none" />
    <ellipse cx="272.94" cy="122.06" rx="1.36" ry="1.36" data-layerIndex="33" stroke="#000000FF" stroke-width=".25" fill="none" />
    <ellipse cx="280.54" cy="118.2" rx=".13" ry=".13" data-layerIndex="33" stroke="#000000FF" stroke-width=".5" fill="none" />
    <ellipse cx="278.94" cy="122.06" rx="1.36" ry="1.36" data-layerIndex="33" stroke="#000000FF" stroke-width=".25" fill="none" />
    <ellipse cx="286.54" cy="118.2" rx=".13" ry=".13" data-layerIndex="33" stroke="#000000FF" stroke-width=".5" fill="none" />
    <ellipse cx="284.94" cy="122.06" rx="1.36" ry="1.36" data-layerIndex="33" stroke="#000000FF" stroke-width=".25" fill="none" />
    <ellipse cx="292.54" cy="118.2" rx=".13" ry=".13" data-layerIndex="33" stroke="#000000FF" stroke-width=".5" fill="none" />
    <ellipse cx="290.94" cy="122.06" rx="1.36" ry="1.36" data-layerIndex="33" stroke="#000000FF" stroke-width=".25" fill="none" />
    <ellipse cx="298.54" cy="118.2" rx=".13" ry=".13" data-layerIndex="33" stroke="#000000FF" stroke-width=".5" fill="none" />
    <ellipse cx="296.94" cy="122.06" rx="1.36" ry="1.36" data-layerIndex="33" stroke="#000000FF" stroke-width=".25" fill="none" />
    <ellipse cx="304.54" cy="118.2" rx=".13" ry=".13" data-layerIndex="33" stroke="#000000FF" stroke-width=".5" fill="none" />
    <ellipse cx="302.94" cy="122.06" rx="1.36" ry="1.36" data-layerIndex="33" stroke="#000000FF" stroke-width=".25" fill="none" />
    <ellipse cx="302.94" cy="108.4" rx=".1" ry=".1" data-layerIndex="33" stroke="#000000FF" stroke-width=".2" fill="none" />
    <ellipse cx="253.94" cy="116.56" rx=".13" ry=".13" data-layerIndex="33" stroke="#000000FF" stroke-width=".25" fill="none" />
    <ellipse cx="281.94" cy="26.06" rx="1.94" ry="1.94" data-layerIndex="33" stroke="#000000FF" stroke-width=".25" fill="none" />
    <ellipse cx="211.8" cy="35.68" rx=".13" ry=".13" data-layerIndex="33" stroke="#000000FF" stroke-width=".5" fill="none" />
    <ellipse cx="207.94" cy="34.08" rx="1.36" ry="1.36" data-layerIndex="33" stroke="#000000FF" stroke-width=".25" fill="none" />
    <ellipse cx="188.54" cy="118.2" rx=".13" ry=".13" data-layerIndex="33" stroke="#000000FF" stroke-width=".5" fill="none" />
    <ellipse cx="186.94" cy="122.06" rx="1.36" ry="1.36" data-layerIndex="33" stroke="#000000FF" stroke-width=".25" fill="none" />
    <ellipse cx="194.54" cy="118.2" rx=".13" ry=".13" data-layerIndex="33" stroke="#000000FF" stroke-width=".5" fill="none" />
    <ellipse cx="192.94" cy="122.06" rx="1.36" ry="1.36" data-layerIndex="33" stroke="#000000FF" stroke-width=".25" fill="none" />
    <ellipse cx="200.54" cy="118.2" rx=".13" ry=".13" data-layerIndex="33" stroke="#000000FF" stroke-width=".5" fill="none" />
    <ellipse cx="198.94" cy="122.06" rx="1.36" ry="1.36" data-layerIndex="33" stroke="#000000FF" stroke-width=".25" fill="none" />
    <ellipse cx="206.54" cy="118.2" rx=".13" ry=".13" data-layerIndex="33" stroke="#000000FF" stroke-width=".5" fill="none" />
    <ellipse cx="204.94" cy="122.06" rx="1.36" ry="1.36" data-layerIndex="33" stroke="#000000FF" stroke-width=".25" fill="none" />
    <ellipse cx="212.54" cy="118.2" rx=".13" ry=".13" data-layerIndex="33" stroke="#000000FF" stroke-width=".5" fill="none" />
    <ellipse cx="210.94" cy="122.06" rx="1.36" ry="1.36" data-layerIndex="33" stroke="#000000FF" stroke-width=".25" fill="none" />
    <ellipse cx="218.54" cy="118.2" rx=".13" ry=".13" data-layerIndex="33" stroke="#000000FF" stroke-width=".5" fill="none" />
    <ellipse cx="216.94" cy="122.06" rx="1.36" ry="1.36" data-layerIndex="33" stroke="#000000FF" stroke-width=".25" fill="none" />
    <ellipse cx="224.54" cy="118.2" rx=".13" ry=".13" data-layerIndex="33" stroke="#000000FF" stroke-width=".5" fill="none" />
    <ellipse cx="222.94" cy="122.06" rx="1.36" ry="1.36" data-layerIndex="33" stroke="#000000FF" stroke-width=".25" fill="none" />
    <ellipse cx="230.54" cy="118.2" rx=".13" ry=".13" data-layerIndex="33" stroke="#000000FF" stroke-width=".5" fill="none" />
    <ellipse cx="228.94" cy="122.06" rx="1.36" ry="1.36" data-layerIndex="33" stroke="#000000FF" stroke-width=".25" fill="none" />
    <ellipse cx="228.94" cy="108.4" rx=".1" ry=".1" data-layerIndex="33" stroke="#000000FF" stroke-width=".2" fill="none" />
    <ellipse cx="179.94" cy="116.56" rx=".13" ry=".13" data-layerIndex="33" stroke="#000000FF" stroke-width=".25" fill="none" />
    <ellipse cx="207.94" cy="26.06" rx="1.94" ry="1.94" data-layerIndex="33" stroke="#000000FF" stroke-width=".25" fill="none" />
    <ellipse cx="137.8" cy="35.68" rx=".13" ry=".13" data-layerIndex="33" stroke="#000000FF" stroke-width=".5" fill="none" />
    <ellipse cx="133.94" cy="34.08" rx="1.36" ry="1.36" data-layerIndex="33" stroke="#000000FF" stroke-width=".25" fill="none" />
    <ellipse cx="114.54" cy="118.2" rx=".13" ry=".13" data-layerIndex="33" stroke="#000000FF" stroke-width=".5" fill="none" />
    <ellipse cx="112.94" cy="122.06" rx="1.36" ry="1.36" data-layerIndex="33" stroke="#000000FF" stroke-width=".25" fill="none" />
    <ellipse cx="120.54" cy="118.2" rx=".13" ry=".13" data-layerIndex="33" stroke="#000000FF" stroke-width=".5" fill="none" />
    <ellipse cx="118.94" cy="122.06" rx="1.36" ry="1.36" data-layerIndex="33" stroke="#000000FF" stroke-width=".25" fill="none" />
    <ellipse cx="126.54" cy="118.2" rx=".13" ry=".13" data-layerIndex="33" stroke="#000000FF" stroke-width=".5" fill="none" />
    <ellipse cx="124.94" cy="122.06" rx="1.36" ry="1.36" data-layerIndex="33" stroke="#000000FF" stroke-width=".25" fill="none" />
    <ellipse cx="132.54" cy="118.2" rx=".13" ry=".13" data-layerIndex="33" stroke="#000000FF" stroke-width=".5" fill="none" />
    <ellipse cx="130.94" cy="122.06" rx="1.36" ry="1.36" data-layerIndex="33" stroke="#000000FF" stroke-width=".25" fill="none" />
    <ellipse cx="138.54" cy="118.2" rx=".13" ry=".13" data-layerIndex="33" stroke="#000000FF" stroke-width=".5" fill="none" />
    <ellipse cx="136.94" cy="122.06" rx="1.36" ry="1.36" data-layerIndex="33" stroke="#000000FF" stroke-width=".25" fill="none" />
    <ellipse cx="144.54" cy="118.2" rx=".13" ry=".13" data-layerIndex="33" stroke="#000000FF" stroke-width=".5" fill="none" />
    <ellipse cx="142.94" cy="122.06" rx="1.36" ry="1.36" data-layerIndex="33" stroke="#000000FF" stroke-width=".25" fill="none" />
    <ellipse cx="150.54" cy="118.2" rx=".13" ry=".13" data-layerIndex="33" stroke="#000000FF" stroke-width=".5" fill="none" />
    <ellipse cx="148.94" cy="122.06" rx="1.36" ry="1.36" data-layerIndex="33" stroke="#000000FF" stroke-width=".25" fill="none" />
    <ellipse cx="156.54" cy="118.2" rx=".13" ry=".13" data-layerIndex="33" stroke="#000000FF" stroke-width=".5" fill="none" />
    <ellipse cx="154.94" cy="122.06" rx="1.36" ry="1.36" data-layerIndex="33" stroke="#000000FF" stroke-width=".25" fill="none" />
    <ellipse cx="154.94" cy="108.4" rx=".1" ry=".1" data-layerIndex="33" stroke="#000000FF" stroke-width=".2" fill="none" />
    <ellipse cx="105.94" cy="116.56" rx=".13" ry=".13" data-layerIndex="33" stroke="#000000FF" stroke-width=".25" fill="none" />
    <ellipse cx="133.94" cy="26.06" rx="1.94" ry="1.94" data-layerIndex="33" stroke="#000000FF" stroke-width=".25" fill="none" />
    <rect x="-.75" y="-2.0" width="1.5" height="4.0" transform="translate(36.84 21.7) rotate(-180.0 .0 .0)" data-layerIndex="33" fill="#000000FF" />
    <rect x="-.75" y="-2.0" width="1.5" height="4.0" transform="translate(33.34 21.7) rotate(-180.0 .0 .0)" data-layerIndex="33" fill="#000000FF" />
    <rect x="-.75" y="-2.0" width="1.5" height="4.0" transform="translate(29.84 21.7) rotate(-180.0 .0 .0)" data-layerIndex="33" fill="#000000FF" />
    <rect x="-.38" y="-.38" width=".76" height=".76" transform="translate(368.44 21.69) rotate(-180.0 .0 .0)" data-layerIndex="33" fill="#000000FF" />
    <rect x="-.38" y="-.38" width=".76" height=".76" transform="translate(294.44 21.69) rotate(-180.0 .0 .0)" data-layerIndex="33" fill="#000000FF" />
    <rect x="-.38" y="-.38" width=".76" height=".76" transform="translate(220.44 21.69) rotate(-180.0 .0 .0)" data-layerIndex="33" fill="#000000FF" />
    <rect x="-.38" y="-.38" width=".76" height=".76" transform="translate(146.44 21.69) rotate(-180.0 .0 .0)" data-layerIndex="33" fill="#000000FF" />
    <rect x="-.75" y="-2.0" width="1.5" height="4.0" transform="translate(37.04 123.42)" data-layerIndex="33" fill="#000000FF" />
    <rect x="-.75" y="-2.0" width="1.5" height="4.0" transform="translate(33.54 123.42)" data-layerIndex="33" fill="#000000FF" />
    <rect x="-.75" y="-2.0" width="1.5" height="4.0" transform="translate(30.04 123.42)" data-layerIndex="33" fill="#000000FF" />
  </g>
</svg>