<svg xmlns:xlink="http://www.w3.org/1999/xlink" version="1.1" width="410.0" height="365.85" xmlns="http://www.w3.org/2000/svg">
  <g id="scene">
    <path d="M328.94 49.35 A2.95 2.95 0 0 1 329.1 46.94 M332.83 51.05 A2.95 2.95 0 0 1 330.47 51.0 M330.62 45.59 A2.95 2.95 0 0 1 332.98 45.66 M334.47 47.28 A2.95 2.95 0 0 1 334.37 49.61 M377.41 49.35 A2.95 2.95 0 0 1 377.57 46.94 M381.3 51.05 A2.95 2.95 0 0 1 378.93 51.0 M379.08 45.59 A2.95 2.95 0 0 1 381.44 45.66 M382.93 47.28 A2.95 2.95 0 0 1 382.83 49.61 M254.94 49.35 A2.95 2.95 0 0 1 255.1 46.94 M258.83 51.05 A2.95 2.95 0 0 1 256.47 51.0 M256.62 45.59 A2.95 2.95 0 0 1 258.98 45.66 M260.47 47.28 A2.95 2.95 0 0 1 260.37 49.61 M303.41 49.35 A2.95 2.95 0 0 1 303.57 46.94 M307.3 51.05 A2.95 2.95 0 0 1 304.93 51.0 M305.08 45.59 A2.95 2.95 0 0 1 307.44 45.66 M308.93 47.28 A2.95 2.95 0 0 1 308.83 49.61 M180.94 49.35 A2.95 2.95 0 0 1 181.1 46.94 M184.83 51.05 A2.95 2.95 0 0 1 182.47 51.0 M182.62 45.59 A2.95 2.95 0 0 1 184.98 45.66 M186.47 47.28 A2.95 2.95 0 0 1 186.37 49.61 M229.41 49.35 A2.95 2.95 0 0 1 229.57 46.94 M233.3 51.05 A2.95 2.95 0 0 1 230.93 51.0 M231.08 45.59 A2.95 2.95 0 0 1 233.44 45.66 M234.93 47.28 A2.95 2.95 0 0 1 234.83 49.61 M106.94 49.35 A2.95 2.95 0 0 1 107.1 46.94 M110.83 51.05 A2.95 2.95 0 0 1 108.47 51.0 M108.62 45.59 A2.95 2.95 0 0 1 110.98 45.66 M112.47 47.28 A2.95 2.95 0 0 1 112.37 49.61 M155.41 49.35 A2.95 2.95 0 0 1 155.57 46.94 M159.3 51.05 A2.95 2.95 0 0 1 156.93 51.0 M157.08 45.59 A2.95 2.95 0 0 1 159.44 45.66 M160.93 47.28 A2.95 2.95 0 0 1 160.83 49.61 M328.94 97.82 A2.95 2.95 0 0 1 329.1 95.41 M332.83 99.52 A2.95 2.95 0 0 1 330.47 99.47 M330.62 94.05 A2.95 2.95 0 0 1 332.98 94.13 M334.47 95.74 A2.95 2.95 0 0 1 334.37 98.07 M377.41 97.82 A2.95 2.95 0 0 1 377.57 95.41 M381.3 99.52 A2.95 2.95 0 0 1 378.93 99.47 M379.08 94.05 A2.95 2.95 0 0 1 381.44 94.13 M382.93 95.74 A2.95 2.95 0 0 1 382.83 98.07 M254.94 97.82 A2.95 2.95 0 0 1 255.1 95.41 M258.83 99.52 A2.95 2.95 0 0 1 256.47 99.47 M256.62 94.05 A2.95 2.95 0 0 1 258.98 94.13 M260.47 95.74 A2.95 2.95 0 0 1 260.37 98.07 M303.41 97.82 A2.95 2.95 0 0 1 303.57 95.41 M307.3 99.52 A2.95 2.95 0 0 1 304.93 99.47 M305.08 94.05 A2.95 2.95 0 0 1 307.44 94.13 M308.93 95.74 A2.95 2.95 0 0 1 308.83 98.07 M180.94 97.82 A2.95 2.95 0 0 1 181.1 95.41 M184.83 99.52 A2.95 2.95 0 0 1 182.47 99.47 M182.62 94.05 A2.95 2.95 0 0 1 184.98 94.13 M186.47 95.74 A2.95 2.95 0 0 1 186.37 98.07 M229.41 97.82 A2.95 2.95 0 0 1 229.57 95.41 M233.3 99.52 A2.95 2.95 0 0 1 230.93 99.47 M231.08 94.05 A2.95 2.95 0 0 1 233.44 94.13 M234.93 95.74 A2.95 2.95 0 0 1 234.83 98.07 M106.94 97.82 A2.95 2.95 0 0 1 107.1 95.41 M110.83 99.52 A2.95 2.95 0 0 1 108.47 99.47 M108.62 94.05 A2.95 2.95 0 0 1 110.98 94.13 M112.47 95.74 A2.95 2.95 0 0 1 112.37 98.07 M155.41 97.82 A2.95 2.95 0 0 1 155.57 95.41 M159.3 99.52 A2.95 2.95 0 0 1 156.93 99.47 M157.08 94.05 A2.95 2.95 0 0 1 159.44 94.13 M160.93 95.74 A2.95 2.95 0 0 1 160.83 98.07" data-layerIndex="35" stroke="#000000FF" stroke-width="1.5" stroke-linecap="round" fill="none" />
    <path d="M375.83 32.08 L375.83 31.43 L377.48 31.43 L377.48 32.08 L375.83 32.08 L375.83 32.08 M375.83 31.08 L375.83 30.43 L377.48 30.43 L377.48 31.08 L375.83 31.08 L375.83 31.08 M375.83 30.08 L375.83 29.43 L377.48 29.43 L377.48 30.08 L375.83 30.08 L375.83 30.08 M375.83 29.08 L375.83 28.43 L377.48 28.43 L377.48 29.08 L375.83 29.08 L375.83 29.08 M375.83 28.08 L375.83 27.43 L377.48 27.43 L377.48 28.08 L375.83 28.08 L375.83 28.08 M375.83 27.08 L375.83 26.43 L377.48 26.43 L377.48 27.08 L375.83 27.08 L375.83 27.08 M378.69 32.08 L378.69 31.43 L380.34 31.43 L380.34 32.08 L378.69 32.08 L378.69 32.08 M378.69 31.08 L378.69 30.43 L380.34 30.43 L380.34 31.08 L378.69 31.08 L378.69 31.08 M378.69 30.08 L378.69 29.43 L380.34 29.43 L380.34 30.08 L378.69 30.08 L378.69 30.08 M378.69 29.08 L378.69 28.43 L380.34 28.43 L380.34 29.08 L378.69 29.08 L378.69 29.08 M378.69 28.08 L378.69 27.43 L380.34 27.43 L380.34 28.08 L378.69 28.08 L378.69 28.08 M378.69 27.08 L378.69 26.43 L380.34 26.43 L380.34 27.08 L378.69 27.08 L378.69 27.08 M379.06 25.43 L378.69 25.43 L378.69 26.08 L380.34 26.08 L380.34 25.43 L379.96 25.43 L379.96 24.35 L379.06 24.35 L379.06 25.43 L379.06 25.43 M375.83 26.08 L377.48 26.08 L377.48 25.43 L377.1 25.43 L377.1 24.35 L376.2 24.35 L376.2 25.43 L375.83 25.43 L375.83 26.08 L375.83 26.08 M375.83 33.08 L376.2 33.08 L376.2 34.15 L377.1 34.15 L377.1 33.08 L377.48 33.08 L377.48 32.43 L375.83 32.43 L375.83 33.08 L375.83 33.08 M380.34 32.43 L378.69 32.43 L378.69 33.08 L379.06 33.08 L379.06 34.15 L379.96 34.15 L379.96 33.08 L380.34 33.08 L380.34 32.43 L380.34 32.43 M301.83 32.08 L301.83 31.43 L303.48 31.43 L303.48 32.08 L301.83 32.08 L301.83 32.08 M301.83 31.08 L301.83 30.43 L303.48 30.43 L303.48 31.08 L301.83 31.08 L301.83 31.08 M301.83 30.08 L301.83 29.43 L303.48 29.43 L303.48 30.08 L301.83 30.08 L301.83 30.08 M301.83 29.08 L301.83 28.43 L303.48 28.43 L303.48 29.08 L301.83 29.08 L301.83 29.08 M301.83 28.08 L301.83 27.43 L303.48 27.43 L303.48 28.08 L301.83 28.08 L301.83 28.08 M301.83 27.08 L301.83 26.43 L303.48 26.43 L303.48 27.08 L301.83 27.08 L301.83 27.08 M304.69 32.08 L304.69 31.43 L306.34 31.43 L306.34 32.08 L304.69 32.08 L304.69 32.08 M304.69 31.08 L304.69 30.43 L306.34 30.43 L306.34 31.08 L304.69 31.08 L304.69 31.08 M304.69 30.08 L304.69 29.43 L306.34 29.43 L306.34 30.08 L304.69 30.08 L304.69 30.08 M304.69 29.08 L304.69 28.43 L306.34 28.43 L306.34 29.08 L304.69 29.08 L304.69 29.08 M304.69 28.08 L304.69 27.43 L306.34 27.43 L306.34 28.08 L304.69 28.08 L304.69 28.08 M304.69 27.08 L304.69 26.43 L306.34 26.43 L306.34 27.08 L304.69 27.08 L304.69 27.08 M305.06 25.43 L304.69 25.43 L304.69 26.08 L306.34 26.08 L306.34 25.43 L305.96 25.43 L305.96 24.35 L305.06 24.35 L305.06 25.43 L305.06 25.43 M301.83 26.08 L303.48 26.08 L303.48 25.43 L303.1 25.43 L303.1 24.35 L302.2 24.35 L302.2 25.43 L301.83 25.43 L301.83 26.08 L301.83 26.08 M301.83 33.08 L302.2 33.08 L302.2 34.15 L303.1 34.15 L303.1 33.08 L303.48 33.08 L303.48 32.43 L301.83 32.43 L301.83 33.08 L301.83 33.08 M306.34 32.43 L304.69 32.43 L304.69 33.08 L305.06 33.08 L305.06 34.15 L305.96 34.15 L305.96 33.08 L306.34 33.08 L306.34 32.43 L306.34 32.43 M227.83 32.08 L227.83 31.43 L229.48 31.43 L229.48 32.08 L227.83 32.08 L227.83 32.08 M227.83 31.08 L227.83 30.43 L229.48 30.43 L229.48 31.08 L227.83 31.08 L227.83 31.08 M227.83 30.08 L227.83 29.43 L229.48 29.43 L229.48 30.08 L227.83 30.08 L227.83 30.08 M227.83 29.08 L227.83 28.43 L229.48 28.43 L229.48 29.08 L227.83 29.08 L227.83 29.08 M227.83 28.08 L227.83 27.43 L229.48 27.43 L229.48 28.08 L227.83 28.08 L227.83 28.08 M227.83 27.08 L227.83 26.43 L229.48 26.43 L229.48 27.08 L227.83 27.08 L227.83 27.08 M230.69 32.08 L230.69 31.43 L232.34 31.43 L232.34 32.08 L230.69 32.08 L230.69 32.08 M230.69 31.08 L230.69 30.43 L232.34 30.43 L232.34 31.08 L230.69 31.08 L230.69 31.08 M230.69 30.08 L230.69 29.43 L232.34 29.43 L232.34 30.08 L230.69 30.08 L230.69 30.08 M230.69 29.08 L230.69 28.43 L232.34 28.43 L232.34 29.08 L230.69 29.08 L230.69 29.08 M230.69 28.08 L230.69 27.43 L232.34 27.43 L232.34 28.08 L230.69 28.08 L230.69 28.08 M230.69 27.08 L230.69 26.43 L232.34 26.43 L232.34 27.08 L230.69 27.08 L230.69 27.08 M231.06 25.43 L230.69 25.43 L230.69 26.08 L232.34 26.08 L232.34 25.43 L231.96 25.43 L231.96 24.35 L231.06 24.35 L231.06 25.43 L231.06 25.43 M227.83 26.08 L229.48 26.08 L229.48 25.43 L229.1 25.43 L229.1 24.35 L228.2 24.35 L228.2 25.43 L227.83 25.43 L227.83 26.08 L227.83 26.08 M227.83 33.08 L228.2 33.08 L228.2 34.15 L229.1 34.15 L229.1 33.08 L229.48 33.08 L229.48 32.43 L227.83 32.43 L227.83 33.08 L227.83 33.08 M232.34 32.43 L230.69 32.43 L230.69 33.08 L231.06 33.08 L231.06 34.15 L231.96 34.15 L231.96 33.08 L232.34 33.08 L232.34 32.43 L232.34 32.43 M153.83 32.08 L153.83 31.43 L155.48 31.43 L155.48 32.08 L153.83 32.08 L153.83 32.08 M153.83 31.08 L153.83 30.43 L155.48 30.43 L155.48 31.08 L153.83 31.08 L153.83 31.08 M153.83 30.08 L153.83 29.43 L155.48 29.43 L155.48 30.08 L153.83 30.08 L153.83 30.08 M153.83 29.08 L153.83 28.43 L155.48 28.43 L155.48 29.08 L153.83 29.08 L153.83 29.08 M153.83 28.08 L153.83 27.43 L155.48 27.43 L155.48 28.08 L153.83 28.08 L153.83 28.08 M153.83 27.08 L153.83 26.43 L155.48 26.43 L155.48 27.08 L153.83 27.08 L153.83 27.08 M156.69 32.08 L156.69 31.43 L158.34 31.43 L158.34 32.08 L156.69 32.08 L156.69 32.08 M156.69 31.08 L156.69 30.43 L158.34 30.43 L158.34 31.08 L156.69 31.08 L156.69 31.08 M156.69 30.08 L156.69 29.43 L158.34 29.43 L158.34 30.08 L156.69 30.08 L156.69 30.08 M156.69 29.08 L156.69 28.43 L158.34 28.43 L158.34 29.08 L156.69 29.08 L156.69 29.08 M156.69 28.08 L156.69 27.43 L158.34 27.43 L158.34 28.08 L156.69 28.08 L156.69 28.08 M156.69 27.08 L156.69 26.43 L158.34 26.43 L158.34 27.08 L156.69 27.08 L156.69 27.08 M157.06 25.43 L156.69 25.43 L156.69 26.08 L158.34 26.08 L158.34 25.43 L157.96 25.43 L157.96 24.35 L157.06 24.35 L157.06 25.43 L157.06 25.43 M153.83 26.08 L155.48 26.08 L155.48 25.43 L155.1 25.43 L155.1 24.35 L154.2 24.35 L154.2 25.43 L153.83 25.43 L153.83 26.08 L153.83 26.08 M153.83 33.08 L154.2 33.08 L154.2 34.15 L155.1 34.15 L155.1 33.08 L155.48 33.08 L155.48 32.43 L153.83 32.43 L153.83 33.08 L153.83 33.08 M158.34 32.43 L156.69 32.43 L156.69 33.08 L157.06 33.08 L157.06 34.15 L157.96 34.15 L157.96 33.08 L158.34 33.08 L158.34 32.43 L158.34 32.43 M375.83 32.08 L375.83 31.43 L377.48 31.43 L377.48 32.08 L375.83 32.08 M375.83 31.08 L375.83 30.43 L377.48 30.43 L377.48 31.08 L375.83 31.08 M375.83 30.08 L375.83 29.43 L377.48 29.43 L377.48 30.08 L375.83 30.08 M375.83 29.08 L375.83 28.43 L377.48 28.43 L377.48 29.08 L375.83 29.08 M375.83 28.08 L375.83 27.43 L377.48 27.43 L377.48 28.08 L375.83 28.08 M375.83 27.08 L375.83 26.43 L377.48 26.43 L377.48 27.08 L375.83 27.08 M378.69 32.08 L378.69 31.43 L380.34 31.43 L380.34 32.08 L378.69 32.08 M378.69 31.08 L378.69 30.43 L380.34 30.43 L380.34 31.08 L378.69 31.08 M378.69 30.08 L378.69 29.43 L380.34 29.43 L380.34 30.08 L378.69 30.08 M378.69 29.08 L378.69 28.43 L380.34 28.43 L380.34 29.08 L378.69 29.08 M378.69 28.08 L378.69 27.43 L380.34 27.43 L380.34 28.08 L378.69 28.08 M378.69 27.08 L378.69 26.43 L380.34 26.43 L380.34 27.08 L378.69 27.08 M379.06 25.43 L378.69 25.43 L378.69 26.08 L380.34 26.08 L380.34 25.43 L379.96 25.43 L379.96 24.35 L379.06 24.35 L379.06 25.43 M375.83 26.08 L377.48 26.08 L377.48 25.43 L377.1 25.43 L377.1 24.35 L376.2 24.35 L376.2 25.43 L375.83 25.43 L375.83 26.08 M375.83 33.08 L376.2 33.08 L376.2 34.15 L377.1 34.15 L377.1 33.08 L377.48 33.08 L377.48 32.43 L375.83 32.43 L375.83 33.08 M380.34 32.43 L378.69 32.43 L378.69 33.08 L379.06 33.08 L379.06 34.15 L379.96 34.15 L379.96 33.08 L380.34 33.08 L380.34 32.43 M301.83 32.08 L301.83 31.43 L303.48 31.43 L303.48 32.08 L301.83 32.08 M301.83 31.08 L301.83 30.43 L303.48 30.43 L303.48 31.08 L301.83 31.08 M301.83 30.08 L301.83 29.43 L303.48 29.43 L303.48 30.08 L301.83 30.08 M301.83 29.08 L301.83 28.43 L303.48 28.43 L303.48 29.08 L301.83 29.08 M301.83 28.08 L301.83 27.43 L303.48 27.43 L303.48 28.08 L301.83 28.08 M301.83 27.08 L301.83 26.43 L303.48 26.43 L303.48 27.08 L301.83 27.08 M304.69 32.08 L304.69 31.43 L306.34 31.43 L306.34 32.08 L304.69 32.08 M304.69 31.08 L304.69 30.43 L306.34 30.43 L306.34 31.08 L304.69 31.08 M304.69 30.08 L304.69 29.43 L306.34 29.43 L306.34 30.08 L304.69 30.08 M304.69 29.08 L304.69 28.43 L306.34 28.43 L306.34 29.08 L304.69 29.08 M304.69 28.08 L304.69 27.43 L306.34 27.43 L306.34 28.08 L304.69 28.08 M304.69 27.08 L304.69 26.43 L306.34 26.43 L306.34 27.08 L304.69 27.08 M305.06 25.43 L304.69 25.43 L304.69 26.08 L306.34 26.08 L306.34 25.43 L305.96 25.43 L305.96 24.35 L305.06 24.35 L305.06 25.43 M301.83 26.08 L303.48 26.08 L303.48 25.43 L303.1 25.43 L303.1 24.35 L302.2 24.35 L302.2 25.43 L301.83 25.43 L301.83 26.08 M301.83 33.08 L302.2 33.08 L302.2 34.15 L303.1 34.15 L303.1 33.08 L303.48 33.08 L303.48 32.43 L301.83 32.43 L301.83 33.08 M306.34 32.43 L304.69 32.43 L304.69 33.08 L305.06 33.08 L305.06 34.15 L305.96 34.15 L305.96 33.08 L306.34 33.08 L306.34 32.43 M227.83 32.08 L227.83 31.43 L229.48 31.43 L229.48 32.08 L227.83 32.08 M227.83 31.08 L227.83 30.43 L229.48 30.43 L229.48 31.08 L227.83 31.08 M227.83 30.08 L227.83 29.43 L229.48 29.43 L229.48 30.08 L227.83 30.08 M227.83 29.08 L227.83 28.43 L229.48 28.43 L229.48 29.08 L227.83 29.08 M227.83 28.08 L227.83 27.43 L229.48 27.43 L229.48 28.08 L227.83 28.08 M227.83 27.08 L227.83 26.43 L229.48 26.43 L229.48 27.08 L227.83 27.08 M230.69 32.08 L230.69 31.43 L232.34 31.43 L232.34 32.08 L230.69 32.08 M230.69 31.08 L230.69 30.43 L232.34 30.43 L232.34 31.08 L230.69 31.08 M230.69 30.08 L230.69 29.43 L232.34 29.43 L232.34 30.08 L230.69 30.08 M230.69 29.08 L230.69 28.43 L232.34 28.43 L232.34 29.08 L230.69 29.08 M230.69 28.08 L230.69 27.43 L232.34 27.43 L232.34 28.08 L230.69 28.08 M230.69 27.08 L230.69 26.43 L232.34 26.43 L232.34 27.08 L230.69 27.08 M231.06 25.43 L230.69 25.43 L230.69 26.08 L232.34 26.08 L232.34 25.43 L231.96 25.43 L231.96 24.35 L231.06 24.35 L231.06 25.43 M227.83 26.08 L229.48 26.08 L229.48 25.43 L229.1 25.43 L229.1 24.35 L228.2 24.35 L228.2 25.43 L227.83 25.43 L227.83 26.08 M227.83 33.08 L228.2 33.08 L228.2 34.15 L229.1 34.15 L229.1 33.08 L229.48 33.08 L229.48 32.43 L227.83 32.43 L227.83 33.08 M232.34 32.43 L230.69 32.43 L230.69 33.08 L231.06 33.08 L231.06 34.15 L231.96 34.15 L231.96 33.08 L232.34 33.08 L232.34 32.43 M153.83 32.08 L153.83 31.43 L155.48 31.43 L155.48 32.08 L153.83 32.08 M153.83 31.08 L153.83 30.43 L155.48 30.43 L155.48 31.08 L153.83 31.08 M153.83 30.08 L153.83 29.43 L155.48 29.43 L155.48 30.08 L153.83 30.08 M153.83 29.08 L153.83 28.43 L155.48 28.43 L155.48 29.08 L153.83 29.08 M153.83 28.08 L153.83 27.43 L155.48 27.43 L155.48 28.08 L153.83 28.08 M153.83 27.08 L153.83 26.43 L155.48 26.43 L155.48 27.08 L153.83 27.08 M156.69 32.08 L156.69 31.43 L158.34 31.43 L158.34 32.08 L156.69 32.08 M156.69 31.08 L156.69 30.43 L158.34 30.43 L158.34 31.08 L156.69 31.08 M156.69 30.08 L156.69 29.43 L158.34 29.43 L158.34 30.08 L156.69 30.08 M156.69 29.08 L156.69 28.43 L158.34 28.43 L158.34 29.08 L156.69 29.08 M156.69 28.08 L156.69 27.43 L158.34 27.43 L158.34 28.08 L156.69 28.08 M156.69 27.08 L156.69 26.43 L158.34 26.43 L158.34 27.08 L156.69 27.08 M157.06 25.43 L156.69 25.43 L156.69 26.08 L158.34 26.08 L158.34 25.43 L157.96 25.43 L157.96 24.35 L157.06 24.35 L157.06 25.43 M153.83 26.08 L155.48 26.08 L155.48 25.43 L155.1 25.43 L155.1 24.35 L154.2 24.35 L154.2 25.43 L153.83 25.43 L153.83 26.08 M153.83 33.08 L154.2 33.08 L154.2 34.15 L155.1 34.15 L155.1 33.08 L155.48 33.08 L155.48 32.43 L153.83 32.43 L153.83 33.08 M158.34 32.43 L156.69 32.43 L156.69 33.08 L157.06 33.08 L157.06 34.15 L157.96 34.15 L157.96 33.08 L158.34 33.08 L158.34 32.43" data-layerIndex="35" stroke-linecap="round" fill="#000000FF" />
  </g>
</svg>